<svg width="52" height="52" viewBox="0 0 52 52" fill="none" xmlns="http://www.w3.org/2000/svg">
    <rect x="0.554688" y="0.666016" width="50.6667" height="50.6667" rx="25.3333" fill="#1E293B"/>
    <path d="M17.6367 30.25V21.75C17.6367 21.1977 18.0844 20.75 18.6367 20.75H33.1367C33.689 20.75 34.1367 21.1977 34.1367 21.75V30.25C34.1367 30.8023 33.689 31.25 33.1367 31.25H18.6367C18.0844 31.25 17.6367 30.8023 17.6367 30.25Z" stroke="#94A3B8" stroke-width="1.5"/>
    <circle cx="25.8867" cy="26" r="2" stroke="#94A3B8" stroke-width="1.5"/>
    <path d="M21.1367 21C21.1367 21.4268 21.0527 21.8494 20.8893 22.2437C20.726 22.638 20.4866 22.9963 20.1848 23.2981C19.883 23.5999 19.5247 23.8393 19.1304 24.0026C18.7361 24.1659 18.3135 24.25 17.8867 24.25" stroke="#94A3B8" stroke-width="1.5"/>
    <path d="M30.6367 21C30.6367 21.4268 30.7208 21.8494 30.8841 22.2437C31.0474 22.638 31.2868 22.9963 31.5886 23.2981C31.8904 23.5999 32.2487 23.8393 32.643 24.0026C33.0373 24.1659 33.4599 24.25 33.8867 24.25" stroke="#94A3B8" stroke-width="1.5"/>
    <path d="M21.1367 31C21.1367 30.5732 21.0527 30.1506 20.8893 29.7563C20.726 29.362 20.4866 29.0037 20.1848 28.7019C19.883 28.4001 19.5247 28.1607 19.1304 27.9974C18.7361 27.8341 18.3135 27.75 17.8867 27.75" stroke="#94A3B8" stroke-width="1.5"/>
    <path d="M30.6367 31C30.6367 30.5732 30.7208 30.1506 30.8841 29.7563C31.0474 29.362 31.2868 29.0037 31.5886 28.7019C31.8904 28.4001 32.2487 28.1607 32.643 27.9974C33.0373 27.8341 33.4599 27.75 33.8867 27.75" stroke="#94A3B8" stroke-width="1.5"/>
</svg>
