<svg width="32" height="32" viewBox="0 0 32 32" fill="none" xmlns="http://www.w3.org/2000/svg">
    <path d="M32 15.9997C32 20.2433 30.3143 24.313 27.3136 27.3136C24.313 30.3143 20.2433 32 15.9997 32C11.7564 31.9999 7.68687 30.3141 4.68637 27.3136C1.68587 24.3131 0.000145972 20.2436 0 16.0003C-2.51088e-09 11.7568 1.68567 7.68719 4.68618 4.68657C7.68669 1.68595 11.7563 0.000145978 15.9997 0C20.2432 -2.51088e-09 24.3128 1.68566 27.3134 4.68618C30.3141 7.68669 31.9999 11.7563 32 15.9997Z"
          fill="#E7ECEF"/>
    <path d="M18.1882 26.1374C18.0661 26.1374 17.9479 26.0946 17.8541 26.0163C17.7955 25.9673 17.7484 25.9061 17.7161 25.837C17.6837 25.7678 17.667 25.6924 17.667 25.6161V21.3129C17.6671 21.1908 17.71 21.0726 17.7882 20.9788C17.8665 20.8851 17.9751 20.8218 18.0952 20.7999C19.2775 20.5833 20.3674 20.0162 21.2233 19.1723C21.3923 19.0038 21.5493 18.8237 21.6933 18.6334C20.1973 17.1429 18.4756 17.7852 16.4819 18.5283L15.8831 18.7485C13.8465 19.508 11.5347 20.3689 9.56474 18.3984C8.93039 17.7501 8.53218 16.9075 8.43396 16.0058C8.33575 15.1041 8.54323 14.1955 9.02312 13.4259C7.9509 11.7575 8.31803 9.50739 10.0403 7.78456C11.0464 6.79127 12.3282 6.12366 13.7188 5.86854C13.7939 5.85485 13.8711 5.85786 13.9449 5.87736C14.0187 5.89686 14.0874 5.93237 14.1459 5.98137C14.2045 6.03028 14.2517 6.09147 14.284 6.16063C14.3164 6.22978 14.3331 6.3052 14.3331 6.38154V10.6897C14.333 10.8117 14.2902 10.9299 14.2121 11.0236C14.1339 11.1173 14.0254 11.1807 13.9054 11.2027C12.7231 11.4193 11.6332 11.9864 10.7773 12.8303C10.6085 12.9989 10.4514 13.179 10.3073 13.3692C11.8033 14.8592 13.525 14.2174 15.5187 13.4737L16.1175 13.2536C18.1541 12.4934 20.4659 11.6326 22.4359 13.6036C22.8385 14.003 23.148 14.4864 23.3421 15.0192C23.5362 15.5521 23.6102 16.1212 23.5587 16.686C23.4985 17.348 23.2997 17.99 22.9753 18.5701C24.0497 20.2363 23.6842 22.4891 21.9581 24.2131C20.9524 25.2061 19.6713 25.8737 18.2813 26.1291C18.2504 26.1347 18.2191 26.1375 18.1877 26.1374H18.1882ZM18.7089 21.734V24.9561C19.6568 24.6796 20.5207 24.1709 21.2222 23.4761C22.4331 22.2651 22.8157 20.7443 22.3049 19.5361C22.1948 19.6642 22.0797 19.7891 21.9597 19.911C21.0606 20.8001 19.938 21.4297 18.7106 21.7334L18.7089 21.734ZM9.7662 14.29C9.49704 14.839 9.40398 15.4576 9.49975 16.0615C9.59551 16.6653 9.87542 17.2248 10.3012 17.6636C11.7984 19.1607 13.5217 18.5178 15.5176 17.7737L16.1164 17.5535C18.0853 16.8198 20.3079 15.9914 22.2333 17.7131C22.3878 17.3602 22.4839 16.9845 22.5179 16.6007C22.5562 16.1865 22.5026 15.769 22.3607 15.378C22.2188 14.987 21.9922 14.6322 21.6972 14.339C20.2 12.8419 18.4767 13.4848 16.4808 14.2289L15.882 14.4491C13.9136 15.1828 11.691 16.0118 9.76565 14.2906L9.7662 14.29ZM13.2884 7.04534C12.3406 7.322 11.4767 7.83072 10.7751 8.52544C9.56419 9.73637 9.18164 11.2566 9.69189 12.4643C9.80197 12.3373 9.91738 12.2125 10.0381 12.09C10.9373 11.2003 12.0603 10.5704 13.2884 10.267V7.04534Z"
          fill="#E7ECEF"/>
    <path d="M16.001 7.99976C20.4347 7.99976 24.001 11.566 24.001 15.9998C24.001 20.4335 20.4347 23.9998 16.001 23.9998C11.5672 23.9998 8.00098 20.4335 8.00098 15.9998C8.00098 11.566 11.5672 7.99976 16.001 7.99976ZM12.2419 10.9877L21.013 19.7588C21.7841 18.7467 22.266 17.4455 22.266 15.9998C22.266 12.5781 19.4709 9.7347 16.001 9.7347C14.6034 9.7347 13.3022 10.2166 12.2419 10.9877ZM19.76 21.0118L10.9889 12.2407C10.2178 13.301 9.73592 14.6022 9.73592 15.9998C9.73592 19.4696 12.5793 22.2648 16.001 22.2648C17.4468 22.2648 18.748 21.7829 19.76 21.0118Z"
          fill="#404B51"/>
</svg>
