<svg width="73" height="72" viewBox="0 0 73 72" fill="none" xmlns="http://www.w3.org/2000/svg">
    <rect x="0.666504" width="72" height="72" rx="36" fill="#66AB82"/>
    <g clip-path="url(#clip0_2758_4198)">
        <path d="M52.6665 36C52.6665 36.2652 52.5611 36.5196 52.3736 36.7071C52.1861 36.8946 51.9317 37 51.6665 37H43.594C43.3525 38.665 42.5194 40.1873 41.2472 41.2882C39.9751 42.3892 38.3489 42.9951 36.6665 42.9951C34.9841 42.9951 33.358 42.3892 32.0858 41.2882C30.8136 40.1873 29.9805 38.665 29.739 37H21.6665C21.4013 37 21.1469 36.8946 20.9594 36.7071C20.7719 36.5196 20.6665 36.2652 20.6665 36C20.6665 35.7348 20.7719 35.4804 20.9594 35.2929C21.1469 35.1053 21.4013 35 21.6665 35H29.739C29.9805 33.335 30.8136 31.8127 32.0858 30.7117C33.358 29.6108 34.9841 29.0049 36.6665 29.0049C38.3489 29.0049 39.9751 29.6108 41.2472 30.7117C42.5194 31.8127 43.3525 33.335 43.594 35H51.6665C51.9317 35 52.1861 35.1053 52.3736 35.2929C52.5611 35.4804 52.6665 35.7348 52.6665 36Z" fill="white"/>
    </g>
    <defs>
        <clipPath id="clip0_2758_4198">
            <rect width="32" height="32" fill="white" transform="translate(20.6665 20)"/>
        </clipPath>
    </defs>
</svg>
