<svg width="72" height="72" viewBox="0 0 72 72" fill="none" xmlns="http://www.w3.org/2000/svg">
    <rect width="72" height="72" rx="36" fill="#63B7DA"/>
    <path d="M25 41.6667V30.3333C25 29.597 25.597 29 26.3333 29H45.6667C46.403 29 47 29.597 47 30.3333V41.6667C47 42.403 46.403 43 45.6667 43H26.3333C25.597 43 25 42.403 25 41.6667Z" stroke="#F8FAFC" stroke-width="2"/>
    <circle cx="35.9997" cy="36" r="2.66667" stroke="#F8FAFC" stroke-width="2"/>
    <path d="M29.6667 29.3333C29.6667 29.9024 29.5546 30.4659 29.3368 30.9916C29.119 31.5174 28.7999 31.9951 28.3975 32.3975C27.9951 32.7999 27.5174 33.119 26.9916 33.3368C26.4659 33.5546 25.9024 33.6667 25.3333 33.6667" stroke="#F8FAFC" stroke-width="2"/>
    <path d="M42.3333 29.3333C42.3333 29.9024 42.4454 30.4659 42.6632 30.9916C42.881 31.5174 43.2001 31.9951 43.6025 32.3975C44.0049 32.7999 44.4826 33.119 45.0084 33.3368C45.5341 33.5546 46.0976 33.6667 46.6667 33.6667" stroke="#F8FAFC" stroke-width="2"/>
    <path d="M29.6667 42.6667C29.6667 42.0976 29.5546 41.5341 29.3368 41.0084C29.119 40.4826 28.7999 40.0049 28.3975 39.6025C27.9951 39.2001 27.5174 38.881 26.9916 38.6632C26.4659 38.4454 25.9024 38.3333 25.3333 38.3333" stroke="#F8FAFC" stroke-width="2"/>
    <path d="M42.3333 42.6667C42.3333 42.0976 42.4454 41.5341 42.6632 41.0084C42.881 40.4826 43.2001 40.0049 43.6025 39.6025C44.0049 39.2001 44.4826 38.881 45.0084 38.6632C45.5341 38.4454 46.0976 38.3333 46.6667 38.3333" stroke="#F8FAFC" stroke-width="2"/>
</svg>
