<svg width="73" height="72" viewBox="0 0 73 72" fill="none" xmlns="http://www.w3.org/2000/svg">
    <rect x="0.333496" width="72" height="72" rx="36" fill="#E2A56D"/>
    <path fill-rule="evenodd" clip-rule="evenodd" d="M34.3339 37.6782C34.3277 38.2252 33.8824 38.6667 33.334 38.6667C32.7817 38.6667 32.334 38.219 32.334 37.6667V37H29.334C28.7817 37 28.334 36.5523 28.334 36C28.334 35.4477 28.7817 35 29.334 35H32.334V34.3333C32.334 33.7811 32.7817 33.3333 33.334 33.3333C33.8824 33.3333 34.3277 33.7748 34.3339 34.3218C34.3339 34.3257 34.3338 34.3295 34.3338 34.3334L34.3338 37.6667C34.3338 37.6705 34.3339 37.6744 34.3339 37.6782ZM35.6672 35H43.334C43.8863 35 44.334 35.4477 44.334 36C44.334 36.5523 43.8863 37 43.334 37H35.6672L35.6672 35Z" fill="#F8FAFC"/>
    <path fill-rule="evenodd" clip-rule="evenodd" d="M40.334 32.6667V32H43.334C43.8863 32 44.334 31.5523 44.334 31C44.334 30.4477 43.8863 30 43.334 30H40.334V29.3333C40.334 28.7811 39.8863 28.3333 39.334 28.3333C38.7817 28.3333 38.334 28.7811 38.334 29.3333V30H38.3338L38.3338 32H38.334V32.6667C38.334 33.219 38.7817 33.6667 39.334 33.6667C39.8863 33.6667 40.334 33.219 40.334 32.6667ZM37.0005 32L37.0005 30H29.334C28.7817 30 28.334 30.4477 28.334 31C28.334 31.5523 28.7817 32 29.334 32H37.0005Z" fill="#F8FAFC"/>
    <path fill-rule="evenodd" clip-rule="evenodd" d="M40.334 42.6667V42H43.334C43.8863 42 44.334 41.5523 44.334 41C44.334 40.4477 43.8863 40 43.334 40H40.334V39.3333C40.334 38.7811 39.8863 38.3333 39.334 38.3333C38.7817 38.3333 38.334 38.7811 38.334 39.3333V40H38.3338L38.3338 42H38.334V42.6667C38.334 43.219 38.7817 43.6667 39.334 43.6667C39.8863 43.6667 40.334 43.219 40.334 42.6667ZM37.0005 42L37.0005 40H29.334C28.7817 40 28.334 40.4477 28.334 41C28.334 41.5523 28.7817 42 29.334 42H37.0005Z" fill="#F8FAFC"/>
</svg>
