<svg width="26" height="21" viewBox="0 0 26 21" fill="none" xmlns="http://www.w3.org/2000/svg">
    <g filter="url(#filter0_d_116_3871)">
        <g clip-path="url(#clip0_116_3871)">
            <mask id="mask0_116_3871" style="mask-type:luminance" maskUnits="userSpaceOnUse" x="3" y="1" width="20" height="15">
                <rect x="3" y="1" width="20" height="15" fill="white"/>
            </mask>
            <g mask="url(#mask0_116_3871)">
                <path fill-rule="evenodd" clip-rule="evenodd" d="M3 1H23V16H3V1Z" fill="#E31D1C"/>
                <path fill-rule="evenodd" clip-rule="evenodd" d="M3 2.25V3.5H23V2.25H3ZM3 4.75V6H23V4.75H3ZM3 8.5V7.25H23V8.5H3ZM3 9.75V11H23V9.75H3ZM3 13.5V12.25H23V13.5H3ZM3 16V14.75H23V16H3Z" fill="#F7FCFF"/>
                <rect x="3" y="1" width="11.25" height="8.75" fill="#2E42A5"/>
                <path fill-rule="evenodd" clip-rule="evenodd" d="M4.3 3.71722L4.9624 3.2558L5.47623 3.62572H5.1853L5.77364 4.14609L5.57492 4.87572H5.26369L4.96148 4.2056L4.70375 4.87572H3.9353L4.52364 5.39609L4.3 6.21722L4.9624 5.7558L5.47623 6.12572H5.1853L5.77364 6.64609L5.57492 7.37572H5.26369L4.96148 6.7056L4.70375 7.37572H3.9353L4.52364 7.89609L4.3 8.71722L4.9624 8.2558L5.60332 8.71722L5.40406 7.89609L5.91877 7.37572H5.68136L6.2124 7.0058L6.72623 7.37572H6.4353L7.02364 7.89609L6.8 8.71722L7.4624 8.2558L8.10332 8.71722L7.90406 7.89609L8.41877 7.37572H8.18136L8.7124 7.0058L9.22623 7.37572H8.9353L9.52364 7.89609L9.3 8.71722L9.9624 8.2558L10.6033 8.71722L10.4041 7.89609L10.9188 7.37572H10.6814L11.2124 7.0058L11.7262 7.37572H11.4353L12.0236 7.89609L11.8 8.71722L12.4624 8.2558L13.1033 8.71722L12.9041 7.89609L13.4188 7.37572H12.7637L12.4615 6.7056L12.2037 7.37572H11.8311L11.6541 6.64609L12.1688 6.12572H11.9314L12.4624 5.7558L13.1033 6.21722L12.9041 5.39609L13.4188 4.87572H12.7637L12.4615 4.2056L12.2037 4.87572H11.8311L11.6541 4.14609L12.1688 3.62572H11.9314L12.4624 3.2558L13.1033 3.71722L12.9041 2.89609L13.4188 2.37572H12.7637L12.4615 1.7056L12.2037 2.37572H11.4353L12.0236 2.89609L11.8249 3.62572H11.5137L11.2115 2.9556L10.9537 3.62572H10.5811L10.4041 2.89609L10.9188 2.37572H10.2637L9.96148 1.7056L9.70375 2.37572H8.9353L9.52364 2.89609L9.32492 3.62572H9.01369L8.71148 2.9556L8.45375 3.62572H8.08112L7.90406 2.89609L8.41877 2.37572H7.76369L7.46148 1.7056L7.20375 2.37572H6.4353L7.02364 2.89609L6.82492 3.62572H6.51369L6.21148 2.9556L5.95375 3.62572H5.58112L5.40406 2.89609L5.91877 2.37572H5.26369L4.96148 1.7056L4.70375 2.37572H3.9353L4.52364 2.89609L4.3 3.71722ZM11.8249 6.12572L12.0236 5.39609L11.4353 4.87572H11.7262L11.2124 4.5058L10.6814 4.87572H10.9188L10.4041 5.39609L10.5811 6.12572H10.9537L11.2115 5.4556L11.5137 6.12572H11.8249ZM10.4762 6.12572L9.9624 5.7558L9.43136 6.12572H9.66877L9.15406 6.64609L9.33112 7.37572H9.70375L9.96148 6.7056L10.2637 7.37572H10.5749L10.7736 6.64609L10.1853 6.12572H10.4762ZM8.27364 6.64609L8.07492 7.37572H7.76369L7.46148 6.7056L7.20375 7.37572H6.83112L6.65406 6.64609L7.16877 6.12572H6.93136L7.4624 5.7558L7.97623 6.12572H7.6853L8.27364 6.64609ZM8.45375 6.12572H8.08112L7.90406 5.39609L8.41877 4.87572H8.18136L8.7124 4.5058L9.22623 4.87572H8.9353L9.52364 5.39609L9.32492 6.12572H9.01369L8.71148 5.4556L8.45375 6.12572ZM6.82492 6.12572L7.02364 5.39609L6.4353 4.87572H6.72623L6.2124 4.5058L5.68136 4.87572H5.91877L5.40406 5.39609L5.58112 6.12572H5.95375L6.21148 5.4556L6.51369 6.12572H6.82492ZM10.7736 4.14609L10.5749 4.87572H10.2637L9.96148 4.2056L9.70375 4.87572H9.33112L9.15406 4.14609L9.66877 3.62572H9.43136L9.9624 3.2558L10.4762 3.62572H10.1853L10.7736 4.14609ZM7.97623 3.62572L7.4624 3.2558L6.93136 3.62572H7.16877L6.65406 4.14609L6.83112 4.87572H7.20375L7.46148 4.2056L7.76369 4.87572H8.07492L8.27364 4.14609L7.6853 3.62572H7.97623Z" fill="#F7FCFF"/>
            </g>
            <rect x="3" y="1" width="20" height="15" fill="url(#paint0_linear_116_3871)" style="mix-blend-mode:overlay"/>
        </g>
        <rect x="3.5" y="1.5" width="19" height="14" rx="1" stroke="black" stroke-opacity="0.1" style="mix-blend-mode:multiply"/>
    </g>
    <defs>
        <filter id="filter0_d_116_3871" x="0" y="0" width="26" height="21" filterUnits="userSpaceOnUse" color-interpolation-filters="sRGB">
            <feFlood flood-opacity="0" result="BackgroundImageFix"/>
            <feColorMatrix in="SourceAlpha" type="matrix" values="0 0 0 0 0 0 0 0 0 0 0 0 0 0 0 0 0 0 127 0" result="hardAlpha"/>
            <feOffset dy="2"/>
            <feGaussianBlur stdDeviation="1.5"/>
            <feColorMatrix type="matrix" values="0 0 0 0 0 0 0 0 0 0 0 0 0 0 0 0 0 0 0.1 0"/>
            <feBlend mode="normal" in2="BackgroundImageFix" result="effect1_dropShadow_116_3871"/>
            <feBlend mode="normal" in="SourceGraphic" in2="effect1_dropShadow_116_3871" result="shape"/>
        </filter>
        <linearGradient id="paint0_linear_116_3871" x1="13" y1="1" x2="13" y2="16" gradientUnits="userSpaceOnUse">
            <stop stop-color="white" stop-opacity="0.7"/>
            <stop offset="1" stop-opacity="0.3"/>
        </linearGradient>
        <clipPath id="clip0_116_3871">
            <rect x="3" y="1" width="20" height="15" rx="1.5" fill="white"/>
        </clipPath>
    </defs>
</svg>
