<svg width="263" height="26" viewBox="0 0 263 26" fill="none" xmlns="http://www.w3.org/2000/svg">
    <g clip-path="url(#clip0_2647_314)">
        <path fill-rule="evenodd" clip-rule="evenodd" d="M37.399 17.2167C38.8506 15.9056 39.4125 14.7821 39.4125 12.9557C39.4125 11.1296 38.8506 9.95899 37.3983 8.69465L29.9069 2.09217C28.4558 0.828154 27.0039 0.0788574 24.803 0.0788574H0.0794067V25.8327H24.803C27.0039 25.8327 28.4553 25.1301 29.9069 23.8191L37.399 17.2167ZM32.1957 9.3592C32.5319 10.1708 32.7049 11.0407 32.7049 11.9193V13.8991C32.6997 15.6965 31.9833 17.4189 30.7123 18.6898C29.4413 19.9608 27.719 20.6772 25.9215 20.6824H5.69849V5.22959H26.0151C26.8936 5.22957 27.7635 5.40259 28.5752 5.73877C29.3868 6.07494 30.1243 6.5677 30.7455 7.1889C31.3667 7.81009 31.8595 8.54756 32.1957 9.3592ZM126.196 17.2167C127.648 15.9056 128.209 14.7821 128.209 12.9557C128.209 11.1296 127.648 9.95899 126.196 8.69465L118.704 2.09217C117.253 0.828154 115.801 0.0788574 113.6 0.0788574H88.8764V25.8327H113.6C115.801 25.8327 117.252 25.1301 118.704 23.8191L126.196 17.2167ZM120.992 9.3592C121.329 10.1708 121.502 11.0407 121.502 11.9193V13.8991C121.496 15.6965 120.78 17.4188 119.509 18.6898C118.238 19.9608 116.516 20.6772 114.719 20.6824H94.4955V5.22959H114.812C115.69 5.22957 116.56 5.40259 117.372 5.73877C118.184 6.07494 118.921 6.5677 119.542 7.1889C120.164 7.81009 120.656 8.54756 120.992 9.3592ZM56.6446 5.22959H82.4866V0.0788574H57.7631C55.5622 0.0788574 54.1103 0.781305 52.6592 2.09249L45.1669 8.69465C43.7153 10.0057 43.1534 11.1295 43.1534 12.9557C43.1534 14.7819 43.7153 15.9524 45.1669 17.2167L52.6591 23.8191C54.1108 25.0834 55.5621 25.8324 57.763 25.8324H82.4866V20.682H56.5509C55.0444 20.6817 53.5822 20.1731 52.4008 19.2384C51.2194 18.3037 50.388 16.9977 50.0412 15.5317H82.4874V10.3805H50.0624C50.4311 8.9125 51.2783 7.60917 52.4703 6.67639C53.6622 5.7436 55.131 5.23453 56.6446 5.22959ZM253.415 2.09217L260.907 8.69465C262.359 9.95899 262.921 11.1295 262.921 12.9557C262.921 14.7819 262.359 15.9056 260.907 17.2167L253.415 23.8191C251.964 25.1301 250.512 25.8325 248.311 25.8325H223.587V0.0788574H248.311C250.512 0.0788574 251.964 0.827836 253.415 2.09217ZM253.673 6.6735C252.492 5.7387 251.03 5.22994 249.523 5.22959H229.206V10.3805H256.033C255.686 8.91444 254.855 7.6083 253.673 6.6735ZM229.206 20.6824H249.429L249.43 20.682C250.943 20.677 252.412 20.168 253.604 19.2353C254.796 18.3027 255.643 16.9995 256.012 15.5317H229.206V20.6824ZM211.578 0.0788574V20.682H189.977C189.12 20.682 188.272 20.5131 187.481 20.1851C186.69 19.857 185.971 19.3762 185.366 18.7701C184.761 18.1641 184.281 17.4446 183.955 16.653C183.628 15.8614 183.46 15.0131 183.462 14.1567L183.483 0.0788574H177.864V12.8456C177.864 15.0465 178.567 16.4508 179.878 17.9497L185.841 23.8192C187.339 25.1304 188.744 25.8325 190.945 25.8325H217.197V0.0788574H211.578ZM140.725 2.09217C142.223 0.781144 143.628 0.0788574 145.829 0.0788574H172.081V25.8325H166.463V11.3256L164.239 13.5184C162.74 14.8293 161.336 15.5317 159.135 15.5317H138.367V25.8325H132.748V13.0658C132.748 10.865 133.45 9.46031 134.762 7.96188L140.725 2.09217ZM138.337 10.3805H160.271C161.762 10.3804 163.209 9.86896 164.368 8.93155C165.528 7.99415 166.331 6.68744 166.644 5.22944H144.708C143.217 5.22969 141.772 5.74119 140.612 6.6786C139.453 7.61601 138.65 8.92264 138.337 10.3805Z" fill="url(#paint0_linear_2647_314)"/>
    </g>
    <defs>
        <linearGradient id="paint0_linear_2647_314" x1="2" y1="2.5" x2="262.921" y2="12.9558" gradientUnits="userSpaceOnUse">
            <stop stop-color="#64748B"/>
            <stop offset="1" stop-color="#1B1F25"/>
        </linearGradient>
        <clipPath id="clip0_2647_314">
            <rect width="263" height="25.9126" fill="white"/>
        </clipPath>
    </defs>
</svg>
