<svg width="1440" height="1632" viewBox="0 0 1440 1632" fill="none" xmlns="http://www.w3.org/2000/svg">
    <g clip-path="url(#clip0_928_702)">
        <path d="M374.594 965.184C410.562 959.42 439.249 950.404 460.607 938.095L460.618 938.089L460.628 938.083C481.992 925.047 496.835 908.355 505.088 887.999C514.13 867.706 518.63 843.113 518.63 814.255C518.63 785.398 514.13 760.805 505.088 740.511C496.834 720.153 481.988 703.819 460.618 691.501C439.255 678.468 410.563 669.09 374.594 663.326M374.594 965.184L374.436 964.197L374.598 965.184C374.596 965.184 374.595 965.184 374.594 965.184ZM374.594 965.184C339.438 970.949 295.32 973.827 242.257 973.827H-379.474H-380.474V972.827V655.684V654.684H-379.474H242.257C295.32 654.684 339.438 657.562 374.594 663.326M374.594 663.326L374.436 664.314L374.598 663.327C374.596 663.327 374.595 663.326 374.594 663.326ZM1527.52 1094.2L1527.52 1094.2C1550.51 1012.53 1562 919.397 1562 814.803C1562 711.001 1550.51 618.656 1527.52 537.782C1504.53 456.927 1472.02 386.352 1429.99 326.071C1388.74 265.004 1338.78 213.843 1280.08 172.597C1221.4 130.573 1155.99 96.8778 1083.85 71.51C1012.52 46.1467 935.643 27.9198 853.232 16.8258C770.832 4.94146 684.871 -1 595.351 -1H-438H-439V0V346.092V347.092H-438H304.675C427.008 347.092 530.539 358.234 615.286 380.5L615.288 380.5C700.869 402.77 770.089 434.364 822.988 475.251L822.994 475.255C876.714 516.146 915.353 565.627 938.942 623.699L938.945 623.706L938.948 623.714C963.366 681.106 975.585 745.333 975.585 816.413C975.585 878.871 965.403 933.385 945.071 979.978L945.068 979.985L945.065 979.991C925.532 1026.62 898.679 1066.78 864.51 1100.48L864.509 1100.48C831.134 1133.49 792.054 1161.47 747.263 1184.44C702.442 1207.43 655.174 1226.46 605.459 1241.55L603.917 1242.02L605.021 1243.19L941.146 1600.68L941.531 1601.09L942.083 1600.97C992.412 1590.24 1040.46 1576.74 1086.23 1560.47C1157.58 1535.1 1222.2 1501.41 1280.09 1459.38C1338.78 1417.34 1388.74 1366.19 1429.98 1305.91C1472.02 1245.63 1504.53 1175.06 1527.52 1094.2ZM442.259 1632.98H444.56L442.991 1631.3L116.928 1281.74L116.632 1281.42H116.197H-379.474H-380.474V1282.42V1631.98V1632.98H-379.474H442.259Z" stroke="url(#paint0_linear_928_702)" stroke-opacity="0.16" stroke-width="2"/>
    </g>
    <defs>
        <linearGradient id="paint0_linear_928_702" x1="561.5" y1="0" x2="561.5" y2="1631.98" gradientUnits="userSpaceOnUse">
            <stop stop-color="#515566"/>
            <stop offset="0.471568" stop-color="#525667"/>
            <stop offset="0.947917" stop-color="#363948" stop-opacity="0.51"/>
        </linearGradient>
        <clipPath id="clip0_928_702">
            <rect width="1440" height="1632" fill="white"/>
        </clipPath>
    </defs>
</svg>
