<svg width="800" height="800" viewBox="0 0 800 800" fill="none" xmlns="http://www.w3.org/2000/svg">
    <circle cx="400" cy="400" r="400" fill="#3B82F6"/>
    <path d="M324.788 558.005L239.727 460.537L396.192 448.102C425.811 445.748 425.704 402.319 396.073 400.112L238 388.338L239.727 227H389.322C418.587 227 445.541 234.316 470.184 248.948C495.213 263.58 515.044 283.411 529.676 308.44C544.308 333.083 551.624 360.037 551.624 389.302V466.698C551.624 495.963 544.308 523.109 529.676 548.138C515.044 572.782 495.213 592.42 470.184 607.052C445.541 621.684 418.587 629 389.322 629L324.788 558.005Z" fill="white"/>
</svg>
