<svg width="321" height="544" viewBox="0 0 321 544" fill="none" xmlns="http://www.w3.org/2000/svg">
    <path d="M210.326 191.65V182.074H211.496V191.65H210.326ZM216.225 191.81C214.203 191.81 212.993 190.427 212.993 188.126C212.993 185.732 214.243 184.415 216.225 184.415C218.246 184.415 219.457 185.825 219.457 188.126C219.457 190.507 218.206 191.81 216.225 191.81ZM216.225 190.799C217.541 190.799 218.26 189.855 218.26 188.126C218.26 186.41 217.528 185.426 216.225 185.426C214.908 185.426 214.19 186.384 214.19 188.126C214.19 189.828 214.921 190.799 216.225 190.799ZM226.802 187.022H225.631C225.445 185.945 224.727 185.426 223.796 185.426C222.492 185.426 221.801 186.384 221.801 188.126C221.801 189.842 222.532 190.812 223.836 190.812C224.78 190.812 225.458 190.307 225.684 189.296H226.855C226.536 191.052 225.352 191.81 223.809 191.81C221.801 191.81 220.604 190.413 220.604 188.126C220.604 185.732 221.827 184.415 223.796 184.415C225.352 184.415 226.576 185.293 226.802 187.022ZM228.301 191.65V182.074H229.472V187.62L232.517 184.588H233.954L230.735 187.74L234.14 191.65H232.65L229.472 188.046V191.65H228.301ZM240.783 189.349C240.398 190.999 239.214 191.81 237.605 191.81C235.556 191.81 234.319 190.427 234.319 188.126C234.319 185.732 235.556 184.415 237.538 184.415C239.533 184.415 240.73 185.785 240.73 188.033V188.325H235.516C235.583 189.908 236.328 190.799 237.605 190.799C238.602 190.799 239.307 190.32 239.56 189.349H240.783ZM237.538 185.426C236.408 185.426 235.729 186.131 235.556 187.448H239.506C239.347 186.144 238.642 185.426 237.538 185.426ZM244.936 191.81C243.061 191.81 241.931 190.427 241.931 188.126C241.931 185.732 243.088 184.415 244.936 184.415C245.774 184.415 246.453 184.761 246.918 185.413V182.074H248.088V191.65H246.918V190.759C246.453 191.424 245.774 191.81 244.936 191.81ZM245.016 190.799C246.253 190.799 246.918 189.855 246.918 188.126C246.918 186.41 246.226 185.426 245.016 185.426C243.793 185.426 243.128 186.384 243.128 188.126C243.128 189.828 243.819 190.799 245.016 190.799ZM255.262 191.81C253.387 191.81 252.256 190.427 252.256 188.126C252.256 185.732 253.413 184.415 255.262 184.415C256.1 184.415 256.778 184.761 257.244 185.413V182.074H258.414V191.65H257.244V190.759C256.778 191.424 256.1 191.81 255.262 191.81ZM255.342 190.799C256.579 190.799 257.244 189.855 257.244 188.126C257.244 186.41 256.552 185.426 255.342 185.426C254.118 185.426 253.453 186.384 253.453 188.126C253.453 189.828 254.145 190.799 255.342 190.799ZM262.859 191.65V183.644H259.76V182.606H267.181V183.644H264.082V191.65H262.859ZM270.204 191.81C268.182 191.81 266.972 190.427 266.972 188.126C266.972 185.732 268.222 184.415 270.204 184.415C272.225 184.415 273.436 185.825 273.436 188.126C273.436 190.507 272.186 191.81 270.204 191.81ZM270.204 190.799C271.521 190.799 272.239 189.855 272.239 188.126C272.239 186.41 271.507 185.426 270.204 185.426C268.887 185.426 268.169 186.384 268.169 188.126C268.169 189.828 268.9 190.799 270.204 190.799ZM274.942 191.65V182.074H276.113V187.62L279.158 184.588H280.595L277.376 187.74L280.781 191.65H279.291L276.113 188.046V191.65H274.942ZM287.424 189.349C287.038 190.999 285.855 191.81 284.245 191.81C282.197 191.81 280.96 190.427 280.96 188.126C280.96 185.732 282.197 184.415 284.179 184.415C286.174 184.415 287.371 185.785 287.371 188.033V188.325H282.157C282.224 189.908 282.969 190.799 284.245 190.799C285.243 190.799 285.948 190.32 286.201 189.349H287.424ZM284.179 185.426C283.048 185.426 282.37 186.131 282.197 187.448H286.147C285.988 186.144 285.283 185.426 284.179 185.426ZM288.931 191.65V184.588H290.101V185.546C290.58 184.801 291.351 184.415 292.282 184.415C293.785 184.415 294.676 185.293 294.676 186.929V191.65H293.506V187.168C293.506 186.104 293.027 185.413 291.963 185.413C290.793 185.413 290.101 186.463 290.101 187.474V191.65H288.931ZM210.432 209.65V200.606H211.709L215.872 206.99L216.39 207.881V200.606H217.614V209.65H216.337L212.188 203.306L211.656 202.375V209.65H210.432ZM219.693 209.65V200.606H225.824V201.604H220.916V204.703H225.332V205.7H220.916V209.65H219.693ZM229.803 209.65V201.644H226.705V200.606H234.126V201.644H231.027V209.65H229.803Z" fill="#475569"/>
    <path d="M212.972 338.109C211.097 338.109 209.966 336.726 209.966 334.425C209.966 332.031 211.124 330.714 212.972 330.714C213.81 330.714 214.488 331.06 214.954 331.712V328.373H216.124V337.949H214.954V337.058C214.488 337.723 213.81 338.109 212.972 338.109ZM213.052 337.098C214.289 337.098 214.954 336.154 214.954 334.425C214.954 332.709 214.262 331.725 213.052 331.725C211.828 331.725 211.163 332.682 211.163 334.425C211.163 336.127 211.855 337.098 213.052 337.098ZM220.569 337.949V329.943H217.47V328.905H224.891V329.943H221.792V337.949H220.569ZM227.914 338.109C225.892 338.109 224.682 336.726 224.682 334.425C224.682 332.031 225.932 330.714 227.914 330.714C229.936 330.714 231.146 332.124 231.146 334.425C231.146 336.805 229.896 338.109 227.914 338.109ZM227.914 337.098C229.231 337.098 229.949 336.154 229.949 334.425C229.949 332.709 229.217 331.725 227.914 331.725C226.597 331.725 225.879 332.682 225.879 334.425C225.879 336.127 226.611 337.098 227.914 337.098ZM232.652 337.949V328.373H233.823V333.919L236.868 330.887H238.305L235.086 334.039L238.491 337.949H237.001L233.823 334.345V337.949H232.652ZM245.134 335.648C244.749 337.298 243.565 338.109 241.956 338.109C239.907 338.109 238.671 336.726 238.671 334.425C238.671 332.031 239.907 330.714 241.889 330.714C243.884 330.714 245.081 332.084 245.081 334.332V334.624H239.868C239.934 336.207 240.679 337.098 241.956 337.098C242.953 337.098 243.658 336.619 243.911 335.648H245.134ZM241.889 331.725C240.759 331.725 240.08 332.43 239.907 333.746H243.858C243.698 332.443 242.993 331.725 241.889 331.725ZM246.641 337.949V330.887H247.811V331.845C248.29 331.1 249.061 330.714 249.992 330.714C251.495 330.714 252.386 331.592 252.386 333.228V337.949H251.216V333.467C251.216 332.403 250.737 331.712 249.673 331.712C248.503 331.712 247.811 332.762 247.811 333.773V337.949H246.641Z" fill="#475569"/>
    <path d="M255.722 248.81C253.847 248.81 252.716 247.427 252.716 245.126C252.716 242.732 253.874 241.415 255.722 241.415C256.56 241.415 257.238 241.761 257.704 242.413V239.074H258.874V248.65H257.704V247.759C257.238 248.424 256.56 248.81 255.722 248.81ZM255.802 247.799C257.039 247.799 257.704 246.855 257.704 245.126C257.704 243.41 257.012 242.426 255.802 242.426C254.578 242.426 253.913 243.384 253.913 245.126C253.913 246.828 254.605 247.799 255.802 247.799ZM263.319 248.65V240.644H260.22V239.606H267.641V240.644H264.542V248.65H263.319ZM270.664 248.81C268.642 248.81 267.432 247.427 267.432 245.126C267.432 242.732 268.682 241.415 270.664 241.415C272.686 241.415 273.896 242.825 273.896 245.126C273.896 247.507 272.646 248.81 270.664 248.81ZM270.664 247.799C271.981 247.799 272.699 246.855 272.699 245.126C272.699 243.41 271.967 242.426 270.664 242.426C269.347 242.426 268.629 243.384 268.629 245.126C268.629 246.828 269.361 247.799 270.664 247.799ZM275.402 248.65V239.074H276.573V244.62L279.618 241.588H281.055L277.836 244.74L281.241 248.65H279.751L276.573 245.046V248.65H275.402ZM287.884 246.349C287.499 247.999 286.315 248.81 284.706 248.81C282.657 248.81 281.421 247.427 281.421 245.126C281.421 242.732 282.657 241.415 284.639 241.415C286.634 241.415 287.831 242.785 287.831 245.033V245.325H282.618C282.684 246.908 283.429 247.799 284.706 247.799C285.703 247.799 286.408 247.32 286.661 246.349H287.884ZM284.639 242.426C283.509 242.426 282.83 243.131 282.657 244.448H286.608C286.448 243.144 285.743 242.426 284.639 242.426ZM289.391 248.65V241.588H290.561V242.546C291.04 241.801 291.811 241.415 292.742 241.415C294.245 241.415 295.136 242.293 295.136 243.929V248.65H293.966V244.168C293.966 243.104 293.487 242.413 292.423 242.413C291.253 242.413 290.561 243.463 290.561 244.474V248.65H289.391Z" fill="#475569"/>
    <path d="M40.0973 73.9947C38.1289 73.9947 39.7515 78.5832 36.8388 78.5832C35.5221 78.5832 34.6841 77.4128 34.6841 75.7503C34.6841 74.0745 35.4822 72.9041 37.1447 72.6381V73.8085C36.1605 73.9681 35.6152 74.6996 35.6152 75.7902C35.6152 76.8542 36.094 77.4128 36.759 77.4128C38.6875 77.4128 37.0915 72.8775 40.0175 72.8775C41.0948 72.8775 42.079 73.7154 42.079 75.4444C42.079 76.9739 41.3608 78.1044 39.6052 78.3305V77.1601C40.7091 76.9872 41.1214 76.3754 41.1214 75.3779C41.1214 74.5001 40.6825 73.9947 40.0973 73.9947ZM37.1447 86.0797C35.4955 85.694 34.6841 84.5103 34.6841 82.901C34.6841 80.8528 36.0674 79.6159 38.3683 79.6159C40.7623 79.6159 42.079 80.8528 42.079 82.8345C42.079 84.8295 40.7091 86.0265 38.4614 86.0265H38.1688V80.8129C36.5861 80.8794 35.695 81.6242 35.695 82.901C35.695 83.8985 36.1738 84.6034 37.1447 84.8561V86.0797ZM41.0682 82.8345C41.0682 81.704 40.3633 81.0257 39.0466 80.8528V84.8029C40.35 84.6433 41.0682 83.9384 41.0682 82.8345ZM36.8787 87.7458H40.9751V86.7616H41.9061V87.7458H43.5287V88.9162H41.9061V90.4723H40.9751V88.9162H36.8787C36.0275 88.9162 35.6285 89.1689 35.6285 90.2063V90.4457H34.7905C34.724 90.3127 34.6841 90.0201 34.6841 89.6876C34.6841 88.3709 35.3891 87.7458 36.8787 87.7458ZM36.8787 91.7462H40.9751V90.762H41.9061V91.7462H43.5287V92.9166H41.9061V94.4727H40.9751V92.9166H36.8787C36.0275 92.9166 35.6285 93.1693 35.6285 94.2067V94.4461H34.7905C34.724 94.3131 34.6841 94.0205 34.6841 93.688C34.6841 92.3713 35.3891 91.7462 36.8787 91.7462ZM34.8438 95.587L44.4198 95.587V96.7574H34.8438V95.587ZM37.1447 104.718C35.4955 104.332 34.6841 103.149 34.6841 101.539C34.6841 99.491 36.0674 98.2541 38.3683 98.2541C40.7623 98.2541 42.079 99.491 42.079 101.473C42.079 103.468 40.7091 104.665 38.4614 104.665H38.1688L38.1688 99.4511C36.5861 99.5176 35.695 100.262 35.695 101.539C35.695 102.537 36.1738 103.242 37.1447 103.494V104.718ZM41.0682 101.473C41.0682 100.342 40.3633 99.6639 39.0466 99.491L39.0466 103.441C40.35 103.282 41.0682 102.577 41.0682 101.473ZM34.6841 108.871C34.6841 106.996 36.0674 105.865 38.3683 105.865C40.7623 105.865 42.079 107.022 42.079 108.871C42.079 109.709 41.7332 110.387 41.0815 110.853H44.4198V112.023H34.8438V110.853H35.7349C35.0699 110.387 34.6841 109.709 34.6841 108.871ZM35.695 108.951C35.695 110.188 36.6393 110.853 38.3683 110.853C40.084 110.853 41.0682 110.161 41.0682 108.951C41.0682 107.727 40.1106 107.062 38.3683 107.062C36.6659 107.062 35.695 107.754 35.695 108.951ZM36.8787 116.71H40.9751V115.725H41.9061V116.71H43.5287V117.88H41.9061V119.436H40.9751V117.88H36.8787C36.0275 117.88 35.6285 118.133 35.6285 119.17V119.41H34.7905C34.724 119.277 34.6841 118.984 34.6841 118.651C34.6841 117.335 35.3891 116.71 36.8787 116.71ZM34.8438 120.55H41.9061V121.721H40.8155C41.68 122.2 42.079 122.958 42.079 123.809C42.079 124.088 42.0125 124.341 41.9061 124.474H40.8554C40.9219 124.274 40.9485 124.022 40.9485 123.742C40.9485 122.333 40.0707 121.721 38.7939 121.721H34.8438V120.55ZM39.6052 126.459V125.289C41.1613 125.515 42.079 126.539 42.079 128.268C42.079 130.157 40.9751 131.074 39.3259 131.074H36.5462C35.7349 131.074 35.2295 131.141 34.8438 131.327V130.09C35.1231 129.957 35.5354 129.917 35.961 129.904C35.0699 129.306 34.6841 128.348 34.6841 127.497C34.6841 126.034 35.3625 125.05 36.7058 125.05C37.6767 125.05 38.3816 125.582 38.7274 126.619C39.0466 127.577 39.1264 128.547 39.1397 129.904H39.2993C40.4431 129.904 41.0682 129.372 41.0682 128.162C41.0682 127.151 40.5096 126.606 39.6052 126.459ZM36.7324 126.247C36.0807 126.247 35.695 126.792 35.695 127.616C35.695 128.92 36.7191 129.904 37.9294 129.904H38.2619C38.2353 126.898 37.5969 126.247 36.7324 126.247ZM34.6841 135.64C34.6841 133.765 36.0674 132.634 38.3683 132.634C40.7623 132.634 42.079 133.791 42.079 135.64C42.079 136.478 41.7332 137.156 41.0815 137.622H44.4198V138.792H34.8438V137.622H35.7349C35.0699 137.156 34.6841 136.478 34.6841 135.64ZM35.695 135.72C35.695 136.957 36.6393 137.622 38.3683 137.622C40.084 137.622 41.0682 136.93 41.0682 135.72C41.0682 134.496 40.1106 133.831 38.3683 133.831C36.6659 133.831 35.695 134.523 35.695 135.72ZM42.8504 140.656H44.4198V141.827H42.8504V140.656ZM34.8438 140.656H41.9061V141.827H34.8438V140.656ZM34.8438 143.683H41.9061V144.853H40.9485C41.6933 145.332 42.079 146.103 42.079 147.034C42.079 148.537 41.2012 149.428 39.5653 149.428H34.8438V148.258H39.3259C40.3899 148.258 41.0815 147.779 41.0815 146.715C41.0815 145.545 40.0308 144.853 39.02 144.853H34.8438V143.683ZM34.7905 153.807C34.7905 152.012 36.1605 150.935 38.4215 150.935C40.7889 150.935 42.079 152.038 42.079 153.807C42.079 154.752 41.7465 155.457 41.1347 155.922H41.9061V157.092H34.6309C32.6625 157.092 31.7448 155.829 31.7448 154.206C31.7448 152.544 32.5428 151.373 34.1521 151.121V152.291C33.2211 152.437 32.7157 153.169 32.7157 154.193C32.7157 155.23 33.2743 155.922 34.591 155.922H35.8014C35.1364 155.43 34.7905 154.712 34.7905 153.807ZM35.8014 154.02C35.8014 155.257 36.7324 155.922 38.4348 155.922C40.0973 155.922 41.0682 155.23 41.0682 154.02C41.0682 152.797 40.1372 152.132 38.4215 152.132C36.759 152.132 35.8014 152.81 35.8014 154.02ZM34.8438 161.739H43.8878V164.838C43.8878 166.886 42.7972 168.176 41.0283 168.176C39.2062 168.176 38.1422 166.873 38.1422 164.851V162.962H34.8438V161.739ZM42.8903 164.824V162.962H39.1397V164.784C39.1397 166.128 39.8579 166.912 41.015 166.912C42.1588 166.912 42.8903 166.114 42.8903 164.824ZM34.8438 169.633H41.9061V170.804H40.9485C41.6933 171.282 42.079 172.054 42.079 172.985C42.079 174.488 41.2012 175.379 39.5653 175.379H34.8438V174.208H39.3259C40.3899 174.208 41.0815 173.73 41.0815 172.666C41.0815 171.495 40.0308 170.804 39.02 170.804H34.8438V169.633ZM34.8438 177.351H43.8878V178.574H35.8413V183.123H34.8438V177.351Z" fill="#475569"/>
    <path d="M3.31259 305.218V304.287H4.29679V303.809C4.29679 302.319 4.90859 301.614 6.21199 301.614C6.50459 301.614 6.74399 301.667 6.86369 301.72V302.558H6.74399C5.71989 302.558 5.46719 302.957 5.46719 303.809V304.287H6.86369V305.218H5.46719V311.35H4.29679V305.218H3.31259ZM13.9055 309.049C13.5198 310.698 12.3361 311.509 10.7268 311.509C8.67862 311.509 7.44172 310.126 7.44172 307.825C7.44172 305.431 8.67862 304.114 10.6603 304.114C12.6553 304.114 13.8523 305.484 13.8523 307.732V308.025H8.63872C8.70522 309.607 9.45002 310.498 10.7268 310.498C11.7243 310.498 12.4292 310.02 12.6819 309.049H13.9055ZM10.6603 305.125C9.52982 305.125 8.85152 305.83 8.67862 307.147H12.6287C12.4691 305.843 11.7642 305.125 10.6603 305.125ZM21.5167 309.049C21.131 310.698 19.9473 311.509 18.338 311.509C16.2898 311.509 15.0529 310.126 15.0529 307.825C15.0529 305.431 16.2898 304.114 18.2715 304.114C20.2665 304.114 21.4635 305.484 21.4635 307.732V308.025H16.2499C16.3164 309.607 17.0612 310.498 18.338 310.498C19.3355 310.498 20.0404 310.02 20.2931 309.049H21.5167ZM18.2715 305.125C17.141 305.125 16.4627 305.83 16.2898 307.147H20.2399C20.0803 305.843 19.3754 305.125 18.2715 305.125ZM25.4933 305.484L24.7352 306.043L23.9904 304.846L23.2456 306.043L22.4875 305.484L23.3919 304.42L22.022 304.088L22.3146 303.183L23.618 303.715L23.5116 302.306H24.4559L24.3628 303.715L25.6529 303.183L25.9455 304.088L24.5889 304.42L25.4933 305.484ZM35.7066 306.721H34.5362C34.35 305.644 33.6318 305.125 32.7008 305.125C31.3974 305.125 30.7058 306.083 30.7058 307.825C30.7058 309.541 31.4373 310.512 32.7407 310.512C33.685 310.512 34.3633 310.006 34.5894 308.996H35.7598C35.4406 310.751 34.2569 311.509 32.7141 311.509C30.7058 311.509 29.5088 310.113 29.5088 307.825C29.5088 305.431 30.7324 304.114 32.7008 304.114C34.2569 304.114 35.4805 304.992 35.7066 306.721ZM40.0791 311.509C38.0575 311.509 36.8472 310.126 36.8472 307.825C36.8472 305.431 38.0974 304.114 40.0791 304.114C42.1007 304.114 43.311 305.524 43.311 307.825C43.311 310.206 42.0608 311.509 40.0791 311.509ZM40.0791 310.498C41.3958 310.498 42.114 309.554 42.114 307.825C42.114 306.109 41.3825 305.125 40.0791 305.125C38.7624 305.125 38.0442 306.083 38.0442 307.825C38.0442 309.528 38.7757 310.498 40.0791 310.498ZM44.8174 311.35V301.774H45.9878V311.35H44.8174ZM47.8437 311.35V301.774H49.0141V311.35H47.8437ZM56.9747 309.049C56.589 310.698 55.4053 311.509 53.796 311.509C51.7478 311.509 50.5109 310.126 50.5109 307.825C50.5109 305.431 51.7478 304.114 53.7295 304.114C55.7245 304.114 56.9215 305.484 56.9215 307.732V308.025H51.7079C51.7744 309.607 52.5192 310.498 53.796 310.498C54.7935 310.498 55.4984 310.02 55.7511 309.049H56.9747ZM53.7295 305.125C52.599 305.125 51.9207 305.83 51.7478 307.147H55.6979C55.5383 305.843 54.8334 305.125 53.7295 305.125ZM64.3198 306.721H63.1494C62.9632 305.644 62.245 305.125 61.314 305.125C60.0106 305.125 59.319 306.083 59.319 307.825C59.319 309.541 60.0505 310.512 61.3539 310.512C62.2982 310.512 62.9765 310.006 63.2026 308.996H64.373C64.0538 310.751 62.8701 311.509 61.3273 311.509C59.319 311.509 58.122 310.113 58.122 307.825C58.122 305.431 59.3456 304.114 61.314 304.114C62.8701 304.114 64.0937 304.992 64.3198 306.721ZM65.9791 309.315V305.218H64.9949V304.287H65.9791V302.665H67.1495V304.287H68.7056V305.218H67.1495V309.315C67.1495 310.166 67.4022 310.565 68.4396 310.565H68.679V311.403C68.546 311.469 68.2534 311.509 67.9209 311.509C66.6042 311.509 65.9791 310.804 65.9791 309.315ZM75.9246 309.049C75.5389 310.698 74.3552 311.509 72.7459 311.509C70.6977 311.509 69.4608 310.126 69.4608 307.825C69.4608 305.431 70.6977 304.114 72.6794 304.114C74.6744 304.114 75.8714 305.484 75.8714 307.732V308.025H70.6578C70.7243 309.607 71.4691 310.498 72.7459 310.498C73.7434 310.498 74.4483 310.02 74.701 309.049H75.9246ZM72.6794 305.125C71.5489 305.125 70.8706 305.83 70.6977 307.147H74.6478C74.4882 305.843 73.7833 305.125 72.6794 305.125ZM80.0777 311.509C78.2024 311.509 77.0719 310.126 77.0719 307.825C77.0719 305.431 78.229 304.114 80.0777 304.114C80.9156 304.114 81.5939 304.46 82.0594 305.112V301.774H83.2298V311.35H82.0594V310.459C81.5939 311.124 80.9156 311.509 80.0777 311.509ZM80.1575 310.498C81.3944 310.498 82.0594 309.554 82.0594 307.825C82.0594 306.109 81.3678 305.125 80.1575 305.125C78.9339 305.125 78.2689 306.083 78.2689 307.825C78.2689 309.528 78.9605 310.498 80.1575 310.498ZM5.25439 324.588H4.08399C4.31009 323.032 5.33419 322.114 7.06319 322.114C8.95179 322.114 9.86949 323.218 9.86949 324.868V327.647C9.86949 328.459 9.93599 328.964 10.1222 329.35H8.88529C8.75229 329.07 8.71239 328.658 8.69909 328.232C8.10059 329.124 7.14299 329.509 6.29179 329.509C4.82879 329.509 3.84459 328.831 3.84459 327.488C3.84459 326.517 4.37659 325.812 5.41399 325.466C6.37159 325.147 7.34249 325.067 8.69909 325.054V324.894C8.69909 323.75 8.16709 323.125 6.95679 323.125C5.94599 323.125 5.40069 323.684 5.25439 324.588ZM5.04159 327.461C5.04159 328.113 5.58689 328.498 6.41149 328.498C7.71489 328.498 8.69909 327.474 8.69909 326.264V325.932C5.69329 325.958 5.04159 326.597 5.04159 327.461ZM12.6527 324.096C12.6527 326.065 17.2412 324.442 17.2412 327.355C17.2412 328.671 16.0708 329.509 14.4083 329.509C12.7325 329.509 11.5621 328.711 11.2961 327.049H12.4665C12.6261 328.033 13.3576 328.578 14.4482 328.578C15.5122 328.578 16.0708 328.099 16.0708 327.434C16.0708 325.506 11.5355 327.102 11.5355 324.176C11.5355 323.099 12.3734 322.114 14.1024 322.114C15.6319 322.114 16.7624 322.833 16.9885 324.588H15.8181C15.6452 323.484 15.0334 323.072 14.0359 323.072C13.1581 323.072 12.6527 323.511 12.6527 324.096ZM21.2956 329.35V322.287H22.466V323.378C22.9448 322.513 23.7029 322.114 24.5541 322.114C24.8334 322.114 25.0861 322.181 25.2191 322.287V323.338C25.0196 323.272 24.7669 323.245 24.4876 323.245C23.0778 323.245 22.466 324.123 22.466 325.4V329.35H21.2956ZM32.232 327.049C31.8463 328.698 30.6626 329.509 29.0533 329.509C27.0051 329.509 25.7682 328.126 25.7682 325.825C25.7682 323.431 27.0051 322.114 28.9868 322.114C30.9818 322.114 32.1788 323.484 32.1788 325.732V326.025H26.9652C27.0317 327.607 27.7765 328.498 29.0533 328.498C30.0508 328.498 30.7557 328.02 31.0084 327.049H32.232ZM28.9868 323.125C27.8563 323.125 27.178 323.83 27.0051 325.147H30.9552C30.7956 323.843 30.0907 323.125 28.9868 323.125ZM39.7265 329.35L38.197 324.07L38.0374 323.272L37.8778 324.07L36.3616 329.35H34.9119L32.8105 322.287H34.074L35.5237 327.767L35.6966 328.485L35.8695 327.767L37.4788 322.287H38.7423L40.3516 327.767L40.5112 328.459L40.6575 327.767L42.1072 322.287H43.3175L41.2028 329.35H39.7265ZM45.4531 324.588H44.2827C44.5088 323.032 45.5329 322.114 47.2619 322.114C49.1505 322.114 50.0682 323.218 50.0682 324.868V327.647C50.0682 328.459 50.1347 328.964 50.3209 329.35H49.084C48.951 329.07 48.9111 328.658 48.8978 328.232C48.2993 329.124 47.3417 329.509 46.4905 329.509C45.0275 329.509 44.0433 328.831 44.0433 327.488C44.0433 326.517 44.5753 325.812 45.6127 325.466C46.5703 325.147 47.5412 325.067 48.8978 325.054V324.894C48.8978 323.75 48.3658 323.125 47.1555 323.125C46.1447 323.125 45.5994 323.684 45.4531 324.588ZM45.2403 327.461C45.2403 328.113 45.7856 328.498 46.6102 328.498C47.9136 328.498 48.8978 327.474 48.8978 326.264V325.932C45.892 325.958 45.2403 326.597 45.2403 327.461ZM51.987 329.35V322.287H53.1574V323.378C53.6362 322.513 54.3943 322.114 55.2455 322.114C55.5248 322.114 55.7775 322.181 55.9105 322.287V323.338C55.711 323.272 55.4583 323.245 55.179 323.245C53.7692 323.245 53.1574 324.123 53.1574 325.4V329.35H51.987ZM59.4653 329.509C57.59 329.509 56.4595 328.126 56.4595 325.825C56.4595 323.431 57.6166 322.114 59.4653 322.114C60.3032 322.114 60.9815 322.46 61.447 323.112V319.774H62.6174V329.35H61.447V328.459C60.9815 329.124 60.3032 329.509 59.4653 329.509ZM59.5451 328.498C60.782 328.498 61.447 327.554 61.447 325.825C61.447 324.109 60.7554 323.125 59.5451 323.125C58.3215 323.125 57.6565 324.083 57.6565 325.825C57.6565 327.528 58.3481 328.498 59.5451 328.498Z" fill="#475569"/>
    <path d="M292.735 361.841V363.012C291.179 362.786 290.261 361.762 290.261 360.033C290.261 358.144 291.365 357.226 293.014 357.226H295.794C296.605 357.226 297.11 357.16 297.496 356.974V358.21C297.217 358.343 296.804 358.383 296.379 358.397C297.27 358.995 297.656 359.953 297.656 360.804C297.656 362.267 296.977 363.251 295.634 363.251C294.663 363.251 293.958 362.719 293.612 361.682C293.293 360.724 293.213 359.753 293.2 358.397H293.041C291.897 358.397 291.272 358.929 291.272 360.139C291.272 361.15 291.83 361.695 292.735 361.841ZM295.607 362.054C296.259 362.054 296.645 361.509 296.645 360.684C296.645 359.381 295.621 358.397 294.41 358.397H294.078C294.105 361.402 294.743 362.054 295.607 362.054ZM292.243 354.443C294.211 354.443 292.588 349.854 295.501 349.854C296.818 349.854 297.656 351.025 297.656 352.687C297.656 354.363 296.858 355.534 295.195 355.8V354.629C296.179 354.47 296.725 353.738 296.725 352.647C296.725 351.583 296.246 351.025 295.581 351.025C293.652 351.025 295.248 355.56 292.322 355.56C291.245 355.56 290.261 354.722 290.261 352.993C290.261 351.464 290.979 350.333 292.735 350.107V351.278C291.631 351.45 291.218 352.062 291.218 353.06C291.218 353.938 291.657 354.443 292.243 354.443ZM292.243 347.598C294.211 347.598 292.588 343.01 295.501 343.01C296.818 343.01 297.656 344.18 297.656 345.843C297.656 347.518 296.858 348.689 295.195 348.955V347.784C296.179 347.625 296.725 346.893 296.725 345.803C296.725 344.739 296.246 344.18 295.581 344.18C293.652 344.18 295.248 348.715 292.322 348.715C291.245 348.715 290.261 347.877 290.261 346.148C290.261 344.619 290.979 343.488 292.735 343.262V344.433C291.631 344.606 291.218 345.217 291.218 346.215C291.218 347.093 291.657 347.598 292.243 347.598ZM295.195 335.513C296.844 335.899 297.656 337.083 297.656 338.692C297.656 340.74 296.272 341.977 293.972 341.977C291.578 341.977 290.261 340.74 290.261 338.758C290.261 336.763 291.631 335.566 293.878 335.566H294.171V340.78C295.754 340.713 296.645 339.969 296.645 338.692C296.645 337.694 296.166 336.989 295.195 336.737V335.513ZM291.272 338.758C291.272 339.889 291.977 340.567 293.293 340.74V336.79C291.99 336.95 291.272 337.654 291.272 338.758ZM295.461 333.847H291.365V334.831H290.434V333.847H288.811V332.677H290.434V331.121H291.365V332.677H295.461C296.312 332.677 296.711 332.424 296.711 331.387V331.147H297.549C297.616 331.28 297.656 331.573 297.656 331.905C297.656 333.222 296.951 333.847 295.461 333.847Z" fill="#475569"/>
    <path d="M76.7196 191.81C74.8443 191.81 73.7138 190.427 73.7138 188.126C73.7138 185.732 74.8709 184.415 76.7196 184.415C77.5575 184.415 78.2358 184.761 78.7013 185.413V182.074H79.8717V191.65H78.7013V190.759C78.2358 191.424 77.5575 191.81 76.7196 191.81ZM76.7994 190.799C78.0363 190.799 78.7013 189.855 78.7013 188.126C78.7013 186.41 78.0097 185.426 76.7994 185.426C75.5758 185.426 74.9108 186.384 74.9108 188.126C74.9108 189.828 75.6024 190.799 76.7994 190.799ZM81.736 183.644V182.074H82.9064V183.644H81.736ZM81.736 191.65V184.588H82.9064V191.65H81.736ZM85.6267 186.397C85.6267 188.365 90.2152 186.743 90.2152 189.655C90.2152 190.972 89.0448 191.81 87.3823 191.81C85.7065 191.81 84.5361 191.012 84.2701 189.349H85.4405C85.6001 190.334 86.3316 190.879 87.4222 190.879C88.4862 190.879 89.0448 190.4 89.0448 189.735C89.0448 187.807 84.5095 189.403 84.5095 186.477C84.5095 185.399 85.3474 184.415 87.0764 184.415C88.6059 184.415 89.7364 185.133 89.9625 186.889H88.7921C88.6192 185.785 88.0074 185.373 87.0099 185.373C86.1321 185.373 85.6267 185.812 85.6267 186.397ZM97.4458 187.022H96.2754C96.0892 185.945 95.371 185.426 94.44 185.426C93.1366 185.426 92.445 186.384 92.445 188.126C92.445 189.842 93.1765 190.812 94.4799 190.812C95.4242 190.812 96.1025 190.307 96.3286 189.296H97.499C97.1798 191.052 95.9961 191.81 94.4533 191.81C92.445 191.81 91.248 190.413 91.248 188.126C91.248 185.732 92.4716 184.415 94.44 184.415C95.9961 184.415 97.2197 185.293 97.4458 187.022ZM101.818 191.81C99.7967 191.81 98.5864 190.427 98.5864 188.126C98.5864 185.732 99.8366 184.415 101.818 184.415C103.84 184.415 105.05 185.825 105.05 188.126C105.05 190.507 103.8 191.81 101.818 191.81ZM101.818 190.799C103.135 190.799 103.853 189.855 103.853 188.126C103.853 186.41 103.122 185.426 101.818 185.426C100.502 185.426 99.7834 186.384 99.7834 188.126C99.7834 189.828 100.515 190.799 101.818 190.799ZM111.052 188.764V184.588H112.222V191.65H111.052V190.693C110.573 191.438 109.828 191.81 108.911 191.81C107.434 191.81 106.557 190.945 106.557 189.31V184.588H107.727V189.07C107.727 190.134 108.192 190.812 109.23 190.812C110.374 190.812 111.052 189.775 111.052 188.764ZM114.09 191.65V184.588H115.26V185.546C115.739 184.801 116.51 184.415 117.441 184.415C118.944 184.415 119.835 185.293 119.835 186.929V191.65H118.665V187.168C118.665 186.104 118.186 185.413 117.122 185.413C115.952 185.413 115.26 186.463 115.26 187.474V191.65H114.09ZM121.861 189.615V185.519H120.876V184.588H121.861V182.965H123.031V184.588H124.587V185.519H123.031V189.615C123.031 190.467 123.284 190.866 124.321 190.866H124.56V191.704C124.427 191.77 124.135 191.81 123.802 191.81C122.486 191.81 121.861 191.105 121.861 189.615ZM131.806 189.349C131.42 190.999 130.237 191.81 128.627 191.81C126.579 191.81 125.342 190.427 125.342 188.126C125.342 185.732 126.579 184.415 128.561 184.415C130.556 184.415 131.753 185.785 131.753 188.033V188.325H126.539C126.606 189.908 127.351 190.799 128.627 190.799C129.625 190.799 130.33 190.32 130.582 189.349H131.806ZM128.561 185.426C127.43 185.426 126.752 186.131 126.579 187.448H130.529C130.37 186.144 129.665 185.426 128.561 185.426ZM135.959 191.81C134.084 191.81 132.953 190.427 132.953 188.126C132.953 185.732 134.11 184.415 135.959 184.415C136.797 184.415 137.475 184.761 137.941 185.413V182.074H139.111V191.65H137.941V190.759C137.475 191.424 136.797 191.81 135.959 191.81ZM136.039 190.799C137.276 190.799 137.941 189.855 137.941 188.126C137.941 186.41 137.249 185.426 136.039 185.426C134.815 185.426 134.15 186.384 134.15 188.126C134.15 189.828 134.842 190.799 136.039 190.799ZM109.141 204.889H107.97C108.196 203.333 109.22 202.415 110.949 202.415C112.838 202.415 113.756 203.519 113.756 205.168V207.948C113.756 208.759 113.822 209.265 114.008 209.65H112.771C112.638 209.371 112.599 208.959 112.585 208.533C111.987 209.424 111.029 209.81 110.178 209.81C108.715 209.81 107.731 209.132 107.731 207.788C107.731 206.817 108.263 206.113 109.3 205.767C110.258 205.448 111.229 205.368 112.585 205.354V205.195C112.585 204.051 112.053 203.426 110.843 203.426C109.832 203.426 109.287 203.985 109.141 204.889ZM108.928 207.762C108.928 208.413 109.473 208.799 110.298 208.799C111.601 208.799 112.585 207.775 112.585 206.565V206.232C109.579 206.259 108.928 206.897 108.928 207.762ZM116.539 204.397C116.539 206.365 121.127 204.743 121.127 207.655C121.127 208.972 119.957 209.81 118.294 209.81C116.619 209.81 115.448 209.012 115.182 207.349H116.353C116.512 208.334 117.244 208.879 118.334 208.879C119.398 208.879 119.957 208.4 119.957 207.735C119.957 205.807 115.422 207.403 115.422 204.477C115.422 203.399 116.26 202.415 117.989 202.415C119.518 202.415 120.649 203.133 120.875 204.889H119.704C119.531 203.785 118.92 203.373 117.922 203.373C117.044 203.373 116.539 203.812 116.539 204.397ZM123.384 204.397C123.384 206.365 127.972 204.743 127.972 207.655C127.972 208.972 126.802 209.81 125.139 209.81C123.463 209.81 122.293 209.012 122.027 207.349H123.197C123.357 208.334 124.089 208.879 125.179 208.879C126.243 208.879 126.802 208.4 126.802 207.735C126.802 205.807 122.266 207.403 122.266 204.477C122.266 203.399 123.104 202.415 124.833 202.415C126.363 202.415 127.493 203.133 127.719 204.889H126.549C126.376 203.785 125.764 203.373 124.767 203.373C123.889 203.373 123.384 203.812 123.384 204.397ZM135.469 207.349C135.083 208.999 133.899 209.81 132.29 209.81C130.242 209.81 129.005 208.427 129.005 206.126C129.005 203.732 130.242 202.415 132.224 202.415C134.219 202.415 135.416 203.785 135.416 206.033V206.325H130.202C130.268 207.908 131.013 208.799 132.29 208.799C133.288 208.799 133.992 208.32 134.245 207.349H135.469ZM132.224 203.426C131.093 203.426 130.415 204.131 130.242 205.448H134.192C134.032 204.144 133.327 203.426 132.224 203.426ZM137.135 207.615V203.519H136.151V202.588H137.135V200.965H138.305V202.588H139.861V203.519H138.305V207.615C138.305 208.467 138.558 208.866 139.595 208.866H139.835V209.704C139.702 209.77 139.409 209.81 139.077 209.81C137.76 209.81 137.135 209.105 137.135 207.615Z" fill="#475569"/>
    <path d="M108.889 336.989H107.719C107.945 335.432 108.969 334.515 110.698 334.515C112.586 334.515 113.504 335.619 113.504 337.268V340.048C113.504 340.859 113.571 341.364 113.757 341.75H112.52C112.387 341.471 112.347 341.058 112.334 340.633C111.735 341.524 110.778 341.91 109.926 341.91C108.463 341.91 107.479 341.231 107.479 339.888C107.479 338.917 108.011 338.212 109.049 337.866C110.006 337.547 110.977 337.467 112.334 337.454V337.294C112.334 336.151 111.802 335.526 110.591 335.526C109.581 335.526 109.035 336.084 108.889 336.989ZM108.676 339.861C108.676 340.513 109.221 340.899 110.046 340.899C111.349 340.899 112.334 339.875 112.334 338.664V338.332C109.328 338.358 108.676 338.997 108.676 339.861ZM116.287 336.496C116.287 338.465 120.876 336.842 120.876 339.755C120.876 341.072 119.705 341.91 118.043 341.91C116.367 341.91 115.197 341.112 114.931 339.449H116.101C116.261 340.433 116.992 340.979 118.083 340.979C119.147 340.979 119.705 340.5 119.705 339.835C119.705 337.906 115.17 339.502 115.17 336.576C115.17 335.499 116.008 334.515 117.737 334.515C119.266 334.515 120.397 335.233 120.623 336.989H119.453C119.28 335.885 118.668 335.472 117.67 335.472C116.793 335.472 116.287 335.911 116.287 336.496ZM123.132 336.496C123.132 338.465 127.721 336.842 127.721 339.755C127.721 341.072 126.55 341.91 124.888 341.91C123.212 341.91 122.042 341.112 121.776 339.449H122.946C123.106 340.433 123.837 340.979 124.928 340.979C125.992 340.979 126.55 340.5 126.55 339.835C126.55 337.906 122.015 339.502 122.015 336.576C122.015 335.499 122.853 334.515 124.582 334.515C126.111 334.515 127.242 335.233 127.468 336.989H126.298C126.125 335.885 125.513 335.472 124.515 335.472C123.638 335.472 123.132 335.911 123.132 336.496ZM135.217 339.449C134.831 341.098 133.648 341.91 132.038 341.91C129.99 341.91 128.753 340.526 128.753 338.225C128.753 335.831 129.99 334.515 131.972 334.515C133.967 334.515 135.164 335.885 135.164 338.132V338.425H129.95C130.017 340.008 130.762 340.899 132.038 340.899C133.036 340.899 133.741 340.42 133.994 339.449H135.217ZM131.972 335.526C130.841 335.526 130.163 336.23 129.99 337.547H133.94C133.781 336.244 133.076 335.526 131.972 335.526ZM136.883 339.715V335.619H135.899V334.688H136.883V333.065H138.054V334.688H139.61V335.619H138.054V339.715C138.054 340.566 138.306 340.965 139.344 340.965H139.583V341.803C139.45 341.87 139.157 341.91 138.825 341.91C137.508 341.91 136.883 341.205 136.883 339.715Z" fill="#475569"/>
    <rect x="105.37" y="243.674" width="111.488" height="44.7607" rx="22.3804" fill="#F0FDF4"/>
    <rect x="105.37" y="243.674" width="111.488" height="44.7607" rx="22.3804" stroke="#22C55E" stroke-width="0.95" stroke-dasharray="1.9 1.9"/>
    <g clip-path="url(#clip0_2722_406)">
        <path d="M133.72 263.95L129.715 267.197L128.173 265.384C128.075 265.296 127.948 265.246 127.816 265.245C127.684 265.244 127.556 265.291 127.456 265.377C127.356 265.464 127.292 265.584 127.274 265.715C127.257 265.846 127.288 265.978 127.361 266.088L129.255 268.307L129.31 268.361H130.013L134.423 264.789C134.486 264.748 134.54 264.693 134.58 264.63C134.621 264.566 134.648 264.495 134.659 264.421C134.671 264.346 134.667 264.27 134.647 264.198C134.628 264.125 134.593 264.057 134.546 263.998C134.498 263.94 134.439 263.892 134.372 263.857C134.305 263.823 134.232 263.802 134.157 263.798C134.082 263.793 134.006 263.805 133.936 263.831C133.865 263.857 133.801 263.898 133.747 263.95H133.72Z" fill="#22C55E" stroke="#22C55E" stroke-width="0.475"/>
        <path d="M139.588 261.3C139.589 260.657 139.399 260.029 139.043 259.494C138.687 258.96 138.18 258.543 137.586 258.297L131.255 255.645C131.125 255.592 130.979 255.592 130.849 255.645L124.49 258.297C123.897 258.543 123.39 258.96 123.034 259.494C122.677 260.029 122.487 260.657 122.488 261.3V268.064C122.488 272.745 126.195 276.641 130.768 276.776H131.038C133.301 276.776 135.472 275.879 137.074 274.282C138.677 272.684 139.581 270.516 139.588 268.253V261.3ZM138.506 268.253C138.503 269.25 138.3 270.237 137.91 271.154C137.519 272.071 136.949 272.901 136.233 273.594C135.517 274.288 134.669 274.831 133.74 275.192C132.81 275.552 131.818 275.723 130.822 275.694C126.817 275.586 123.571 272.15 123.571 268.064V261.3C123.569 260.873 123.694 260.454 123.93 260.098C124.166 259.742 124.502 259.463 124.896 259.298L131.038 256.727L137.18 259.298C137.574 259.463 137.91 259.742 138.146 260.098C138.382 260.454 138.507 260.873 138.506 261.3V268.253Z" fill="#22C55E" stroke="#22C55E" stroke-width="0.475"/>
    </g>
    <path d="M155.735 272.811C153.341 272.811 151.87 270.981 151.87 267.989C151.87 264.877 153.375 263.133 155.735 263.133C156.744 263.133 157.582 263.56 158.146 264.381V260.243H160.335V272.555H158.146V271.512C157.565 272.349 156.744 272.811 155.735 272.811ZM156.128 270.999C157.445 270.999 158.146 269.938 158.146 267.989C158.146 266.04 157.411 264.945 156.128 264.945C154.829 264.945 154.128 266.022 154.128 267.989C154.128 269.921 154.846 270.999 156.128 270.999ZM163.976 260.927L166.985 269.1L167.344 270.383L167.686 269.1L170.696 260.927H173.005L168.627 272.555H165.925L161.53 260.927H163.976ZM175.576 266.399H173.37C173.661 264.364 175.149 263.133 177.457 263.133C180.005 263.133 181.305 264.637 181.305 266.758V270.315C181.305 271.443 181.407 272.076 181.578 272.555H179.304C179.184 272.247 179.133 271.802 179.116 271.306C178.364 272.367 177.235 272.811 176.141 272.811C174.345 272.811 173.063 271.922 173.063 270.161C173.063 268.912 173.764 267.972 175.166 267.51C176.38 267.1 177.56 266.997 179.099 266.98V266.758C179.099 265.578 178.535 264.945 177.32 264.945C176.277 264.945 175.713 265.527 175.576 266.399ZM175.268 270.041C175.268 270.742 175.816 271.187 176.705 271.187C178.056 271.187 179.099 270.092 179.099 268.724V268.331C175.987 268.382 175.268 269.118 175.268 270.041ZM189.086 268.707V263.389H191.275V272.555H189.086V271.323C188.488 272.332 187.547 272.811 186.419 272.811C184.606 272.811 183.392 271.717 183.392 269.511V263.389H185.581V269.066C185.581 270.315 186.094 270.999 187.171 270.999C188.351 270.999 189.086 269.938 189.086 268.707ZM193.295 272.555V260.243H195.483V272.555H193.295ZM197.777 269.699V265.082H196.597V263.389H197.777V261.286H199.966V263.389H201.898V265.082H199.966V269.511C199.966 270.468 200.239 270.981 201.453 270.981H201.864V272.589C201.624 272.709 201.128 272.811 200.53 272.811C198.666 272.811 197.777 271.751 197.777 269.699Z" fill="#22C55E"/>
    <rect x="52.6445" y="90.25" width="216.6" height="57.5945" rx="28.7972" fill="#E2E8F0"/>
    <rect x="67.3906" y="103.848" width="30.4" height="30.4" rx="15.2" fill="#94A3B8"/>
    <path fill-rule="evenodd" clip-rule="evenodd" d="M82.5949 119.607C80.6448 119.607 79.0631 117.998 79.0631 116.014C79.0631 114.157 80.4488 112.629 82.2258 112.441C82.3427 112.429 82.4609 112.423 82.5799 112.423C84.53 112.423 86.1117 114.031 86.1117 116.015C86.1117 117.873 84.7259 119.4 82.949 119.589C82.8321 119.6 82.7146 119.607 82.5949 119.607ZM89.7134 126.281L89.7227 126.39C89.7205 126.356 89.7155 126.323 89.7127 126.289C89.707 126.619 89.4441 126.886 89.1185 126.886C88.79 126.886 88.5235 126.614 88.5235 126.281H88.5221C88.2264 123.216 85.6878 120.822 82.5977 120.82L82.5949 120.819C82.5899 120.819 82.5849 120.82 82.5799 120.82C79.9708 120.82 77.8568 118.669 77.8568 116.015C77.8568 113.362 79.9708 111.211 82.5799 111.211C82.5821 111.211 82.5849 111.212 82.587 111.212C82.5899 111.212 82.592 111.211 82.5949 111.211C85.2026 111.211 87.3166 113.361 87.3166 116.014C87.3166 117.006 87.013 117.922 86.505 118.686C86.5001 118.694 86.4958 118.701 86.4908 118.709C86.416 118.82 86.3376 118.926 86.2542 119.03C86.2265 119.066 86.1965 119.101 86.1673 119.136C86.0911 119.224 86.0156 119.313 85.9343 119.397C85.8752 119.457 85.8111 119.513 85.7484 119.571C85.655 119.656 85.561 119.739 85.4612 119.816C85.3622 119.894 85.2617 119.969 85.1563 120.039C85.1371 120.052 85.1207 120.067 85.1021 120.078C87.5952 121.03 89.422 123.354 89.6977 126.148C89.707 126.191 89.7134 126.235 89.7134 126.281ZM81.4127 123.045C81.7333 123.045 81.9934 123.305 81.9934 123.626C81.9934 123.946 81.7333 124.206 81.4127 124.206H79.3144V126.305C79.3144 126.626 79.0536 126.886 78.733 126.886C78.4124 126.886 78.1523 126.626 78.1523 126.305V124.206H76.0541C75.7327 124.206 75.4727 123.946 75.4727 123.626C75.4727 123.305 75.7327 123.045 76.0541 123.045H78.1523V120.946C78.1523 120.625 78.4124 120.365 78.733 120.365C79.0536 120.365 79.3144 120.625 79.3144 120.946V123.045H81.4127Z" fill="#E2E8F0"/>
    <path d="M120.164 107.31C120.164 109.788 126.351 107.781 126.351 112.007C126.351 114.089 124.648 115.275 122.308 115.275C119.952 115.275 118.28 114.18 117.884 111.931H120.028C120.286 113.025 121.076 113.633 122.323 113.633C123.6 113.633 124.253 113.101 124.253 112.265C124.253 109.636 118.082 111.612 118.082 107.492C118.082 105.851 119.435 104.483 121.882 104.483C123.964 104.483 125.728 105.486 126.062 107.812H123.888C123.645 106.656 122.931 106.124 121.821 106.124C120.788 106.124 120.164 106.596 120.164 107.31ZM127.979 112.508V108.404H126.931V106.9H127.979V105.03H129.925V106.9H131.643V108.404H129.925V112.341C129.925 113.192 130.168 113.648 131.247 113.648H131.612V115.077C131.399 115.184 130.959 115.275 130.427 115.275C128.77 115.275 127.979 114.332 127.979 112.508ZM134.667 109.575H132.707C132.965 107.766 134.287 106.672 136.339 106.672C138.604 106.672 139.759 108.009 139.759 109.894V113.056C139.759 114.059 139.851 114.621 140.003 115.047H137.981C137.875 114.773 137.829 114.378 137.814 113.937C137.145 114.88 136.142 115.275 135.169 115.275C133.573 115.275 132.433 114.484 132.433 112.919C132.433 111.809 133.056 110.973 134.303 110.563C135.382 110.198 136.431 110.107 137.799 110.092V109.894C137.799 108.845 137.297 108.283 136.218 108.283C135.291 108.283 134.789 108.8 134.667 109.575ZM134.394 112.812C134.394 113.436 134.88 113.831 135.671 113.831C136.871 113.831 137.799 112.858 137.799 111.642V111.292C135.032 111.338 134.394 111.992 134.394 112.812ZM141.615 115.047V104.103H143.56V110.304L146.509 106.9H148.789L145.506 110.517L149.017 115.047H146.631L143.56 111.11V115.047H141.615ZM156.855 112.387C156.415 114.272 154.955 115.275 153.01 115.275C150.547 115.275 149.043 113.648 149.043 110.988C149.043 108.222 150.563 106.672 152.934 106.672C155.32 106.672 156.795 108.283 156.795 110.912V111.368H151.049C151.14 112.858 151.824 113.679 153.01 113.679C153.922 113.679 154.545 113.253 154.803 112.387H156.855ZM152.934 108.268C151.9 108.268 151.277 108.921 151.095 110.152H154.758C154.575 108.936 153.952 108.268 152.934 108.268ZM158.255 115.047V106.9H160.2V108.085C160.732 107.112 161.553 106.672 162.435 106.672C162.769 106.672 163.073 106.763 163.225 106.9V108.587C162.967 108.511 162.678 108.48 162.328 108.48C160.854 108.48 160.2 109.362 160.2 110.715V115.047H158.255ZM174.042 115.047L173.251 112.904H168.843L168.053 115.047H166.001L169.892 104.711H172.309L176.2 115.047H174.042ZM170.743 107.781L169.436 111.323H172.659L171.351 107.781L171.047 106.717L170.743 107.781ZM179.748 115.047V106.9H181.694V107.948C182.211 107.097 183.001 106.672 183.959 106.672C184.992 106.672 185.798 107.128 186.208 108.055C186.756 107.128 187.622 106.672 188.671 106.672C190.236 106.672 191.3 107.644 191.3 109.62V115.047H189.355V110.016C189.355 108.906 188.944 108.283 188.078 108.283C187.105 108.283 186.497 109.225 186.497 110.32V115.047H184.552V110.016C184.552 108.906 184.141 108.283 183.275 108.283C182.302 108.283 181.694 109.225 181.694 110.32V115.047H179.748ZM194.978 109.575H193.017C193.275 107.766 194.598 106.672 196.65 106.672C198.914 106.672 200.07 108.009 200.07 109.894V113.056C200.07 114.059 200.161 114.621 200.313 115.047H198.291C198.185 114.773 198.139 114.378 198.124 113.937C197.455 114.88 196.452 115.275 195.479 115.275C193.883 115.275 192.743 114.484 192.743 112.919C192.743 111.809 193.366 110.973 194.613 110.563C195.692 110.198 196.741 110.107 198.109 110.092V109.894C198.109 108.845 197.607 108.283 196.528 108.283C195.601 108.283 195.099 108.8 194.978 109.575ZM194.704 112.812C194.704 113.436 195.19 113.831 195.981 113.831C197.182 113.831 198.109 112.858 198.109 111.642V111.292C195.342 111.338 194.704 111.992 194.704 112.812ZM201.925 115.047V104.103H203.87V110.304L206.819 106.9H209.099L205.816 110.517L209.327 115.047H206.941L203.87 111.11V115.047H201.925ZM210.356 105.988V104.103H212.302V105.988H210.356ZM210.356 115.047V106.9H212.302V115.047H210.356ZM214.082 115.047V106.9H216.027V107.994C216.559 107.112 217.411 106.672 218.444 106.672C220.071 106.672 221.18 107.644 221.18 109.62V115.047H219.235V110.016C219.235 108.906 218.763 108.283 217.775 108.283C216.696 108.283 216.027 109.225 216.027 110.32V115.047H214.082ZM225.937 115.077C223.87 115.077 222.593 113.481 222.593 110.882C222.593 108.176 223.9 106.672 225.937 106.672C226.91 106.672 227.67 107.036 228.172 107.72V106.9H230.117V115.305C230.117 117.509 228.597 118.634 226.576 118.634C224.569 118.634 223.11 117.707 222.821 115.776H224.782C224.904 116.643 225.603 117.099 226.545 117.099C227.518 117.099 228.172 116.628 228.172 115.336V113.968C227.64 114.697 226.88 115.077 225.937 115.077ZM226.378 113.466C227.549 113.466 228.172 112.554 228.172 110.882C228.172 109.225 227.518 108.283 226.378 108.283C225.223 108.283 224.6 109.195 224.6 110.882C224.6 112.539 225.223 113.466 226.378 113.466ZM236.718 109.575H234.757C235.016 107.766 236.338 106.672 238.39 106.672C240.655 106.672 241.81 108.009 241.81 109.894V113.056C241.81 114.059 241.901 114.621 242.053 115.047H240.032C239.925 114.773 239.88 114.378 239.865 113.937C239.196 114.88 238.193 115.275 237.22 115.275C235.624 115.275 234.484 114.484 234.484 112.919C234.484 111.809 235.107 110.973 236.353 110.563C237.433 110.198 238.481 110.107 239.849 110.092V109.894C239.849 108.845 239.348 108.283 238.269 108.283C237.341 108.283 236.84 108.8 236.718 109.575ZM236.445 112.812C236.445 113.436 236.931 113.831 237.721 113.831C238.922 113.831 239.849 112.858 239.849 111.642V111.292C237.083 111.338 236.445 111.992 236.445 112.812ZM124.876 135.275C122.748 135.275 121.441 133.648 121.441 130.988C121.441 128.222 122.778 126.672 124.876 126.672C125.773 126.672 126.517 127.052 127.019 127.781V124.103H128.965V135.047H127.019V134.12C126.502 134.864 125.773 135.275 124.876 135.275ZM125.225 133.664C126.396 133.664 127.019 132.721 127.019 130.988C127.019 129.256 126.365 128.283 125.225 128.283C124.07 128.283 123.447 129.24 123.447 130.988C123.447 132.706 124.085 133.664 125.225 133.664ZM138.174 132.387C137.734 134.272 136.274 135.275 134.329 135.275C131.866 135.275 130.362 133.648 130.362 130.988C130.362 128.222 131.882 126.672 134.253 126.672C136.639 126.672 138.114 128.283 138.114 130.912V131.368H132.368C132.459 132.858 133.143 133.679 134.329 133.679C135.241 133.679 135.864 133.253 136.122 132.387H138.174ZM134.253 128.268C133.219 128.268 132.596 128.921 132.414 130.152H136.077C135.894 128.936 135.271 128.268 134.253 128.268ZM141.519 138.391H139.574V126.9H141.519V127.827C142.036 127.082 142.766 126.672 143.662 126.672C145.79 126.672 147.098 128.298 147.098 130.958C147.098 133.724 145.76 135.275 143.662 135.275C142.766 135.275 142.021 134.895 141.519 134.165V138.391ZM143.313 128.283C142.142 128.283 141.519 129.225 141.519 130.958C141.519 132.691 142.173 133.664 143.313 133.664C144.468 133.664 145.091 132.706 145.091 130.958C145.091 129.24 144.453 128.283 143.313 128.283ZM152.036 135.275C149.619 135.275 148.13 133.648 148.13 130.988C148.13 128.222 149.665 126.672 152.036 126.672C154.438 126.672 155.927 128.313 155.927 130.988C155.927 133.724 154.392 135.275 152.036 135.275ZM152.036 133.664C153.267 133.664 153.921 132.721 153.921 130.988C153.921 129.256 153.252 128.283 152.036 128.283C150.79 128.283 150.136 129.24 150.136 130.988C150.136 132.706 150.805 133.664 152.036 133.664ZM158.968 129.088C158.968 130.958 164.106 129.377 164.106 132.645C164.106 134.211 162.662 135.275 160.625 135.275C158.618 135.275 157.174 134.348 156.886 132.387H158.831C158.968 133.268 159.667 133.77 160.686 133.77C161.643 133.77 162.145 133.36 162.145 132.767C162.145 130.943 157.114 132.508 157.114 129.21C157.114 127.888 158.147 126.672 160.275 126.672C162.145 126.672 163.558 127.553 163.802 129.575H161.856C161.704 128.587 161.126 128.192 160.199 128.192C159.424 128.192 158.968 128.572 158.968 129.088ZM165.432 125.988V124.103H167.377V125.988H165.432ZM165.432 135.047V126.9H167.377V135.047H165.432ZM169.416 132.508V128.404H168.367V126.9H169.416V125.03H171.361V126.9H173.079V128.404H171.361V132.341C171.361 133.192 171.604 133.648 172.684 133.648H173.048V135.077C172.836 135.184 172.395 135.275 171.863 135.275C170.206 135.275 169.416 134.332 169.416 132.508ZM184.348 135.047L182.874 129.59L182.722 128.632L182.539 129.59L181.08 135.047H178.663L176.398 126.9H178.481L179.788 132.645L179.986 133.633L180.214 132.645L181.779 126.9H183.801L185.366 132.645L185.564 133.603L185.746 132.645L187.069 126.9H189.06L186.78 135.047H184.348ZM190.102 125.988V124.103H192.047V125.988H190.102ZM190.102 135.047V126.9H192.047V135.047H190.102ZM194.086 132.508V128.404H193.037V126.9H194.086V125.03H196.032V126.9H197.749V128.404H196.032V132.341C196.032 133.192 196.275 133.648 197.354 133.648H197.719V135.077C197.506 135.184 197.065 135.275 196.533 135.275C194.876 135.275 194.086 134.332 194.086 132.508ZM198.889 135.047V124.103H200.835V127.994C201.367 127.112 202.218 126.672 203.252 126.672C204.878 126.672 205.988 127.644 205.988 129.62V135.047H204.042V130.016C204.042 128.906 203.571 128.283 202.583 128.283C201.504 128.283 200.835 129.225 200.835 130.32V135.047H198.889ZM210.705 135.047V124.103H212.651V135.047H210.705ZM217.957 135.275C215.54 135.275 214.051 133.648 214.051 130.988C214.051 128.222 215.586 126.672 217.957 126.672C220.359 126.672 221.848 128.313 221.848 130.988C221.848 133.724 220.313 135.275 217.957 135.275ZM217.957 133.664C219.188 133.664 219.842 132.721 219.842 130.988C219.842 129.256 219.173 128.283 217.957 128.283C216.711 128.283 216.057 129.24 216.057 130.988C216.057 132.706 216.726 133.664 217.957 133.664ZM230.316 129.788H228.37C228.188 128.724 227.549 128.283 226.728 128.283C225.528 128.283 224.889 129.24 224.889 130.988C224.889 132.706 225.558 133.664 226.789 133.664C227.625 133.664 228.218 133.208 228.416 132.28H230.376C230.012 134.317 228.583 135.275 226.744 135.275C224.342 135.275 222.883 133.633 222.883 130.988C222.883 128.222 224.388 126.672 226.728 126.672C228.583 126.672 230.042 127.705 230.316 129.788ZM231.724 135.047V124.103H233.669V130.304L236.618 126.9H238.898L235.615 130.517L239.126 135.047H236.74L233.669 131.11V135.047H231.724Z" fill="#334155"/>
    <rect x="60.0055" y="487.113" width="202.825" height="56.1695" rx="28.0847" fill="#CBD5E1"/>
    <rect x="60.0055" y="487.113" width="202.825" height="56.1695" rx="28.0847" stroke="url(#paint0_linear_2722_406)" stroke-width="1.425" stroke-dasharray="1.47 1.47"/>
    <rect x="70.6914" y="495.801" width="38.7926" height="38.7926" rx="19.3963" fill="#64748B"/>
    <path d="M90.0896 518.146C93.347 518.146 95.9877 515.505 95.9877 512.248C95.9877 508.99 93.347 506.35 90.0896 506.35C86.8321 506.35 84.1914 508.99 84.1914 512.248C84.1914 515.505 86.8321 518.146 90.0896 518.146Z" stroke="#010207" stroke-width="1.47454" stroke-miterlimit="10"/>
    <path d="M81.1484 523.308C82.0543 521.739 83.3573 520.436 84.9265 519.53C86.4957 518.624 88.2758 518.146 90.0878 518.146C91.8998 518.146 93.6799 518.624 95.2491 519.53C96.8183 520.436 98.1214 521.739 99.0272 523.308" stroke="#010207" stroke-width="1.47454" stroke-linecap="round" stroke-linejoin="round"/>
    <path d="M123.207 503.46C123.207 505.938 129.394 503.932 129.394 508.157C129.394 510.24 127.691 511.425 125.351 511.425C122.995 511.425 121.323 510.331 120.927 508.081H123.071C123.329 509.176 124.119 509.784 125.366 509.784C126.643 509.784 127.296 509.252 127.296 508.416C127.296 505.786 121.125 507.762 121.125 503.643C121.125 502.001 122.478 500.633 124.925 500.633C127.007 500.633 128.771 501.636 129.105 503.962H126.931C126.688 502.807 125.974 502.275 124.864 502.275C123.831 502.275 123.207 502.746 123.207 503.46ZM131.022 508.659V504.555H129.974V503.05H131.022V501.18H132.968V503.05H134.686V504.555H132.968V508.492C132.968 509.343 133.211 509.799 134.29 509.799H134.655V511.228C134.442 511.334 134.002 511.425 133.47 511.425C131.813 511.425 131.022 510.483 131.022 508.659ZM137.71 505.725H135.75C136.008 503.916 137.33 502.822 139.382 502.822C141.647 502.822 142.802 504.16 142.802 506.044V509.206C142.802 510.209 142.894 510.772 143.046 511.197H141.024C140.918 510.924 140.872 510.528 140.857 510.088C140.188 511.03 139.185 511.425 138.212 511.425C136.616 511.425 135.476 510.635 135.476 509.069C135.476 507.96 136.099 507.124 137.346 506.713C138.425 506.348 139.474 506.257 140.842 506.242V506.044C140.842 504.996 140.34 504.433 139.261 504.433C138.334 504.433 137.832 504.95 137.71 505.725ZM137.437 508.963C137.437 509.586 137.923 509.981 138.714 509.981C139.914 509.981 140.842 509.008 140.842 507.792V507.443C138.075 507.488 137.437 508.142 137.437 508.963ZM144.658 511.197V500.253H146.603V506.455L149.552 503.05H151.832L148.549 506.668L152.06 511.197H149.674L146.603 507.26V511.197H144.658ZM159.898 508.537C159.458 510.422 157.998 511.425 156.053 511.425C153.59 511.425 152.086 509.799 152.086 507.139C152.086 504.372 153.606 502.822 155.977 502.822C158.363 502.822 159.838 504.433 159.838 507.063V507.519H154.092C154.183 509.008 154.867 509.829 156.053 509.829C156.965 509.829 157.588 509.404 157.846 508.537H159.898ZM155.977 504.418C154.943 504.418 154.32 505.072 154.138 506.303H157.801C157.618 505.087 156.995 504.418 155.977 504.418ZM161.298 511.197V503.05H163.243V504.236C163.775 503.263 164.596 502.822 165.478 502.822C165.812 502.822 166.116 502.913 166.268 503.05V504.737C166.01 504.661 165.721 504.631 165.371 504.631C163.897 504.631 163.243 505.512 163.243 506.865V511.197H161.298ZM179.308 504.053H177.165C176.846 502.928 175.979 502.336 174.824 502.336C173.091 502.336 172.088 503.749 172.088 506.044C172.088 508.355 173.076 509.723 174.824 509.723C175.919 509.723 176.785 509.16 177.135 508.081H179.293C178.746 510.24 176.967 511.425 174.855 511.425C171.83 511.425 169.991 509.388 169.991 506.044C169.991 502.716 171.86 500.633 174.885 500.633C177.028 500.633 178.837 501.804 179.308 504.053ZM183.652 511.197V503.05H185.598V504.099C186.115 503.248 186.905 502.822 187.863 502.822C188.896 502.822 189.702 503.278 190.112 504.205C190.659 503.278 191.526 502.822 192.575 502.822C194.14 502.822 195.204 503.795 195.204 505.771V511.197H193.259V506.166C193.259 505.056 192.848 504.433 191.982 504.433C191.009 504.433 190.401 505.376 190.401 506.47V511.197H188.455V506.166C188.455 505.056 188.045 504.433 187.179 504.433C186.206 504.433 185.598 505.376 185.598 506.47V511.197H183.652ZM198.882 505.725H196.921C197.179 503.916 198.502 502.822 200.554 502.822C202.818 502.822 203.974 504.16 203.974 506.044V509.206C203.974 510.209 204.065 510.772 204.217 511.197H202.195C202.089 510.924 202.043 510.528 202.028 510.088C201.359 511.03 200.356 511.425 199.383 511.425C197.787 511.425 196.647 510.635 196.647 509.069C196.647 507.96 197.27 507.124 198.517 506.713C199.596 506.348 200.645 506.257 202.013 506.242V506.044C202.013 504.996 201.511 504.433 200.432 504.433C199.505 504.433 199.003 504.95 198.882 505.725ZM198.608 508.963C198.608 509.586 199.094 509.981 199.885 509.981C201.086 509.981 202.013 509.008 202.013 507.792V507.443C199.246 507.488 198.608 508.142 198.608 508.963ZM205.829 511.197V500.253H207.774V506.455L210.723 503.05H213.003L209.72 506.668L213.231 511.197H210.845L207.774 507.26V511.197H205.829ZM214.26 502.138V500.253H216.206V502.138H214.26ZM214.26 511.197V503.05H216.206V511.197H214.26ZM217.986 511.197V503.05H219.931V504.144C220.463 503.263 221.315 502.822 222.348 502.822C223.975 502.822 225.084 503.795 225.084 505.771V511.197H223.139V506.166C223.139 505.056 222.667 504.433 221.679 504.433C220.6 504.433 219.931 505.376 219.931 506.47V511.197H217.986ZM229.841 511.228C227.774 511.228 226.497 509.632 226.497 507.032C226.497 504.327 227.804 502.822 229.841 502.822C230.814 502.822 231.574 503.187 232.076 503.871V503.05H234.021V511.456C234.021 513.66 232.501 514.784 230.48 514.784C228.473 514.784 227.014 513.857 226.725 511.927H228.686C228.808 512.793 229.507 513.249 230.449 513.249C231.422 513.249 232.076 512.778 232.076 511.486V510.118C231.544 510.848 230.784 511.228 229.841 511.228ZM230.282 509.616C231.452 509.616 232.076 508.704 232.076 507.032C232.076 505.376 231.422 504.433 230.282 504.433C229.127 504.433 228.504 505.345 228.504 507.032C228.504 508.689 229.127 509.616 230.282 509.616ZM240.622 505.725H238.661C238.92 503.916 240.242 502.822 242.294 502.822C244.559 502.822 245.714 504.16 245.714 506.044V509.206C245.714 510.209 245.805 510.772 245.957 511.197H243.936C243.829 510.924 243.784 510.528 243.769 510.088C243.1 511.03 242.097 511.425 241.124 511.425C239.528 511.425 238.388 510.635 238.388 509.069C238.388 507.96 239.011 507.124 240.257 506.713C241.337 506.348 242.385 506.257 243.753 506.242V506.044C243.753 504.996 243.252 504.433 242.173 504.433C241.245 504.433 240.744 504.95 240.622 505.725ZM240.349 508.963C240.349 509.586 240.835 509.981 241.625 509.981C242.826 509.981 243.753 509.008 243.753 507.792V507.443C240.987 507.488 240.349 508.142 240.349 508.963ZM143.849 531.197V523.05H145.794V524.236C146.326 523.263 147.147 522.822 148.029 522.822C148.363 522.822 148.667 522.913 148.819 523.05V524.737C148.561 524.661 148.272 524.631 147.922 524.631C146.448 524.631 145.794 525.512 145.794 526.865V531.197H143.849ZM157.13 528.537C156.689 530.422 155.23 531.425 153.284 531.425C150.822 531.425 149.317 529.799 149.317 527.139C149.317 524.372 150.837 522.822 153.208 522.822C155.595 522.822 157.069 524.433 157.069 527.063V527.519H151.324C151.415 529.008 152.099 529.829 153.284 529.829C154.196 529.829 154.82 529.404 155.078 528.537H157.13ZM153.208 524.418C152.175 524.418 151.552 525.072 151.369 526.303H155.032C154.85 525.087 154.227 524.418 153.208 524.418ZM161.584 531.425C159.456 531.425 158.149 529.799 158.149 527.139C158.149 524.372 159.487 522.822 161.584 522.822C162.481 522.822 163.226 523.202 163.728 523.932V520.253H165.673V531.197H163.728V530.27C163.211 531.015 162.481 531.425 161.584 531.425ZM161.934 529.814C163.104 529.814 163.728 528.872 163.728 527.139C163.728 525.406 163.074 524.433 161.934 524.433C160.779 524.433 160.156 525.391 160.156 527.139C160.156 528.856 160.794 529.814 161.934 529.814ZM174.883 528.537C174.442 530.422 172.983 531.425 171.037 531.425C168.575 531.425 167.07 529.799 167.07 527.139C167.07 524.372 168.59 522.822 170.961 522.822C173.348 522.822 174.822 524.433 174.822 527.063V527.519H169.077C169.168 529.008 169.852 529.829 171.037 529.829C171.949 529.829 172.573 529.404 172.831 528.537H174.883ZM170.961 524.418C169.928 524.418 169.305 525.072 169.122 526.303H172.785C172.603 525.087 171.98 524.418 170.961 524.418ZM176.282 531.197V523.05H178.228V524.099C178.745 523.248 179.535 522.822 180.493 522.822C181.526 522.822 182.332 523.278 182.742 524.205C183.29 523.278 184.156 522.822 185.205 522.822C186.77 522.822 187.834 523.795 187.834 525.771V531.197H185.889V526.166C185.889 525.056 185.478 524.433 184.612 524.433C183.639 524.433 183.031 525.376 183.031 526.47V531.197H181.086V526.166C181.086 525.056 180.675 524.433 179.809 524.433C178.836 524.433 178.228 525.376 178.228 526.47V531.197H176.282ZM191.572 534.541H189.627V523.05H191.572V523.977C192.089 523.232 192.819 522.822 193.716 522.822C195.844 522.822 197.151 524.448 197.151 527.108C197.151 529.875 195.813 531.425 193.716 531.425C192.819 531.425 192.074 531.045 191.572 530.316V534.541ZM193.366 524.433C192.196 524.433 191.572 525.376 191.572 527.108C191.572 528.841 192.226 529.814 193.366 529.814C194.521 529.814 195.144 528.856 195.144 527.108C195.144 525.391 194.506 524.433 193.366 524.433ZM198.821 528.659V524.555H197.772V523.05H198.821V521.18H200.767V523.05H202.484V524.555H200.767V528.492C200.767 529.343 201.01 529.799 202.089 529.799H202.454V531.228C202.241 531.334 201.8 531.425 201.268 531.425C199.612 531.425 198.821 530.483 198.821 528.659ZM203.624 522.138V520.253H205.57V522.138H203.624ZM203.624 531.197V523.05H205.57V531.197H203.624ZM210.877 531.425C208.46 531.425 206.97 529.799 206.97 527.139C206.97 524.372 208.505 522.822 210.877 522.822C213.278 522.822 214.768 524.464 214.768 527.139C214.768 529.875 213.233 531.425 210.877 531.425ZM210.877 529.814C212.108 529.814 212.761 528.872 212.761 527.139C212.761 525.406 212.093 524.433 210.877 524.433C209.63 524.433 208.977 525.391 208.977 527.139C208.977 528.856 209.645 529.814 210.877 529.814ZM216.182 531.197V523.05H218.128V524.144C218.66 523.263 219.511 522.822 220.545 522.822C222.171 522.822 223.281 523.795 223.281 525.771V531.197H221.335V526.166C221.335 525.056 220.864 524.433 219.876 524.433C218.797 524.433 218.128 525.376 218.128 526.47V531.197H216.182Z" fill="#1E293B"/>
    <rect x="52.6445" y="384.75" width="216.6" height="57.5945" rx="28.7972" fill="#E2E8F0"/>
    <rect x="67.3906" y="398.348" width="30.4" height="30.4" rx="15.2" fill="#94A3B8"/>
    <path fill-rule="evenodd" clip-rule="evenodd" d="M82.5949 414.107C80.6448 414.107 79.0631 412.498 79.0631 410.514C79.0631 408.657 80.4488 407.129 82.2258 406.941C82.3427 406.929 82.4609 406.923 82.5799 406.923C84.53 406.923 86.1117 408.531 86.1117 410.515C86.1117 412.373 84.7259 413.9 82.949 414.089C82.8321 414.1 82.7146 414.107 82.5949 414.107ZM89.7134 420.781L89.7227 420.89C89.7205 420.856 89.7155 420.823 89.7127 420.789C89.707 421.119 89.4441 421.386 89.1185 421.386C88.79 421.386 88.5235 421.114 88.5235 420.781H88.5221C88.2264 417.716 85.6878 415.322 82.5977 415.32L82.5949 415.319C82.5899 415.319 82.5849 415.32 82.5799 415.32C79.9708 415.32 77.8568 413.169 77.8568 410.515C77.8568 407.862 79.9708 405.711 82.5799 405.711C82.5821 405.711 82.5849 405.712 82.587 405.712C82.5899 405.712 82.592 405.711 82.5949 405.711C85.2026 405.711 87.3166 407.861 87.3166 410.514C87.3166 411.506 87.013 412.422 86.505 413.186C86.5001 413.194 86.4958 413.201 86.4908 413.209C86.416 413.32 86.3376 413.426 86.2542 413.53C86.2265 413.566 86.1965 413.601 86.1673 413.636C86.0911 413.724 86.0156 413.813 85.9343 413.897C85.8752 413.957 85.8111 414.013 85.7484 414.071C85.655 414.156 85.561 414.239 85.4612 414.316C85.3622 414.394 85.2617 414.469 85.1563 414.539C85.1371 414.552 85.1207 414.567 85.1021 414.578C87.5952 415.53 89.422 417.854 89.6977 420.648C89.707 420.691 89.7134 420.735 89.7134 420.781ZM81.4127 417.545C81.7333 417.545 81.9934 417.805 81.9934 418.126C81.9934 418.446 81.7333 418.706 81.4127 418.706H79.3144V420.805C79.3144 421.126 79.0536 421.386 78.733 421.386C78.4124 421.386 78.1523 421.126 78.1523 420.805V418.706H76.0541C75.7327 418.706 75.4727 418.446 75.4727 418.126C75.4727 417.805 75.7327 417.545 76.0541 417.545H78.1523V415.446C78.1523 415.125 78.4124 414.865 78.733 414.865C79.0536 414.865 79.3144 415.125 79.3144 415.446V417.545H81.4127Z" fill="#E2E8F0"/>
    <path d="M120.105 401.81C120.105 404.288 126.291 402.281 126.291 406.507C126.291 408.589 124.589 409.775 122.248 409.775C119.892 409.775 118.22 408.68 117.825 406.431H119.968C120.227 407.525 121.017 408.133 122.263 408.133C123.54 408.133 124.194 407.601 124.194 406.765C124.194 404.136 118.023 406.112 118.023 401.992C118.023 400.351 119.375 398.983 121.823 398.983C123.905 398.983 125.668 399.986 126.003 402.312H123.829C123.586 401.156 122.871 400.624 121.762 400.624C120.728 400.624 120.105 401.096 120.105 401.81ZM127.92 407.008V402.904H126.871V401.4H127.92V399.53H129.866V401.4H131.583V402.904H129.866V406.841C129.866 407.692 130.109 408.148 131.188 408.148H131.553V409.577C131.34 409.684 130.899 409.775 130.367 409.775C128.71 409.775 127.92 408.832 127.92 407.008ZM134.608 404.075H132.647C132.906 402.266 134.228 401.172 136.28 401.172C138.545 401.172 139.7 402.509 139.7 404.394V407.556C139.7 408.559 139.791 409.121 139.943 409.547H137.922C137.815 409.273 137.77 408.878 137.755 408.437C137.086 409.38 136.083 409.775 135.11 409.775C133.514 409.775 132.374 408.984 132.374 407.419C132.374 406.309 132.997 405.473 134.243 405.063C135.323 404.698 136.371 404.607 137.739 404.592V404.394C137.739 403.345 137.238 402.783 136.159 402.783C135.231 402.783 134.73 403.3 134.608 404.075ZM134.335 407.312C134.335 407.936 134.821 408.331 135.611 408.331C136.812 408.331 137.739 407.358 137.739 406.142V405.792C134.973 405.838 134.335 406.492 134.335 407.312ZM141.555 409.547V398.603H143.501V404.804L146.45 401.4H148.73L145.447 405.017L148.958 409.547H146.571L143.501 405.61V409.547H141.555ZM156.796 406.887C156.355 408.772 154.896 409.775 152.95 409.775C150.488 409.775 148.983 408.148 148.983 405.488C148.983 402.722 150.503 401.172 152.874 401.172C155.261 401.172 156.735 402.783 156.735 405.412V405.868H150.99C151.081 407.358 151.765 408.179 152.95 408.179C153.862 408.179 154.486 407.753 154.744 406.887H156.796ZM152.874 402.768C151.841 402.768 151.218 403.421 151.035 404.652H154.698C154.516 403.436 153.893 402.768 152.874 402.768ZM158.195 409.547V401.4H160.141V402.585C160.673 401.612 161.494 401.172 162.375 401.172C162.71 401.172 163.014 401.263 163.166 401.4V403.087C162.907 403.011 162.618 402.98 162.269 402.98C160.794 402.98 160.141 403.862 160.141 405.215V409.547H158.195ZM167.238 409.547V399.211H171.22C173.485 399.211 174.899 400.32 174.899 402.084C174.899 402.996 174.443 403.695 173.637 404.09C174.823 404.485 175.476 405.367 175.476 406.552C175.476 408.452 174.108 409.547 171.737 409.547H167.238ZM171.175 400.837H169.29V403.512H171.129C172.223 403.512 172.801 402.98 172.801 402.19C172.801 401.354 172.208 400.837 171.175 400.837ZM171.57 405.032H169.29V407.92H171.691C172.755 407.92 173.379 407.343 173.379 406.476C173.379 405.61 172.725 405.032 171.57 405.032ZM179.808 409.547V401.4H181.753V402.448C182.27 401.597 183.06 401.172 184.018 401.172C185.052 401.172 185.857 401.628 186.268 402.555C186.815 401.628 187.681 401.172 188.73 401.172C190.296 401.172 191.36 402.144 191.36 404.12V409.547H189.414V404.516C189.414 403.406 189.004 402.783 188.137 402.783C187.164 402.783 186.556 403.725 186.556 404.82V409.547H184.611V404.516C184.611 403.406 184.2 402.783 183.334 402.783C182.361 402.783 181.753 403.725 181.753 404.82V409.547H179.808ZM195.037 404.075H193.076C193.335 402.266 194.657 401.172 196.709 401.172C198.974 401.172 200.129 402.509 200.129 404.394V407.556C200.129 408.559 200.22 409.121 200.372 409.547H198.351C198.244 409.273 198.199 408.878 198.183 408.437C197.515 409.38 196.511 409.775 195.539 409.775C193.943 409.775 192.803 408.984 192.803 407.419C192.803 406.309 193.426 405.473 194.672 405.063C195.751 404.698 196.8 404.607 198.168 404.592V404.394C198.168 403.345 197.667 402.783 196.587 402.783C195.66 402.783 195.159 403.3 195.037 404.075ZM194.763 407.312C194.763 407.936 195.25 408.331 196.04 408.331C197.241 408.331 198.168 407.358 198.168 406.142V405.792C195.402 405.838 194.763 406.492 194.763 407.312ZM201.984 409.547V398.603H203.93V404.804L206.879 401.4H209.159L205.875 405.017L209.387 409.547H207L203.93 405.61V409.547H201.984ZM210.415 400.488V398.603H212.361V400.488H210.415ZM210.415 409.547V401.4H212.361V409.547H210.415ZM214.141 409.547V401.4H216.087V402.494C216.619 401.612 217.47 401.172 218.504 401.172C220.13 401.172 221.24 402.144 221.24 404.12V409.547H219.294V404.516C219.294 403.406 218.823 402.783 217.835 402.783C216.756 402.783 216.087 403.725 216.087 404.82V409.547H214.141ZM225.997 409.577C223.929 409.577 222.653 407.981 222.653 405.382C222.653 402.676 223.96 401.172 225.997 401.172C226.969 401.172 227.729 401.536 228.231 402.22V401.4H230.177V409.805C230.177 412.009 228.657 413.134 226.635 413.134C224.629 413.134 223.169 412.207 222.881 410.276H224.841C224.963 411.143 225.662 411.599 226.605 411.599C227.577 411.599 228.231 411.128 228.231 409.836V408.468C227.699 409.197 226.939 409.577 225.997 409.577ZM226.437 407.966C227.608 407.966 228.231 407.054 228.231 405.382C228.231 403.725 227.577 402.783 226.437 402.783C225.282 402.783 224.659 403.695 224.659 405.382C224.659 407.039 225.282 407.966 226.437 407.966ZM236.778 404.075H234.817C235.075 402.266 236.398 401.172 238.45 401.172C240.714 401.172 241.87 402.509 241.87 404.394V407.556C241.87 408.559 241.961 409.121 242.113 409.547H240.091C239.985 409.273 239.939 408.878 239.924 408.437C239.255 409.38 238.252 409.775 237.279 409.775C235.683 409.775 234.543 408.984 234.543 407.419C234.543 406.309 235.166 405.473 236.413 405.063C237.492 404.698 238.541 404.607 239.909 404.592V404.394C239.909 403.345 239.407 402.783 238.328 402.783C237.401 402.783 236.899 403.3 236.778 404.075ZM236.504 407.312C236.504 407.936 236.99 408.331 237.781 408.331C238.982 408.331 239.909 407.358 239.909 406.142V405.792C237.142 405.838 236.504 406.492 236.504 407.312ZM113.528 429.775C111.4 429.775 110.093 428.148 110.093 425.488C110.093 422.722 111.43 421.172 113.528 421.172C114.425 421.172 115.169 421.552 115.671 422.281V418.603H117.617V429.547H115.671V428.62C115.154 429.364 114.425 429.775 113.528 429.775ZM113.877 428.164C115.048 428.164 115.671 427.221 115.671 425.488C115.671 423.756 115.017 422.783 113.877 422.783C112.722 422.783 112.099 423.74 112.099 425.488C112.099 427.206 112.737 428.164 113.877 428.164ZM126.826 426.887C126.386 428.772 124.926 429.775 122.981 429.775C120.518 429.775 119.014 428.148 119.014 425.488C119.014 422.722 120.534 421.172 122.905 421.172C125.291 421.172 126.766 422.783 126.766 425.412V425.868H121.02C121.111 427.358 121.795 428.179 122.981 428.179C123.893 428.179 124.516 427.753 124.774 426.887H126.826ZM122.905 422.768C121.871 422.768 121.248 423.421 121.066 424.652H124.729C124.546 423.436 123.923 422.768 122.905 422.768ZM130.171 432.891H128.226V421.4H130.171V422.327C130.688 421.582 131.418 421.172 132.314 421.172C134.442 421.172 135.75 422.798 135.75 425.458C135.75 428.224 134.412 429.775 132.314 429.775C131.418 429.775 130.673 429.395 130.171 428.665V432.891ZM131.965 422.783C130.794 422.783 130.171 423.725 130.171 425.458C130.171 427.191 130.825 428.164 131.965 428.164C133.12 428.164 133.743 427.206 133.743 425.458C133.743 423.74 133.105 422.783 131.965 422.783ZM140.688 429.775C138.271 429.775 136.782 428.148 136.782 425.488C136.782 422.722 138.317 421.172 140.688 421.172C143.09 421.172 144.579 422.813 144.579 425.488C144.579 428.224 143.044 429.775 140.688 429.775ZM140.688 428.164C141.919 428.164 142.573 427.221 142.573 425.488C142.573 423.756 141.904 422.783 140.688 422.783C139.442 422.783 138.788 423.74 138.788 425.488C138.788 427.206 139.457 428.164 140.688 428.164ZM147.62 423.588C147.62 425.458 152.758 423.877 152.758 427.145C152.758 428.711 151.314 429.775 149.277 429.775C147.27 429.775 145.826 428.848 145.538 426.887H147.483C147.62 427.768 148.319 428.27 149.338 428.27C150.295 428.27 150.797 427.86 150.797 427.267C150.797 425.443 145.766 427.008 145.766 423.71C145.766 422.388 146.799 421.172 148.927 421.172C150.797 421.172 152.21 422.053 152.454 424.075H150.508C150.356 423.087 149.778 422.692 148.851 422.692C148.076 422.692 147.62 423.072 147.62 423.588ZM154.083 420.488V418.603H156.029V420.488H154.083ZM154.083 429.547V421.4H156.029V429.547H154.083ZM158.068 427.008V422.904H157.019V421.4H158.068V419.53H160.013V421.4H161.731V422.904H160.013V426.841C160.013 427.692 160.256 428.148 161.336 428.148H161.7V429.577C161.488 429.684 161.047 429.775 160.515 429.775C158.858 429.775 158.068 428.832 158.068 427.008ZM173 429.547L171.526 424.09L171.374 423.132L171.191 424.09L169.732 429.547H167.315L165.05 421.4H167.133L168.44 427.145L168.638 428.133L168.866 427.145L170.431 421.4H172.453L174.018 427.145L174.216 428.103L174.398 427.145L175.721 421.4H177.712L175.432 429.547H173ZM178.754 420.488V418.603H180.699V420.488H178.754ZM178.754 429.547V421.4H180.699V429.547H178.754ZM182.738 427.008V422.904H181.689V421.4H182.738V419.53H184.684V421.4H186.401V422.904H184.684V426.841C184.684 427.692 184.927 428.148 186.006 428.148H186.371V429.577C186.158 429.684 185.717 429.775 185.185 429.775C183.528 429.775 182.738 428.832 182.738 427.008ZM187.541 429.547V418.603H189.487V422.494C190.019 421.612 190.87 421.172 191.904 421.172C193.53 421.172 194.64 422.144 194.64 424.12V429.547H192.694V424.516C192.694 423.406 192.223 422.783 191.235 422.783C190.156 422.783 189.487 423.725 189.487 424.82V429.547H187.541ZM199.959 429.775C197.542 429.775 196.053 428.148 196.053 425.488C196.053 422.722 197.588 421.172 199.959 421.172C202.361 421.172 203.85 422.813 203.85 425.488C203.85 428.224 202.315 429.775 199.959 429.775ZM199.959 428.164C201.19 428.164 201.844 427.221 201.844 425.488C201.844 423.756 201.175 422.783 199.959 422.783C198.713 422.783 198.059 423.74 198.059 425.488C198.059 427.206 198.728 428.164 199.959 428.164ZM210.326 426.127V421.4H212.272V429.547H210.326V428.452C209.794 429.349 208.958 429.775 207.955 429.775C206.344 429.775 205.265 428.802 205.265 426.841V421.4H207.21V426.446C207.21 427.556 207.666 428.164 208.624 428.164C209.673 428.164 210.326 427.221 210.326 426.127ZM214.325 427.008V422.904H213.277V421.4H214.325V419.53H216.271V421.4H217.989V422.904H216.271V426.841C216.271 427.692 216.514 428.148 217.593 428.148H217.958V429.577C217.745 429.684 217.305 429.775 216.773 429.775C215.116 429.775 214.325 428.832 214.325 427.008ZM222.053 429.547V418.603H223.999V429.547H222.053ZM229.305 429.775C226.888 429.775 225.399 428.148 225.399 425.488C225.399 422.722 226.934 421.172 229.305 421.172C231.707 421.172 233.196 422.813 233.196 425.488C233.196 428.224 231.661 429.775 229.305 429.775ZM229.305 428.164C230.536 428.164 231.19 427.221 231.19 425.488C231.19 423.756 230.521 422.783 229.305 422.783C228.059 422.783 227.405 423.74 227.405 425.488C227.405 427.206 228.074 428.164 229.305 428.164ZM241.664 424.288H239.718C239.536 423.224 238.897 422.783 238.076 422.783C236.876 422.783 236.237 423.74 236.237 425.488C236.237 427.206 236.906 428.164 238.137 428.164C238.973 428.164 239.566 427.708 239.764 426.78H241.724C241.36 428.817 239.931 429.775 238.092 429.775C235.69 429.775 234.231 428.133 234.231 425.488C234.231 422.722 235.736 421.172 238.076 421.172C239.931 421.172 241.39 422.205 241.664 424.288ZM243.072 429.547V418.603H245.017V424.804L247.966 421.4H250.246L246.963 425.017L250.474 429.547H248.088L245.017 425.61V429.547H243.072Z" fill="#334155"/>
    <rect x="102.996" width="116.197" height="45.7107" rx="22.8554" fill="#3B82F6"/>
    <rect x="110.672" y="5.75586" width="34.2" height="34.2" rx="17.1" fill="#2563EB"/>
    <path d="M127.773 25.2305C130.397 25.2305 132.523 23.1038 132.523 20.4805C132.523 17.8571 130.397 15.7305 127.773 15.7305C125.15 15.7305 123.023 17.8571 123.023 20.4805C123.023 23.1038 125.15 25.2305 127.773 25.2305Z" stroke="#F8FAFC" stroke-width="1.1875" stroke-miterlimit="10"/>
    <path d="M120.574 29.3874C121.304 28.1235 122.353 27.074 123.617 26.3443C124.881 25.6146 126.314 25.2305 127.773 25.2305C129.233 25.2305 130.666 25.6146 131.93 26.3443C133.194 27.074 134.243 28.1235 134.973 29.3874" stroke="#F8FAFC" stroke-width="1.1875" stroke-linecap="round" stroke-linejoin="round"/>
    <path d="M157.925 29.3555V19.6256H154.18V17.7275H163.979V19.6256H160.234V29.3555H157.925ZM164.73 29.3555V20.1899H166.919V21.5237C167.518 20.4293 168.441 19.9334 169.433 19.9334C169.809 19.9334 170.151 20.036 170.322 20.1899V22.088C170.031 22.0025 169.707 21.9683 169.313 21.9683C167.655 21.9683 166.919 22.9601 166.919 24.482V29.3555H164.73ZM173.497 23.1995H171.291C171.582 21.1646 173.07 19.9334 175.378 19.9334C177.926 19.9334 179.226 21.4382 179.226 23.5586V27.1154C179.226 28.244 179.328 28.8767 179.499 29.3555H177.225C177.105 29.0477 177.054 28.6031 177.037 28.1072C176.284 29.1674 175.156 29.612 174.061 29.612C172.266 29.612 170.983 28.7228 170.983 26.9615C170.983 25.7132 171.685 24.7727 173.087 24.311C174.301 23.9006 175.481 23.798 177.02 23.7809V23.5586C177.02 22.3787 176.455 21.746 175.241 21.746C174.198 21.746 173.634 22.3274 173.497 23.1995ZM173.189 26.8418C173.189 27.5429 173.737 27.9875 174.626 27.9875C175.977 27.9875 177.02 26.8931 177.02 25.5251V25.1318C173.908 25.1831 173.189 25.9184 173.189 26.8418ZM184.75 29.612C182.356 29.612 180.885 27.7823 180.885 24.7898C180.885 21.6776 182.39 19.9334 184.75 19.9334C185.759 19.9334 186.597 20.3609 187.161 21.1817V17.0435H189.35V29.3555H187.161V28.3124C186.58 29.1503 185.759 29.612 184.75 29.612ZM185.143 27.7994C186.46 27.7994 187.161 26.7392 187.161 24.7898C187.161 22.8404 186.426 21.746 185.143 21.746C183.844 21.746 183.143 22.8233 183.143 24.7898C183.143 26.7221 183.861 27.7994 185.143 27.7994ZM199.711 26.363C199.215 28.4834 197.573 29.612 195.385 29.612C192.614 29.612 190.922 27.7823 190.922 24.7898C190.922 21.6776 192.632 19.9334 195.299 19.9334C197.984 19.9334 199.643 21.746 199.643 24.7043V25.2173H193.179C193.281 26.8931 194.051 27.8165 195.385 27.8165C196.411 27.8165 197.112 27.3377 197.402 26.363H199.711ZM195.299 21.7289C194.136 21.7289 193.435 22.4642 193.23 23.8493H197.351C197.146 22.4813 196.445 21.7289 195.299 21.7289ZM201.285 29.3555V20.1899H203.474V21.5237C204.072 20.4293 204.996 19.9334 205.988 19.9334C206.364 19.9334 206.706 20.036 206.877 20.1899V22.088C206.586 22.0025 206.261 21.9683 205.868 21.9683C204.209 21.9683 203.474 22.9601 203.474 24.482V29.3555H201.285Z" fill="#F8FAFC"/>
    <path d="M58.8115 257.119L58.8115 258.069L58.8115 257.119ZM100.803 257.791C101.174 257.42 101.174 256.818 100.804 256.447L94.7578 250.402C94.3868 250.031 93.7853 250.031 93.4143 250.402C93.0433 250.773 93.0433 251.374 93.4143 251.745L98.7882 257.119L93.4142 262.493C93.0432 262.864 93.0432 263.466 93.4142 263.837C93.7852 264.208 94.3867 264.208 94.7577 263.837L100.803 257.791ZM100.803 27.2717C101.174 26.9007 101.174 26.2992 100.803 25.9282L94.7576 19.8824C94.3866 19.5114 93.7851 19.5114 93.4141 19.8824C93.0431 20.2533 93.0431 20.8549 93.4141 21.2259L98.7881 26.5999L93.414 31.9739C93.043 32.3449 93.043 32.9464 93.414 33.3174C93.785 33.6884 94.3865 33.6884 94.7575 33.3174L100.803 27.2717ZM58.8125 26.5996L58.8125 27.5496L58.8125 26.5996ZM26.5123 58.8995H27.4623H26.5123ZM26.5117 224.819H25.5617H26.5117ZM31.2418 252.389L30.5701 253.06H30.5701L31.2418 252.389ZM58.8115 258.069L100.132 258.069L100.132 256.169L58.8115 256.169L58.8115 258.069ZM100.132 25.6499L58.8125 25.6496L58.8125 27.5496L100.132 27.5499L100.132 25.6499ZM25.5623 58.8995L25.5617 224.819H27.4617L27.4623 58.8995L25.5623 58.8995ZM58.8125 25.6496C51.2261 25.6496 45.4408 25.6475 40.9649 26.2492C36.4617 26.8546 33.1419 28.0869 30.5708 30.6579L31.9143 32.0014C34.0735 29.8422 36.9255 28.7094 41.2181 28.1323C45.5379 27.5515 51.1724 27.5496 58.8125 27.5496L58.8125 25.6496ZM27.4623 58.8995C27.4623 51.2594 27.4643 45.625 28.0451 41.3051C28.6222 37.0126 29.7551 34.1606 31.9143 32.0014L30.5708 30.6579C27.9998 33.2289 26.7675 36.5487 26.1621 41.0519C25.5603 45.5278 25.5623 51.3131 25.5623 58.8995L27.4623 58.8995ZM58.8115 256.169C51.1715 256.169 45.5371 256.167 41.2172 255.586C36.9247 255.009 34.0728 253.876 31.9136 251.717L30.5701 253.06C33.1411 255.631 36.4608 256.864 40.964 257.469C45.4399 258.071 51.2252 258.069 58.8115 258.069L58.8115 256.169ZM25.5617 224.819C25.5617 232.405 25.5597 238.19 26.1614 242.666C26.7668 247.169 27.9991 250.489 30.5701 253.06L31.9136 251.717C29.7544 249.558 28.6216 246.706 28.0445 242.413C27.4637 238.093 27.4617 232.459 27.4617 224.819H25.5617Z" fill="#3B82F6"/>
    <path d="M100.813 275.221C101.184 274.85 101.184 274.249 100.813 273.878L94.7674 267.832C94.3964 267.461 93.7949 267.461 93.4239 267.832C93.0529 268.203 93.0529 268.805 93.4239 269.176L98.7979 274.55L93.4239 279.924C93.0529 280.295 93.0529 280.896 93.4239 281.267C93.7949 281.638 94.3964 281.638 94.7674 281.267L100.813 275.221ZM8.92163 17.0798L8.24988 16.4081L8.92163 17.0798ZM11.1476 267.593L11.8194 266.922L11.1476 267.593ZM51.6914 275.5H100.141V273.6H51.6914V275.5ZM100.141 11.3996H36.4914V13.2996H100.141V11.3996ZM3.24141 44.6496V227.05H5.14141V44.6496H3.24141ZM36.4914 11.3996C28.9051 11.3996 23.1198 11.3976 18.6439 11.9994C14.1407 12.6048 10.8209 13.837 8.24988 16.4081L9.59338 17.7516C11.7526 15.5924 14.6045 14.4595 18.8971 13.8824C23.2169 13.3016 28.8514 13.2996 36.4914 13.2996V11.3996ZM5.14141 44.6496C5.14141 37.0096 5.14342 31.3751 5.72421 27.0553C6.30133 22.7627 7.4342 19.9108 9.59338 17.7516L8.24988 16.4081C5.67884 18.9791 4.4466 22.2989 3.84116 26.8021C3.23939 31.278 3.24141 37.0633 3.24141 44.6496H5.14141ZM51.6914 273.6C40.4687 273.6 32.1472 273.598 25.7578 272.739C19.3957 271.883 15.0915 270.194 11.8194 266.922L10.4759 268.265C14.1599 271.949 18.9318 273.738 25.5046 274.622C32.0501 275.502 40.5224 275.5 51.6914 275.5V273.6ZM3.24141 227.05C3.24141 238.219 3.23939 246.691 4.1194 253.236C5.00309 259.809 6.79183 264.581 10.4759 268.265L11.8194 266.922C8.54719 263.649 6.85783 259.345 6.00246 252.983C5.14342 246.594 5.14141 238.272 5.14141 227.05H3.24141Z" fill="url(#paint1_linear_2722_406)"/>
    <path d="M219.074 254.559C218.703 254.93 218.703 255.531 219.074 255.902L225.12 261.948C225.491 262.319 226.093 262.319 226.464 261.948C226.835 261.577 226.835 260.975 226.464 260.604L221.09 255.23L226.464 249.856C226.835 249.485 226.835 248.884 226.464 248.513C226.093 248.142 225.491 248.142 225.12 248.513L219.074 254.559ZM314.766 523.469L315.438 524.141L314.766 523.469ZM313.653 261.074L312.981 261.745L313.653 261.074ZM219.746 256.18H279.596V254.28H219.746V256.18ZM318.546 295.13V495.9H320.446V295.13H318.546ZM287.196 527.25H269.25V529.15H287.196V527.25ZM318.546 495.9C318.546 503.54 318.544 509.174 317.963 513.494C317.386 517.786 316.253 520.638 314.094 522.798L315.438 524.141C318.009 521.57 319.241 518.25 319.846 513.747C320.448 509.271 320.446 503.486 320.446 495.9H318.546ZM287.196 529.15C294.782 529.15 300.568 529.152 305.044 528.55C309.547 527.944 312.867 526.712 315.438 524.141L314.094 522.798C311.935 524.957 309.083 526.09 304.79 526.667C300.471 527.248 294.836 527.25 287.196 527.25V529.15ZM279.596 256.18C289.027 256.18 296.005 256.182 301.36 256.902C306.687 257.619 310.265 259.03 312.981 261.745L314.325 260.402C311.197 257.274 307.151 255.764 301.613 255.019C296.103 254.278 288.974 254.28 279.596 254.28V256.18ZM320.446 295.13C320.446 285.753 320.448 278.624 319.707 273.113C318.963 267.575 317.452 263.529 314.325 260.402L312.981 261.745C315.697 264.461 317.108 268.039 317.824 273.366C318.544 278.721 318.546 285.699 318.546 295.13H320.446Z" fill="#3B82F6"/>
    <path d="M267.722 276.131L267.722 277.081L267.722 276.131ZM303.821 312.231H304.771H303.821ZM303.821 481.65H304.771H303.821ZM277.221 508.25V507.3V508.25ZM269.054 507.578C268.683 507.949 268.683 508.55 269.054 508.921L275.099 514.967C275.47 515.338 276.072 515.338 276.443 514.967C276.814 514.596 276.814 513.995 276.443 513.624L271.069 508.25L276.443 502.876C276.814 502.505 276.814 501.903 276.443 501.532C276.072 501.161 275.47 501.161 275.099 501.532L269.054 507.578ZM219.953 277.081L267.722 277.081L267.722 275.181L219.953 275.181L219.953 277.081ZM302.871 312.231L302.871 481.65H304.771L304.771 312.231H302.871ZM277.221 507.3L269.725 507.3L269.725 509.2L277.221 509.2L277.221 507.3ZM302.871 481.65C302.871 487.946 302.869 492.573 302.393 496.117C301.92 499.633 300.996 501.941 299.254 503.682L300.598 505.026C302.751 502.872 303.775 500.097 304.276 496.37C304.773 492.67 304.771 487.893 304.771 481.65H302.871ZM277.221 509.2C283.464 509.2 288.242 509.202 291.942 508.704C295.669 508.203 298.444 507.18 300.598 505.026L299.254 503.682C297.512 505.424 295.205 506.348 291.689 506.821C288.145 507.298 283.518 507.3 277.221 507.3V509.2ZM267.722 277.081C276.257 277.081 282.563 277.083 287.401 277.733C292.211 278.38 295.426 279.652 297.863 282.09L299.206 280.746C296.357 277.897 292.674 276.525 287.654 275.85C282.661 275.179 276.204 275.181 267.722 275.181L267.722 277.081ZM304.771 312.231C304.771 303.749 304.773 297.292 304.102 292.299C303.427 287.278 302.056 283.595 299.206 280.746L297.863 282.09C300.3 284.527 301.572 287.742 302.219 292.552C302.869 297.389 302.871 303.695 302.871 312.231H304.771Z" fill="#3B82F6"/>
    <path d="M182.18 151.329C181.809 150.958 181.207 150.958 180.836 151.329L174.79 157.375C174.419 157.746 174.419 158.347 174.79 158.718C175.161 159.089 175.763 159.089 176.134 158.718L181.508 153.344L186.882 158.718C187.253 159.089 187.854 159.089 188.225 158.718C188.596 158.347 188.596 157.746 188.225 157.375L182.18 151.329ZM182.458 241.301L182.458 152.001L180.558 152.001L180.558 241.301L182.458 241.301Z" fill="#3B82F6"/>
    <path d="M158.035 241.972C158.406 242.343 159.008 242.343 159.379 241.972L165.425 235.926C165.796 235.555 165.796 234.953 165.425 234.582C165.054 234.211 164.452 234.211 164.081 234.582L158.707 239.957L153.333 234.582C152.962 234.211 152.361 234.211 151.99 234.582C151.619 234.953 151.619 235.555 151.99 235.926L158.035 241.972ZM157.757 152L157.757 241.3H159.657L159.657 152L157.757 152Z" fill="#3B82F6"/>
    <path d="M182.18 380.671C181.809 381.042 181.207 381.042 180.836 380.671L174.79 374.625C174.419 374.254 174.419 373.653 174.79 373.282C175.161 372.911 175.763 372.911 176.134 373.282L181.508 378.656L186.882 373.282C187.253 372.911 187.854 372.911 188.225 373.282C188.596 373.653 188.596 374.254 188.225 374.625L182.18 380.671ZM182.458 290.699L182.458 379.999L180.558 379.999L180.558 290.699H182.458Z" fill="#3B82F6"/>
    <path d="M158.035 290.028C158.406 289.657 159.008 289.657 159.379 290.028L165.425 296.074C165.796 296.445 165.796 297.047 165.425 297.418C165.054 297.789 164.452 297.789 164.081 297.418L158.707 292.044L153.333 297.418C152.962 297.789 152.361 297.789 151.99 297.418C151.619 297.047 151.619 296.445 151.99 296.074L158.035 290.028ZM157.757 380L157.757 290.7H159.657L159.657 380L157.757 380Z" fill="#3B82F6"/>
    <rect x="165.695" y="182.4" width="34.2" height="26.6" rx="13.3" fill="#3B82F6"/>
    <g clip-path="url(#clip1_2722_406)">
        <path d="M178.641 197.087C178.641 196.213 179.35 195.504 180.224 195.504H185.37C186.244 195.504 186.953 196.213 186.953 197.087V199.462C186.953 200.337 186.244 201.046 185.37 201.046H180.224C179.35 201.046 178.641 200.337 178.641 199.462V197.087Z" stroke="#010207" stroke-width="1.1875"/>
        <path d="M181.016 195.324L181.016 191.941C181.016 191.067 181.725 190.358 182.599 190.358L182.995 190.358C183.869 190.358 184.578 191.067 184.578 191.941L184.578 195.504" stroke="#010207" stroke-width="1.1875"/>
        <path d="M182.008 198.248C182.005 198.352 182.022 198.455 182.058 198.553C182.095 198.65 182.15 198.739 182.221 198.815C182.293 198.891 182.378 198.952 182.473 198.995C182.567 199.038 182.669 199.062 182.773 199.065C182.877 199.069 182.981 199.052 183.078 199.015C183.175 198.979 183.265 198.923 183.34 198.852C183.416 198.781 183.478 198.696 183.52 198.601C183.563 198.506 183.587 198.404 183.591 198.3C183.594 198.196 183.577 198.093 183.541 197.995C183.504 197.898 183.449 197.809 183.377 197.733C183.306 197.657 183.221 197.596 183.126 197.553C183.032 197.51 182.93 197.486 182.826 197.483C182.722 197.479 182.618 197.496 182.521 197.533C182.424 197.57 182.334 197.625 182.259 197.696C182.183 197.767 182.121 197.852 182.078 197.947C182.036 198.042 182.012 198.144 182.008 198.248Z" fill="#010207"/>
    </g>
    <rect x="0.394531" y="254.6" width="38" height="38" rx="19" fill="url(#paint2_linear_2722_406)"/>
    <path d="M25.0977 273.598H25.1072M13.6977 273.598H13.7072M22.2477 273.598C22.2477 275.172 20.9717 276.448 19.3977 276.448C17.8236 276.448 16.5477 275.172 16.5477 273.598C16.5477 272.024 17.8236 270.748 19.3977 270.748C20.9717 270.748 22.2477 272.024 22.2477 273.598ZM12.7477 267.898H26.0477C27.097 267.898 27.9477 268.749 27.9477 269.798V277.398C27.9477 278.448 27.097 279.298 26.0477 279.298H12.7477C11.6983 279.298 10.8477 278.448 10.8477 277.398V269.798C10.8477 268.749 11.6983 267.898 12.7477 267.898Z" stroke="white" stroke-width="1.9" stroke-linecap="round" stroke-linejoin="round"/>
    <rect x="164.746" y="321.1" width="34.2" height="26.6" rx="13.3" fill="#3B82F6"/>
    <g clip-path="url(#clip2_2722_406)">
        <path d="M177.691 335.788C177.691 334.914 178.4 334.205 179.275 334.205H184.421C185.295 334.205 186.004 334.914 186.004 335.788V338.163C186.004 339.038 185.295 339.747 184.421 339.747H179.275C178.4 339.747 177.691 339.038 177.691 338.163V335.788Z" stroke="#010207" stroke-width="1.1875"/>
        <path d="M180.066 334.025L180.066 330.642C180.066 329.768 180.775 329.059 181.65 329.059L182.046 329.059C182.92 329.059 183.629 329.768 183.629 330.642L183.629 331.434" stroke="#010207" stroke-width="1.1875" stroke-linecap="round"/>
        <path d="M181.059 336.947C181.056 337.051 181.073 337.155 181.109 337.252C181.146 337.349 181.201 337.438 181.272 337.514C181.343 337.59 181.429 337.651 181.523 337.694C181.618 337.737 181.72 337.761 181.824 337.765C181.928 337.768 182.032 337.751 182.129 337.714C182.226 337.678 182.315 337.622 182.391 337.551C182.467 337.48 182.528 337.395 182.571 337.3C182.614 337.206 182.638 337.103 182.641 336.999C182.645 336.896 182.628 336.792 182.591 336.695C182.555 336.597 182.499 336.508 182.428 336.432C182.357 336.356 182.272 336.295 182.177 336.252C182.083 336.209 181.98 336.186 181.876 336.182C181.773 336.179 181.669 336.196 181.572 336.232C181.474 336.269 181.385 336.324 181.309 336.395C181.233 336.466 181.172 336.552 181.129 336.646C181.086 336.741 181.062 336.843 181.059 336.947Z" fill="#010207"/>
    </g>
    <rect x="94.4453" y="520.475" width="14.25" height="14.25" rx="7.125" fill="#84CC16"/>
    <path d="M99.1953 527.995L100.641 529.381L103.945 525.818" stroke="white" stroke-width="1.1875" stroke-linecap="round" stroke-linejoin="round"/>
    <defs>
        <linearGradient id="paint0_linear_2722_406" x1="64.5639" y1="486.4" x2="285.978" y2="532.907" gradientUnits="userSpaceOnUse">
            <stop stop-color="#534289"/>
            <stop offset="0.46875" stop-color="#D55B89"/>
            <stop offset="0.692708" stop-color="#F3AFCD"/>
            <stop offset="0.842814" stop-color="#E7BCFB"/>
        </linearGradient>
        <linearGradient id="paint1_linear_2722_406" x1="6.66754" y1="12.3496" x2="115.218" y2="14.7023" gradientUnits="userSpaceOnUse">
            <stop stop-color="#534289"/>
            <stop offset="0.46875" stop-color="#D55B89"/>
            <stop offset="0.692708" stop-color="#F3AFCD"/>
            <stop offset="0.842814" stop-color="#E7BCFB"/>
        </linearGradient>
        <linearGradient id="paint2_linear_2722_406" x1="-10.0555" y1="250.8" x2="47.3814" y2="244.752" gradientUnits="userSpaceOnUse">
            <stop stop-color="#534289"/>
            <stop offset="0.46875" stop-color="#D55B89"/>
            <stop offset="0.735418" stop-color="#F3AFCD"/>
            <stop offset="0.842814" stop-color="#E7BCFB"/>
        </linearGradient>
        <clipPath id="clip0_2722_406">
            <rect width="22.8" height="22.8" fill="white" transform="translate(119.641 254.654)"/>
        </clipPath>
        <clipPath id="clip1_2722_406">
            <rect width="19" height="19" fill="white" transform="translate(173.297 186.201)"/>
        </clipPath>
        <clipPath id="clip2_2722_406">
            <rect width="19" height="19" fill="white" transform="translate(172.348 324.9)"/>
        </clipPath>
    </defs>
</svg>
