<svg width="1040" height="434" viewBox="0 0 1040 434" fill="none" xmlns="http://www.w3.org/2000/svg">
    <path d="M528.836 125.627V112.93H530.388V125.627H528.836ZM536.658 125.839C533.977 125.839 532.372 124.005 532.372 120.954C532.372 117.78 534.03 116.034 536.658 116.034C539.338 116.034 540.943 117.903 540.943 120.954C540.943 124.11 539.285 125.839 536.658 125.839ZM536.658 124.498C538.403 124.498 539.356 123.246 539.356 120.954C539.356 118.679 538.386 117.374 536.658 117.374C534.912 117.374 533.959 118.644 533.959 120.954C533.959 123.211 534.929 124.498 536.658 124.498ZM550.682 119.49H549.13C548.883 118.062 547.931 117.374 546.696 117.374C544.968 117.374 544.051 118.644 544.051 120.954C544.051 123.229 545.021 124.516 546.749 124.516C548.001 124.516 548.9 123.846 549.2 122.506H550.752C550.329 124.833 548.759 125.839 546.714 125.839C544.051 125.839 542.464 123.987 542.464 120.954C542.464 117.78 544.086 116.034 546.696 116.034C548.759 116.034 550.382 117.198 550.682 119.49ZM552.67 125.627V112.93H554.222V120.284L558.26 116.263H560.165L555.897 120.442L560.411 125.627H558.436L554.222 120.848V125.627H552.67ZM569.22 122.576C568.708 124.763 567.139 125.839 565.005 125.839C562.289 125.839 560.649 124.005 560.649 120.954C560.649 117.78 562.289 116.034 564.917 116.034C567.562 116.034 569.149 117.85 569.149 120.83V121.218H562.236C562.325 123.317 563.312 124.498 565.005 124.498C566.328 124.498 567.262 123.864 567.597 122.576H569.22ZM564.917 117.374C563.418 117.374 562.519 118.309 562.289 120.054H567.527C567.315 118.326 566.381 117.374 564.917 117.374ZM574.726 125.839C572.24 125.839 570.741 124.005 570.741 120.954C570.741 117.78 572.275 116.034 574.726 116.034C575.837 116.034 576.737 116.492 577.354 117.356V112.93H578.906V125.627H577.354V124.445C576.737 125.327 575.837 125.839 574.726 125.839ZM574.832 124.498C576.472 124.498 577.354 123.246 577.354 120.954C577.354 118.679 576.437 117.374 574.832 117.374C573.21 117.374 572.328 118.644 572.328 120.954C572.328 123.211 573.245 124.498 574.832 124.498ZM532.345 148.839C529.859 148.839 528.36 147.005 528.36 143.954C528.36 140.78 529.894 139.034 532.345 139.034C533.456 139.034 534.356 139.492 534.973 140.356V135.93H536.525V148.627H534.973V147.445C534.356 148.327 533.456 148.839 532.345 148.839ZM532.451 147.498C534.091 147.498 534.973 146.246 534.973 143.954C534.973 141.679 534.056 140.374 532.451 140.374C530.829 140.374 529.947 141.644 529.947 143.954C529.947 146.211 530.864 147.498 532.451 147.498ZM542.417 148.627V138.011H538.309V136.636H548.149V138.011H544.04V148.627H542.417ZM552.156 148.839C549.476 148.839 547.871 147.005 547.871 143.954C547.871 140.78 549.529 139.034 552.156 139.034C554.837 139.034 556.442 140.903 556.442 143.954C556.442 147.11 554.784 148.839 552.156 148.839ZM552.156 147.498C553.902 147.498 554.855 146.246 554.855 143.954C554.855 141.679 553.885 140.374 552.156 140.374C550.411 140.374 549.458 141.644 549.458 143.954C549.458 146.211 550.428 147.498 552.156 147.498ZM558.439 148.627V135.93H559.991V143.284L564.029 139.263H565.934L561.666 143.442L566.181 148.627H564.205L559.991 143.848V148.627H558.439ZM574.989 145.576C574.477 147.763 572.908 148.839 570.774 148.839C568.058 148.839 566.418 147.005 566.418 143.954C566.418 140.78 568.058 139.034 570.686 139.034C573.331 139.034 574.918 140.85 574.918 143.83V144.218H568.006C568.094 146.317 569.081 147.498 570.774 147.498C572.097 147.498 573.031 146.864 573.366 145.576H574.989ZM570.686 140.374C569.187 140.374 568.288 141.309 568.058 143.054H573.296C573.084 141.326 572.15 140.374 570.686 140.374ZM576.986 148.627V139.263H578.538V140.533C579.173 139.545 580.196 139.034 581.43 139.034C583.423 139.034 584.604 140.198 584.604 142.367V148.627H583.052V142.684C583.052 141.273 582.418 140.356 581.007 140.356C579.455 140.356 578.538 141.75 578.538 143.09V148.627H576.986ZM590.749 148.627V136.636H592.442L597.962 145.1L598.649 146.282V136.636H600.272V148.627H598.579L593.077 140.215L592.371 138.981V148.627H590.749ZM603.028 148.627V136.636H611.157V137.958H604.65V142.067H610.505V143.39H604.65V148.627H603.028ZM616.434 148.627V138.011H612.325V136.636H622.165V138.011H618.056V148.627H616.434Z" fill="#94A3B8"/>
    <path d="M532.345 305.995C529.859 305.995 528.36 304.161 528.36 301.11C528.36 297.936 529.894 296.19 532.345 296.19C533.456 296.19 534.356 296.649 534.973 297.513V293.086H536.525V305.783H534.973V304.602C534.356 305.483 533.456 305.995 532.345 305.995ZM532.451 304.655C534.091 304.655 534.973 303.403 534.973 301.11C534.973 298.835 534.056 297.53 532.451 297.53C530.829 297.53 529.947 298.8 529.947 301.11C529.947 303.367 530.864 304.655 532.451 304.655ZM542.417 305.783V295.167H538.309V293.792H548.149V295.167H544.04V305.783H542.417ZM552.156 305.995C549.476 305.995 547.871 304.161 547.871 301.11C547.871 297.936 549.529 296.19 552.156 296.19C554.837 296.19 556.442 298.059 556.442 301.11C556.442 304.267 554.784 305.995 552.156 305.995ZM552.156 304.655C553.902 304.655 554.855 303.403 554.855 301.11C554.855 298.835 553.885 297.53 552.156 297.53C550.411 297.53 549.458 298.8 549.458 301.11C549.458 303.367 550.428 304.655 552.156 304.655ZM558.439 305.783V293.086H559.991V300.44L564.029 296.419H565.934L561.666 300.599L566.181 305.783H564.205L559.991 301.004V305.783H558.439ZM574.989 302.732C574.477 304.919 572.908 305.995 570.774 305.995C568.058 305.995 566.418 304.161 566.418 301.11C566.418 297.936 568.058 296.19 570.686 296.19C573.331 296.19 574.918 298.006 574.918 300.987V301.375H568.006C568.094 303.473 569.081 304.655 570.774 304.655C572.097 304.655 573.031 304.02 573.366 302.732H574.989ZM570.686 297.53C569.187 297.53 568.288 298.465 568.058 300.211H573.296C573.084 298.483 572.15 297.53 570.686 297.53ZM576.986 305.783V296.419H578.538V297.689C579.173 296.701 580.196 296.19 581.43 296.19C583.423 296.19 584.604 297.354 584.604 299.523V305.783H583.052V299.84C583.052 298.43 582.418 297.513 581.007 297.513C579.455 297.513 578.538 298.906 578.538 300.246V305.783H576.986Z" fill="#94A3B8"/>
    <path d="M703.142 190.178C700.656 190.178 699.157 188.344 699.157 185.294C699.157 182.119 700.691 180.374 703.142 180.374C704.253 180.374 705.152 180.832 705.77 181.696V177.27H707.321V189.967H705.77V188.785C705.152 189.667 704.253 190.178 703.142 190.178ZM703.248 188.838C704.888 188.838 705.77 187.586 705.77 185.294C705.77 183.019 704.853 181.714 703.248 181.714C701.626 181.714 700.744 182.984 700.744 185.294C700.744 187.551 701.661 188.838 703.248 188.838ZM713.214 189.967V179.351H709.106V177.975H718.946V179.351H714.837V189.967H713.214ZM722.953 190.178C720.273 190.178 718.668 188.344 718.668 185.294C718.668 182.119 720.326 180.374 722.953 180.374C725.634 180.374 727.239 182.243 727.239 185.294C727.239 188.45 725.581 190.178 722.953 190.178ZM722.953 188.838C724.699 188.838 725.651 187.586 725.651 185.294C725.651 183.019 724.682 181.714 722.953 181.714C721.208 181.714 720.255 182.984 720.255 185.294C720.255 187.551 721.225 188.838 722.953 188.838ZM729.236 189.967V177.27H730.788V184.624L734.826 180.603H736.731L732.463 184.782L736.977 189.967H735.002L730.788 185.188V189.967H729.236ZM745.786 186.916C745.274 189.103 743.705 190.178 741.571 190.178C738.855 190.178 737.215 188.344 737.215 185.294C737.215 182.119 738.855 180.374 741.483 180.374C744.128 180.374 745.715 182.19 745.715 185.17V185.558H738.802C738.891 187.657 739.878 188.838 741.571 188.838C742.894 188.838 743.828 188.203 744.163 186.916H745.786ZM741.483 181.714C739.984 181.714 739.085 182.649 738.855 184.394H744.093C743.881 182.666 742.946 181.714 741.483 181.714ZM747.783 189.967V180.603H749.335V181.873C749.97 180.885 750.992 180.374 752.227 180.374C754.22 180.374 755.401 181.538 755.401 183.707V189.967H753.849V184.024C753.849 182.613 753.214 181.696 751.804 181.696C750.252 181.696 749.335 183.089 749.335 184.43V189.967H747.783Z" fill="#94A3B8"/>
    <path d="M232.842 183.001C232.842 185.611 238.925 183.46 238.925 187.322C238.925 189.067 237.374 190.178 235.169 190.178C232.947 190.178 231.396 189.12 231.043 186.916H232.595C232.806 188.221 233.776 188.944 235.222 188.944C236.633 188.944 237.374 188.309 237.374 187.427C237.374 184.87 231.36 186.987 231.36 183.107C231.36 181.679 232.471 180.374 234.764 180.374C236.792 180.374 238.291 181.326 238.59 183.654H237.039C236.809 182.19 235.998 181.643 234.676 181.643C233.512 181.643 232.842 182.225 232.842 183.001ZM248.865 186.916C248.354 189.103 246.784 190.178 244.65 190.178C241.935 190.178 240.295 188.344 240.295 185.294C240.295 182.119 241.935 180.374 244.562 180.374C247.207 180.374 248.795 182.19 248.795 185.17V185.558H241.882C241.97 187.657 242.958 188.838 244.65 188.838C245.973 188.838 246.908 188.203 247.243 186.916H248.865ZM244.562 181.714C243.063 181.714 242.164 182.649 241.935 184.394H247.172C246.961 182.666 246.026 181.714 244.562 181.714ZM251.074 187.269V181.837H249.769V180.603H251.074V178.452H252.626V180.603H254.689V181.837H252.626V187.269C252.626 188.397 252.961 188.926 254.336 188.926H254.654V190.037C254.477 190.126 254.09 190.178 253.649 190.178C251.903 190.178 251.074 189.244 251.074 187.269ZM256.378 187.269V181.837H255.073V180.603H256.378V178.452H257.93V180.603H259.993V181.837H257.93V187.269C257.93 188.397 258.265 188.926 259.64 188.926H259.958V190.037C259.782 190.126 259.394 190.178 258.953 190.178C257.207 190.178 256.378 189.244 256.378 187.269ZM261.471 189.967V177.27H263.022V189.967H261.471ZM273.577 186.916C273.066 189.103 271.496 190.178 269.363 190.178C266.647 190.178 265.007 188.344 265.007 185.294C265.007 182.119 266.647 180.374 269.275 180.374C271.92 180.374 273.507 182.19 273.507 185.17V185.558H266.594C266.682 187.657 267.67 188.838 269.363 188.838C270.685 188.838 271.62 188.203 271.955 186.916H273.577ZM269.275 181.714C267.776 181.714 266.876 182.649 266.647 184.394H271.884C271.673 182.666 270.738 181.714 269.275 181.714ZM279.084 190.178C276.597 190.178 275.099 188.344 275.099 185.294C275.099 182.119 276.633 180.374 279.084 180.374C280.195 180.374 281.094 180.832 281.711 181.696V177.27H283.263V189.967H281.711V188.785C281.094 189.667 280.195 190.178 279.084 190.178ZM279.19 188.838C280.83 188.838 281.711 187.586 281.711 185.294C281.711 183.019 280.794 181.714 279.19 181.714C277.567 181.714 276.686 182.984 276.686 185.294C276.686 187.551 277.603 188.838 279.19 188.838ZM289.477 187.269V181.837H288.172V180.603H289.477V178.452H291.029V180.603H293.092V181.837H291.029V187.269C291.029 188.397 291.364 188.926 292.739 188.926H293.057V190.037C292.88 190.126 292.493 190.178 292.052 190.178C290.306 190.178 289.477 189.244 289.477 187.269ZM294.57 189.967V180.603H296.121V182.049C296.756 180.903 297.761 180.374 298.89 180.374C299.26 180.374 299.595 180.462 299.772 180.603V181.996C299.507 181.908 299.172 181.873 298.802 181.873C296.933 181.873 296.121 183.036 296.121 184.729V189.967H294.57ZM302.404 183.654H300.852C301.152 181.59 302.51 180.374 304.802 180.374C307.307 180.374 308.523 181.837 308.523 184.024V187.71C308.523 188.785 308.611 189.455 308.858 189.967H307.218C307.042 189.596 306.989 189.05 306.971 188.486C306.178 189.667 304.908 190.178 303.78 190.178C301.84 190.178 300.535 189.279 300.535 187.498C300.535 186.211 301.24 185.276 302.616 184.818C303.885 184.394 305.173 184.289 306.971 184.271V184.059C306.971 182.543 306.266 181.714 304.661 181.714C303.321 181.714 302.598 182.455 302.404 183.654ZM302.122 187.463C302.122 188.327 302.845 188.838 303.938 188.838C305.667 188.838 306.971 187.48 306.971 185.876V185.435C302.986 185.47 302.122 186.316 302.122 187.463ZM314.577 190.178C312.09 190.178 310.591 188.344 310.591 185.294C310.591 182.119 312.125 180.374 314.577 180.374C315.688 180.374 316.587 180.832 317.204 181.696V177.27H318.756V189.967H317.204V188.785C316.587 189.667 315.688 190.178 314.577 190.178ZM314.682 188.838C316.322 188.838 317.204 187.586 317.204 185.294C317.204 183.019 316.287 181.714 314.682 181.714C313.06 181.714 312.178 182.984 312.178 185.294C312.178 187.551 313.095 188.838 314.682 188.838ZM321.228 179.351V177.27H322.78V179.351H321.228ZM321.228 189.967V180.603H322.78V189.967H321.228ZM325.24 189.967V180.603H326.792V181.873C327.427 180.885 328.45 180.374 329.684 180.374C331.677 180.374 332.858 181.538 332.858 183.707V189.967H331.307V184.024C331.307 182.613 330.672 181.696 329.261 181.696C327.709 181.696 326.792 183.089 326.792 184.43V189.967H325.24ZM338.665 190.037C336.284 190.037 334.856 188.221 334.856 185.223C334.856 182.084 336.319 180.374 338.665 180.374C339.917 180.374 340.851 180.815 341.469 181.626V180.603H343.02V190.249C343.02 192.859 341.345 194.076 339.194 194.076C336.989 194.076 335.438 193.018 335.103 190.884H336.654C336.848 192.118 337.818 192.788 339.176 192.788C340.552 192.788 341.469 192.048 341.469 190.302V188.697C340.816 189.579 339.864 190.037 338.665 190.037ZM338.947 188.697C340.587 188.697 341.469 187.463 341.469 185.206C341.469 183.001 340.552 181.714 338.947 181.714C337.325 181.714 336.443 182.948 336.443 185.223C336.443 187.427 337.342 188.697 338.947 188.697ZM349.181 189.967V177.975H353.29C356.005 177.975 357.716 179.421 357.716 181.767C357.716 184.183 355.988 185.593 353.307 185.593H350.803V189.967H349.181ZM353.272 179.298H350.803V184.271H353.219C355 184.271 356.041 183.319 356.041 181.784C356.041 180.268 354.983 179.298 353.272 179.298ZM359.648 189.967V180.603H361.2V181.873C361.835 180.885 362.857 180.374 364.092 180.374C366.085 180.374 367.266 181.538 367.266 183.707V189.967H365.714V184.024C365.714 182.613 365.079 181.696 363.669 181.696C362.117 181.696 361.2 183.089 361.2 184.43V189.967H359.648ZM369.881 189.967V177.975H371.503V188.644H377.534V189.967H369.881Z" fill="#94A3B8"/>
    <path d="M132.276 270.747V269.513H133.581V268.878C133.581 266.903 134.392 265.969 136.12 265.969C136.508 265.969 136.825 266.039 136.984 266.11V267.221H136.825C135.467 267.221 135.132 267.75 135.132 268.878V269.513H136.984V270.747H135.132V278.877H133.581V270.747H132.276ZM146.321 275.826C145.809 278.013 144.24 279.089 142.106 279.089C139.39 279.089 137.75 277.255 137.75 274.204C137.75 271.03 139.39 269.284 142.018 269.284C144.663 269.284 146.25 271.1 146.25 274.08V274.468H139.338C139.426 276.567 140.413 277.748 142.106 277.748C143.429 277.748 144.363 277.114 144.698 275.826H146.321ZM142.018 270.624C140.519 270.624 139.62 271.559 139.39 273.304H144.628C144.416 271.576 143.482 270.624 142.018 270.624ZM156.412 275.826C155.901 278.013 154.331 279.089 152.198 279.089C149.482 279.089 147.842 277.255 147.842 274.204C147.842 271.03 149.482 269.284 152.11 269.284C154.755 269.284 156.342 271.1 156.342 274.08V274.468H149.429C149.517 276.567 150.505 277.748 152.198 277.748C153.52 277.748 154.455 277.114 154.79 275.826H156.412ZM152.11 270.624C150.611 270.624 149.711 271.559 149.482 273.304H154.719C154.508 271.576 153.573 270.624 152.11 270.624ZM161.685 271.1L160.68 271.841L159.692 270.254L158.705 271.841L157.7 271.1L158.899 269.689L157.082 269.249L157.47 268.049L159.198 268.755L159.057 266.886H160.309L160.186 268.755L161.896 268.049L162.284 269.249L160.486 269.689L161.685 271.1ZM175.227 272.74H173.675C173.428 271.312 172.476 270.624 171.241 270.624C169.513 270.624 168.596 271.894 168.596 274.204C168.596 276.479 169.566 277.766 171.294 277.766C172.546 277.766 173.446 277.096 173.745 275.756H175.297C174.874 278.083 173.305 279.089 171.259 279.089C168.596 279.089 167.009 277.237 167.009 274.204C167.009 271.03 168.631 269.284 171.241 269.284C173.305 269.284 174.927 270.448 175.227 272.74ZM181.024 279.089C178.344 279.089 176.739 277.255 176.739 274.204C176.739 271.03 178.397 269.284 181.024 269.284C183.705 269.284 185.309 271.153 185.309 274.204C185.309 277.36 183.652 279.089 181.024 279.089ZM181.024 277.748C182.77 277.748 183.722 276.496 183.722 274.204C183.722 271.929 182.752 270.624 181.024 270.624C179.278 270.624 178.326 271.894 178.326 274.204C178.326 276.461 179.296 277.748 181.024 277.748ZM187.307 278.877V266.18H188.859V278.877H187.307ZM191.319 278.877V266.18H192.871V278.877H191.319ZM203.426 275.826C202.914 278.013 201.345 279.089 199.211 279.089C196.496 279.089 194.856 277.255 194.856 274.204C194.856 271.03 196.496 269.284 199.123 269.284C201.768 269.284 203.355 271.1 203.355 274.08V274.468H196.443C196.531 276.567 197.518 277.748 199.211 277.748C200.534 277.748 201.468 277.114 201.804 275.826H203.426ZM199.123 270.624C197.624 270.624 196.725 271.559 196.496 273.304H201.733C201.521 271.576 200.587 270.624 199.123 270.624ZM213.165 272.74H211.613C211.366 271.312 210.414 270.624 209.179 270.624C207.451 270.624 206.534 271.894 206.534 274.204C206.534 276.479 207.504 277.766 209.232 277.766C210.484 277.766 211.384 277.096 211.683 275.756H213.235C212.812 278.083 211.243 279.089 209.197 279.089C206.534 279.089 204.947 277.237 204.947 274.204C204.947 271.03 206.569 269.284 209.179 269.284C211.243 269.284 212.865 270.448 213.165 272.74ZM215.365 276.179V270.747H214.06V269.513H215.365V267.362H216.917V269.513H218.98V270.747H216.917V276.179C216.917 277.307 217.252 277.837 218.627 277.837H218.945V278.947C218.768 279.036 218.38 279.089 217.939 279.089C216.194 279.089 215.365 278.154 215.365 276.179ZM228.551 275.826C228.04 278.013 226.471 279.089 224.337 279.089C221.621 279.089 219.981 277.255 219.981 274.204C219.981 271.03 221.621 269.284 224.249 269.284C226.894 269.284 228.481 271.1 228.481 274.08V274.468H221.568C221.656 276.567 222.644 277.748 224.337 277.748C225.659 277.748 226.594 277.114 226.929 275.826H228.551ZM224.249 270.624C222.75 270.624 221.85 271.559 221.621 273.304H226.859C226.647 271.576 225.712 270.624 224.249 270.624ZM234.058 279.089C231.572 279.089 230.073 277.255 230.073 274.204C230.073 271.03 231.607 269.284 234.058 269.284C235.169 269.284 236.068 269.742 236.686 270.606V266.18H238.237V278.877H236.686V277.695C236.068 278.577 235.169 279.089 234.058 279.089ZM234.164 277.748C235.804 277.748 236.686 276.496 236.686 274.204C236.686 271.929 235.769 270.624 234.164 270.624C232.542 270.624 231.66 271.894 231.66 274.204C231.66 276.461 232.577 277.748 234.164 277.748ZM245.668 272.564H244.116C244.416 270.501 245.774 269.284 248.066 269.284C250.57 269.284 251.787 270.747 251.787 272.934V276.62C251.787 277.695 251.875 278.366 252.122 278.877H250.482C250.306 278.507 250.253 277.96 250.235 277.396C249.442 278.577 248.172 279.089 247.043 279.089C245.104 279.089 243.799 278.189 243.799 276.408C243.799 275.121 244.504 274.186 245.88 273.728C247.149 273.304 248.437 273.199 250.235 273.181V272.969C250.235 271.453 249.53 270.624 247.925 270.624C246.585 270.624 245.862 271.365 245.668 272.564ZM245.386 276.373C245.386 277.237 246.109 277.748 247.202 277.748C248.93 277.748 250.235 276.391 250.235 274.786V274.345C246.25 274.38 245.386 275.227 245.386 276.373ZM255.477 271.911C255.477 274.521 261.561 272.37 261.561 276.232C261.561 277.978 260.009 279.089 257.805 279.089C255.583 279.089 254.031 278.031 253.679 275.826H255.23C255.442 277.131 256.412 277.854 257.858 277.854C259.269 277.854 260.009 277.219 260.009 276.338C260.009 273.781 253.996 275.897 253.996 272.017C253.996 270.589 255.107 269.284 257.4 269.284C259.427 269.284 260.926 270.236 261.226 272.564H259.674C259.445 271.1 258.634 270.554 257.311 270.554C256.147 270.554 255.477 271.135 255.477 271.911ZM266.937 278.877V269.513H268.489V270.959C269.124 269.813 270.129 269.284 271.257 269.284C271.628 269.284 271.963 269.372 272.139 269.513V270.906C271.875 270.818 271.54 270.783 271.169 270.783C269.3 270.783 268.489 271.947 268.489 273.64V278.877H266.937ZM281.437 275.826C280.926 278.013 279.357 279.089 277.223 279.089C274.507 279.089 272.867 277.255 272.867 274.204C272.867 271.03 274.507 269.284 277.135 269.284C279.78 269.284 281.367 271.1 281.367 274.08V274.468H274.454C274.542 276.567 275.53 277.748 277.223 277.748C278.545 277.748 279.48 277.114 279.815 275.826H281.437ZM277.135 270.624C275.636 270.624 274.736 271.559 274.507 273.304H279.745C279.533 271.576 278.598 270.624 277.135 270.624ZM291.374 278.877L289.346 271.876L289.135 270.818L288.923 271.876L286.913 278.877H284.991L282.204 269.513H283.88L285.802 276.778L286.031 277.731L286.26 276.778L288.394 269.513H290.069L292.203 276.778L292.415 277.695L292.609 276.778L294.531 269.513H296.136L293.332 278.877H291.374ZM298.967 272.564H297.415C297.715 270.501 299.073 269.284 301.365 269.284C303.87 269.284 305.086 270.747 305.086 272.934V276.62C305.086 277.695 305.175 278.366 305.421 278.877H303.781C303.605 278.507 303.552 277.96 303.535 277.396C302.741 278.577 301.471 279.089 300.343 279.089C298.403 279.089 297.098 278.189 297.098 276.408C297.098 275.121 297.803 274.186 299.179 273.728C300.449 273.304 301.736 273.199 303.535 273.181V272.969C303.535 271.453 302.829 270.624 301.224 270.624C299.884 270.624 299.161 271.365 298.967 272.564ZM298.685 276.373C298.685 277.237 299.408 277.748 300.501 277.748C302.23 277.748 303.535 276.391 303.535 274.786V274.345C299.549 274.38 298.685 275.227 298.685 276.373ZM307.63 278.877V269.513H309.182V270.959C309.817 269.813 310.822 269.284 311.951 269.284C312.321 269.284 312.656 269.372 312.833 269.513V270.906C312.568 270.818 312.233 270.783 311.863 270.783C309.993 270.783 309.182 271.947 309.182 273.64V278.877H307.63ZM317.546 279.089C315.059 279.089 313.561 277.255 313.561 274.204C313.561 271.03 315.095 269.284 317.546 269.284C318.657 269.284 319.556 269.742 320.173 270.606V266.18H321.725V278.877H320.173V277.695C319.556 278.577 318.657 279.089 317.546 279.089ZM317.652 277.748C319.292 277.748 320.173 276.496 320.173 274.204C320.173 271.929 319.256 270.624 317.652 270.624C316.029 270.624 315.148 271.894 315.148 274.204C315.148 276.461 316.065 277.748 317.652 277.748Z" fill="#94A3B8"/>
    <path d="M701.061 246.828H699.509C699.809 244.764 701.167 243.548 703.46 243.548C705.964 243.548 707.18 245.011 707.18 247.198V250.883C707.18 251.959 707.269 252.629 707.515 253.141H705.875C705.699 252.77 705.646 252.224 705.629 251.659C704.835 252.841 703.565 253.352 702.437 253.352C700.497 253.352 699.192 252.453 699.192 250.672C699.192 249.384 699.897 248.45 701.273 247.991C702.543 247.568 703.83 247.462 705.629 247.445V247.233C705.629 245.717 704.923 244.888 703.318 244.888C701.978 244.888 701.255 245.628 701.061 246.828ZM700.779 250.637C700.779 251.501 701.502 252.012 702.595 252.012C704.324 252.012 705.629 250.654 705.629 249.049V248.609C701.643 248.644 700.779 249.49 700.779 250.637ZM710.871 246.175C710.871 248.785 716.955 246.634 716.955 250.495C716.955 252.241 715.403 253.352 713.198 253.352C710.976 253.352 709.425 252.294 709.072 250.09H710.624C710.835 251.395 711.805 252.118 713.251 252.118C714.662 252.118 715.403 251.483 715.403 250.601C715.403 248.044 709.389 250.16 709.389 246.281C709.389 244.852 710.5 243.548 712.793 243.548C714.821 243.548 716.32 244.5 716.619 246.828H715.068C714.838 245.364 714.027 244.817 712.705 244.817C711.541 244.817 710.871 245.399 710.871 246.175ZM719.946 246.175C719.946 248.785 726.03 246.634 726.03 250.495C726.03 252.241 724.478 253.352 722.274 253.352C720.052 253.352 718.5 252.294 718.147 250.09H719.699C719.911 251.395 720.881 252.118 722.327 252.118C723.738 252.118 724.478 251.483 724.478 250.601C724.478 248.044 718.465 250.16 718.465 246.281C718.465 244.852 719.576 243.548 721.868 243.548C723.896 243.548 725.395 244.5 725.695 246.828H724.143C723.914 245.364 723.103 244.817 721.78 244.817C720.616 244.817 719.946 245.399 719.946 246.175ZM735.97 250.09C735.458 252.277 733.889 253.352 731.755 253.352C729.039 253.352 727.399 251.518 727.399 248.468C727.399 245.293 729.039 243.548 731.667 243.548C734.312 243.548 735.899 245.364 735.899 248.344V248.732H728.986C729.075 250.831 730.062 252.012 731.755 252.012C733.078 252.012 734.012 251.377 734.347 250.09H735.97ZM731.667 244.888C730.168 244.888 729.269 245.822 729.039 247.568H734.277C734.065 245.84 733.13 244.888 731.667 244.888ZM738.179 250.443V245.011H736.874V243.777H738.179V241.625H739.73V243.777H741.794V245.011H739.73V250.443C739.73 251.571 740.065 252.1 741.441 252.1H741.758V253.211C741.582 253.299 741.194 253.352 740.753 253.352C739.007 253.352 738.179 252.418 738.179 250.443Z" fill="#94A3B8"/>
    <path d="M358.242 125.839C355.756 125.839 354.257 124.005 354.257 120.954C354.257 117.78 355.791 116.034 358.242 116.034C359.353 116.034 360.253 116.492 360.87 117.356V112.93H362.422V125.627H360.87V124.445C360.253 125.327 359.353 125.839 358.242 125.839ZM358.348 124.498C359.988 124.498 360.87 123.246 360.87 120.954C360.87 118.679 359.953 117.374 358.348 117.374C356.726 117.374 355.844 118.644 355.844 120.954C355.844 123.211 356.761 124.498 358.348 124.498ZM364.893 115.011V112.93H366.445V115.011H364.893ZM364.893 125.627V116.263H366.445V125.627H364.893ZM370.052 118.661C370.052 121.271 376.136 119.12 376.136 122.982C376.136 124.728 374.584 125.839 372.38 125.839C370.158 125.839 368.606 124.781 368.253 122.576H369.805C370.017 123.881 370.987 124.604 372.433 124.604C373.844 124.604 374.584 123.969 374.584 123.088C374.584 120.531 368.571 122.647 368.571 118.767C368.571 117.339 369.682 116.034 371.974 116.034C374.002 116.034 375.501 116.986 375.801 119.314H374.249C374.02 117.85 373.209 117.304 371.886 117.304C370.722 117.304 370.052 117.885 370.052 118.661ZM385.723 119.49H384.171C383.924 118.062 382.972 117.374 381.738 117.374C380.009 117.374 379.092 118.644 379.092 120.954C379.092 123.229 380.062 124.516 381.79 124.516C383.043 124.516 383.942 123.846 384.242 122.506H385.794C385.37 124.833 383.801 125.839 381.755 125.839C379.092 125.839 377.505 123.987 377.505 120.954C377.505 117.78 379.128 116.034 381.738 116.034C383.801 116.034 385.423 117.198 385.723 119.49ZM391.52 125.839C388.84 125.839 387.235 124.005 387.235 120.954C387.235 117.78 388.893 116.034 391.52 116.034C394.201 116.034 395.806 117.903 395.806 120.954C395.806 124.11 394.148 125.839 391.52 125.839ZM391.52 124.498C393.266 124.498 394.218 123.246 394.218 120.954C394.218 118.679 393.249 117.374 391.52 117.374C389.775 117.374 388.822 118.644 388.822 120.954C388.822 123.211 389.792 124.498 391.52 124.498ZM403.763 121.8V116.263H405.315V125.627H403.763V124.357C403.129 125.345 402.141 125.839 400.924 125.839C398.967 125.839 397.803 124.692 397.803 122.523V116.263H399.355V122.206C399.355 123.617 399.972 124.516 401.347 124.516C402.864 124.516 403.763 123.141 403.763 121.8ZM407.791 125.627V116.263H409.343V117.533C409.978 116.545 411.001 116.034 412.235 116.034C414.228 116.034 415.409 117.198 415.409 119.367V125.627H413.857V119.684C413.857 118.273 413.223 117.356 411.812 117.356C410.26 117.356 409.343 118.75 409.343 120.09V125.627H407.791ZM418.094 122.929V117.497H416.789V116.263H418.094V114.112H419.646V116.263H421.709V117.497H419.646V122.929C419.646 124.057 419.981 124.587 421.357 124.587H421.674V125.697C421.498 125.786 421.11 125.839 420.669 125.839C418.923 125.839 418.094 124.904 418.094 122.929ZM431.281 122.576C430.77 124.763 429.2 125.839 427.066 125.839C424.351 125.839 422.711 124.005 422.711 120.954C422.711 117.78 424.351 116.034 426.978 116.034C429.623 116.034 431.21 117.85 431.21 120.83V121.218H424.298C424.386 123.317 425.373 124.498 427.066 124.498C428.389 124.498 429.324 123.864 429.659 122.576H431.281ZM426.978 117.374C425.479 117.374 424.58 118.309 424.351 120.054H429.588C429.376 118.326 428.442 117.374 426.978 117.374ZM436.788 125.839C434.301 125.839 432.802 124.005 432.802 120.954C432.802 117.78 434.336 116.034 436.788 116.034C437.899 116.034 438.798 116.492 439.415 117.356V112.93H440.967V125.627H439.415V124.445C438.798 125.327 437.899 125.839 436.788 125.839ZM436.893 124.498C438.533 124.498 439.415 123.246 439.415 120.954C439.415 118.679 438.498 117.374 436.893 117.374C435.271 117.374 434.389 118.644 434.389 120.954C434.389 123.211 435.306 124.498 436.893 124.498ZM401.229 142.314H399.677C399.977 140.251 401.335 139.034 403.627 139.034C406.131 139.034 407.348 140.497 407.348 142.684V146.37C407.348 147.445 407.436 148.116 407.683 148.627H406.043C405.867 148.257 405.814 147.71 405.796 147.146C405.003 148.327 403.733 148.839 402.604 148.839C400.665 148.839 399.36 147.939 399.36 146.158C399.36 144.871 400.065 143.936 401.441 143.478C402.71 143.054 403.998 142.949 405.796 142.931V142.719C405.796 141.203 405.091 140.374 403.486 140.374C402.146 140.374 401.423 141.115 401.229 142.314ZM400.947 146.123C400.947 146.987 401.67 147.498 402.763 147.498C404.491 147.498 405.796 146.141 405.796 144.536V144.095C401.811 144.13 400.947 144.977 400.947 146.123ZM411.038 141.661C411.038 144.271 417.122 142.12 417.122 145.982C417.122 147.728 415.57 148.839 413.366 148.839C411.144 148.839 409.592 147.781 409.24 145.576H410.791C411.003 146.881 411.973 147.604 413.419 147.604C414.83 147.604 415.57 146.969 415.57 146.088C415.57 143.531 409.557 145.647 409.557 141.767C409.557 140.339 410.668 139.034 412.961 139.034C414.988 139.034 416.487 139.986 416.787 142.314H415.235C415.006 140.85 414.195 140.304 412.872 140.304C411.708 140.304 411.038 140.885 411.038 141.661ZM420.114 141.661C420.114 144.271 426.198 142.12 426.198 145.982C426.198 147.728 424.646 148.839 422.442 148.839C420.22 148.839 418.668 147.781 418.315 145.576H419.867C420.079 146.881 421.049 147.604 422.495 147.604C423.905 147.604 424.646 146.969 424.646 146.088C424.646 143.531 418.633 145.647 418.633 141.767C418.633 140.339 419.744 139.034 422.036 139.034C424.064 139.034 425.563 139.986 425.863 142.314H424.311C424.082 140.85 423.27 140.304 421.948 140.304C420.784 140.304 420.114 140.885 420.114 141.661ZM436.137 145.576C435.626 147.763 434.056 148.839 431.923 148.839C429.207 148.839 427.567 147.005 427.567 143.954C427.567 140.78 429.207 139.034 431.835 139.034C434.48 139.034 436.067 140.85 436.067 143.83V144.218H429.154C429.242 146.317 430.23 147.498 431.923 147.498C433.245 147.498 434.18 146.864 434.515 145.576H436.137ZM431.835 140.374C430.336 140.374 429.436 141.309 429.207 143.054H434.444C434.233 141.326 433.298 140.374 431.835 140.374ZM438.346 145.929V140.497H437.041V139.263H438.346V137.112H439.898V139.263H441.961V140.497H439.898V145.929C439.898 147.057 440.233 147.587 441.609 147.587H441.926V148.697C441.75 148.786 441.362 148.839 440.921 148.839C439.175 148.839 438.346 147.904 438.346 145.929Z" fill="#94A3B8"/>
    <path d="M400.603 304.15H399.051C399.351 302.087 400.708 300.87 403.001 300.87C405.505 300.87 406.722 302.333 406.722 304.52V308.206C406.722 309.281 406.81 309.951 407.057 310.463H405.417C405.241 310.093 405.188 309.546 405.17 308.982C404.376 310.163 403.107 310.675 401.978 310.675C400.038 310.675 398.733 309.775 398.733 307.994C398.733 306.707 399.439 305.772 400.814 305.314C402.084 304.89 403.371 304.785 405.17 304.767V304.555C405.17 303.039 404.465 302.21 402.86 302.21C401.52 302.21 400.797 302.951 400.603 304.15ZM400.321 307.959C400.321 308.823 401.044 309.334 402.137 309.334C403.865 309.334 405.17 307.976 405.17 306.372V305.931C401.185 305.966 400.321 306.813 400.321 307.959ZM410.412 303.497C410.412 306.107 416.496 303.956 416.496 307.818C416.496 309.564 414.944 310.675 412.74 310.675C410.518 310.675 408.966 309.616 408.613 307.412H410.165C410.377 308.717 411.347 309.44 412.793 309.44C414.203 309.44 414.944 308.805 414.944 307.924C414.944 305.367 408.931 307.483 408.931 303.603C408.931 302.175 410.042 300.87 412.334 300.87C414.362 300.87 415.861 301.822 416.161 304.15H414.609C414.38 302.686 413.569 302.139 412.246 302.139C411.082 302.139 410.412 302.721 410.412 303.497ZM419.488 303.497C419.488 306.107 425.571 303.956 425.571 307.818C425.571 309.564 424.02 310.675 421.815 310.675C419.593 310.675 418.042 309.616 417.689 307.412H419.241C419.452 308.717 420.422 309.44 421.868 309.44C423.279 309.44 424.02 308.805 424.02 307.924C424.02 305.367 418.006 307.483 418.006 303.603C418.006 302.175 419.117 300.87 421.41 300.87C423.438 300.87 424.937 301.822 425.236 304.15H423.685C423.455 302.686 422.644 302.139 421.322 302.139C420.158 302.139 419.488 302.721 419.488 303.497ZM435.511 307.412C435 309.599 433.43 310.675 431.296 310.675C428.581 310.675 426.941 308.841 426.941 305.79C426.941 302.616 428.581 300.87 431.208 300.87C433.853 300.87 435.441 302.686 435.441 305.666V306.054H428.528C428.616 308.153 429.604 309.334 431.296 309.334C432.619 309.334 433.554 308.699 433.889 307.412H435.511ZM431.208 302.21C429.709 302.21 428.81 303.145 428.581 304.89H433.818C433.607 303.162 432.672 302.21 431.208 302.21ZM437.72 307.765V302.333H436.415V301.099H437.72V298.948H439.272V301.099H441.335V302.333H439.272V307.765C439.272 308.893 439.607 309.422 440.982 309.422H441.3V310.533C441.123 310.622 440.736 310.675 440.295 310.675C438.549 310.675 437.72 309.74 437.72 307.765Z" fill="#94A3B8"/>
    <rect x="411.21" y="188.931" width="137.289" height="55.1193" rx="27.5596" fill="#052E16"/>
    <rect x="411.21" y="188.931" width="137.289" height="55.1193" rx="27.5596" stroke="#22C55E" stroke-width="1.16985" stroke-dasharray="2.34 2.34"/>
    <path d="M446.115 213.898L441.184 217.896L439.285 215.664C439.164 215.555 439.007 215.494 438.845 215.492C438.682 215.491 438.525 215.549 438.402 215.655C438.279 215.762 438.199 215.909 438.178 216.071C438.156 216.232 438.194 216.395 438.285 216.53L440.617 219.262L440.684 219.329H441.55L446.981 214.931C447.058 214.88 447.124 214.813 447.174 214.735C447.224 214.657 447.258 214.569 447.272 214.477C447.286 214.386 447.281 214.292 447.257 214.202C447.233 214.113 447.19 214.029 447.132 213.957C447.074 213.885 447.001 213.826 446.919 213.783C446.836 213.741 446.746 213.716 446.653 213.71C446.56 213.705 446.468 213.718 446.381 213.751C446.294 213.783 446.215 213.833 446.148 213.898H446.115Z" fill="#22C55E" stroke="#22C55E" stroke-width="0.584925"/>
    <path d="M453.346 210.633C453.347 209.842 453.114 209.068 452.675 208.41C452.236 207.752 451.612 207.238 450.881 206.935L443.084 203.67C442.924 203.605 442.745 203.605 442.584 203.67L434.755 206.935C434.024 207.238 433.399 207.752 432.961 208.41C432.522 209.068 432.288 209.842 432.289 210.633V218.963C432.289 224.727 436.854 229.525 442.485 229.691H442.818C445.604 229.691 448.277 228.587 450.251 226.62C452.224 224.652 453.338 221.983 453.346 219.196V210.633ZM452.014 219.196C452.01 220.424 451.76 221.638 451.279 222.768C450.799 223.897 450.097 224.919 449.215 225.773C448.333 226.627 447.289 227.296 446.144 227.74C445 228.184 443.778 228.394 442.551 228.359C437.62 228.225 433.622 223.994 433.622 218.963V210.633C433.62 210.107 433.774 209.592 434.065 209.153C434.355 208.715 434.769 208.372 435.254 208.168L442.818 205.002L450.381 208.168C450.866 208.372 451.28 208.715 451.571 209.153C451.861 209.592 452.015 210.107 452.014 210.633V219.196Z" fill="#22C55E" stroke="#22C55E" stroke-width="0.584925"/>
    <path d="M473.225 224.806C470.277 224.806 468.466 222.553 468.466 218.868C468.466 215.036 470.319 212.888 473.225 212.888C474.467 212.888 475.499 213.414 476.194 214.425V209.329H478.889V224.49H476.194V223.206C475.478 224.238 474.467 224.806 473.225 224.806ZM473.709 222.574C475.331 222.574 476.194 221.268 476.194 218.868C476.194 216.467 475.289 215.12 473.709 215.12C472.109 215.12 471.246 216.446 471.246 218.868C471.246 221.247 472.13 222.574 473.709 222.574ZM483.373 210.171L487.079 220.237L487.521 221.816L487.942 220.237L491.648 210.171H494.491L489.1 224.49H485.773L480.362 210.171H483.373ZM497.658 216.91H494.941C495.299 214.404 497.131 212.888 499.974 212.888C503.112 212.888 504.712 214.741 504.712 217.352V221.732C504.712 223.122 504.838 223.901 505.049 224.49H502.248C502.101 224.111 502.038 223.564 502.017 222.953C501.09 224.259 499.7 224.806 498.353 224.806C496.142 224.806 494.562 223.711 494.562 221.542C494.562 220.005 495.426 218.847 497.152 218.278C498.647 217.773 500.1 217.647 501.996 217.626V217.352C501.996 215.899 501.301 215.12 499.806 215.12C498.521 215.12 497.826 215.836 497.658 216.91ZM497.279 221.395C497.279 222.258 497.953 222.806 499.048 222.806C500.711 222.806 501.996 221.458 501.996 219.773V219.289C498.163 219.352 497.279 220.258 497.279 221.395ZM514.294 219.752V213.204H516.99V224.49H514.294V222.974C513.557 224.216 512.399 224.806 511.009 224.806C508.777 224.806 507.282 223.458 507.282 220.742V213.204H509.977V220.195C509.977 221.732 510.609 222.574 511.936 222.574C513.389 222.574 514.294 221.268 514.294 219.752ZM519.476 224.49V209.329H522.172V224.49H519.476ZM524.996 220.974V215.288H523.543V213.204H524.996V210.613H527.691V213.204H530.071V215.288H527.691V220.742C527.691 221.921 528.028 222.553 529.523 222.553H530.029V224.532C529.734 224.68 529.123 224.806 528.386 224.806C526.091 224.806 524.996 223.501 524.996 220.974Z" fill="#22C55E"/>
    <rect x="346.281" width="266.726" height="70.9231" rx="35.4615" fill="#1E293B"/>
    <rect x="364.438" y="16.7441" width="37.4352" height="37.4352" rx="18.7176" fill="#475569"/>
    <path fill-rule="evenodd" clip-rule="evenodd" d="M383.145 36.1514C380.744 36.1514 378.796 34.1703 378.796 31.7268C378.796 29.4404 380.503 27.5585 382.691 27.3268C382.835 27.3128 382.981 27.3049 383.127 27.3049C385.528 27.3049 387.476 29.2851 387.476 31.7286C387.476 34.0159 385.77 35.8969 383.582 36.1294C383.438 36.1435 383.293 36.1514 383.145 36.1514ZM391.911 44.3696L391.923 44.5047C391.92 44.4626 391.914 44.4223 391.91 44.3802C391.903 44.7864 391.58 45.1145 391.179 45.1145C390.774 45.1145 390.446 44.7802 390.446 44.3696H390.444C390.08 40.5961 386.954 37.6473 383.149 37.6455L383.145 37.6446C383.139 37.6446 383.133 37.6455 383.127 37.6455C379.914 37.6455 377.311 34.9967 377.311 31.7286C377.311 28.4613 379.914 25.8125 383.127 25.8125C383.13 25.8125 383.133 25.8134 383.136 25.8134C383.139 25.8134 383.142 25.8125 383.145 25.8125C386.357 25.8125 388.96 28.4604 388.96 31.7268C388.96 32.949 388.586 34.0764 387.961 35.0178C387.954 35.0275 387.949 35.0362 387.943 35.0459C387.851 35.1827 387.754 35.3135 387.652 35.4407C387.617 35.4854 387.581 35.5284 387.545 35.5714C387.451 35.6802 387.358 35.789 387.258 35.8925C387.185 35.9671 387.106 36.0364 387.029 36.1075C386.914 36.2119 386.798 36.3137 386.675 36.4084C386.553 36.5049 386.429 36.5979 386.3 36.6839C386.276 36.6997 386.256 36.7181 386.233 36.7322C389.303 37.9043 391.553 40.7663 391.892 44.2064C391.903 44.2591 391.911 44.3135 391.911 44.3696ZM381.69 40.3852C382.085 40.3852 382.405 40.7054 382.405 41.1002C382.405 41.495 382.085 41.8153 381.69 41.8153H379.106V44.4C379.106 44.7948 378.785 45.115 378.39 45.115C377.995 45.115 377.675 44.7948 377.675 44.4V41.8153H375.091C374.695 41.8153 374.375 41.495 374.375 41.1002C374.375 40.7054 374.695 40.3852 375.091 40.3852H377.675V37.8005C377.675 37.4056 377.995 37.0854 378.39 37.0854C378.785 37.0854 379.106 37.4056 379.106 37.8005V40.3852H381.69Z" fill="#E2E8F0"/>
    <path d="M433.696 21.485C433.696 24.3594 440.874 22.0317 440.874 26.9341C440.874 29.35 438.899 30.7255 436.183 30.7255C433.45 30.7255 431.51 29.4558 431.051 26.8459H433.538C433.837 28.1156 434.754 28.8209 436.2 28.8209C437.682 28.8209 438.44 28.2037 438.44 27.2338C438.44 24.1831 431.28 26.4756 431.28 21.6966C431.28 19.7921 432.85 18.205 435.689 18.205C438.105 18.205 440.151 19.3689 440.539 22.067H438.017C437.735 20.7268 436.906 20.1096 435.619 20.1096C434.419 20.1096 433.696 20.6562 433.696 21.485ZM442.763 27.516V22.7547H441.546V21.0089H442.763V18.8399H445.02V21.0089H447.013V22.7547H445.02V27.322C445.02 28.3095 445.302 28.8386 446.554 28.8386H446.978V30.4962C446.731 30.6196 446.219 30.7255 445.602 30.7255C443.68 30.7255 442.763 29.6321 442.763 27.516ZM450.522 24.1126H448.247C448.547 22.0141 450.081 20.7444 452.462 20.7444C455.09 20.7444 456.43 22.2962 456.43 24.4829V28.1508C456.43 29.3147 456.536 29.9672 456.712 30.4609H454.367C454.243 30.1435 454.19 29.685 454.173 29.1736C453.397 30.267 452.233 30.7255 451.104 30.7255C449.253 30.7255 447.93 29.8085 447.93 27.9921C447.93 26.7048 448.653 25.7349 450.099 25.2588C451.351 24.8356 452.568 24.7298 454.155 24.7121V24.4829C454.155 23.2661 453.573 22.6136 452.321 22.6136C451.245 22.6136 450.663 23.2132 450.522 24.1126ZM450.205 27.8687C450.205 28.5917 450.769 29.0502 451.686 29.0502C453.079 29.0502 454.155 27.9216 454.155 26.5108V26.1052C450.945 26.1581 450.205 26.9164 450.205 27.8687ZM458.582 30.4609V17.7642H460.839V24.959L464.26 21.0089H466.906L463.097 25.2059L467.17 30.4609H464.401L460.839 25.8936V30.4609H458.582ZM476.264 27.3749C475.752 29.5616 474.059 30.7255 471.802 30.7255C468.945 30.7255 467.2 28.8386 467.2 25.7526C467.2 22.5431 468.963 20.7444 471.714 20.7444C474.483 20.7444 476.193 22.6136 476.193 25.6644V26.1934H469.527C469.633 27.9216 470.427 28.8738 471.802 28.8738C472.86 28.8738 473.583 28.3801 473.883 27.3749H476.264ZM471.714 22.596C470.515 22.596 469.792 23.3543 469.58 24.7827H473.83C473.618 23.3719 472.895 22.596 471.714 22.596ZM477.887 30.4609V21.0089H480.144V22.3844C480.761 21.2558 481.714 20.7444 482.736 20.7444C483.124 20.7444 483.477 20.8502 483.653 21.0089V22.9663C483.354 22.8781 483.019 22.8429 482.613 22.8429C480.902 22.8429 480.144 23.8657 480.144 25.4351V30.4609H477.887ZM496.203 30.4609L495.286 27.9745H490.172L489.255 30.4609H486.874L491.389 18.4696H494.192L498.707 30.4609H496.203ZM492.376 22.0317L490.86 26.1405H494.598L493.081 22.0317L492.729 20.7973L492.376 22.0317ZM502.823 30.4609V21.0089H505.08V22.2257C505.68 21.2382 506.597 20.7444 507.708 20.7444C508.907 20.7444 509.842 21.2734 510.318 22.3491C510.953 21.2734 511.958 20.7444 513.174 20.7444C514.991 20.7444 516.225 21.873 516.225 24.1655V30.4609H513.968V24.624C513.968 23.3366 513.492 22.6136 512.487 22.6136C511.358 22.6136 510.653 23.707 510.653 24.9766V30.4609H508.396V24.624C508.396 23.3366 507.919 22.6136 506.914 22.6136C505.786 22.6136 505.08 23.707 505.08 24.9766V30.4609H502.823ZM520.491 24.1126H518.217C518.516 22.0141 520.051 20.7444 522.431 20.7444C525.059 20.7444 526.399 22.2962 526.399 24.4829V28.1508C526.399 29.3147 526.505 29.9672 526.681 30.4609H524.336C524.212 30.1435 524.159 29.685 524.142 29.1736C523.366 30.267 522.202 30.7255 521.073 30.7255C519.222 30.7255 517.899 29.8085 517.899 27.9921C517.899 26.7048 518.622 25.7349 520.068 25.2588C521.32 24.8356 522.537 24.7298 524.124 24.7121V24.4829C524.124 23.2661 523.542 22.6136 522.29 22.6136C521.215 22.6136 520.633 23.2132 520.491 24.1126ZM520.174 27.8687C520.174 28.5917 520.738 29.0502 521.655 29.0502C523.048 29.0502 524.124 27.9216 524.124 26.5108V26.1052C520.915 26.1581 520.174 26.9164 520.174 27.8687ZM528.551 30.4609V17.7642H530.809V24.959L534.23 21.0089H536.875L533.066 25.2059L537.139 30.4609H534.371L530.809 25.8936V30.4609H528.551ZM538.333 19.9508V17.7642H540.59V19.9508H538.333ZM538.333 30.4609V21.0089H540.59V30.4609H538.333ZM542.655 30.4609V21.0089H544.913V22.2786C545.53 21.2558 546.517 20.7444 547.717 20.7444C549.603 20.7444 550.891 21.873 550.891 24.1655V30.4609H548.634V24.624C548.634 23.3366 548.087 22.6136 546.941 22.6136C545.689 22.6136 544.913 23.707 544.913 24.9766V30.4609H542.655ZM556.41 30.4962C554.011 30.4962 552.53 28.6446 552.53 25.6291C552.53 22.4902 554.047 20.7444 556.41 20.7444C557.538 20.7444 558.42 21.1676 559.002 21.9612V21.0089H561.259V30.7607C561.259 33.3177 559.496 34.6227 557.15 34.6227C554.822 34.6227 553.13 33.547 552.795 31.3074H555.069C555.21 32.3125 556.022 32.8416 557.115 32.8416C558.244 32.8416 559.002 32.2949 559.002 30.796V29.2089C558.385 30.0553 557.503 30.4962 556.41 30.4962ZM556.921 28.627C558.279 28.627 559.002 27.5689 559.002 25.6291C559.002 23.707 558.244 22.6136 556.921 22.6136C555.581 22.6136 554.858 23.6717 554.858 25.6291C554.858 27.5513 555.581 28.627 556.921 28.627ZM568.917 24.1126H566.642C566.942 22.0141 568.476 20.7444 570.857 20.7444C573.484 20.7444 574.825 22.2962 574.825 24.4829V28.1508C574.825 29.3147 574.93 29.9672 575.107 30.4609H572.761C572.638 30.1435 572.585 29.685 572.567 29.1736C571.792 30.267 570.628 30.7255 569.499 30.7255C567.647 30.7255 566.325 29.8085 566.325 27.9921C566.325 26.7048 567.048 25.7349 568.494 25.2588C569.746 24.8356 570.963 24.7298 572.55 24.7121V24.4829C572.55 23.2661 571.968 22.6136 570.716 22.6136C569.64 22.6136 569.058 23.2132 568.917 24.1126ZM568.6 27.8687C568.6 28.5917 569.164 29.0502 570.081 29.0502C571.474 29.0502 572.55 27.9216 572.55 26.5108V26.1052C569.34 26.1581 568.6 26.9164 568.6 27.8687ZM439.162 53.7255C436.693 53.7255 435.177 51.8386 435.177 48.7526C435.177 45.5431 436.729 43.7444 439.162 43.7444C440.203 43.7444 441.067 44.1852 441.649 45.0317V40.7642H443.906V53.4609H441.649V52.3852C441.049 53.2493 440.203 53.7255 439.162 53.7255ZM439.568 51.8562C440.926 51.8562 441.649 50.7629 441.649 48.7526C441.649 46.7422 440.89 45.6136 439.568 45.6136C438.228 45.6136 437.505 46.7246 437.505 48.7526C437.505 50.7452 438.245 51.8562 439.568 51.8562ZM454.591 50.3749C454.079 52.5616 452.387 53.7255 450.129 53.7255C447.273 53.7255 445.527 51.8386 445.527 48.7526C445.527 45.5431 447.29 43.7444 450.041 43.7444C452.81 43.7444 454.52 45.6136 454.52 48.6644V49.1934H447.855C447.96 50.9216 448.754 51.8738 450.129 51.8738C451.187 51.8738 451.91 51.3801 452.21 50.3749H454.591ZM450.041 45.596C448.842 45.596 448.119 46.3543 447.907 47.7827H452.157C451.946 46.3719 451.223 45.596 450.041 45.596ZM458.471 57.3405H456.214V44.0089H458.471V45.0846C459.071 44.2205 459.917 43.7444 460.958 43.7444C463.427 43.7444 464.943 45.6313 464.943 48.7173C464.943 51.9267 463.391 53.7255 460.958 53.7255C459.917 53.7255 459.053 53.2846 458.471 52.4381V57.3405ZM460.552 45.6136C459.194 45.6136 458.471 46.707 458.471 48.7173C458.471 50.7276 459.23 51.8562 460.552 51.8562C461.892 51.8562 462.615 50.7452 462.615 48.7173C462.615 46.7246 461.875 45.6136 460.552 45.6136ZM470.672 53.7255C467.869 53.7255 466.14 51.8386 466.14 48.7526C466.14 45.5431 467.922 43.7444 470.672 43.7444C473.459 43.7444 475.187 45.6489 475.187 48.7526C475.187 51.9267 473.406 53.7255 470.672 53.7255ZM470.672 51.8562C472.101 51.8562 472.859 50.7629 472.859 48.7526C472.859 46.7422 472.083 45.6136 470.672 45.6136C469.226 45.6136 468.468 46.7246 468.468 48.7526C468.468 50.7452 469.244 51.8562 470.672 51.8562ZM478.715 46.5483C478.715 48.7173 484.675 46.8833 484.675 50.6747C484.675 52.491 483 53.7255 480.637 53.7255C478.309 53.7255 476.634 52.6498 476.299 50.3749H478.556C478.715 51.3977 479.526 51.9796 480.707 51.9796C481.818 51.9796 482.4 51.5035 482.4 50.8158C482.4 48.6997 476.563 50.516 476.563 46.6893C476.563 45.1551 477.762 43.7444 480.231 43.7444C482.4 43.7444 484.04 44.7672 484.322 47.1126H482.065C481.889 45.9663 481.219 45.5078 480.143 45.5078C479.244 45.5078 478.715 45.9487 478.715 46.5483ZM486.213 42.9508V40.7642H488.471V42.9508H486.213ZM486.213 53.4609V44.0089H488.471V53.4609H486.213ZM490.836 50.516V45.7547H489.619V44.0089H490.836V41.8399H493.093V44.0089H495.086V45.7547H493.093V50.322C493.093 51.3095 493.375 51.8386 494.627 51.8386H495.05V53.4962C494.803 53.6196 494.292 53.7255 493.675 53.7255C491.753 53.7255 490.836 52.6321 490.836 50.516ZM508.159 53.4609L506.449 47.1302L506.273 46.0192L506.061 47.1302L504.368 53.4609H501.564L498.937 44.0089H501.353L502.869 50.6747L503.098 51.8209L503.363 50.6747L505.179 44.0089H507.525L509.341 50.6747L509.57 51.7857L509.782 50.6747L511.316 44.0089H513.626L510.981 53.4609H508.159ZM514.835 42.9508V40.7642H517.092V42.9508H514.835ZM514.835 53.4609V44.0089H517.092V53.4609H514.835ZM519.457 50.516V45.7547H518.24V44.0089H519.457V41.8399H521.714V44.0089H523.707V45.7547H521.714V50.322C521.714 51.3095 521.996 51.8386 523.248 51.8386H523.672V53.4962C523.425 53.6196 522.913 53.7255 522.296 53.7255C520.374 53.7255 519.457 52.6321 519.457 50.516ZM525.03 53.4609V40.7642H527.287V45.2786C527.904 44.2558 528.892 43.7444 530.091 43.7444C531.978 43.7444 533.265 44.873 533.265 47.1655V53.4609H531.008V47.624C531.008 46.3366 530.461 45.6136 529.315 45.6136C528.063 45.6136 527.287 46.707 527.287 47.9766V53.4609H525.03ZM538.738 53.4609V40.7642H540.995V53.4609H538.738ZM547.151 53.7255C544.347 53.7255 542.619 51.8386 542.619 48.7526C542.619 45.5431 544.4 43.7444 547.151 43.7444C549.938 43.7444 551.666 45.6489 551.666 48.7526C551.666 51.9267 549.885 53.7255 547.151 53.7255ZM547.151 51.8562C548.58 51.8562 549.338 50.7629 549.338 48.7526C549.338 46.7422 548.562 45.6136 547.151 45.6136C545.705 45.6136 544.947 46.7246 544.947 48.7526C544.947 50.7452 545.723 51.8562 547.151 51.8562ZM561.489 47.3594H559.232C559.02 46.125 558.28 45.6136 557.327 45.6136C555.934 45.6136 555.194 46.7246 555.194 48.7526C555.194 50.7452 555.969 51.8562 557.398 51.8562C558.368 51.8562 559.055 51.3272 559.285 50.2515H561.56C561.136 52.6145 559.479 53.7255 557.345 53.7255C554.559 53.7255 552.866 51.8209 552.866 48.7526C552.866 45.5431 554.612 43.7444 557.327 43.7444C559.479 43.7444 561.172 44.9435 561.489 47.3594ZM563.123 53.4609V40.7642H565.38V47.959L568.801 44.0089H571.446L567.637 48.2059L571.711 53.4609H568.942L565.38 48.8936V53.4609H563.123Z" fill="#CBD5E1"/>
    <rect x="789.362" y="363.532" width="249.763" height="69.1683" rx="34.5841" fill="#334155"/>
    <rect x="789.362" y="363.532" width="249.763" height="69.1683" rx="34.5841" stroke="url(#paint0_linear_3657_9595)" stroke-width="1.75478" stroke-dasharray="1.81 1.81"/>
    <rect x="802.523" y="374.23" width="47.7701" height="47.7701" rx="23.885" fill="#64748B"/>
    <path d="M826.412 401.747C830.423 401.747 833.675 398.495 833.675 394.484C833.675 390.473 830.423 387.221 826.412 387.221C822.4 387.221 819.148 390.473 819.148 394.484C819.148 398.495 822.4 401.747 826.412 401.747Z" stroke="white" stroke-width="1.81578" stroke-miterlimit="10"/>
    <path d="M815.406 408.102C816.522 406.17 818.126 404.565 820.059 403.449C821.991 402.334 824.183 401.746 826.414 401.746C828.646 401.746 830.838 402.334 832.77 403.449C834.703 404.565 836.307 406.17 837.423 408.102" stroke="white" stroke-width="1.81578" stroke-linecap="round" stroke-linejoin="round"/>
    <path d="M875.794 384.691C875.794 387.389 882.53 385.204 882.53 389.805C882.53 392.073 880.676 393.364 878.127 393.364C875.562 393.364 873.741 392.172 873.311 389.722H875.645C875.926 390.914 876.787 391.576 878.144 391.576C879.534 391.576 880.246 390.997 880.246 390.086C880.246 387.223 873.526 389.375 873.526 384.889C873.526 383.102 874.999 381.612 877.664 381.612C879.931 381.612 881.851 382.705 882.216 385.237H879.849C879.584 383.979 878.806 383.4 877.598 383.4C876.472 383.4 875.794 383.913 875.794 384.691ZM884.303 390.351V385.882H883.161V384.244H884.303V382.208H886.422V384.244H888.292V385.882H886.422V390.169C886.422 391.096 886.687 391.593 887.862 391.593H888.259V393.148C888.027 393.264 887.547 393.364 886.968 393.364C885.164 393.364 884.303 392.337 884.303 390.351ZM891.586 387.157H889.451C889.732 385.187 891.172 383.996 893.407 383.996C895.873 383.996 897.131 385.452 897.131 387.504V390.947C897.131 392.039 897.23 392.652 897.395 393.115H895.194C895.078 392.817 895.029 392.387 895.012 391.907C894.284 392.933 893.191 393.364 892.132 393.364C890.394 393.364 889.153 392.503 889.153 390.798C889.153 389.59 889.832 388.68 891.189 388.233C892.364 387.835 893.506 387.736 894.996 387.72V387.504C894.996 386.362 894.449 385.75 893.274 385.75C892.265 385.75 891.718 386.313 891.586 387.157ZM891.288 390.682C891.288 391.361 891.818 391.791 892.678 391.791C893.986 391.791 894.996 390.732 894.996 389.408V389.027C891.983 389.077 891.288 389.788 891.288 390.682ZM899.151 393.115V381.198H901.269V387.951L904.48 384.244H906.963L903.388 388.183L907.211 393.115H904.613L901.269 388.828V393.115H899.151ZM915.746 390.219C915.266 392.271 913.677 393.364 911.559 393.364C908.877 393.364 907.239 391.593 907.239 388.696C907.239 385.684 908.894 383.996 911.476 383.996C914.075 383.996 915.68 385.75 915.68 388.613V389.11H909.424C909.523 390.732 910.268 391.626 911.559 391.626C912.552 391.626 913.23 391.162 913.512 390.219H915.746ZM911.476 385.733C910.35 385.733 909.672 386.445 909.473 387.786H913.462C913.264 386.462 912.585 385.733 911.476 385.733ZM917.27 393.115V384.244H919.388V385.535C919.968 384.476 920.861 383.996 921.821 383.996C922.186 383.996 922.517 384.095 922.682 384.244V386.081C922.401 385.998 922.086 385.965 921.706 385.965C920.1 385.965 919.388 386.925 919.388 388.398V393.115H917.27ZM936.882 385.336H934.548C934.2 384.111 933.257 383.466 931.999 383.466C930.112 383.466 929.02 385.005 929.02 387.504C929.02 390.02 930.096 391.51 931.999 391.51C933.191 391.51 934.134 390.897 934.515 389.722H936.865C936.269 392.073 934.333 393.364 932.032 393.364C928.738 393.364 926.736 391.146 926.736 387.504C926.736 383.88 928.771 381.612 932.065 381.612C934.399 381.612 936.368 382.887 936.882 385.336ZM941.612 393.115V384.244H943.73V385.386C944.293 384.459 945.154 383.996 946.196 383.996C947.322 383.996 948.199 384.492 948.646 385.502C949.242 384.492 950.185 383.996 951.327 383.996C953.032 383.996 954.191 385.055 954.191 387.206V393.115H952.072V387.637C952.072 386.429 951.625 385.75 950.682 385.75C949.622 385.75 948.96 386.776 948.96 387.968V393.115H946.842V387.637C946.842 386.429 946.395 385.75 945.452 385.75C944.392 385.75 943.73 386.776 943.73 387.968V393.115H941.612ZM958.195 387.157H956.06C956.341 385.187 957.781 383.996 960.015 383.996C962.482 383.996 963.739 385.452 963.739 387.504V390.947C963.739 392.039 963.839 392.652 964.004 393.115H961.803C961.687 392.817 961.637 392.387 961.621 391.907C960.893 392.933 959.8 393.364 958.741 393.364C957.003 393.364 955.762 392.503 955.762 390.798C955.762 389.59 956.44 388.68 957.798 388.233C958.973 387.835 960.115 387.736 961.604 387.72V387.504C961.604 386.362 961.058 385.75 959.883 385.75C958.873 385.75 958.327 386.313 958.195 387.157ZM957.897 390.682C957.897 391.361 958.427 391.791 959.287 391.791C960.595 391.791 961.604 390.732 961.604 389.408V389.027C958.592 389.077 957.897 389.788 957.897 390.682ZM965.76 393.115V381.198H967.878V387.951L971.089 384.244H973.572L969.997 388.183L973.82 393.115H971.222L967.878 388.828V393.115H965.76ZM974.94 383.251V381.198H977.059V383.251H974.94ZM974.94 393.115V384.244H977.059V393.115H974.94ZM978.997 393.115V384.244H981.116V385.435C981.695 384.476 982.622 383.996 983.748 383.996C985.519 383.996 986.727 385.055 986.727 387.206V393.115H984.608V387.637C984.608 386.429 984.095 385.75 983.019 385.75C981.844 385.75 981.116 386.776 981.116 387.968V393.115H978.997ZM991.907 393.148C989.656 393.148 988.265 391.41 988.265 388.58C988.265 385.634 989.689 383.996 991.907 383.996C992.966 383.996 993.793 384.393 994.34 385.138V384.244H996.458V393.397C996.458 395.797 994.803 397.021 992.602 397.021C990.417 397.021 988.828 396.012 988.514 393.91H990.649C990.781 394.853 991.543 395.35 992.569 395.35C993.628 395.35 994.34 394.837 994.34 393.43V391.94C993.76 392.735 992.933 393.148 991.907 393.148ZM992.387 391.394C993.661 391.394 994.34 390.401 994.34 388.58C994.34 386.776 993.628 385.75 992.387 385.75C991.129 385.75 990.45 386.743 990.45 388.58C990.45 390.384 991.129 391.394 992.387 391.394ZM1003.65 387.157H1001.51C1001.79 385.187 1003.23 383.996 1005.47 383.996C1007.93 383.996 1009.19 385.452 1009.19 387.504V390.947C1009.19 392.039 1009.29 392.652 1009.46 393.115H1007.25C1007.14 392.817 1007.09 392.387 1007.07 391.907C1006.34 392.933 1005.25 393.364 1004.19 393.364C1002.45 393.364 1001.21 392.503 1001.21 390.798C1001.21 389.59 1001.89 388.68 1003.25 388.233C1004.42 387.835 1005.57 387.736 1007.06 387.72V387.504C1007.06 386.362 1006.51 385.75 1005.33 385.75C1004.32 385.75 1003.78 386.313 1003.65 387.157ZM1003.35 390.682C1003.35 391.361 1003.88 391.791 1004.74 391.791C1006.05 391.791 1007.06 390.732 1007.06 389.408V389.027C1004.04 389.077 1003.35 389.788 1003.35 390.682ZM898.27 415.115V406.244H900.388V407.535C900.968 406.476 901.861 405.996 902.821 405.996C903.186 405.996 903.517 406.095 903.682 406.244V408.081C903.401 407.998 903.086 407.965 902.706 407.965C901.1 407.965 900.388 408.925 900.388 410.398V415.115H898.27ZM912.732 412.219C912.252 414.271 910.663 415.364 908.544 415.364C905.863 415.364 904.224 413.593 904.224 410.696C904.224 407.684 905.88 405.996 908.462 405.996C911.06 405.996 912.666 407.75 912.666 410.613V411.11H906.409C906.508 412.732 907.253 413.626 908.544 413.626C909.537 413.626 910.216 413.162 910.497 412.219H912.732ZM908.462 407.733C907.336 407.733 906.657 408.445 906.459 409.786H910.448C910.249 408.462 909.57 407.733 908.462 407.733ZM917.582 415.364C915.265 415.364 913.842 413.593 913.842 410.696C913.842 407.684 915.298 405.996 917.582 405.996C918.559 405.996 919.37 406.409 919.916 407.204V403.198H922.034V415.115H919.916V414.106C919.353 414.917 918.559 415.364 917.582 415.364ZM917.963 413.609C919.237 413.609 919.916 412.583 919.916 410.696C919.916 408.809 919.204 407.75 917.963 407.75C916.705 407.75 916.026 408.793 916.026 410.696C916.026 412.566 916.721 413.609 917.963 413.609ZM932.063 412.219C931.583 414.271 929.994 415.364 927.876 415.364C925.194 415.364 923.556 413.593 923.556 410.696C923.556 407.684 925.211 405.996 927.793 405.996C930.391 405.996 931.997 407.75 931.997 410.613V411.11H925.74C925.84 412.732 926.585 413.626 927.876 413.626C928.869 413.626 929.547 413.162 929.829 412.219H932.063ZM927.793 407.733C926.667 407.733 925.989 408.445 925.79 409.786H929.779C929.58 408.462 928.902 407.733 927.793 407.733ZM933.587 415.115V406.244H935.705V407.386C936.268 406.459 937.129 405.996 938.171 405.996C939.297 405.996 940.174 406.492 940.621 407.502C941.217 406.492 942.16 405.996 943.302 405.996C945.007 405.996 946.166 407.055 946.166 409.206V415.115H944.047V409.637C944.047 408.429 943.6 407.75 942.657 407.75C941.597 407.75 940.935 408.776 940.935 409.968V415.115H938.817V409.637C938.817 408.429 938.37 407.75 937.427 407.75C936.367 407.75 935.705 408.776 935.705 409.968V415.115H933.587ZM950.236 418.756H948.117V406.244H950.236V407.253C950.799 406.442 951.593 405.996 952.57 405.996C954.887 405.996 956.31 407.767 956.31 410.663C956.31 413.675 954.854 415.364 952.57 415.364C951.593 415.364 950.782 414.95 950.236 414.155V418.756ZM952.189 407.75C950.915 407.75 950.236 408.776 950.236 410.663C950.236 412.55 950.948 413.609 952.189 413.609C953.447 413.609 954.126 412.566 954.126 410.663C954.126 408.793 953.43 407.75 952.189 407.75ZM958.129 412.351V407.882H956.987V406.244H958.129V404.208H960.248V406.244H962.118V407.882H960.248V412.169C960.248 413.096 960.512 413.593 961.688 413.593H962.085V415.148C961.853 415.264 961.373 415.364 960.794 415.364C958.99 415.364 958.129 414.337 958.129 412.351ZM963.359 405.251V403.198H965.478V405.251H963.359ZM963.359 415.115V406.244H965.478V415.115H963.359ZM971.256 415.364C968.625 415.364 967.003 413.593 967.003 410.696C967.003 407.684 968.674 405.996 971.256 405.996C973.871 405.996 975.493 407.783 975.493 410.696C975.493 413.675 973.822 415.364 971.256 415.364ZM971.256 413.609C972.597 413.609 973.309 412.583 973.309 410.696C973.309 408.809 972.58 407.75 971.256 407.75C969.899 407.75 969.187 408.793 969.187 410.696C969.187 412.566 969.916 413.609 971.256 413.609ZM977.034 415.115V406.244H979.152V407.435C979.731 406.476 980.658 405.996 981.784 405.996C983.555 405.996 984.763 407.055 984.763 409.206V415.115H982.644V409.637C982.644 408.429 982.131 407.75 981.055 407.75C979.88 407.75 979.152 408.776 979.152 409.968V415.115H977.034Z" fill="#E2E8F0"/>
    <rect x="346.281" y="362.654" width="266.726" height="70.9231" rx="35.4615" fill="#1E293B"/>
    <rect x="364.438" y="379.398" width="37.4352" height="37.4352" rx="18.7176" fill="#475569"/>
    <path fill-rule="evenodd" clip-rule="evenodd" d="M383.145 398.806C380.744 398.806 378.796 396.825 378.796 394.381C378.796 392.095 380.503 390.213 382.691 389.981C382.835 389.967 382.981 389.959 383.127 389.959C385.528 389.959 387.476 391.939 387.476 394.383C387.476 396.67 385.77 398.551 383.582 398.784C383.438 398.798 383.293 398.806 383.145 398.806ZM391.911 407.024L391.923 407.159C391.92 407.117 391.914 407.077 391.91 407.034C391.903 407.441 391.58 407.769 391.179 407.769C390.774 407.769 390.446 407.435 390.446 407.024H390.444C390.08 403.25 386.954 400.302 383.149 400.3L383.145 400.299C383.139 400.299 383.133 400.3 383.127 400.3C379.914 400.3 377.311 397.651 377.311 394.383C377.311 391.116 379.914 388.467 383.127 388.467C383.13 388.467 383.133 388.468 383.136 388.468C383.139 388.468 383.142 388.467 383.145 388.467C386.357 388.467 388.96 391.115 388.96 394.381C388.96 395.603 388.586 396.731 387.961 397.672C387.954 397.682 387.949 397.691 387.943 397.7C387.851 397.837 387.754 397.968 387.652 398.095C387.617 398.14 387.581 398.183 387.545 398.226C387.451 398.335 387.358 398.443 387.258 398.547C387.185 398.621 387.106 398.691 387.029 398.762C386.914 398.866 386.798 398.968 386.675 399.063C386.553 399.159 386.429 399.252 386.3 399.338C386.276 399.354 386.256 399.372 386.233 399.386C389.303 400.559 391.553 403.421 391.892 406.861C391.903 406.913 391.911 406.968 391.911 407.024ZM381.69 403.039C382.085 403.039 382.405 403.36 382.405 403.755C382.405 404.149 382.085 404.47 381.69 404.47H379.106V407.054C379.106 407.449 378.785 407.769 378.39 407.769C377.995 407.769 377.675 407.449 377.675 407.054V404.47H375.091C374.695 404.47 374.375 404.149 374.375 403.755C374.375 403.36 374.695 403.039 375.091 403.039H377.675V400.455C377.675 400.06 377.995 399.74 378.39 399.74C378.785 399.74 379.106 400.06 379.106 400.455V403.039H381.69Z" fill="#E2E8F0"/>
    <path d="M437.902 384.691C437.902 387.389 444.639 385.204 444.639 389.805C444.639 392.073 442.785 393.364 440.236 393.364C437.671 393.364 435.85 392.172 435.42 389.722H437.753C438.035 390.914 438.895 391.576 440.253 391.576C441.643 391.576 442.355 390.997 442.355 390.086C442.355 387.223 435.635 389.375 435.635 384.889C435.635 383.102 437.108 381.612 439.773 381.612C442.04 381.612 443.96 382.705 444.324 385.237H441.957C441.693 383.979 440.915 383.4 439.706 383.4C438.581 383.4 437.902 383.913 437.902 384.691ZM446.412 390.351V385.882H445.27V384.244H446.412V382.208H448.53V384.244H450.401V385.882H448.53V390.169C448.53 391.096 448.795 391.593 449.97 391.593H450.368V393.148C450.136 393.264 449.656 393.364 449.077 393.364C447.273 393.364 446.412 392.337 446.412 390.351ZM453.695 387.157H451.559C451.841 385.187 453.281 383.996 455.515 383.996C457.981 383.996 459.239 385.452 459.239 387.504V390.947C459.239 392.039 459.339 392.652 459.504 393.115H457.303C457.187 392.817 457.137 392.387 457.121 391.907C456.392 392.933 455.3 393.364 454.241 393.364C452.503 393.364 451.262 392.503 451.262 390.798C451.262 389.59 451.94 388.68 453.297 388.233C454.472 387.835 455.615 387.736 457.104 387.72V387.504C457.104 386.362 456.558 385.75 455.383 385.75C454.373 385.75 453.827 386.313 453.695 387.157ZM453.397 390.682C453.397 391.361 453.926 391.791 454.787 391.791C456.095 391.791 457.104 390.732 457.104 389.408V389.027C454.092 389.077 453.397 389.788 453.397 390.682ZM461.259 393.115V381.198H463.378V387.951L466.589 384.244H469.072L465.496 388.183L469.32 393.115H466.721L463.378 388.828V393.115H461.259ZM477.855 390.219C477.375 392.271 475.786 393.364 473.667 393.364C470.986 393.364 469.347 391.593 469.347 388.696C469.347 385.684 471.003 383.996 473.585 383.996C476.183 383.996 477.789 385.75 477.789 388.613V389.11H471.532C471.632 390.732 472.376 391.626 473.667 391.626C474.66 391.626 475.339 391.162 475.62 390.219H477.855ZM473.585 385.733C472.459 385.733 471.781 386.445 471.582 387.786H475.571C475.372 386.462 474.694 385.733 473.585 385.733ZM479.378 393.115V384.244H481.497V385.535C482.076 384.476 482.97 383.996 483.93 383.996C484.294 383.996 484.625 384.095 484.791 384.244V386.081C484.509 385.998 484.195 385.965 483.814 385.965C482.209 385.965 481.497 386.925 481.497 388.398V393.115H479.378ZM489.225 393.115V381.86H493.561C496.027 381.86 497.567 383.069 497.567 384.989C497.567 385.982 497.07 386.743 496.193 387.173C497.484 387.604 498.196 388.564 498.196 389.855C498.196 391.924 496.706 393.115 494.124 393.115H489.225ZM493.512 383.631H491.459V386.544H493.462C494.654 386.544 495.283 385.965 495.283 385.104C495.283 384.194 494.637 383.631 493.512 383.631ZM493.942 388.2H491.459V391.344H494.074C495.233 391.344 495.912 390.715 495.912 389.772C495.912 388.828 495.2 388.2 493.942 388.2ZM502.912 393.115V384.244H505.031V385.386C505.593 384.459 506.454 383.996 507.497 383.996C508.622 383.996 509.5 384.492 509.946 385.502C510.542 384.492 511.486 383.996 512.628 383.996C514.332 383.996 515.491 385.055 515.491 387.206V393.115H513.372V387.637C513.372 386.429 512.926 385.75 511.982 385.75C510.923 385.75 510.261 386.776 510.261 387.968V393.115H508.142V387.637C508.142 386.429 507.695 385.75 506.752 385.75C505.693 385.75 505.031 386.776 505.031 387.968V393.115H502.912ZM519.495 387.157H517.36C517.642 385.187 519.081 383.996 521.316 383.996C523.782 383.996 525.04 385.452 525.04 387.504V390.947C525.04 392.039 525.139 392.652 525.305 393.115H523.103C522.988 392.817 522.938 392.387 522.921 391.907C522.193 392.933 521.101 393.364 520.041 393.364C518.304 393.364 517.062 392.503 517.062 390.798C517.062 389.59 517.741 388.68 519.098 388.233C520.273 387.835 521.415 387.736 522.905 387.72V387.504C522.905 386.362 522.359 385.75 521.183 385.75C520.174 385.75 519.628 386.313 519.495 387.157ZM519.197 390.682C519.197 391.361 519.727 391.791 520.588 391.791C521.895 391.791 522.905 390.732 522.905 389.408V389.027C519.893 389.077 519.197 389.788 519.197 390.682ZM527.06 393.115V381.198H529.179V387.951L532.39 384.244H534.872L531.297 388.183L535.121 393.115H532.522L529.179 388.828V393.115H527.06ZM536.241 383.251V381.198H538.359V383.251H536.241ZM536.241 393.115V384.244H538.359V393.115H536.241ZM540.298 393.115V384.244H542.416V385.435C542.996 384.476 543.923 383.996 545.048 383.996C546.819 383.996 548.027 385.055 548.027 387.206V393.115H545.909V387.637C545.909 386.429 545.396 385.75 544.32 385.75C543.145 385.75 542.416 386.776 542.416 387.968V393.115H540.298ZM553.207 393.148C550.956 393.148 549.566 391.41 549.566 388.58C549.566 385.634 550.989 383.996 553.207 383.996C554.266 383.996 555.094 384.393 555.64 385.138V384.244H557.759V393.397C557.759 395.797 556.104 397.021 553.902 397.021C551.717 397.021 550.129 396.012 549.814 393.91H551.949C552.082 394.853 552.843 395.35 553.869 395.35C554.928 395.35 555.64 394.837 555.64 393.43V391.94C555.061 392.735 554.233 393.148 553.207 393.148ZM553.687 391.394C554.962 391.394 555.64 390.401 555.64 388.58C555.64 386.776 554.928 385.75 553.687 385.75C552.429 385.75 551.751 386.743 551.751 388.58C551.751 390.384 552.429 391.394 553.687 391.394ZM564.946 387.157H562.811C563.093 385.187 564.533 383.996 566.767 383.996C569.233 383.996 570.491 385.452 570.491 387.504V390.947C570.491 392.039 570.59 392.652 570.756 393.115H568.555C568.439 392.817 568.389 392.387 568.373 391.907C567.644 392.933 566.552 393.364 565.493 393.364C563.755 393.364 562.513 392.503 562.513 390.798C562.513 389.59 563.192 388.68 564.549 388.233C565.724 387.835 566.866 387.736 568.356 387.72V387.504C568.356 386.362 567.81 385.75 566.635 385.75C565.625 385.75 565.079 386.313 564.946 387.157ZM564.648 390.682C564.648 391.361 565.178 391.791 566.039 391.791C567.346 391.791 568.356 390.732 568.356 389.408V389.027C565.344 389.077 564.648 389.788 564.648 390.682ZM430.74 415.364C428.423 415.364 427 413.593 427 410.696C427 407.684 428.456 405.996 430.74 405.996C431.717 405.996 432.528 406.409 433.074 407.204V403.198H435.193V415.115H433.074V414.106C432.511 414.917 431.717 415.364 430.74 415.364ZM431.121 413.609C432.395 413.609 433.074 412.583 433.074 410.696C433.074 408.809 432.362 407.75 431.121 407.75C429.863 407.75 429.184 408.793 429.184 410.696C429.184 412.566 429.88 413.609 431.121 413.609ZM445.221 412.219C444.741 414.271 443.152 415.364 441.034 415.364C438.352 415.364 436.714 413.593 436.714 410.696C436.714 407.684 438.369 405.996 440.951 405.996C443.549 405.996 445.155 407.75 445.155 410.613V411.11H438.899C438.998 412.732 439.743 413.626 441.034 413.626C442.027 413.626 442.705 413.162 442.987 412.219H445.221ZM440.951 407.733C439.825 407.733 439.147 408.445 438.948 409.786H442.937C442.738 408.462 442.06 407.733 440.951 407.733ZM448.863 418.756H446.745V406.244H448.863V407.253C449.426 406.442 450.221 405.996 451.197 405.996C453.514 405.996 454.938 407.767 454.938 410.663C454.938 413.675 453.481 415.364 451.197 415.364C450.221 415.364 449.41 414.95 448.863 414.155V418.756ZM450.816 407.75C449.542 407.75 448.863 408.776 448.863 410.663C448.863 412.55 449.575 413.609 450.816 413.609C452.074 413.609 452.753 412.566 452.753 410.663C452.753 408.793 452.058 407.75 450.816 407.75ZM460.315 415.364C457.683 415.364 456.061 413.593 456.061 410.696C456.061 407.684 457.733 405.996 460.315 405.996C462.93 405.996 464.552 407.783 464.552 410.696C464.552 413.675 462.88 415.364 460.315 415.364ZM460.315 413.609C461.656 413.609 462.367 412.583 462.367 410.696C462.367 408.809 461.639 407.75 460.315 407.75C458.958 407.75 458.246 408.793 458.246 410.696C458.246 412.566 458.974 413.609 460.315 413.609ZM467.863 408.627C467.863 410.663 473.457 408.942 473.457 412.5C473.457 414.205 471.885 415.364 469.667 415.364C467.482 415.364 465.91 414.354 465.596 412.219H467.714C467.863 413.179 468.625 413.725 469.733 413.725C470.776 413.725 471.322 413.278 471.322 412.633C471.322 410.646 465.844 412.351 465.844 408.76C465.844 407.32 466.969 405.996 469.287 405.996C471.322 405.996 472.862 406.955 473.126 409.157H471.008C470.842 408.081 470.213 407.651 469.204 407.651C468.36 407.651 467.863 408.064 467.863 408.627ZM474.901 405.251V403.198H477.02V405.251H474.901ZM474.901 415.115V406.244H477.02V415.115H474.901ZM479.24 412.351V407.882H478.098V406.244H479.24V404.208H481.358V406.244H483.228V407.882H481.358V412.169C481.358 413.096 481.623 413.593 482.798 413.593H483.195V415.148C482.964 415.264 482.484 415.364 481.904 415.364C480.1 415.364 479.24 414.337 479.24 412.351ZM495.499 415.115L493.894 409.173L493.728 408.131L493.53 409.173L491.941 415.115H489.309L486.843 406.244H489.111L490.534 412.5L490.749 413.576L490.997 412.5L492.702 406.244H494.903L496.608 412.5L496.823 413.543L497.022 412.5L498.462 406.244H500.63L498.147 415.115H495.499ZM501.765 405.251V403.198H503.883V405.251H501.765ZM501.765 415.115V406.244H503.883V415.115H501.765ZM506.103 412.351V407.882H504.961V406.244H506.103V404.208H508.221V406.244H510.092V407.882H508.221V412.169C508.221 413.096 508.486 413.593 509.661 413.593H510.059V415.148C509.827 415.264 509.347 415.364 508.768 415.364C506.964 415.364 506.103 414.337 506.103 412.351ZM511.333 415.115V403.198H513.452V407.435C514.031 406.476 514.958 405.996 516.083 405.996C517.854 405.996 519.063 407.055 519.063 409.206V415.115H516.944V409.637C516.944 408.429 516.431 407.75 515.355 407.75C514.18 407.75 513.452 408.776 513.452 409.968V415.115H511.333ZM524.855 415.364C522.223 415.364 520.601 413.593 520.601 410.696C520.601 407.684 522.273 405.996 524.855 405.996C527.47 405.996 529.092 407.783 529.092 410.696C529.092 413.675 527.42 415.364 524.855 415.364ZM524.855 413.609C526.196 413.609 526.907 412.583 526.907 410.696C526.907 408.809 526.179 407.75 524.855 407.75C523.498 407.75 522.786 408.793 522.786 410.696C522.786 412.566 523.514 413.609 524.855 413.609ZM536.144 411.391V406.244H538.262V415.115H536.144V413.924C535.564 414.9 534.654 415.364 533.562 415.364C531.807 415.364 530.632 414.304 530.632 412.169V406.244H532.751V411.739C532.751 412.947 533.247 413.609 534.29 413.609C535.432 413.609 536.144 412.583 536.144 411.391ZM540.498 412.351V407.882H539.356V406.244H540.498V404.208H542.617V406.244H544.487V407.882H542.617V412.169C542.617 413.096 542.882 413.593 544.057 413.593H544.454V415.148C544.222 415.264 543.742 415.364 543.163 415.364C541.359 415.364 540.498 414.337 540.498 412.351ZM548.913 415.115V403.198H551.031V415.115H548.913ZM556.81 415.364C554.178 415.364 552.556 413.593 552.556 410.696C552.556 407.684 554.228 405.996 556.81 405.996C559.425 405.996 561.047 407.783 561.047 410.696C561.047 413.675 559.375 415.364 556.81 415.364ZM556.81 413.609C558.15 413.609 558.862 412.583 558.862 410.696C558.862 408.809 558.134 407.75 556.81 407.75C555.452 407.75 554.741 408.793 554.741 410.696C554.741 412.566 555.469 413.609 556.81 413.609ZM570.267 409.389H568.148C567.95 408.23 567.254 407.75 566.361 407.75C565.053 407.75 564.358 408.793 564.358 410.696C564.358 412.566 565.086 413.609 566.427 413.609C567.337 413.609 567.983 413.113 568.198 412.103H570.333C569.936 414.321 568.38 415.364 566.377 415.364C563.762 415.364 562.173 413.576 562.173 410.696C562.173 407.684 563.812 405.996 566.361 405.996C568.38 405.996 569.969 407.121 570.267 409.389ZM571.8 415.115V403.198H573.919V409.951L577.13 406.244H579.612L576.037 410.183L579.86 415.115H577.262L573.919 410.828V415.115H571.8Z" fill="#CBD5E1"/>
    <rect y="7.01758" width="143.088" height="56.2891" rx="28.1446" fill="#3B82F6"/>
    <rect x="14.7031" y="14.1055" width="42.1146" height="42.1146" rx="21.0573" fill="#60A5FA"/>
    <path d="M35.7633 38.0872C38.9938 38.0872 41.6126 35.4684 41.6126 32.2379C41.6126 29.0075 38.9938 26.3887 35.7633 26.3887C32.5329 26.3887 29.9141 29.0075 29.9141 32.2379C29.9141 35.4684 32.5329 38.0872 35.7633 38.0872Z" stroke="white" stroke-width="1.46231" stroke-miterlimit="10"/>
    <path d="M26.8984 43.2068C27.7968 41.6505 29.089 40.3581 30.6452 39.4595C32.2014 38.561 33.9667 38.0879 35.7637 38.0879C37.5607 38.0879 39.326 38.561 40.8822 39.4595C42.4384 40.3581 43.7306 41.6505 44.629 43.2068" stroke="white" stroke-width="1.46231" stroke-linecap="round" stroke-linejoin="round"/>
    <path d="M72.0916 41.1621V31.0295H68.1917V29.0529H78.3956V31.0295H74.4957V41.1621H72.0916ZM79.1784 41.1621V31.6172H81.4578V33.0062C82.0811 31.8665 83.0427 31.3501 84.0755 31.3501C84.4673 31.3501 84.8234 31.4569 85.0015 31.6172V33.5938C84.6988 33.5048 84.3604 33.4692 83.9509 33.4692C82.2235 33.4692 81.4578 34.502 81.4578 36.0869V41.1621H79.1784ZM88.3079 34.7513H86.0107C86.3134 32.6322 87.8627 31.3501 90.2668 31.3501C92.9201 31.3501 94.2735 32.9171 94.2735 35.1253V38.8293C94.2735 40.0046 94.3803 40.6635 94.5584 41.1621H92.19C92.0653 40.8416 92.0119 40.3786 91.9941 39.8621C91.2106 40.9662 90.0353 41.4292 88.8956 41.4292C87.0258 41.4292 85.6902 40.5032 85.6902 38.669C85.6902 37.3691 86.4203 36.3896 87.8805 35.9088C89.1449 35.4815 90.3736 35.3746 91.9763 35.3568V35.1253C91.9763 33.8966 91.3886 33.2377 90.1243 33.2377C89.038 33.2377 88.4504 33.8431 88.3079 34.7513ZM87.9874 38.5444C87.9874 39.2745 88.5572 39.7375 89.4832 39.7375C90.89 39.7375 91.9763 38.5978 91.9763 37.1732V36.7636C88.7353 36.817 87.9874 37.5828 87.9874 38.5444ZM100.026 41.4292C97.5333 41.4292 96.0018 39.5238 96.0018 36.4075C96.0018 33.1665 97.5689 31.3501 100.026 31.3501C101.077 31.3501 101.95 31.7953 102.537 32.65V28.3406H104.817V41.1621H102.537V40.0758C101.932 40.9484 101.077 41.4292 100.026 41.4292ZM100.436 39.5416C101.807 39.5416 102.537 38.4375 102.537 36.4075C102.537 34.3774 101.772 33.2377 100.436 33.2377C99.0825 33.2377 98.3524 34.3596 98.3524 36.4075C98.3524 38.4197 99.1003 39.5416 100.436 39.5416ZM115.607 38.0458C115.09 40.2539 113.381 41.4292 111.101 41.4292C108.216 41.4292 106.453 39.5238 106.453 36.4075C106.453 33.1665 108.234 31.3501 111.012 31.3501C113.808 31.3501 115.535 33.2377 115.535 36.3184V36.8526H108.804C108.911 38.5978 109.712 39.5594 111.101 39.5594C112.17 39.5594 112.9 39.0608 113.203 38.0458H115.607ZM111.012 33.2199C109.801 33.2199 109.071 33.9856 108.857 35.428H113.149C112.935 34.0034 112.205 33.2199 111.012 33.2199ZM117.246 41.1621V31.6172H119.525V33.0062C120.148 31.8665 121.11 31.3501 122.143 31.3501C122.535 31.3501 122.891 31.4569 123.069 31.6172V33.5938C122.766 33.5048 122.428 33.4692 122.018 33.4692C120.291 33.4692 119.525 34.502 119.525 36.0869V41.1621H117.246Z" fill="white"/>
    <path d="M148.93 33.6634C148.474 34.1203 148.474 34.861 148.93 35.3178L156.375 42.7626C156.832 43.2194 157.573 43.2194 158.03 42.7625C158.487 42.3057 158.487 41.565 158.03 41.1081L151.412 34.4906L158.03 27.8728C158.486 27.4159 158.486 26.6752 158.03 26.2183C157.573 25.7615 156.832 25.7615 156.375 26.2184L148.93 33.6634ZM411.454 202.04C411.911 201.583 411.911 200.842 411.454 200.386L404.009 192.941C403.552 192.484 402.811 192.484 402.355 192.941C401.898 193.398 401.898 194.138 402.355 194.595L408.972 201.213L402.355 207.831C401.898 208.287 401.898 209.028 402.355 209.485C402.811 209.942 403.552 209.942 404.009 209.485L411.454 202.04ZM157.356 34.4905L157.356 33.3206L157.356 34.4905ZM191.307 40.315L190.48 41.1422L191.307 40.315ZM236.904 201.213L236.904 202.383L236.904 201.213ZM197.129 161.437L195.959 161.437L197.129 161.437ZM202.953 195.388L202.126 196.215L202.953 195.388ZM236.904 202.383L410.627 202.383L410.627 200.043L236.904 200.043L236.904 202.383ZM149.758 35.6605L157.356 35.6603L157.356 33.3206L149.758 33.3208L149.758 35.6605ZM195.962 74.2664L195.959 161.437L198.299 161.437L198.301 74.2665L195.962 74.2664ZM157.356 35.6603C166.764 35.6601 173.703 35.6625 179.023 36.3776C184.309 37.0882 187.821 38.4832 190.48 41.1422L192.134 39.4878C188.968 36.3216 184.88 34.8042 179.335 34.0587C173.823 33.3178 166.698 33.3204 157.356 33.3206L157.356 35.6603ZM198.301 74.2665C198.302 64.9241 198.304 57.7996 197.563 52.2877C196.818 46.7421 195.301 42.6539 192.134 39.4878L190.48 41.1422C193.139 43.8012 194.534 47.3133 195.245 52.5994C195.96 57.9192 195.962 64.8579 195.962 74.2664L198.301 74.2665ZM236.904 200.043C227.496 200.043 220.557 200.04 215.238 199.325C209.951 198.615 206.439 197.219 203.781 194.561L202.126 196.215C205.292 199.381 209.38 200.899 214.926 201.644C220.438 202.385 227.562 202.383 236.904 202.383L236.904 200.043ZM195.959 161.437C195.959 170.779 195.956 177.903 196.697 183.415C197.443 188.961 198.96 193.049 202.126 196.215L203.781 194.561C201.122 191.902 199.727 188.39 199.016 183.103C198.301 177.784 198.299 170.845 198.299 161.437L195.959 161.437Z" fill="#3B82F6"/>
    <path d="M411.455 223.097C411.912 222.64 411.912 221.9 411.455 221.443L404.01 213.998C403.553 213.541 402.812 213.541 402.356 213.998C401.899 214.455 401.899 215.195 402.356 215.652L408.973 222.27L402.356 228.888C401.899 229.344 401.899 230.085 402.356 230.542C402.812 230.999 403.553 230.999 404.01 230.542L411.455 223.097ZM77.5973 213.704L78.4245 212.877L77.5973 213.704ZM67.8614 67.8496V163.777H70.2011V67.8496H67.8614ZM127.524 223.44H410.628V221.1H127.524V223.44ZM67.8614 163.777C67.8614 177.531 67.8589 187.964 68.9426 196.024C70.0308 204.118 72.2335 209.994 76.7701 214.531L78.4245 212.877C74.3951 208.847 72.3147 203.547 71.2614 195.713C70.2036 187.844 70.2011 177.597 70.2011 163.777H67.8614ZM127.524 221.1C113.704 221.1 103.457 221.098 95.5886 220.04C87.7541 218.986 82.4539 216.906 78.4245 212.877L76.7701 214.531C81.3067 219.068 87.1829 221.27 95.2768 222.359C103.337 223.442 113.77 223.44 127.524 223.44V221.1Z" fill="url(#paint1_linear_3657_9595)"/>
    <path d="M549.009 202.726C548.552 203.182 548.552 203.923 549.009 204.38L556.454 211.825C556.91 212.282 557.651 212.282 558.108 211.825C558.565 211.368 558.565 210.627 558.108 210.17L551.49 203.553L558.108 196.935C558.565 196.478 558.565 195.737 558.108 195.281C557.651 194.824 556.91 194.824 556.454 195.281L549.009 202.726ZM926.352 210.748L925.524 211.575L926.352 210.748ZM549.836 204.723H884.413V202.383H549.836V204.723ZM932.377 252.686V357.973H934.717V252.686H932.377ZM884.413 204.723C896.027 204.723 904.62 204.725 911.214 205.612C917.774 206.494 922.18 208.231 925.524 211.575L927.179 209.921C923.327 206.07 918.345 204.21 911.526 203.293C904.74 202.38 895.961 202.383 884.413 202.383V204.723ZM934.717 252.686C934.717 241.139 934.719 232.36 933.807 225.574C932.89 218.754 931.03 213.772 927.179 209.921L925.524 211.575C928.868 214.92 930.606 219.326 931.488 225.886C932.375 232.48 932.377 241.072 932.377 252.686H934.717Z" fill="#3B82F6"/>
    <path d="M906.395 357.631C906.851 358.088 907.592 358.088 908.049 357.631L915.494 350.186C915.951 349.729 915.951 348.988 915.494 348.532C915.037 348.075 914.296 348.075 913.839 348.532L907.222 355.149L900.604 348.532C900.147 348.075 899.407 348.075 898.95 348.532C898.493 348.988 898.493 349.729 898.95 350.186L906.395 357.631ZM907.222 273.743L908.391 273.743L907.222 273.743ZM900.711 235.799L899.884 236.626L900.711 235.799ZM549.833 230.459L862.767 230.459L862.767 228.119L549.833 228.119L549.833 230.459ZM906.052 273.743L906.052 356.804L908.392 356.804L908.391 273.743L906.052 273.743ZM862.767 230.459C873.278 230.459 881.044 230.461 887 231.262C892.924 232.059 896.883 233.625 899.884 236.626L901.538 234.972C898.03 231.463 893.495 229.775 887.312 228.943C881.163 228.117 873.212 228.119 862.767 228.119L862.767 230.459ZM908.391 273.743C908.391 263.298 908.394 255.347 907.567 249.198C906.736 243.016 905.047 238.481 901.538 234.972L899.884 236.626C902.886 239.628 904.452 243.587 905.248 249.51C906.049 255.467 906.052 263.232 906.052 273.743L908.391 273.743Z" fill="#3B82F6"/>
    <path d="M494.077 75.2147C493.62 74.7578 492.88 74.7578 492.423 75.2147L484.978 82.6596C484.521 83.1164 484.521 83.8571 484.978 84.314C485.435 84.7708 486.175 84.7708 486.632 84.314L493.25 77.6963L499.868 84.314C500.325 84.7708 501.065 84.7708 501.522 84.314C501.979 83.8571 501.979 83.1164 501.522 82.6596L494.077 75.2147ZM494.42 186.008L494.42 76.0419L492.08 76.0419L492.08 186.008H494.42Z" fill="#3B82F6"/>
    <path d="M464.352 186.834C464.809 187.291 465.55 187.291 466.007 186.834L473.452 179.389C473.909 178.932 473.909 178.192 473.452 177.735C472.995 177.278 472.254 177.278 471.797 177.735L465.18 184.353L458.562 177.735C458.105 177.278 457.364 177.278 456.908 177.735C456.451 178.192 456.451 178.932 456.908 179.389L464.352 186.834ZM464.01 76.041L464.01 186.007H466.35L466.35 76.041L464.01 76.041Z" fill="#3B82F6"/>
    <path d="M494.077 357.631C493.62 358.088 492.88 358.088 492.423 357.631L484.978 350.186C484.521 349.729 484.521 348.989 484.978 348.532C485.435 348.075 486.175 348.075 486.632 348.532L493.25 355.149L499.868 348.532C500.325 348.075 501.065 348.075 501.522 348.532C501.979 348.989 501.979 349.729 501.522 350.186L494.077 357.631ZM494.42 246.838L494.42 356.804L492.08 356.804L492.08 246.838H494.42Z" fill="#3B82F6"/>
    <path d="M464.352 246.012C464.809 245.555 465.55 245.555 466.007 246.012L473.452 253.456C473.909 253.913 473.909 254.654 473.452 255.111C472.995 255.568 472.254 255.568 471.797 255.111L465.18 248.493L458.562 255.111C458.105 255.568 457.364 255.568 456.908 255.111C456.451 254.654 456.451 253.913 456.908 253.456L464.352 246.012ZM464.01 356.805L464.01 246.839H466.35L466.35 356.805L464.01 356.805Z" fill="#3B82F6"/>
    <rect x="473.781" y="113.475" width="42.1146" height="32.7558" rx="16.3779" fill="#3B82F6"/>
    <g clip-path="url(#clip0_3657_9595)">
        <path d="M489.711 131.561C489.711 130.484 490.584 129.611 491.661 129.611H497.997C499.074 129.611 499.947 130.484 499.947 131.561V134.486C499.947 135.563 499.074 136.435 497.997 136.435H491.661C490.584 136.435 489.711 135.563 489.711 134.486V131.561Z" stroke="white" stroke-width="1.46231"/>
        <path d="M492.641 129.39L492.641 125.224C492.641 124.148 493.514 123.275 494.59 123.275L495.078 123.275C496.155 123.275 497.028 124.148 497.028 125.224L497.028 129.611" stroke="white" stroke-width="1.46231"/>
        <path d="M493.852 132.988C493.848 133.116 493.869 133.243 493.914 133.363C493.959 133.483 494.027 133.592 494.115 133.686C494.202 133.779 494.307 133.855 494.424 133.908C494.54 133.961 494.666 133.99 494.794 133.994C494.922 133.998 495.05 133.977 495.17 133.932C495.289 133.887 495.399 133.819 495.493 133.732C495.586 133.644 495.661 133.539 495.714 133.422C495.767 133.306 495.797 133.18 495.801 133.052C495.805 132.924 495.784 132.797 495.739 132.677C495.694 132.557 495.626 132.447 495.538 132.354C495.451 132.26 495.346 132.185 495.229 132.132C495.112 132.079 494.987 132.05 494.859 132.045C494.731 132.041 494.603 132.062 494.483 132.107C494.364 132.152 494.254 132.221 494.16 132.308C494.067 132.396 493.991 132.501 493.939 132.617C493.886 132.734 493.856 132.86 493.852 132.988Z" fill="white"/>
    </g>
    <rect x="128.68" y="198.873" width="46.794" height="46.794" rx="23.397" fill="url(#paint2_linear_3657_9595)"/>
    <path d="M159.095 222.271H159.106M145.056 222.271H145.068M155.585 222.271C155.585 224.209 154.014 225.781 152.076 225.781C150.137 225.781 148.566 224.209 148.566 222.271C148.566 220.333 150.137 218.762 152.076 218.762C154.014 218.762 155.585 220.333 155.585 222.271ZM143.887 215.252H160.264C161.557 215.252 162.604 216.299 162.604 217.592V226.95C162.604 228.243 161.557 229.29 160.264 229.29H143.887C142.594 229.29 141.547 228.243 141.547 226.95V217.592C141.547 216.299 142.594 215.252 143.887 215.252Z" stroke="white" stroke-width="2.3397" stroke-linecap="round" stroke-linejoin="round"/>
    <rect x="472.617" y="284.273" width="42.1146" height="32.7558" rx="16.3779" fill="#3B82F6"/>
    <g clip-path="url(#clip1_3657_9595)">
        <path d="M488.555 302.36C488.555 301.283 489.428 300.41 490.504 300.41H496.841C497.918 300.41 498.791 301.283 498.791 302.36V305.285C498.791 306.361 497.918 307.234 496.841 307.234H490.504C489.428 307.234 488.555 306.361 488.555 305.285V302.36Z" stroke="white" stroke-width="1.46231"/>
        <path d="M491.469 300.186L491.469 296.02C491.469 294.943 492.342 294.07 493.419 294.07L493.906 294.07C494.983 294.07 495.856 294.943 495.856 296.02L495.856 296.995" stroke="white" stroke-width="1.46231" stroke-linecap="round"/>
        <path d="M492.696 303.786C492.692 303.914 492.713 304.042 492.758 304.162C492.803 304.282 492.871 304.391 492.958 304.485C493.046 304.578 493.151 304.654 493.268 304.706C493.384 304.759 493.51 304.789 493.638 304.793C493.766 304.797 493.893 304.776 494.013 304.731C494.133 304.686 494.243 304.618 494.336 304.53C494.43 304.443 494.505 304.338 494.558 304.221C494.611 304.105 494.64 303.979 494.645 303.851C494.649 303.723 494.628 303.595 494.583 303.476C494.538 303.356 494.469 303.246 494.382 303.152C494.294 303.059 494.189 302.984 494.073 302.931C493.956 302.878 493.83 302.849 493.702 302.844C493.574 302.84 493.447 302.861 493.327 302.906C493.207 302.951 493.097 303.019 493.004 303.107C492.911 303.194 492.835 303.299 492.782 303.416C492.729 303.533 492.7 303.658 492.696 303.786Z" fill="white"/>
    </g>
    <rect x="834.109" y="403.824" width="17.5478" height="17.5478" rx="8.77388" fill="#84CC16"/>
    <path d="M839.961 413.085L841.741 414.791L845.81 410.404" stroke="white" stroke-width="1.46231" stroke-linecap="round" stroke-linejoin="round"/>
    <defs>
        <linearGradient id="paint0_linear_3657_9595" x1="794.975" y1="362.654" x2="1067.63" y2="419.923" gradientUnits="userSpaceOnUse">
            <stop stop-color="#534289"/>
            <stop offset="0.46875" stop-color="#D55B89"/>
            <stop offset="0.692708" stop-color="#F3AFCD"/>
            <stop offset="0.842814" stop-color="#E7BCFB"/>
        </linearGradient>
        <linearGradient id="paint1_linear_3657_9595" x1="77.8466" y1="67.8496" x2="457.96" y2="117.652" gradientUnits="userSpaceOnUse">
            <stop stop-color="#534289"/>
            <stop offset="0.46875" stop-color="#D55B89"/>
            <stop offset="0.692708" stop-color="#F3AFCD"/>
            <stop offset="0.842814" stop-color="#E7BCFB"/>
        </linearGradient>
        <linearGradient id="paint2_linear_3657_9595" x1="107.037" y1="178.986" x2="208.423" y2="169.942" gradientUnits="userSpaceOnUse">
            <stop stop-color="#534289"/>
            <stop offset="0.46875" stop-color="#D55B89"/>
            <stop offset="0.735418" stop-color="#F3AFCD"/>
            <stop offset="0.842814" stop-color="#E7BCFB"/>
        </linearGradient>
        <clipPath id="clip0_3657_9595">
            <rect width="23.397" height="23.397" fill="white" transform="translate(483.141 118.154)"/>
        </clipPath>
        <clipPath id="clip1_3657_9595">
            <rect width="23.397" height="23.397" fill="white" transform="translate(481.977 288.953)"/>
        </clipPath>
    </defs>
</svg>
