<svg width="889" height="371" viewBox="0 0 889 371" fill="none" xmlns="http://www.w3.org/2000/svg">
    <path d="M452.12 108V96.48H453.528V108H452.12ZM459.217 108.192C456.785 108.192 455.329 106.528 455.329 103.76C455.329 100.88 456.833 99.296 459.217 99.296C461.649 99.296 463.105 100.992 463.105 103.76C463.105 106.624 461.601 108.192 459.217 108.192ZM459.217 106.976C460.801 106.976 461.665 105.84 461.665 103.76C461.665 101.696 460.785 100.512 459.217 100.512C457.633 100.512 456.769 101.664 456.769 103.76C456.769 105.808 457.649 106.976 459.217 106.976ZM471.941 102.432H470.533C470.309 101.136 469.445 100.512 468.325 100.512C466.757 100.512 465.925 101.664 465.925 103.76C465.925 105.824 466.805 106.992 468.373 106.992C469.509 106.992 470.325 106.384 470.597 105.168H472.005C471.621 107.28 470.197 108.192 468.341 108.192C465.925 108.192 464.485 106.512 464.485 103.76C464.485 100.88 465.957 99.296 468.325 99.296C470.197 99.296 471.669 100.352 471.941 102.432ZM473.745 108V96.48H475.153V103.152L478.817 99.504H480.545L476.673 103.296L480.769 108H478.977L475.153 103.664V108H473.745ZM488.761 105.232C488.297 107.216 486.873 108.192 484.937 108.192C482.473 108.192 480.985 106.528 480.985 103.76C480.985 100.88 482.473 99.296 484.857 99.296C487.257 99.296 488.697 100.944 488.697 103.648V104H482.425C482.505 105.904 483.401 106.976 484.937 106.976C486.137 106.976 486.985 106.4 487.289 105.232H488.761ZM484.857 100.512C483.497 100.512 482.681 101.36 482.473 102.944H487.225C487.033 101.376 486.185 100.512 484.857 100.512ZM493.757 108.192C491.501 108.192 490.141 106.528 490.141 103.76C490.141 100.88 491.533 99.296 493.757 99.296C494.765 99.296 495.581 99.712 496.141 100.496V96.48H497.549V108H496.141V106.928C495.581 107.728 494.765 108.192 493.757 108.192ZM493.853 106.976C495.341 106.976 496.141 105.84 496.141 103.76C496.141 101.696 495.309 100.512 493.853 100.512C492.381 100.512 491.581 101.664 491.581 103.76C491.581 105.808 492.413 106.976 493.853 106.976ZM455.304 129.192C453.048 129.192 451.688 127.528 451.688 124.76C451.688 121.88 453.08 120.296 455.304 120.296C456.312 120.296 457.128 120.712 457.688 121.496V117.48H459.096V129H457.688V127.928C457.128 128.728 456.312 129.192 455.304 129.192ZM455.4 127.976C456.888 127.976 457.688 126.84 457.688 124.76C457.688 122.696 456.856 121.512 455.4 121.512C453.928 121.512 453.128 122.664 453.128 124.76C453.128 126.808 453.96 127.976 455.4 127.976ZM464.443 129V119.368H460.715V118.12H469.643V119.368H465.915V129H464.443ZM473.279 129.192C470.847 129.192 469.391 127.528 469.391 124.76C469.391 121.88 470.895 120.296 473.279 120.296C475.711 120.296 477.167 121.992 477.167 124.76C477.167 127.624 475.663 129.192 473.279 129.192ZM473.279 127.976C474.863 127.976 475.727 126.84 475.727 124.76C475.727 122.696 474.847 121.512 473.279 121.512C471.695 121.512 470.831 122.664 470.831 124.76C470.831 126.808 471.711 127.976 473.279 127.976ZM478.979 129V117.48H480.387V124.152L484.051 120.504H485.779L481.907 124.296L486.003 129H484.211L480.387 124.664V129H478.979ZM493.995 126.232C493.531 128.216 492.107 129.192 490.171 129.192C487.707 129.192 486.219 127.528 486.219 124.76C486.219 121.88 487.707 120.296 490.091 120.296C492.491 120.296 493.931 121.944 493.931 124.648V125H487.659C487.739 126.904 488.635 127.976 490.171 127.976C491.371 127.976 492.219 127.4 492.523 126.232H493.995ZM490.091 121.512C488.731 121.512 487.915 122.36 487.707 123.944H492.459C492.267 122.376 491.419 121.512 490.091 121.512ZM495.808 129V120.504H497.216V121.656C497.792 120.76 498.72 120.296 499.84 120.296C501.648 120.296 502.72 121.352 502.72 123.32V129H501.312V123.608C501.312 122.328 500.736 121.496 499.456 121.496C498.048 121.496 497.216 122.76 497.216 123.976V129H495.808ZM508.295 129V118.12H509.831L514.839 125.8L515.463 126.872V118.12H516.935V129H515.399L510.407 121.368L509.767 120.248V129H508.295ZM519.436 129V118.12H526.812V119.32H520.908V123.048H526.22V124.248H520.908V129H519.436ZM531.599 129V119.368H527.871V118.12H536.799V119.368H533.071V129H531.599Z" fill="#475569"/>
    <path d="M455.304 262.192C453.048 262.192 451.688 260.528 451.688 257.76C451.688 254.88 453.08 253.296 455.304 253.296C456.312 253.296 457.128 253.712 457.688 254.496V250.48H459.096V262H457.688V260.928C457.128 261.728 456.312 262.192 455.304 262.192ZM455.4 260.976C456.888 260.976 457.688 259.84 457.688 257.76C457.688 255.696 456.856 254.512 455.4 254.512C453.928 254.512 453.128 255.664 453.128 257.76C453.128 259.808 453.96 260.976 455.4 260.976ZM464.443 262V252.368H460.715V251.12H469.643V252.368H465.915V262H464.443ZM473.279 262.192C470.847 262.192 469.391 260.528 469.391 257.76C469.391 254.88 470.895 253.296 473.279 253.296C475.711 253.296 477.167 254.992 477.167 257.76C477.167 260.624 475.663 262.192 473.279 262.192ZM473.279 260.976C474.863 260.976 475.727 259.84 475.727 257.76C475.727 255.696 474.847 254.512 473.279 254.512C471.695 254.512 470.831 255.664 470.831 257.76C470.831 259.808 471.711 260.976 473.279 260.976ZM478.979 262V250.48H480.387V257.152L484.051 253.504H485.779L481.907 257.296L486.003 262H484.211L480.387 257.664V262H478.979ZM493.995 259.232C493.531 261.216 492.107 262.192 490.171 262.192C487.707 262.192 486.219 260.528 486.219 257.76C486.219 254.88 487.707 253.296 490.091 253.296C492.491 253.296 493.931 254.944 493.931 257.648V258H487.659C487.739 259.904 488.635 260.976 490.171 260.976C491.371 260.976 492.219 260.4 492.523 259.232H493.995ZM490.091 254.512C488.731 254.512 487.915 255.36 487.707 256.944H492.459C492.267 255.376 491.419 254.512 490.091 254.512ZM495.808 262V253.504H497.216V254.656C497.792 253.76 498.72 253.296 499.84 253.296C501.648 253.296 502.72 254.352 502.72 256.32V262H501.312V256.608C501.312 255.328 500.736 254.496 499.456 254.496C498.048 254.496 497.216 255.76 497.216 256.976V262H495.808Z" fill="#475569"/>
    <path d="M601.304 163.192C599.048 163.192 597.688 161.528 597.688 158.76C597.688 155.88 599.08 154.296 601.304 154.296C602.312 154.296 603.128 154.712 603.688 155.496V151.48H605.096V163H603.688V161.928C603.128 162.728 602.312 163.192 601.304 163.192ZM601.4 161.976C602.888 161.976 603.688 160.84 603.688 158.76C603.688 156.696 602.856 155.512 601.4 155.512C599.928 155.512 599.128 156.664 599.128 158.76C599.128 160.808 599.96 161.976 601.4 161.976ZM610.443 163V153.368H606.715V152.12H615.643V153.368H611.915V163H610.443ZM619.279 163.192C616.847 163.192 615.391 161.528 615.391 158.76C615.391 155.88 616.895 154.296 619.279 154.296C621.711 154.296 623.167 155.992 623.167 158.76C623.167 161.624 621.663 163.192 619.279 163.192ZM619.279 161.976C620.863 161.976 621.727 160.84 621.727 158.76C621.727 156.696 620.847 155.512 619.279 155.512C617.695 155.512 616.831 156.664 616.831 158.76C616.831 160.808 617.711 161.976 619.279 161.976ZM624.979 163V151.48H626.387V158.152L630.051 154.504H631.779L627.907 158.296L632.003 163H630.211L626.387 158.664V163H624.979ZM639.995 160.232C639.531 162.216 638.107 163.192 636.171 163.192C633.707 163.192 632.219 161.528 632.219 158.76C632.219 155.88 633.707 154.296 636.091 154.296C638.491 154.296 639.931 155.944 639.931 158.648V159H633.659C633.739 160.904 634.635 161.976 636.171 161.976C637.371 161.976 638.219 161.4 638.523 160.232H639.995ZM636.091 155.512C634.731 155.512 633.915 156.36 633.707 157.944H638.459C638.267 156.376 637.419 155.512 636.091 155.512ZM641.808 163V154.504H643.216V155.656C643.792 154.76 644.72 154.296 645.84 154.296C647.648 154.296 648.72 155.352 648.72 157.32V163H647.312V157.608C647.312 156.328 646.736 155.496 645.456 155.496C644.048 155.496 643.216 156.76 643.216 157.976V163H641.808Z" fill="#475569"/>
    <path d="M199.16 156.68C199.16 159.048 204.68 157.096 204.68 160.6C204.68 162.184 203.272 163.192 201.272 163.192C199.256 163.192 197.848 162.232 197.528 160.232H198.936C199.128 161.416 200.008 162.072 201.32 162.072C202.6 162.072 203.272 161.496 203.272 160.696C203.272 158.376 197.816 160.296 197.816 156.776C197.816 155.48 198.824 154.296 200.904 154.296C202.744 154.296 204.104 155.16 204.376 157.272H202.968C202.76 155.944 202.024 155.448 200.824 155.448C199.768 155.448 199.16 155.976 199.16 156.68ZM213.698 160.232C213.234 162.216 211.81 163.192 209.874 163.192C207.41 163.192 205.922 161.528 205.922 158.76C205.922 155.88 207.41 154.296 209.794 154.296C212.194 154.296 213.634 155.944 213.634 158.648V159H207.362C207.442 160.904 208.338 161.976 209.874 161.976C211.074 161.976 211.922 161.4 212.226 160.232H213.698ZM209.794 155.512C208.434 155.512 207.618 156.36 207.41 157.944H212.162C211.97 156.376 211.122 155.512 209.794 155.512ZM215.703 160.552V155.624H214.519V154.504H215.703V152.552H217.111V154.504H218.983V155.624H217.111V160.552C217.111 161.576 217.415 162.056 218.663 162.056H218.951V163.064C218.791 163.144 218.439 163.192 218.039 163.192C216.455 163.192 215.703 162.344 215.703 160.552ZM220.515 160.552V155.624H219.331V154.504H220.515V152.552H221.923V154.504H223.795V155.624H221.923V160.552C221.923 161.576 222.227 162.056 223.475 162.056H223.763V163.064C223.603 163.144 223.251 163.192 222.851 163.192C221.267 163.192 220.515 162.344 220.515 160.552ZM225.136 163V151.48H226.544V163H225.136ZM236.12 160.232C235.656 162.216 234.232 163.192 232.296 163.192C229.832 163.192 228.344 161.528 228.344 158.76C228.344 155.88 229.832 154.296 232.216 154.296C234.616 154.296 236.056 155.944 236.056 158.648V159H229.784C229.864 160.904 230.76 161.976 232.296 161.976C233.496 161.976 234.344 161.4 234.648 160.232H236.12ZM232.216 155.512C230.856 155.512 230.04 156.36 229.832 157.944H234.584C234.392 156.376 233.544 155.512 232.216 155.512ZM241.117 163.192C238.861 163.192 237.501 161.528 237.501 158.76C237.501 155.88 238.893 154.296 241.117 154.296C242.125 154.296 242.941 154.712 243.501 155.496V151.48H244.909V163H243.501V161.928C242.941 162.728 242.125 163.192 241.117 163.192ZM241.213 161.976C242.701 161.976 243.501 160.84 243.501 158.76C243.501 156.696 242.669 155.512 241.213 155.512C239.741 155.512 238.941 156.664 238.941 158.76C238.941 160.808 239.773 161.976 241.213 161.976ZM250.546 160.552V155.624H249.362V154.504H250.546V152.552H251.954V154.504H253.826V155.624H251.954V160.552C251.954 161.576 252.258 162.056 253.506 162.056H253.794V163.064C253.634 163.144 253.282 163.192 252.882 163.192C251.298 163.192 250.546 162.344 250.546 160.552ZM255.167 163V154.504H256.575V155.816C257.151 154.776 258.063 154.296 259.087 154.296C259.423 154.296 259.727 154.376 259.887 154.504V155.768C259.647 155.688 259.343 155.656 259.007 155.656C257.311 155.656 256.575 156.712 256.575 158.248V163H255.167ZM262.275 157.272H260.867C261.139 155.4 262.371 154.296 264.451 154.296C266.723 154.296 267.827 155.624 267.827 157.608V160.952C267.827 161.928 267.907 162.536 268.131 163H266.643C266.483 162.664 266.435 162.168 266.419 161.656C265.699 162.728 264.547 163.192 263.523 163.192C261.763 163.192 260.579 162.376 260.579 160.76C260.579 159.592 261.219 158.744 262.467 158.328C263.619 157.944 264.787 157.848 266.419 157.832V157.64C266.419 156.264 265.779 155.512 264.323 155.512C263.107 155.512 262.451 156.184 262.275 157.272ZM262.019 160.728C262.019 161.512 262.675 161.976 263.667 161.976C265.235 161.976 266.419 160.744 266.419 159.288V158.888C262.803 158.92 262.019 159.688 262.019 160.728ZM273.32 163.192C271.064 163.192 269.704 161.528 269.704 158.76C269.704 155.88 271.096 154.296 273.32 154.296C274.328 154.296 275.144 154.712 275.704 155.496V151.48H277.112V163H275.704V161.928C275.144 162.728 274.328 163.192 273.32 163.192ZM273.416 161.976C274.904 161.976 275.704 160.84 275.704 158.76C275.704 156.696 274.872 155.512 273.416 155.512C271.944 155.512 271.144 156.664 271.144 158.76C271.144 160.808 271.976 161.976 273.416 161.976ZM279.354 153.368V151.48H280.762V153.368H279.354ZM279.354 163V154.504H280.762V163H279.354ZM282.995 163V154.504H284.403V155.656C284.979 154.76 285.907 154.296 287.027 154.296C288.835 154.296 289.907 155.352 289.907 157.32V163H288.499V157.608C288.499 156.328 287.923 155.496 286.643 155.496C285.235 155.496 284.403 156.76 284.403 157.976V163H282.995ZM295.175 163.064C293.015 163.064 291.719 161.416 291.719 158.696C291.719 155.848 293.047 154.296 295.175 154.296C296.311 154.296 297.159 154.696 297.719 155.432V154.504H299.127V163.256C299.127 165.624 297.607 166.728 295.655 166.728C293.655 166.728 292.247 165.768 291.943 163.832H293.351C293.527 164.952 294.407 165.56 295.639 165.56C296.887 165.56 297.719 164.888 297.719 163.304V161.848C297.127 162.648 296.263 163.064 295.175 163.064ZM295.431 161.848C296.919 161.848 297.719 160.728 297.719 158.68C297.719 156.68 296.887 155.512 295.431 155.512C293.959 155.512 293.159 156.632 293.159 158.696C293.159 160.696 293.975 161.848 295.431 161.848ZM304.717 163V152.12H308.445C310.909 152.12 312.461 153.432 312.461 155.56C312.461 157.752 310.893 159.032 308.461 159.032H306.189V163H304.717ZM308.429 153.32H306.189V157.832H308.381C309.997 157.832 310.941 156.968 310.941 155.576C310.941 154.2 309.981 153.32 308.429 153.32ZM314.214 163V154.504H315.622V155.656C316.198 154.76 317.126 154.296 318.246 154.296C320.054 154.296 321.126 155.352 321.126 157.32V163H319.718V157.608C319.718 156.328 319.142 155.496 317.862 155.496C316.454 155.496 315.622 156.76 315.622 157.976V163H314.214ZM323.498 163V152.12H324.97V161.8H330.442V163H323.498Z" fill="#475569"/>
    <path d="M113.08 231.624V230.504H114.264V229.928C114.264 228.136 115 227.288 116.568 227.288C116.92 227.288 117.208 227.352 117.352 227.416V228.424H117.208C115.976 228.424 115.672 228.904 115.672 229.928V230.504H117.352V231.624H115.672V239H114.264V231.624H113.08ZM125.823 236.232C125.359 238.216 123.935 239.192 121.999 239.192C119.535 239.192 118.047 237.528 118.047 234.76C118.047 231.88 119.535 230.296 121.919 230.296C124.319 230.296 125.759 231.944 125.759 234.648V235H119.487C119.567 236.904 120.463 237.976 121.999 237.976C123.199 237.976 124.047 237.4 124.351 236.232H125.823ZM121.919 231.512C120.559 231.512 119.743 232.36 119.535 233.944H124.287C124.095 232.376 123.247 231.512 121.919 231.512ZM134.98 236.232C134.516 238.216 133.092 239.192 131.156 239.192C128.692 239.192 127.204 237.528 127.204 234.76C127.204 231.88 128.692 230.296 131.076 230.296C133.476 230.296 134.916 231.944 134.916 234.648V235H128.644C128.724 236.904 129.62 237.976 131.156 237.976C132.356 237.976 133.204 237.4 133.508 236.232H134.98ZM131.076 231.512C129.716 231.512 128.9 232.36 128.692 233.944H133.444C133.252 232.376 132.404 231.512 131.076 231.512ZM139.764 231.944L138.852 232.616L137.956 231.176L137.06 232.616L136.148 231.944L137.236 230.664L135.588 230.264L135.94 229.176L137.508 229.816L137.38 228.12H138.516L138.404 229.816L139.956 229.176L140.308 230.264L138.676 230.664L139.764 231.944ZM152.05 233.432H150.642C150.418 232.136 149.554 231.512 148.434 231.512C146.866 231.512 146.034 232.664 146.034 234.76C146.034 236.824 146.914 237.992 148.482 237.992C149.618 237.992 150.434 237.384 150.706 236.168H152.114C151.73 238.28 150.306 239.192 148.45 239.192C146.034 239.192 144.594 237.512 144.594 234.76C144.594 231.88 146.066 230.296 148.434 230.296C150.306 230.296 151.778 231.352 152.05 233.432ZM157.31 239.192C154.878 239.192 153.422 237.528 153.422 234.76C153.422 231.88 154.926 230.296 157.31 230.296C159.742 230.296 161.198 231.992 161.198 234.76C161.198 237.624 159.694 239.192 157.31 239.192ZM157.31 237.976C158.894 237.976 159.758 236.84 159.758 234.76C159.758 232.696 158.878 231.512 157.31 231.512C155.726 231.512 154.862 232.664 154.862 234.76C154.862 236.808 155.742 237.976 157.31 237.976ZM163.011 239V227.48H164.419V239H163.011ZM166.651 239V227.48H168.059V239H166.651ZM177.636 236.232C177.172 238.216 175.748 239.192 173.812 239.192C171.348 239.192 169.86 237.528 169.86 234.76C169.86 231.88 171.348 230.296 173.732 230.296C176.132 230.296 177.572 231.944 177.572 234.648V235H171.3C171.38 236.904 172.276 237.976 173.812 237.976C175.012 237.976 175.86 237.4 176.164 236.232H177.636ZM173.732 231.512C172.372 231.512 171.556 232.36 171.348 233.944H176.1C175.908 232.376 175.06 231.512 173.732 231.512ZM186.472 233.432H185.064C184.84 232.136 183.976 231.512 182.856 231.512C181.288 231.512 180.456 232.664 180.456 234.76C180.456 236.824 181.336 237.992 182.904 237.992C184.04 237.992 184.856 237.384 185.128 236.168H186.536C186.152 238.28 184.728 239.192 182.872 239.192C180.456 239.192 179.016 237.512 179.016 234.76C179.016 231.88 180.488 230.296 182.856 230.296C184.728 230.296 186.2 231.352 186.472 233.432ZM188.468 236.552V231.624H187.284V230.504H188.468V228.552H189.876V230.504H191.748V231.624H189.876V236.552C189.876 237.576 190.18 238.056 191.428 238.056H191.716V239.064C191.556 239.144 191.204 239.192 190.804 239.192C189.22 239.192 188.468 238.344 188.468 236.552ZM200.433 236.232C199.969 238.216 198.545 239.192 196.609 239.192C194.145 239.192 192.657 237.528 192.657 234.76C192.657 231.88 194.145 230.296 196.529 230.296C198.929 230.296 200.369 231.944 200.369 234.648V235H194.097C194.177 236.904 195.073 237.976 196.609 237.976C197.809 237.976 198.657 237.4 198.961 236.232H200.433ZM196.529 231.512C195.169 231.512 194.353 232.36 194.145 233.944H198.897C198.705 232.376 197.857 231.512 196.529 231.512ZM205.429 239.192C203.173 239.192 201.813 237.528 201.813 234.76C201.813 231.88 203.205 230.296 205.429 230.296C206.437 230.296 207.253 230.712 207.813 231.496V227.48H209.221V239H207.813V237.928C207.253 238.728 206.437 239.192 205.429 239.192ZM205.525 237.976C207.013 237.976 207.813 236.84 207.813 234.76C207.813 232.696 206.981 231.512 205.525 231.512C204.053 231.512 203.253 232.664 203.253 234.76C203.253 236.808 204.085 237.976 205.525 237.976ZM215.963 233.272H214.555C214.827 231.4 216.059 230.296 218.139 230.296C220.411 230.296 221.515 231.624 221.515 233.608V236.952C221.515 237.928 221.595 238.536 221.819 239H220.331C220.171 238.664 220.123 238.168 220.107 237.656C219.387 238.728 218.235 239.192 217.211 239.192C215.451 239.192 214.267 238.376 214.267 236.76C214.267 235.592 214.907 234.744 216.155 234.328C217.307 233.944 218.475 233.848 220.107 233.832V233.64C220.107 232.264 219.467 231.512 218.011 231.512C216.795 231.512 216.139 232.184 215.963 233.272ZM215.707 236.728C215.707 237.512 216.363 237.976 217.355 237.976C218.923 237.976 220.107 236.744 220.107 235.288V234.888C216.491 234.92 215.707 235.688 215.707 236.728ZM224.863 232.68C224.863 235.048 230.383 233.096 230.383 236.6C230.383 238.184 228.975 239.192 226.975 239.192C224.959 239.192 223.551 238.232 223.231 236.232H224.639C224.831 237.416 225.711 238.072 227.023 238.072C228.303 238.072 228.975 237.496 228.975 236.696C228.975 234.376 223.519 236.296 223.519 232.776C223.519 231.48 224.527 230.296 226.607 230.296C228.447 230.296 229.807 231.16 230.079 233.272H228.671C228.463 231.944 227.727 231.448 226.527 231.448C225.471 231.448 224.863 231.976 224.863 232.68ZM235.261 239V230.504H236.669V231.816C237.245 230.776 238.157 230.296 239.181 230.296C239.517 230.296 239.821 230.376 239.981 230.504V231.768C239.741 231.688 239.437 231.656 239.101 231.656C237.405 231.656 236.669 232.712 236.669 234.248V239H235.261ZM248.417 236.232C247.953 238.216 246.529 239.192 244.593 239.192C242.129 239.192 240.641 237.528 240.641 234.76C240.641 231.88 242.129 230.296 244.513 230.296C246.913 230.296 248.353 231.944 248.353 234.648V235H242.081C242.161 236.904 243.057 237.976 244.593 237.976C245.793 237.976 246.641 237.4 246.945 236.232H248.417ZM244.513 231.512C243.153 231.512 242.337 232.36 242.129 233.944H246.881C246.689 232.376 245.841 231.512 244.513 231.512ZM257.433 239L255.593 232.648L255.401 231.688L255.209 232.648L253.385 239H251.641L249.113 230.504H250.633L252.377 237.096L252.585 237.96L252.793 237.096L254.729 230.504H256.249L258.185 237.096L258.377 237.928L258.553 237.096L260.297 230.504H261.753L259.209 239H257.433ZM264.322 233.272H262.914C263.186 231.4 264.418 230.296 266.498 230.296C268.77 230.296 269.874 231.624 269.874 233.608V236.952C269.874 237.928 269.954 238.536 270.178 239H268.69C268.53 238.664 268.482 238.168 268.466 237.656C267.746 238.728 266.594 239.192 265.57 239.192C263.81 239.192 262.626 238.376 262.626 236.76C262.626 235.592 263.266 234.744 264.514 234.328C265.666 233.944 266.834 233.848 268.466 233.832V233.64C268.466 232.264 267.826 231.512 266.37 231.512C265.154 231.512 264.498 232.184 264.322 233.272ZM264.066 236.728C264.066 237.512 264.722 237.976 265.714 237.976C267.282 237.976 268.466 236.744 268.466 235.288V234.888C264.85 234.92 264.066 235.688 264.066 236.728ZM272.183 239V230.504H273.591V231.816C274.167 230.776 275.079 230.296 276.103 230.296C276.439 230.296 276.743 230.376 276.903 230.504V231.768C276.663 231.688 276.359 231.656 276.023 231.656C274.327 231.656 273.591 232.712 273.591 234.248V239H272.183ZM281.179 239.192C278.923 239.192 277.563 237.528 277.563 234.76C277.563 231.88 278.955 230.296 281.179 230.296C282.187 230.296 283.003 230.712 283.563 231.496V227.48H284.971V239H283.563V237.928C283.003 238.728 282.187 239.192 281.179 239.192ZM281.275 237.976C282.763 237.976 283.563 236.84 283.563 234.76C283.563 232.696 282.731 231.512 281.275 231.512C279.803 231.512 279.003 232.664 279.003 234.76C279.003 236.808 279.835 237.976 281.275 237.976Z" fill="#475569"/>
    <path d="M599.416 211.272H598.008C598.28 209.4 599.512 208.296 601.592 208.296C603.864 208.296 604.968 209.624 604.968 211.608V214.952C604.968 215.928 605.048 216.536 605.272 217H603.784C603.624 216.664 603.576 216.168 603.56 215.656C602.84 216.728 601.688 217.192 600.664 217.192C598.904 217.192 597.72 216.376 597.72 214.76C597.72 213.592 598.36 212.744 599.608 212.328C600.76 211.944 601.928 211.848 603.56 211.832V211.64C603.56 210.264 602.92 209.512 601.464 209.512C600.248 209.512 599.592 210.184 599.416 211.272ZM599.16 214.728C599.16 215.512 599.816 215.976 600.808 215.976C602.376 215.976 603.56 214.744 603.56 213.288V212.888C599.944 212.92 599.16 213.688 599.16 214.728ZM608.316 210.68C608.316 213.048 613.836 211.096 613.836 214.6C613.836 216.184 612.428 217.192 610.428 217.192C608.412 217.192 607.004 216.232 606.684 214.232H608.092C608.284 215.416 609.164 216.072 610.476 216.072C611.756 216.072 612.428 215.496 612.428 214.696C612.428 212.376 606.972 214.296 606.972 210.776C606.972 209.48 607.98 208.296 610.06 208.296C611.9 208.296 613.26 209.16 613.532 211.272H612.124C611.916 209.944 611.18 209.448 609.98 209.448C608.924 209.448 608.316 209.976 608.316 210.68ZM616.551 210.68C616.551 213.048 622.071 211.096 622.071 214.6C622.071 216.184 620.663 217.192 618.663 217.192C616.647 217.192 615.239 216.232 614.919 214.232H616.327C616.519 215.416 617.399 216.072 618.711 216.072C619.991 216.072 620.663 215.496 620.663 214.696C620.663 212.376 615.207 214.296 615.207 210.776C615.207 209.48 616.215 208.296 618.295 208.296C620.135 208.296 621.495 209.16 621.767 211.272H620.359C620.151 209.944 619.415 209.448 618.215 209.448C617.159 209.448 616.551 209.976 616.551 210.68ZM631.089 214.232C630.625 216.216 629.201 217.192 627.265 217.192C624.801 217.192 623.313 215.528 623.313 212.76C623.313 209.88 624.801 208.296 627.185 208.296C629.585 208.296 631.025 209.944 631.025 212.648V213H624.753C624.833 214.904 625.729 215.976 627.265 215.976C628.465 215.976 629.313 215.4 629.617 214.232H631.089ZM627.185 209.512C625.825 209.512 625.009 210.36 624.801 211.944H629.553C629.361 210.376 628.513 209.512 627.185 209.512ZM633.093 214.552V209.624H631.909V208.504H633.093V206.552H634.501V208.504H636.373V209.624H634.501V214.552C634.501 215.576 634.805 216.056 636.053 216.056H636.341V217.064C636.181 217.144 635.829 217.192 635.429 217.192C633.845 217.192 633.093 216.344 633.093 214.552Z" fill="#475569"/>
    <path d="M301.82 108.192C299.564 108.192 298.204 106.528 298.204 103.76C298.204 100.88 299.596 99.296 301.82 99.296C302.828 99.296 303.644 99.712 304.204 100.496V96.48H305.612V108H304.204V106.928C303.644 107.728 302.828 108.192 301.82 108.192ZM301.916 106.976C303.404 106.976 304.204 105.84 304.204 103.76C304.204 101.696 303.372 100.512 301.916 100.512C300.444 100.512 299.644 101.664 299.644 103.76C299.644 105.808 300.476 106.976 301.916 106.976ZM307.854 98.368V96.48H309.262V98.368H307.854ZM307.854 108V99.504H309.262V108H307.854ZM312.535 101.68C312.535 104.048 318.055 102.096 318.055 105.6C318.055 107.184 316.647 108.192 314.647 108.192C312.631 108.192 311.223 107.232 310.903 105.232H312.311C312.503 106.416 313.383 107.072 314.695 107.072C315.975 107.072 316.647 106.496 316.647 105.696C316.647 103.376 311.191 105.296 311.191 101.776C311.191 100.48 312.199 99.296 314.279 99.296C316.119 99.296 317.479 100.16 317.751 102.272H316.343C316.135 100.944 315.399 100.448 314.199 100.448C313.143 100.448 312.535 100.976 312.535 101.68ZM326.753 102.432H325.345C325.121 101.136 324.257 100.512 323.137 100.512C321.569 100.512 320.737 101.664 320.737 103.76C320.737 105.824 321.617 106.992 323.185 106.992C324.321 106.992 325.137 106.384 325.409 105.168H326.817C326.433 107.28 325.009 108.192 323.153 108.192C320.737 108.192 319.297 106.512 319.297 103.76C319.297 100.88 320.769 99.296 323.137 99.296C325.009 99.296 326.481 100.352 326.753 102.432ZM332.014 108.192C329.582 108.192 328.126 106.528 328.126 103.76C328.126 100.88 329.63 99.296 332.014 99.296C334.446 99.296 335.902 100.992 335.902 103.76C335.902 106.624 334.398 108.192 332.014 108.192ZM332.014 106.976C333.598 106.976 334.462 105.84 334.462 103.76C334.462 101.696 333.582 100.512 332.014 100.512C330.43 100.512 329.566 101.664 329.566 103.76C329.566 105.808 330.446 106.976 332.014 106.976ZM343.122 104.528V99.504H344.53V108H343.122V106.848C342.546 107.744 341.65 108.192 340.546 108.192C338.77 108.192 337.714 107.152 337.714 105.184V99.504H339.122V104.896C339.122 106.176 339.682 106.992 340.93 106.992C342.306 106.992 343.122 105.744 343.122 104.528ZM346.776 108V99.504H348.184V100.656C348.76 99.76 349.688 99.296 350.808 99.296C352.616 99.296 353.688 100.352 353.688 102.32V108H352.28V102.608C352.28 101.328 351.704 100.496 350.424 100.496C349.016 100.496 348.184 101.76 348.184 102.976V108H346.776ZM356.125 105.552V100.624H354.941V99.504H356.125V97.552H357.533V99.504H359.405V100.624H357.533V105.552C357.533 106.576 357.837 107.056 359.085 107.056H359.373V108.064C359.213 108.144 358.861 108.192 358.461 108.192C356.877 108.192 356.125 107.344 356.125 105.552ZM368.089 105.232C367.625 107.216 366.201 108.192 364.265 108.192C361.801 108.192 360.313 106.528 360.313 103.76C360.313 100.88 361.801 99.296 364.185 99.296C366.585 99.296 368.025 100.944 368.025 103.648V104H361.753C361.833 105.904 362.729 106.976 364.265 106.976C365.465 106.976 366.313 106.4 366.617 105.232H368.089ZM364.185 100.512C362.825 100.512 362.009 101.36 361.801 102.944H366.553C366.361 101.376 365.513 100.512 364.185 100.512ZM373.085 108.192C370.829 108.192 369.469 106.528 369.469 103.76C369.469 100.88 370.861 99.296 373.085 99.296C374.093 99.296 374.909 99.712 375.469 100.496V96.48H376.877V108H375.469V106.928C374.909 107.728 374.093 108.192 373.085 108.192ZM373.181 106.976C374.669 106.976 375.469 105.84 375.469 103.76C375.469 101.696 374.637 100.512 373.181 100.512C371.709 100.512 370.909 101.664 370.909 103.76C370.909 105.808 371.741 106.976 373.181 106.976ZM340.822 123.272H339.414C339.686 121.4 340.918 120.296 342.998 120.296C345.27 120.296 346.374 121.624 346.374 123.608V126.952C346.374 127.928 346.454 128.536 346.678 129H345.19C345.03 128.664 344.982 128.168 344.966 127.656C344.246 128.728 343.094 129.192 342.07 129.192C340.31 129.192 339.126 128.376 339.126 126.76C339.126 125.592 339.766 124.744 341.014 124.328C342.166 123.944 343.334 123.848 344.966 123.832V123.64C344.966 122.264 344.326 121.512 342.87 121.512C341.654 121.512 340.998 122.184 340.822 123.272ZM340.566 126.728C340.566 127.512 341.222 127.976 342.214 127.976C343.782 127.976 344.966 126.744 344.966 125.288V124.888C341.35 124.92 340.566 125.688 340.566 126.728ZM349.723 122.68C349.723 125.048 355.243 123.096 355.243 126.6C355.243 128.184 353.835 129.192 351.835 129.192C349.819 129.192 348.411 128.232 348.09 126.232H349.499C349.691 127.416 350.571 128.072 351.883 128.072C353.163 128.072 353.835 127.496 353.835 126.696C353.835 124.376 348.379 126.296 348.379 122.776C348.379 121.48 349.387 120.296 351.467 120.296C353.307 120.296 354.667 121.16 354.939 123.272H353.531C353.323 121.944 352.587 121.448 351.387 121.448C350.331 121.448 349.723 121.976 349.723 122.68ZM357.957 122.68C357.957 125.048 363.477 123.096 363.477 126.6C363.477 128.184 362.069 129.192 360.069 129.192C358.053 129.192 356.645 128.232 356.325 126.232H357.733C357.925 127.416 358.805 128.072 360.117 128.072C361.397 128.072 362.069 127.496 362.069 126.696C362.069 124.376 356.613 126.296 356.613 122.776C356.613 121.48 357.621 120.296 359.701 120.296C361.541 120.296 362.901 121.16 363.173 123.272H361.765C361.557 121.944 360.821 121.448 359.621 121.448C358.565 121.448 357.957 121.976 357.957 122.68ZM372.495 126.232C372.031 128.216 370.607 129.192 368.671 129.192C366.207 129.192 364.719 127.528 364.719 124.76C364.719 121.88 366.207 120.296 368.591 120.296C370.991 120.296 372.431 121.944 372.431 124.648V125H366.159C366.239 126.904 367.135 127.976 368.671 127.976C369.871 127.976 370.719 127.4 371.023 126.232H372.495ZM368.591 121.512C367.231 121.512 366.415 122.36 366.207 123.944H370.959C370.767 122.376 369.919 121.512 368.591 121.512ZM374.5 126.552V121.624H373.316V120.504H374.5V118.552H375.908V120.504H377.78V121.624H375.908V126.552C375.908 127.576 376.212 128.056 377.46 128.056H377.748V129.064C377.588 129.144 377.236 129.192 376.836 129.192C375.252 129.192 374.5 128.344 374.5 126.552Z" fill="#475569"/>
    <path d="M340.822 260.272H339.414C339.686 258.4 340.918 257.296 342.998 257.296C345.27 257.296 346.374 258.624 346.374 260.608V263.952C346.374 264.928 346.454 265.536 346.678 266H345.19C345.03 265.664 344.982 265.168 344.966 264.656C344.246 265.728 343.094 266.192 342.07 266.192C340.31 266.192 339.126 265.376 339.126 263.76C339.126 262.592 339.766 261.744 341.014 261.328C342.166 260.944 343.334 260.848 344.966 260.832V260.64C344.966 259.264 344.326 258.512 342.87 258.512C341.654 258.512 340.998 259.184 340.822 260.272ZM340.566 263.728C340.566 264.512 341.222 264.976 342.214 264.976C343.782 264.976 344.966 263.744 344.966 262.288V261.888C341.35 261.92 340.566 262.688 340.566 263.728ZM349.723 259.68C349.723 262.048 355.243 260.096 355.243 263.6C355.243 265.184 353.835 266.192 351.835 266.192C349.819 266.192 348.411 265.232 348.09 263.232H349.499C349.691 264.416 350.571 265.072 351.883 265.072C353.163 265.072 353.835 264.496 353.835 263.696C353.835 261.376 348.379 263.296 348.379 259.776C348.379 258.48 349.387 257.296 351.467 257.296C353.307 257.296 354.667 258.16 354.939 260.272H353.531C353.323 258.944 352.587 258.448 351.387 258.448C350.331 258.448 349.723 258.976 349.723 259.68ZM357.957 259.68C357.957 262.048 363.477 260.096 363.477 263.6C363.477 265.184 362.069 266.192 360.069 266.192C358.053 266.192 356.645 265.232 356.325 263.232H357.733C357.925 264.416 358.805 265.072 360.117 265.072C361.397 265.072 362.069 264.496 362.069 263.696C362.069 261.376 356.613 263.296 356.613 259.776C356.613 258.48 357.621 257.296 359.701 257.296C361.541 257.296 362.901 258.16 363.173 260.272H361.765C361.557 258.944 360.821 258.448 359.621 258.448C358.565 258.448 357.957 258.976 357.957 259.68ZM372.495 263.232C372.031 265.216 370.607 266.192 368.671 266.192C366.207 266.192 364.719 264.528 364.719 261.76C364.719 258.88 366.207 257.296 368.591 257.296C370.991 257.296 372.431 258.944 372.431 261.648V262H366.159C366.239 263.904 367.135 264.976 368.671 264.976C369.871 264.976 370.719 264.4 371.023 263.232H372.495ZM368.591 258.512C367.231 258.512 366.415 259.36 366.207 260.944H370.959C370.767 259.376 369.919 258.512 368.591 258.512ZM374.5 263.552V258.624H373.316V257.504H374.5V255.552H375.908V257.504H377.78V258.624H375.908V263.552C375.908 264.576 376.212 265.056 377.46 265.056H377.748V266.064C377.588 266.144 377.236 266.192 376.836 266.192C375.252 266.192 374.5 265.344 374.5 263.552Z" fill="#475569"/>
    <rect x="351.5" y="161.5" width="117.356" height="47.1165" rx="23.5583" fill="#F0FDF4"/>
    <rect x="351.5" y="161.5" width="117.356" height="47.1165" rx="23.5583" stroke="#22C55E" stroke-dasharray="2 2"/>
    <g clip-path="url(#clip0_2722_321)">
        <path d="M381.341 182.843L377.125 186.261L375.502 184.353C375.399 184.26 375.265 184.208 375.126 184.206C374.987 184.205 374.852 184.254 374.747 184.345C374.642 184.436 374.574 184.563 374.556 184.7C374.537 184.838 374.57 184.978 374.647 185.093L376.641 187.429L376.698 187.486H377.439L382.081 183.726C382.147 183.682 382.203 183.625 382.246 183.558C382.289 183.492 382.317 183.417 382.329 183.338C382.342 183.26 382.337 183.18 382.317 183.103C382.296 183.027 382.26 182.955 382.21 182.894C382.16 182.832 382.098 182.781 382.028 182.745C381.957 182.709 381.88 182.687 381.801 182.683C381.721 182.678 381.642 182.69 381.568 182.717C381.494 182.745 381.426 182.788 381.369 182.843H381.341Z" fill="#22C55E" stroke="#22C55E" stroke-width="0.5"/>
        <path d="M387.52 180.053C387.52 179.376 387.321 178.715 386.946 178.152C386.57 177.589 386.037 177.151 385.412 176.891L378.747 174.1C378.61 174.045 378.457 174.045 378.32 174.1L371.627 176.891C371.002 177.151 370.469 177.589 370.094 178.152C369.718 178.715 369.519 179.376 369.52 180.053V187.173C369.52 192.1 373.421 196.201 378.235 196.344H378.52C380.902 196.344 383.186 195.4 384.873 193.718C386.56 192.036 387.512 189.754 387.52 187.372V180.053ZM386.38 187.372C386.377 188.422 386.163 189.46 385.753 190.425C385.342 191.391 384.742 192.264 383.988 192.994C383.234 193.724 382.342 194.296 381.363 194.675C380.385 195.055 379.341 195.235 378.292 195.205C374.076 195.091 370.659 191.474 370.659 187.173V180.053C370.657 179.603 370.789 179.163 371.037 178.788C371.286 178.413 371.64 178.119 372.054 177.945L378.52 175.239L384.985 177.945C385.399 178.119 385.753 178.413 386.002 178.788C386.25 179.163 386.382 179.603 386.38 180.053V187.372Z" fill="#22C55E" stroke="#22C55E" stroke-width="0.5"/>
    </g>
    <path d="M404.516 192.329C401.996 192.329 400.448 190.403 400.448 187.253C400.448 183.977 402.032 182.141 404.516 182.141C405.578 182.141 406.46 182.591 407.054 183.455V179.099H409.358V192.059H407.054V190.961C406.442 191.843 405.578 192.329 404.516 192.329ZM404.93 190.421C406.316 190.421 407.054 189.305 407.054 187.253C407.054 185.201 406.28 184.049 404.93 184.049C403.562 184.049 402.824 185.183 402.824 187.253C402.824 189.287 403.58 190.421 404.93 190.421ZM413.19 179.819L416.358 188.423L416.736 189.773L417.096 188.423L420.264 179.819H422.694L418.086 192.059H415.242L410.616 179.819H413.19ZM425.401 185.579H423.079C423.385 183.437 424.951 182.141 427.381 182.141C430.063 182.141 431.431 183.725 431.431 185.957V189.701C431.431 190.889 431.539 191.555 431.719 192.059H429.325C429.199 191.735 429.145 191.267 429.127 190.745C428.335 191.861 427.147 192.329 425.995 192.329C424.105 192.329 422.755 191.393 422.755 189.539C422.755 188.225 423.493 187.235 424.969 186.749C426.247 186.317 427.489 186.209 429.109 186.191V185.957C429.109 184.715 428.515 184.049 427.237 184.049C426.139 184.049 425.545 184.661 425.401 185.579ZM425.077 189.413C425.077 190.151 425.653 190.619 426.589 190.619C428.011 190.619 429.109 189.467 429.109 188.027V187.613C425.833 187.667 425.077 188.441 425.077 189.413ZM439.622 188.009V182.411H441.926V192.059H439.622V190.763C438.992 191.825 438.002 192.329 436.814 192.329C434.906 192.329 433.628 191.177 433.628 188.855V182.411H435.932V188.387C435.932 189.701 436.472 190.421 437.606 190.421C438.848 190.421 439.622 189.305 439.622 188.009ZM444.052 192.059V179.099H446.356V192.059H444.052ZM448.77 189.053V184.193H447.528V182.411H448.77V180.197H451.074V182.411H453.108V184.193H451.074V188.855C451.074 189.863 451.362 190.403 452.64 190.403H453.072V192.095C452.82 192.221 452.298 192.329 451.668 192.329C449.706 192.329 448.77 191.213 448.77 189.053Z" fill="#22C55E"/>
    <rect x="296" width="228" height="60.6258" rx="30.3129" fill="#E2E8F0"/>
    <rect x="311.52" y="14.3125" width="32" height="32" rx="16" fill="#94A3B8"/>
    <path fill-rule="evenodd" clip-rule="evenodd" d="M327.517 30.9003C325.464 30.9003 323.799 29.2068 323.799 27.1181C323.799 25.1637 325.258 23.555 327.128 23.357C327.251 23.345 327.376 23.3382 327.501 23.3382C329.554 23.3382 331.219 25.0309 331.219 27.1196C331.219 29.0748 329.76 30.6828 327.889 30.8815C327.766 30.8935 327.643 30.9003 327.517 30.9003ZM335.01 37.9253L335.02 38.0408C335.017 38.0048 335.012 37.9703 335.009 37.9343C335.003 38.2816 334.726 38.562 334.384 38.562C334.038 38.562 333.757 38.2763 333.757 37.9253H333.756C333.445 34.6997 330.772 32.179 327.52 32.1775L327.517 32.1767C327.511 32.1767 327.506 32.1775 327.501 32.1775C324.754 32.1775 322.529 29.9133 322.529 27.1196C322.529 24.3267 324.754 22.0625 327.501 22.0625C327.503 22.0625 327.506 22.0632 327.508 22.0632C327.511 22.0632 327.514 22.0625 327.517 22.0625C330.262 22.0625 332.487 24.3259 332.487 27.1181C332.487 28.1628 332.167 29.1266 331.633 29.9313C331.627 29.9395 331.623 29.947 331.618 29.9553C331.539 30.0723 331.456 30.184 331.369 30.2928C331.339 30.331 331.308 30.3678 331.277 30.4045C331.197 30.4975 331.117 30.5905 331.032 30.679C330.97 30.7428 330.902 30.802 330.836 30.8628C330.738 30.952 330.639 31.039 330.534 31.12C330.43 31.2025 330.324 31.282 330.213 31.3555C330.193 31.369 330.175 31.3847 330.156 31.3967C332.78 32.3987 334.703 34.8452 334.993 37.7858C335.003 37.8308 335.01 37.8773 335.01 37.9253ZM326.272 34.5194C326.61 34.5194 326.883 34.7931 326.883 35.1306C326.883 35.4681 326.61 35.7418 326.272 35.7418H324.063V37.9513C324.063 38.2888 323.789 38.5625 323.451 38.5625C323.114 38.5625 322.84 38.2888 322.84 37.9513V35.7418H320.632C320.293 35.7418 320.02 35.4681 320.02 35.1306C320.02 34.7931 320.293 34.5194 320.632 34.5194H322.84V32.3099C322.84 31.9724 323.114 31.6987 323.451 31.6987C323.789 31.6987 324.063 31.9724 324.063 32.3099V34.5194H326.272Z" fill="#E2E8F0"/>
    <path d="M367.075 17.1685C367.075 19.7765 373.587 17.6645 373.587 22.1125C373.587 24.3045 371.795 25.5525 369.331 25.5525C366.851 25.5525 365.091 24.4005 364.675 22.0325H366.931C367.203 23.1845 368.035 23.8245 369.347 23.8245C370.691 23.8245 371.379 23.2645 371.379 22.3845C371.379 19.6165 364.883 21.6965 364.883 17.3605C364.883 15.6325 366.307 14.1925 368.883 14.1925C371.075 14.1925 372.931 15.2485 373.283 17.6965H370.995C370.739 16.4805 369.987 15.9205 368.819 15.9205C367.731 15.9205 367.075 16.4165 367.075 17.1685ZM375.301 22.6405V18.3205H374.197V16.7365H375.301V14.7685H377.349V16.7365H379.157V18.3205H377.349V22.4645C377.349 23.3605 377.605 23.8405 378.741 23.8405H379.125V25.3445C378.901 25.4565 378.437 25.5525 377.877 25.5525C376.133 25.5525 375.301 24.5605 375.301 22.6405ZM382.341 19.5525H380.277C380.549 17.6485 381.941 16.4965 384.101 16.4965C386.485 16.4965 387.701 17.9045 387.701 19.8885V23.2165C387.701 24.2725 387.797 24.8645 387.957 25.3125H385.829C385.717 25.0245 385.669 24.6085 385.653 24.1445C384.949 25.1365 383.893 25.5525 382.869 25.5525C381.189 25.5525 379.989 24.7205 379.989 23.0725C379.989 21.9045 380.645 21.0245 381.957 20.5925C383.093 20.2085 384.197 20.1125 385.637 20.0965V19.8885C385.637 18.7845 385.109 18.1925 383.973 18.1925C382.997 18.1925 382.469 18.7365 382.341 19.5525ZM382.053 22.9605C382.053 23.6165 382.565 24.0325 383.397 24.0325C384.661 24.0325 385.637 23.0085 385.637 21.7285V21.3605C382.725 21.4085 382.053 22.0965 382.053 22.9605ZM389.654 25.3125V13.7925H391.702V20.3205L394.806 16.7365H397.206L393.75 20.5445L397.446 25.3125H394.934L391.702 21.1685V25.3125H389.654ZM405.697 22.5125C405.233 24.4965 403.697 25.5525 401.649 25.5525C399.057 25.5525 397.473 23.8405 397.473 21.0405C397.473 18.1285 399.073 16.4965 401.569 16.4965C404.081 16.4965 405.633 18.1925 405.633 20.9605V21.4405H399.585C399.681 23.0085 400.401 23.8725 401.649 23.8725C402.609 23.8725 403.265 23.4245 403.537 22.5125H405.697ZM401.569 18.1765C400.481 18.1765 399.825 18.8645 399.633 20.1605H403.489C403.297 18.8805 402.641 18.1765 401.569 18.1765ZM407.17 25.3125V16.7365H409.218V17.9845C409.778 16.9605 410.642 16.4965 411.57 16.4965C411.922 16.4965 412.242 16.5925 412.402 16.7365V18.5125C412.13 18.4325 411.826 18.4005 411.458 18.4005C409.906 18.4005 409.218 19.3285 409.218 20.7525V25.3125H407.17ZM423.788 25.3125L422.956 23.0565H418.316L417.484 25.3125H415.324L419.42 14.4325H421.964L426.06 25.3125H423.788ZM420.316 17.6645L418.94 21.3925H422.332L420.956 17.6645L420.636 16.5445L420.316 17.6645ZM429.795 25.3125V16.7365H431.843V17.8405C432.387 16.9445 433.219 16.4965 434.227 16.4965C435.315 16.4965 436.163 16.9765 436.595 17.9525C437.171 16.9765 438.083 16.4965 439.187 16.4965C440.835 16.4965 441.955 17.5205 441.955 19.6005V25.3125H439.907V20.0165C439.907 18.8485 439.475 18.1925 438.563 18.1925C437.539 18.1925 436.899 19.1845 436.899 20.3365V25.3125H434.851V20.0165C434.851 18.8485 434.419 18.1925 433.507 18.1925C432.483 18.1925 431.843 19.1845 431.843 20.3365V25.3125H429.795ZM445.826 19.5525H443.762C444.034 17.6485 445.426 16.4965 447.586 16.4965C449.97 16.4965 451.186 17.9045 451.186 19.8885V23.2165C451.186 24.2725 451.282 24.8645 451.442 25.3125H449.314C449.202 25.0245 449.154 24.6085 449.138 24.1445C448.434 25.1365 447.378 25.5525 446.354 25.5525C444.674 25.5525 443.474 24.7205 443.474 23.0725C443.474 21.9045 444.13 21.0245 445.442 20.5925C446.578 20.2085 447.682 20.1125 449.122 20.0965V19.8885C449.122 18.7845 448.594 18.1925 447.458 18.1925C446.482 18.1925 445.954 18.7365 445.826 19.5525ZM445.538 22.9605C445.538 23.6165 446.05 24.0325 446.882 24.0325C448.146 24.0325 449.122 23.0085 449.122 21.7285V21.3605C446.21 21.4085 445.538 22.0965 445.538 22.9605ZM453.139 25.3125V13.7925H455.187V20.3205L458.291 16.7365H460.691L457.235 20.5445L460.931 25.3125H458.419L455.187 21.1685V25.3125H453.139ZM462.014 15.7765V13.7925H464.062V15.7765H462.014ZM462.014 25.3125V16.7365H464.062V25.3125H462.014ZM465.936 25.3125V16.7365H467.984V17.8885C468.544 16.9605 469.44 16.4965 470.528 16.4965C472.24 16.4965 473.408 17.5205 473.408 19.6005V25.3125H471.36V20.0165C471.36 18.8485 470.864 18.1925 469.824 18.1925C468.688 18.1925 467.984 19.1845 467.984 20.3365V25.3125H465.936ZM478.415 25.3445C476.239 25.3445 474.895 23.6645 474.895 20.9285C474.895 18.0805 476.271 16.4965 478.415 16.4965C479.439 16.4965 480.239 16.8805 480.767 17.6005V16.7365H482.815V25.5845C482.815 27.9045 481.215 29.0885 479.087 29.0885C476.975 29.0885 475.439 28.1125 475.135 26.0805H477.199C477.327 26.9925 478.063 27.4725 479.055 27.4725C480.079 27.4725 480.767 26.9765 480.767 25.6165V24.1765C480.207 24.9445 479.407 25.3445 478.415 25.3445ZM478.879 23.6485C480.111 23.6485 480.767 22.6885 480.767 20.9285C480.767 19.1845 480.079 18.1925 478.879 18.1925C477.663 18.1925 477.007 19.1525 477.007 20.9285C477.007 22.6725 477.663 23.6485 478.879 23.6485ZM489.763 19.5525H487.699C487.971 17.6485 489.363 16.4965 491.523 16.4965C493.907 16.4965 495.123 17.9045 495.123 19.8885V23.2165C495.123 24.2725 495.219 24.8645 495.379 25.3125H493.251C493.139 25.0245 493.091 24.6085 493.075 24.1445C492.371 25.1365 491.315 25.5525 490.291 25.5525C488.611 25.5525 487.411 24.7205 487.411 23.0725C487.411 21.9045 488.067 21.0245 489.379 20.5925C490.515 20.2085 491.619 20.1125 493.059 20.0965V19.8885C493.059 18.7845 492.531 18.1925 491.395 18.1925C490.419 18.1925 489.891 18.7365 489.763 19.5525ZM489.475 22.9605C489.475 23.6165 489.987 24.0325 490.819 24.0325C492.083 24.0325 493.059 23.0085 493.059 21.7285V21.3605C490.147 21.4085 489.475 22.0965 489.475 22.9605ZM372.034 46.5525C369.794 46.5525 368.418 44.8405 368.418 42.0405C368.418 39.1285 369.826 37.4965 372.034 37.4965C372.978 37.4965 373.762 37.8965 374.29 38.6645V34.7925H376.338V46.3125H374.29V45.3365C373.746 46.1205 372.978 46.5525 372.034 46.5525ZM372.402 44.8565C373.634 44.8565 374.29 43.8645 374.29 42.0405C374.29 40.2165 373.602 39.1925 372.402 39.1925C371.186 39.1925 370.53 40.2005 370.53 42.0405C370.53 43.8485 371.202 44.8565 372.402 44.8565ZM386.033 43.5125C385.569 45.4965 384.033 46.5525 381.985 46.5525C379.393 46.5525 377.809 44.8405 377.809 42.0405C377.809 39.1285 379.409 37.4965 381.905 37.4965C384.417 37.4965 385.969 39.1925 385.969 41.9605V42.4405H379.921C380.017 44.0085 380.737 44.8725 381.985 44.8725C382.945 44.8725 383.601 44.4245 383.873 43.5125H386.033ZM381.905 39.1765C380.817 39.1765 380.161 39.8645 379.969 41.1605H383.825C383.633 39.8805 382.977 39.1765 381.905 39.1765ZM389.554 49.8325H387.506V37.7365H389.554V38.7125C390.098 37.9285 390.866 37.4965 391.81 37.4965C394.05 37.4965 395.426 39.2085 395.426 42.0085C395.426 44.9205 394.018 46.5525 391.81 46.5525C390.866 46.5525 390.082 46.1525 389.554 45.3845V49.8325ZM391.442 39.1925C390.21 39.1925 389.554 40.1845 389.554 42.0085C389.554 43.8325 390.242 44.8565 391.442 44.8565C392.658 44.8565 393.314 43.8485 393.314 42.0085C393.314 40.2005 392.642 39.1925 391.442 39.1925ZM400.624 46.5525C398.08 46.5525 396.512 44.8405 396.512 42.0405C396.512 39.1285 398.128 37.4965 400.624 37.4965C403.152 37.4965 404.72 39.2245 404.72 42.0405C404.72 44.9205 403.104 46.5525 400.624 46.5525ZM400.624 44.8565C401.92 44.8565 402.608 43.8645 402.608 42.0405C402.608 40.2165 401.904 39.1925 400.624 39.1925C399.312 39.1925 398.624 40.2005 398.624 42.0405C398.624 43.8485 399.328 44.8565 400.624 44.8565ZM407.921 40.0405C407.921 42.0085 413.329 40.3445 413.329 43.7845C413.329 45.4325 411.809 46.5525 409.665 46.5525C407.553 46.5525 406.033 45.5765 405.729 43.5125H407.777C407.921 44.4405 408.657 44.9685 409.729 44.9685C410.737 44.9685 411.265 44.5365 411.265 43.9125C411.265 41.9925 405.969 43.6405 405.969 40.1685C405.969 38.7765 407.057 37.4965 409.297 37.4965C411.265 37.4965 412.753 38.4245 413.009 40.5525H410.961C410.801 39.5125 410.193 39.0965 409.217 39.0965C408.401 39.0965 407.921 39.4965 407.921 40.0405ZM414.725 36.7765V34.7925H416.773V36.7765H414.725ZM414.725 46.3125V37.7365H416.773V46.3125H414.725ZM418.918 43.6405V39.3205H417.814V37.7365H418.918V35.7685H420.966V37.7365H422.774V39.3205H420.966V43.4645C420.966 44.3605 421.222 44.8405 422.358 44.8405H422.742V46.3445C422.518 46.4565 422.054 46.5525 421.494 46.5525C419.75 46.5525 418.918 45.5605 418.918 43.6405ZM434.637 46.3125L433.085 40.5685L432.925 39.5605L432.733 40.5685L431.197 46.3125H428.653L426.269 37.7365H428.461L429.837 43.7845L430.045 44.8245L430.285 43.7845L431.933 37.7365H434.061L435.709 43.7845L435.917 44.7925L436.109 43.7845L437.501 37.7365H439.597L437.197 46.3125H434.637ZM440.693 36.7765V34.7925H442.741V36.7765H440.693ZM440.693 46.3125V37.7365H442.741V46.3125H440.693ZM444.887 43.6405V39.3205H443.783V37.7365H444.887V35.7685H446.935V37.7365H448.743V39.3205H446.935V43.4645C446.935 44.3605 447.191 44.8405 448.327 44.8405H448.711V46.3445C448.487 46.4565 448.023 46.5525 447.463 46.5525C445.719 46.5525 444.887 45.5605 444.887 43.6405ZM449.943 46.3125V34.7925H451.991V38.8885C452.551 37.9605 453.447 37.4965 454.535 37.4965C456.247 37.4965 457.415 38.5205 457.415 40.6005V46.3125H455.367V41.0165C455.367 39.8485 454.871 39.1925 453.831 39.1925C452.695 39.1925 451.991 40.1845 451.991 41.3365V46.3125H449.943ZM462.381 46.3125V34.7925H464.429V46.3125H462.381ZM470.015 46.5525C467.471 46.5525 465.903 44.8405 465.903 42.0405C465.903 39.1285 467.519 37.4965 470.015 37.4965C472.543 37.4965 474.111 39.2245 474.111 42.0405C474.111 44.9205 472.495 46.5525 470.015 46.5525ZM470.015 44.8565C471.311 44.8565 471.999 43.8645 471.999 42.0405C471.999 40.2165 471.295 39.1925 470.015 39.1925C468.703 39.1925 468.015 40.2005 468.015 42.0405C468.015 43.8485 468.719 44.8565 470.015 44.8565ZM483.024 40.7765H480.976C480.784 39.6565 480.112 39.1925 479.248 39.1925C477.984 39.1925 477.312 40.2005 477.312 42.0405C477.312 43.8485 478.016 44.8565 479.312 44.8565C480.192 44.8565 480.816 44.3765 481.024 43.4005H483.088C482.704 45.5445 481.2 46.5525 479.264 46.5525C476.736 46.5525 475.2 44.8245 475.2 42.0405C475.2 39.1285 476.784 37.4965 479.248 37.4965C481.2 37.4965 482.736 38.5845 483.024 40.7765ZM484.506 46.3125V34.7925H486.554V41.3205L489.658 37.7365H492.058L488.602 41.5445L492.298 46.3125H489.786L486.554 42.1685V46.3125H484.506Z" fill="#334155"/>
    <rect x="674.75" y="310.75" width="213.5" height="59.1258" rx="29.5629" fill="#CBD5E1"/>
    <rect x="674.75" y="310.75" width="213.5" height="59.1258" rx="29.5629" stroke="url(#paint0_linear_2722_321)" stroke-width="1.5" stroke-dasharray="1.55 1.55"/>
    <rect x="686" y="319.896" width="40.8343" height="40.8343" rx="20.4172" fill="#64748B"/>
    <path d="M706.416 343.417C709.845 343.417 712.624 340.637 712.624 337.209C712.624 333.78 709.845 331 706.416 331C702.987 331 700.207 333.78 700.207 337.209C700.207 340.637 702.987 343.417 706.416 343.417Z" stroke="#010207" stroke-width="1.55215" stroke-miterlimit="10"/>
    <path d="M697.008 348.851C697.961 347.199 699.333 345.828 700.985 344.874C702.637 343.92 704.51 343.418 706.418 343.418C708.325 343.418 710.199 343.92 711.851 344.874C713.502 345.828 714.874 347.199 715.828 348.851" stroke="#010207" stroke-width="1.55215" stroke-linecap="round" stroke-linejoin="round"/>
    <path d="M741.28 327.168C741.28 329.776 747.792 327.664 747.792 332.112C747.792 334.304 746 335.553 743.536 335.553C741.056 335.553 739.296 334.4 738.88 332.032H741.136C741.408 333.184 742.24 333.824 743.552 333.824C744.896 333.824 745.584 333.264 745.584 332.384C745.584 329.616 739.088 331.696 739.088 327.36C739.088 325.632 740.512 324.192 743.088 324.192C745.28 324.192 747.136 325.248 747.488 327.696H745.2C744.944 326.48 744.192 325.92 743.024 325.92C741.936 325.92 741.28 326.416 741.28 327.168ZM749.507 332.64V328.32H748.403V326.736H749.507V324.768H751.555V326.736H753.363V328.32H751.555V332.464C751.555 333.36 751.811 333.84 752.947 333.84H753.331V335.345C753.107 335.457 752.643 335.553 752.083 335.553C750.339 335.553 749.507 334.56 749.507 332.64ZM756.547 329.552H754.483C754.755 327.648 756.147 326.497 758.307 326.497C760.691 326.497 761.907 327.904 761.907 329.888V333.216C761.907 334.272 762.003 334.864 762.163 335.312H760.035C759.923 335.024 759.875 334.608 759.859 334.144C759.155 335.136 758.099 335.553 757.075 335.553C755.395 335.553 754.195 334.72 754.195 333.072C754.195 331.904 754.851 331.024 756.163 330.592C757.299 330.208 758.403 330.112 759.843 330.096V329.888C759.843 328.784 759.315 328.192 758.179 328.192C757.203 328.192 756.675 328.736 756.547 329.552ZM756.259 332.961C756.259 333.616 756.771 334.032 757.603 334.032C758.867 334.032 759.843 333.008 759.843 331.728V331.36C756.931 331.408 756.259 332.096 756.259 332.961ZM763.86 335.312V323.792H765.908V330.32L769.012 326.736H771.412L767.956 330.544L771.652 335.312H769.14L765.908 331.168V335.312H763.86ZM779.902 332.512C779.438 334.496 777.902 335.553 775.854 335.553C773.262 335.553 771.678 333.84 771.678 331.04C771.678 328.128 773.278 326.497 775.774 326.497C778.286 326.497 779.838 328.192 779.838 330.96V331.44H773.79C773.886 333.008 774.606 333.872 775.854 333.872C776.814 333.872 777.47 333.424 777.742 332.512H779.902ZM775.774 328.176C774.686 328.176 774.03 328.864 773.838 330.16H777.694C777.502 328.88 776.846 328.176 775.774 328.176ZM781.375 335.312V326.736H783.423V327.984C783.983 326.96 784.847 326.497 785.775 326.497C786.127 326.497 786.447 326.592 786.607 326.736V328.512C786.335 328.432 786.031 328.4 785.663 328.4C784.111 328.4 783.423 329.328 783.423 330.752V335.312H781.375ZM800.334 327.792H798.078C797.742 326.608 796.83 325.984 795.614 325.984C793.79 325.984 792.734 327.472 792.734 329.888C792.734 332.32 793.774 333.76 795.614 333.76C796.766 333.76 797.678 333.168 798.046 332.032H800.318C799.742 334.304 797.87 335.553 795.646 335.553C792.462 335.553 790.526 333.408 790.526 329.888C790.526 326.384 792.494 324.192 795.678 324.192C797.934 324.192 799.838 325.424 800.334 327.792ZM804.907 335.312V326.736H806.955V327.84C807.499 326.944 808.331 326.497 809.339 326.497C810.427 326.497 811.275 326.976 811.707 327.952C812.283 326.976 813.195 326.497 814.299 326.497C815.947 326.497 817.067 327.52 817.067 329.6V335.312H815.019V330.016C815.019 328.848 814.587 328.192 813.675 328.192C812.651 328.192 812.011 329.184 812.011 330.336V335.312H809.963V330.016C809.963 328.848 809.531 328.192 808.619 328.192C807.595 328.192 806.955 329.184 806.955 330.336V335.312H804.907ZM820.937 329.552H818.873C819.145 327.648 820.537 326.497 822.697 326.497C825.081 326.497 826.297 327.904 826.297 329.888V333.216C826.297 334.272 826.393 334.864 826.553 335.312H824.425C824.313 335.024 824.265 334.608 824.249 334.144C823.545 335.136 822.489 335.553 821.465 335.553C819.785 335.553 818.585 334.72 818.585 333.072C818.585 331.904 819.241 331.024 820.553 330.592C821.689 330.208 822.793 330.112 824.233 330.096V329.888C824.233 328.784 823.705 328.192 822.569 328.192C821.593 328.192 821.065 328.736 820.937 329.552ZM820.649 332.961C820.649 333.616 821.161 334.032 821.993 334.032C823.257 334.032 824.233 333.008 824.233 331.728V331.36C821.321 331.408 820.649 332.096 820.649 332.961ZM828.25 335.312V323.792H830.298V330.32L833.402 326.736H835.802L832.346 330.544L836.042 335.312H833.53L830.298 331.168V335.312H828.25ZM837.125 325.776V323.792H839.173V325.776H837.125ZM837.125 335.312V326.736H839.173V335.312H837.125ZM841.047 335.312V326.736H843.095V327.888C843.655 326.96 844.551 326.497 845.639 326.497C847.351 326.497 848.519 327.52 848.519 329.6V335.312H846.471V330.016C846.471 328.848 845.975 328.192 844.935 328.192C843.799 328.192 843.095 329.184 843.095 330.336V335.312H841.047ZM853.527 335.345C851.351 335.345 850.007 333.664 850.007 330.928C850.007 328.08 851.383 326.497 853.527 326.497C854.551 326.497 855.351 326.88 855.879 327.6V326.736H857.927V335.585C857.927 337.905 856.327 339.089 854.199 339.089C852.087 339.089 850.551 338.113 850.247 336.081H852.311C852.439 336.993 853.175 337.473 854.167 337.473C855.191 337.473 855.879 336.977 855.879 335.617V334.176C855.319 334.944 854.519 335.345 853.527 335.345ZM853.991 333.648C855.223 333.648 855.879 332.688 855.879 330.928C855.879 329.184 855.191 328.192 853.991 328.192C852.775 328.192 852.119 329.152 852.119 330.928C852.119 332.672 852.775 333.648 853.991 333.648ZM864.875 329.552H862.811C863.083 327.648 864.475 326.497 866.635 326.497C869.019 326.497 870.235 327.904 870.235 329.888V333.216C870.235 334.272 870.331 334.864 870.491 335.312H868.363C868.251 335.024 868.203 334.608 868.187 334.144C867.483 335.136 866.427 335.553 865.403 335.553C863.723 335.553 862.523 334.72 862.523 333.072C862.523 331.904 863.179 331.024 864.491 330.592C865.627 330.208 866.731 330.112 868.171 330.096V329.888C868.171 328.784 867.643 328.192 866.507 328.192C865.531 328.192 865.003 328.736 864.875 329.552ZM864.587 332.961C864.587 333.616 865.099 334.032 865.931 334.032C867.195 334.032 868.171 333.008 868.171 331.728V331.36C865.259 331.408 864.587 332.096 864.587 332.961ZM763.008 356.312V347.736H765.056V348.984C765.616 347.96 766.48 347.497 767.408 347.497C767.76 347.497 768.08 347.592 768.24 347.736V349.512C767.968 349.432 767.664 349.4 767.296 349.4C765.744 349.4 765.056 350.328 765.056 351.752V356.312H763.008ZM776.988 353.512C776.524 355.496 774.988 356.553 772.94 356.553C770.348 356.553 768.764 354.84 768.764 352.04C768.764 349.128 770.364 347.497 772.86 347.497C775.372 347.497 776.924 349.192 776.924 351.96V352.44H770.876C770.972 354.008 771.692 354.872 772.94 354.872C773.9 354.872 774.556 354.424 774.828 353.512H776.988ZM772.86 349.176C771.772 349.176 771.116 349.864 770.924 351.16H774.78C774.588 349.88 773.932 349.176 772.86 349.176ZM781.677 356.553C779.437 356.553 778.061 354.84 778.061 352.04C778.061 349.128 779.469 347.497 781.677 347.497C782.621 347.497 783.405 347.896 783.933 348.664V344.792H785.981V356.312H783.933V355.336C783.389 356.12 782.621 356.553 781.677 356.553ZM782.045 354.856C783.277 354.856 783.933 353.864 783.933 352.04C783.933 350.216 783.245 349.192 782.045 349.192C780.829 349.192 780.173 350.2 780.173 352.04C780.173 353.848 780.845 354.856 782.045 354.856ZM795.676 353.512C795.212 355.496 793.676 356.553 791.628 356.553C789.036 356.553 787.452 354.84 787.452 352.04C787.452 349.128 789.052 347.497 791.548 347.497C794.06 347.497 795.612 349.192 795.612 351.96V352.44H789.564C789.66 354.008 790.38 354.872 791.628 354.872C792.588 354.872 793.244 354.424 793.516 353.512H795.676ZM791.548 349.176C790.46 349.176 789.804 349.864 789.612 351.16H793.468C793.276 349.88 792.62 349.176 791.548 349.176ZM797.149 356.312V347.736H799.197V348.84C799.741 347.944 800.573 347.497 801.581 347.497C802.669 347.497 803.517 347.976 803.949 348.952C804.525 347.976 805.437 347.497 806.541 347.497C808.189 347.497 809.309 348.52 809.309 350.6V356.312H807.261V351.016C807.261 349.848 806.829 349.192 805.917 349.192C804.893 349.192 804.253 350.184 804.253 351.336V356.312H802.205V351.016C802.205 349.848 801.773 349.192 800.861 349.192C799.837 349.192 799.197 350.184 799.197 351.336V356.312H797.149ZM813.244 359.833H811.196V347.736H813.244V348.712C813.788 347.928 814.556 347.497 815.5 347.497C817.74 347.497 819.116 349.208 819.116 352.008C819.116 354.92 817.708 356.553 815.5 356.553C814.556 356.553 813.772 356.152 813.244 355.384V359.833ZM815.132 349.192C813.9 349.192 813.244 350.184 813.244 352.008C813.244 353.832 813.932 354.856 815.132 354.856C816.348 354.856 817.004 353.848 817.004 352.008C817.004 350.2 816.332 349.192 815.132 349.192ZM820.874 353.64V349.32H819.77V347.736H820.874V345.768H822.922V347.736H824.73V349.32H822.922V353.464C822.922 354.36 823.178 354.84 824.314 354.84H824.698V356.345C824.474 356.457 824.01 356.553 823.45 356.553C821.706 356.553 820.874 355.56 820.874 353.64ZM825.93 346.776V344.792H827.978V346.776H825.93ZM825.93 356.312V347.736H827.978V356.312H825.93ZM833.564 356.553C831.02 356.553 829.452 354.84 829.452 352.04C829.452 349.128 831.068 347.497 833.564 347.497C836.092 347.497 837.66 349.224 837.66 352.04C837.66 354.92 836.044 356.553 833.564 356.553ZM833.564 354.856C834.86 354.856 835.548 353.864 835.548 352.04C835.548 350.216 834.844 349.192 833.564 349.192C832.252 349.192 831.564 350.2 831.564 352.04C831.564 353.848 832.268 354.856 833.564 354.856ZM839.149 356.312V347.736H841.197V348.888C841.757 347.96 842.653 347.497 843.741 347.497C845.453 347.497 846.621 348.52 846.621 350.6V356.312H844.573V351.016C844.573 349.848 844.077 349.192 843.037 349.192C841.901 349.192 841.197 350.184 841.197 351.336V356.312H839.149Z" fill="#1E293B"/>
    <rect x="296" y="310" width="228" height="60.6258" rx="30.3129" fill="#E2E8F0"/>
    <rect x="311.52" y="324.312" width="32" height="32" rx="16" fill="#94A3B8"/>
    <path fill-rule="evenodd" clip-rule="evenodd" d="M327.517 340.9C325.464 340.9 323.799 339.207 323.799 337.118C323.799 335.164 325.258 333.555 327.128 333.357C327.251 333.345 327.376 333.338 327.501 333.338C329.554 333.338 331.219 335.031 331.219 337.12C331.219 339.075 329.76 340.683 327.889 340.882C327.766 340.894 327.643 340.9 327.517 340.9ZM335.01 347.925L335.02 348.041C335.017 348.005 335.012 347.97 335.009 347.934C335.003 348.282 334.726 348.562 334.384 348.562C334.038 348.562 333.757 348.276 333.757 347.925H333.756C333.445 344.7 330.772 342.179 327.52 342.177L327.517 342.177C327.511 342.177 327.506 342.177 327.501 342.177C324.754 342.177 322.529 339.913 322.529 337.12C322.529 334.327 324.754 332.062 327.501 332.062C327.503 332.062 327.506 332.063 327.508 332.063C327.511 332.063 327.514 332.062 327.517 332.062C330.262 332.062 332.487 334.326 332.487 337.118C332.487 338.163 332.167 339.127 331.633 339.931C331.627 339.94 331.623 339.947 331.618 339.955C331.539 340.072 331.456 340.184 331.369 340.293C331.339 340.331 331.308 340.368 331.277 340.405C331.197 340.498 331.117 340.591 331.032 340.679C330.97 340.743 330.902 340.802 330.836 340.863C330.738 340.952 330.639 341.039 330.534 341.12C330.43 341.203 330.324 341.282 330.213 341.355C330.193 341.369 330.175 341.385 330.156 341.397C332.78 342.399 334.703 344.845 334.993 347.786C335.003 347.831 335.01 347.877 335.01 347.925ZM326.272 344.519C326.61 344.519 326.883 344.793 326.883 345.131C326.883 345.468 326.61 345.742 326.272 345.742H324.063V347.951C324.063 348.289 323.789 348.562 323.451 348.562C323.114 348.562 322.84 348.289 322.84 347.951V345.742H320.632C320.293 345.742 320.02 345.468 320.02 345.131C320.02 344.793 320.293 344.519 320.632 344.519H322.84V342.31C322.84 341.972 323.114 341.699 323.451 341.699C323.789 341.699 324.063 341.972 324.063 342.31V344.519H326.272Z" fill="#E2E8F0"/>
    <path d="M367.013 327.168C367.013 329.776 373.525 327.664 373.525 332.112C373.525 334.304 371.733 335.553 369.269 335.553C366.789 335.553 365.029 334.4 364.613 332.032H366.869C367.141 333.184 367.973 333.824 369.285 333.824C370.629 333.824 371.317 333.264 371.317 332.384C371.317 329.616 364.821 331.696 364.821 327.36C364.821 325.632 366.245 324.192 368.821 324.192C371.013 324.192 372.869 325.248 373.221 327.696H370.933C370.677 326.48 369.925 325.92 368.757 325.92C367.669 325.92 367.013 326.416 367.013 327.168ZM375.239 332.64V328.32H374.135V326.736H375.239V324.768H377.287V326.736H379.095V328.32H377.287V332.464C377.287 333.36 377.543 333.84 378.679 333.84H379.063V335.345C378.839 335.457 378.375 335.553 377.815 335.553C376.071 335.553 375.239 334.56 375.239 332.64ZM382.279 329.552H380.215C380.487 327.648 381.879 326.497 384.039 326.497C386.423 326.497 387.639 327.904 387.639 329.888V333.216C387.639 334.272 387.735 334.864 387.895 335.312H385.767C385.655 335.024 385.607 334.608 385.591 334.144C384.887 335.136 383.831 335.553 382.807 335.553C381.127 335.553 379.927 334.72 379.927 333.072C379.927 331.904 380.583 331.024 381.895 330.592C383.031 330.208 384.135 330.112 385.575 330.096V329.888C385.575 328.784 385.047 328.192 383.911 328.192C382.935 328.192 382.407 328.736 382.279 329.552ZM381.991 332.961C381.991 333.616 382.503 334.032 383.335 334.032C384.599 334.032 385.575 333.008 385.575 331.728V331.36C382.663 331.408 381.991 332.096 381.991 332.961ZM389.592 335.312V323.792H391.64V330.32L394.744 326.736H397.144L393.688 330.544L397.384 335.312H394.872L391.64 331.168V335.312H389.592ZM405.635 332.512C405.171 334.496 403.635 335.553 401.587 335.553C398.995 335.553 397.411 333.84 397.411 331.04C397.411 328.128 399.011 326.497 401.507 326.497C404.019 326.497 405.571 328.192 405.571 330.96V331.44H399.523C399.619 333.008 400.339 333.872 401.587 333.872C402.547 333.872 403.203 333.424 403.475 332.512H405.635ZM401.507 328.176C400.419 328.176 399.763 328.864 399.571 330.16H403.427C403.235 328.88 402.579 328.176 401.507 328.176ZM407.107 335.312V326.736H409.155V327.984C409.715 326.96 410.579 326.497 411.507 326.497C411.859 326.497 412.179 326.592 412.339 326.736V328.512C412.067 328.432 411.763 328.4 411.395 328.4C409.843 328.4 409.155 329.328 409.155 330.752V335.312H407.107ZM416.626 335.312V324.432H420.818C423.202 324.432 424.69 325.6 424.69 327.456C424.69 328.416 424.21 329.152 423.362 329.568C424.61 329.984 425.298 330.912 425.298 332.16C425.298 334.16 423.858 335.312 421.362 335.312H416.626ZM420.77 326.144H418.786V328.96H420.722C421.874 328.96 422.482 328.4 422.482 327.568C422.482 326.688 421.858 326.144 420.77 326.144ZM421.186 330.56H418.786V333.6H421.314C422.434 333.6 423.09 332.992 423.09 332.08C423.09 331.168 422.402 330.56 421.186 330.56ZM429.857 335.312V326.736H431.905V327.84C432.449 326.944 433.281 326.497 434.289 326.497C435.377 326.497 436.225 326.976 436.657 327.952C437.233 326.976 438.145 326.497 439.249 326.497C440.897 326.497 442.017 327.52 442.017 329.6V335.312H439.969V330.016C439.969 328.848 439.537 328.192 438.625 328.192C437.601 328.192 436.961 329.184 436.961 330.336V335.312H434.913V330.016C434.913 328.848 434.481 328.192 433.569 328.192C432.545 328.192 431.905 329.184 431.905 330.336V335.312H429.857ZM445.888 329.552H443.824C444.096 327.648 445.488 326.497 447.648 326.497C450.032 326.497 451.248 327.904 451.248 329.888V333.216C451.248 334.272 451.344 334.864 451.504 335.312H449.376C449.264 335.024 449.216 334.608 449.2 334.144C448.496 335.136 447.44 335.553 446.416 335.553C444.736 335.553 443.536 334.72 443.536 333.072C443.536 331.904 444.192 331.024 445.504 330.592C446.64 330.208 447.744 330.112 449.184 330.096V329.888C449.184 328.784 448.656 328.192 447.52 328.192C446.544 328.192 446.016 328.736 445.888 329.552ZM445.6 332.961C445.6 333.616 446.112 334.032 446.944 334.032C448.208 334.032 449.184 333.008 449.184 331.728V331.36C446.272 331.408 445.6 332.096 445.6 332.961ZM453.201 335.312V323.792H455.249V330.32L458.353 326.736H460.753L457.297 330.544L460.993 335.312H458.481L455.249 331.168V335.312H453.201ZM462.076 325.776V323.792H464.124V325.776H462.076ZM462.076 335.312V326.736H464.124V335.312H462.076ZM465.998 335.312V326.736H468.046V327.888C468.606 326.96 469.502 326.497 470.59 326.497C472.302 326.497 473.47 327.52 473.47 329.6V335.312H471.422V330.016C471.422 328.848 470.926 328.192 469.886 328.192C468.75 328.192 468.046 329.184 468.046 330.336V335.312H465.998ZM478.477 335.345C476.301 335.345 474.957 333.664 474.957 330.928C474.957 328.08 476.333 326.497 478.477 326.497C479.501 326.497 480.301 326.88 480.829 327.6V326.736H482.877V335.585C482.877 337.905 481.277 339.089 479.149 339.089C477.037 339.089 475.501 338.113 475.197 336.081H477.261C477.389 336.993 478.125 337.473 479.117 337.473C480.141 337.473 480.829 336.977 480.829 335.617V334.176C480.269 334.944 479.469 335.345 478.477 335.345ZM478.941 333.648C480.173 333.648 480.829 332.688 480.829 330.928C480.829 329.184 480.141 328.192 478.941 328.192C477.725 328.192 477.069 329.152 477.069 330.928C477.069 332.672 477.725 333.648 478.941 333.648ZM489.826 329.552H487.762C488.034 327.648 489.426 326.497 491.586 326.497C493.97 326.497 495.186 327.904 495.186 329.888V333.216C495.186 334.272 495.282 334.864 495.442 335.312H493.314C493.202 335.024 493.154 334.608 493.138 334.144C492.434 335.136 491.378 335.553 490.354 335.553C488.674 335.553 487.474 334.72 487.474 333.072C487.474 331.904 488.13 331.024 489.442 330.592C490.578 330.208 491.682 330.112 493.122 330.096V329.888C493.122 328.784 492.594 328.192 491.458 328.192C490.482 328.192 489.954 328.736 489.826 329.552ZM489.538 332.961C489.538 333.616 490.05 334.032 490.882 334.032C492.146 334.032 493.122 333.008 493.122 331.728V331.36C490.21 331.408 489.538 332.096 489.538 332.961ZM360.089 356.553C357.849 356.553 356.473 354.84 356.473 352.04C356.473 349.128 357.881 347.497 360.089 347.497C361.033 347.497 361.817 347.896 362.345 348.664V344.792H364.393V356.312H362.345V355.336C361.801 356.12 361.033 356.553 360.089 356.553ZM360.457 354.856C361.689 354.856 362.345 353.864 362.345 352.04C362.345 350.216 361.657 349.192 360.457 349.192C359.241 349.192 358.585 350.2 358.585 352.04C358.585 353.848 359.257 354.856 360.457 354.856ZM374.088 353.512C373.624 355.496 372.088 356.553 370.04 356.553C367.448 356.553 365.864 354.84 365.864 352.04C365.864 349.128 367.464 347.497 369.96 347.497C372.472 347.497 374.024 349.192 374.024 351.96V352.44H367.976C368.072 354.008 368.792 354.872 370.04 354.872C371 354.872 371.656 354.424 371.928 353.512H374.088ZM369.96 349.176C368.872 349.176 368.216 349.864 368.024 351.16H371.88C371.688 349.88 371.032 349.176 369.96 349.176ZM377.609 359.833H375.561V347.736H377.609V348.712C378.153 347.928 378.921 347.497 379.865 347.497C382.105 347.497 383.481 349.208 383.481 352.008C383.481 354.92 382.073 356.553 379.865 356.553C378.921 356.553 378.137 356.152 377.609 355.384V359.833ZM379.497 349.192C378.265 349.192 377.609 350.184 377.609 352.008C377.609 353.832 378.297 354.856 379.497 354.856C380.713 354.856 381.369 353.848 381.369 352.008C381.369 350.2 380.697 349.192 379.497 349.192ZM388.679 356.553C386.135 356.553 384.567 354.84 384.567 352.04C384.567 349.128 386.183 347.497 388.679 347.497C391.207 347.497 392.775 349.224 392.775 352.04C392.775 354.92 391.159 356.553 388.679 356.553ZM388.679 354.856C389.975 354.856 390.663 353.864 390.663 352.04C390.663 350.216 389.959 349.192 388.679 349.192C387.367 349.192 386.679 350.2 386.679 352.04C386.679 353.848 387.383 354.856 388.679 354.856ZM395.976 350.04C395.976 352.008 401.384 350.344 401.384 353.784C401.384 355.432 399.864 356.553 397.72 356.553C395.608 356.553 394.088 355.576 393.784 353.512H395.832C395.976 354.44 396.712 354.968 397.784 354.968C398.792 354.968 399.32 354.536 399.32 353.912C399.32 351.992 394.024 353.64 394.024 350.168C394.024 348.776 395.112 347.497 397.352 347.497C399.32 347.497 400.808 348.424 401.064 350.552H399.016C398.856 349.512 398.248 349.096 397.272 349.096C396.456 349.096 395.976 349.496 395.976 350.04ZM402.779 346.776V344.792H404.827V346.776H402.779ZM402.779 356.312V347.736H404.827V356.312H402.779ZM406.973 353.64V349.32H405.869V347.736H406.973V345.768H409.021V347.736H410.829V349.32H409.021V353.464C409.021 354.36 409.277 354.84 410.413 354.84H410.797V356.345C410.573 356.457 410.109 356.553 409.549 356.553C407.805 356.553 406.973 355.56 406.973 353.64ZM422.691 356.312L421.139 350.568L420.979 349.56L420.787 350.568L419.251 356.312H416.707L414.323 347.736H416.515L417.891 353.784L418.099 354.824L418.339 353.784L419.987 347.736H422.115L423.763 353.784L423.971 354.792L424.163 353.784L425.555 347.736H427.651L425.251 356.312H422.691ZM428.748 346.776V344.792H430.796V346.776H428.748ZM428.748 356.312V347.736H430.796V356.312H428.748ZM432.942 353.64V349.32H431.838V347.736H432.942V345.768H434.99V347.736H436.798V349.32H434.99V353.464C434.99 354.36 435.246 354.84 436.382 354.84H436.766V356.345C436.542 356.457 436.078 356.553 435.518 356.553C433.774 356.553 432.942 355.56 432.942 353.64ZM437.998 356.312V344.792H440.046V348.888C440.606 347.96 441.502 347.497 442.59 347.497C444.302 347.497 445.47 348.52 445.47 350.6V356.312H443.422V351.016C443.422 349.848 442.926 349.192 441.886 349.192C440.75 349.192 440.046 350.184 440.046 351.336V356.312H437.998ZM451.069 356.553C448.525 356.553 446.957 354.84 446.957 352.04C446.957 349.128 448.573 347.497 451.069 347.497C453.597 347.497 455.165 349.224 455.165 352.04C455.165 354.92 453.549 356.553 451.069 356.553ZM451.069 354.856C452.365 354.856 453.053 353.864 453.053 352.04C453.053 350.216 452.349 349.192 451.069 349.192C449.757 349.192 449.069 350.2 449.069 352.04C449.069 353.848 449.773 354.856 451.069 354.856ZM461.982 352.712V347.736H464.03V356.312H461.982V355.16C461.422 356.104 460.542 356.553 459.486 356.553C457.79 356.553 456.654 355.528 456.654 353.464V347.736H458.702V353.048C458.702 354.216 459.182 354.856 460.19 354.856C461.294 354.856 461.982 353.864 461.982 352.712ZM466.192 353.64V349.32H465.088V347.736H466.192V345.768H468.24V347.736H470.048V349.32H468.24V353.464C468.24 354.36 468.496 354.84 469.632 354.84H470.016V356.345C469.792 356.457 469.328 356.553 468.768 356.553C467.024 356.553 466.192 355.56 466.192 353.64ZM474.326 356.312V344.792H476.374V356.312H474.326ZM481.96 356.553C479.416 356.553 477.848 354.84 477.848 352.04C477.848 349.128 479.464 347.497 481.96 347.497C484.488 347.497 486.056 349.224 486.056 352.04C486.056 354.92 484.44 356.553 481.96 356.553ZM481.96 354.856C483.256 354.856 483.944 353.864 483.944 352.04C483.944 350.216 483.24 349.192 481.96 349.192C480.648 349.192 479.96 350.2 479.96 352.04C479.96 353.848 480.664 354.856 481.96 354.856ZM494.969 350.776H492.921C492.729 349.656 492.057 349.192 491.193 349.192C489.929 349.192 489.257 350.2 489.257 352.04C489.257 353.848 489.961 354.856 491.257 354.856C492.137 354.856 492.761 354.376 492.969 353.4H495.033C494.649 355.544 493.145 356.553 491.209 356.553C488.681 356.553 487.145 354.824 487.145 352.04C487.145 349.128 488.729 347.497 491.193 347.497C493.145 347.497 494.681 348.584 494.969 350.776ZM496.451 356.312V344.792H498.499V351.32L501.603 347.736H504.003L500.547 351.544L504.243 356.312H501.731L498.499 352.168V356.312H496.451Z" fill="#334155"/>
    <rect y="6" width="122.313" height="48.1165" rx="24.0583" fill="#3B82F6"/>
    <rect x="8" y="12.0586" width="36" height="36" rx="18" fill="#2563EB"/>
    <path d="M26 32.5586C28.7614 32.5586 31 30.32 31 27.5586C31 24.7972 28.7614 22.5586 26 22.5586C23.2386 22.5586 21 24.7972 21 27.5586C21 30.32 23.2386 32.5586 26 32.5586Z" stroke="#F8FAFC" stroke-width="1.25" stroke-miterlimit="10"/>
    <path d="M18.4219 36.9343C19.1898 35.6039 20.2944 34.4992 21.6247 33.7311C22.9549 32.963 24.4639 32.5586 26 32.5586C27.5361 32.5586 29.0451 32.963 30.3753 33.7311C31.7056 34.4992 32.8102 35.6039 33.5781 36.9343" stroke="#F8FAFC" stroke-width="1.25" stroke-linecap="round" stroke-linejoin="round"/>
    <path d="M57.7405 37.0586V26.8166H53.7985V24.8186H64.1125V26.8166H60.1705V37.0586H57.7405ZM64.9038 37.0586V27.4106H67.2078V28.8146C67.8378 27.6626 68.8098 27.1406 69.8538 27.1406C70.2498 27.1406 70.6098 27.2486 70.7898 27.4106V29.4086C70.4838 29.3186 70.1418 29.2826 69.7278 29.2826C67.9818 29.2826 67.2078 30.3266 67.2078 31.9286V37.0586H64.9038ZM74.1319 30.5786H71.8099C72.1159 28.4366 73.6819 27.1406 76.1119 27.1406C78.7939 27.1406 80.1619 28.7246 80.1619 30.9566V34.7006C80.1619 35.8886 80.2699 36.5546 80.4499 37.0586H78.0559C77.9299 36.7346 77.8759 36.2666 77.8579 35.7446C77.0659 36.8606 75.8779 37.3286 74.7259 37.3286C72.8359 37.3286 71.4859 36.3926 71.4859 34.5386C71.4859 33.2246 72.2239 32.2346 73.6999 31.7486C74.9779 31.3166 76.2199 31.2086 77.8399 31.1906V30.9566C77.8399 29.7146 77.2459 29.0486 75.9679 29.0486C74.8699 29.0486 74.2759 29.6606 74.1319 30.5786ZM73.8079 34.4126C73.8079 35.1506 74.3839 35.6186 75.3199 35.6186C76.7419 35.6186 77.8399 34.4666 77.8399 33.0266V32.6126C74.5639 32.6666 73.8079 33.4406 73.8079 34.4126ZM85.9769 37.3286C83.4569 37.3286 81.9089 35.4026 81.9089 32.2526C81.9089 28.9766 83.4929 27.1406 85.9769 27.1406C87.0389 27.1406 87.9209 27.5906 88.5149 28.4546V24.0986H90.8189V37.0586H88.5149V35.9606C87.9029 36.8426 87.0389 37.3286 85.9769 37.3286ZM86.3909 35.4206C87.7769 35.4206 88.5149 34.3046 88.5149 32.2526C88.5149 30.2006 87.7409 29.0486 86.3909 29.0486C85.0229 29.0486 84.2849 30.1826 84.2849 32.2526C84.2849 34.2866 85.0409 35.4206 86.3909 35.4206ZM101.725 33.9086C101.203 36.1406 99.4753 37.3286 97.1713 37.3286C94.2553 37.3286 92.4733 35.4026 92.4733 32.2526C92.4733 28.9766 94.2733 27.1406 97.0813 27.1406C99.9073 27.1406 101.653 29.0486 101.653 32.1626V32.7026H94.8493C94.9573 34.4666 95.7673 35.4386 97.1713 35.4386C98.2513 35.4386 98.9893 34.9346 99.2953 33.9086H101.725ZM97.0813 29.0306C95.8573 29.0306 95.1193 29.8046 94.9033 31.2626H99.2413C99.0253 29.8226 98.2873 29.0306 97.0813 29.0306ZM103.382 37.0586V27.4106H105.686V28.8146C106.316 27.6626 107.288 27.1406 108.332 27.1406C108.728 27.1406 109.088 27.2486 109.268 27.4106V29.4086C108.962 29.3186 108.62 29.2826 108.206 29.2826C106.46 29.2826 105.686 30.3266 105.686 31.9286V37.0586H103.382Z" fill="#F8FAFC"/>
    <path d="M127.295 28.7773C126.905 29.1678 126.905 29.801 127.295 30.1915L133.659 36.5553C134.05 36.9458 134.683 36.9458 135.074 36.5553C135.464 36.1648 135.464 35.5316 135.074 35.1411L129.417 29.4843L135.073 23.8274C135.464 23.4368 135.464 22.8037 135.073 22.4132C134.683 22.0226 134.05 22.0227 133.659 22.4132L127.295 28.7773ZM351.703 172.707C352.094 172.317 352.094 171.684 351.703 171.293L345.339 164.929C344.948 164.539 344.315 164.539 343.925 164.929C343.534 165.32 343.534 165.953 343.925 166.343L349.582 172L343.925 177.657C343.534 178.048 343.534 178.681 343.925 179.071C344.315 179.462 344.949 179.462 345.339 179.071L351.703 172.707ZM163.519 34.4631L164.227 33.756L163.519 34.4631ZM202.496 172L202.496 171L202.496 172ZM173.475 167.021L172.768 167.728L173.475 167.021ZM202.496 173L350.996 173L350.996 171L202.496 171L202.496 173ZM128.002 30.4844L134.497 30.4842L134.497 28.4842L128.002 28.4844L128.002 30.4844ZM167.498 63.4851L167.496 137.999L169.496 137.999L169.498 63.4852L167.498 63.4851ZM134.497 30.4842C142.54 30.4841 148.471 30.4861 153.019 31.0974C157.537 31.7048 160.539 32.8973 162.812 35.1702L164.227 33.756C161.52 31.0495 158.026 29.7525 153.285 29.1152C148.573 28.4818 142.483 28.4841 134.497 28.4842L134.497 30.4842ZM169.498 63.4852C169.498 55.4992 169.501 49.4092 168.867 44.6975C168.23 39.9571 166.933 36.4625 164.227 33.756L162.812 35.1702C165.085 37.4431 166.278 40.4453 166.885 44.964C167.496 49.5114 167.498 55.4426 167.498 63.4851L169.498 63.4852ZM202.496 171C194.454 171 188.523 170.998 183.975 170.387C179.457 169.779 176.455 168.587 174.182 166.314L172.768 167.728C175.474 170.434 178.968 171.732 183.709 172.369C188.42 173.002 194.51 173 202.496 173L202.496 171ZM167.496 137.999C167.496 145.985 167.494 152.075 168.127 156.787C168.764 161.527 170.061 165.022 172.768 167.728L174.182 166.314C171.909 164.041 170.716 161.039 170.109 156.52C169.498 151.973 169.496 146.042 169.496 137.999L167.496 137.999Z" fill="#3B82F6"/>
    <path d="M351.707 190.707C352.098 190.317 352.098 189.683 351.707 189.293L345.343 182.929C344.953 182.538 344.319 182.538 343.929 182.929C343.538 183.319 343.538 183.953 343.929 184.343L349.586 190L343.929 195.657C343.538 196.047 343.538 196.681 343.929 197.071C344.319 197.462 344.953 197.462 345.343 197.071L351.707 190.707ZM66.3223 182.678L67.0294 181.971L66.3223 182.678ZM58 58V140H60V58H58ZM109 191H351V189H109V191ZM58 140C58 151.757 57.9979 160.675 58.9242 167.565C59.8544 174.484 61.7373 179.507 65.6152 183.385L67.0294 181.971C63.585 178.526 61.8068 173.996 60.9064 167.299C60.0021 160.573 60 151.813 60 140H58ZM109 189C97.1866 189 88.4272 188.998 81.7015 188.094C75.0045 187.193 70.4738 185.415 67.0294 181.971L65.6152 183.385C69.4932 187.263 74.5162 189.146 81.435 190.076C88.3249 191.002 97.2432 191 109 191V189Z" fill="url(#paint1_linear_2722_321)"/>
    <path d="M469.293 173.293C468.902 173.683 468.902 174.317 469.293 174.707L475.657 181.071C476.047 181.462 476.681 181.462 477.071 181.071C477.462 180.681 477.462 180.047 477.071 179.657L471.414 174L477.071 168.343C477.462 167.953 477.462 167.319 477.071 166.929C476.681 166.538 476.047 166.538 475.657 166.929L469.293 173.293ZM791.849 180.151L792.556 179.444L791.849 180.151ZM470 175H756V173H470V175ZM797 216V306H799V216H797ZM756 175C765.928 175 773.273 175.002 778.909 175.76C784.517 176.514 788.284 177.999 791.142 180.858L792.556 179.444C789.264 176.152 785.005 174.562 779.176 173.778C773.375 172.998 765.871 173 756 173V175ZM799 216C799 206.129 799.002 198.625 798.222 192.824C797.438 186.995 795.849 182.736 792.556 179.444L791.142 180.858C794.001 183.716 795.486 187.483 796.24 193.091C796.998 198.727 797 206.072 797 216H799Z" fill="#3B82F6"/>
    <path d="M774.793 305.707C775.184 306.098 775.817 306.098 776.208 305.707L782.571 299.343C782.962 298.953 782.962 298.319 782.571 297.929C782.181 297.538 781.548 297.538 781.157 297.929L775.5 303.586L769.844 297.929C769.453 297.538 768.82 297.538 768.429 297.929C768.039 298.32 768.039 298.953 768.429 299.343L774.793 305.707ZM775.5 233.999L774.5 233.999L775.5 233.999ZM769.935 201.564L769.228 202.271L769.935 201.564ZM470.001 196.999L737.5 196.999L737.5 194.999L470.001 194.999L470.001 196.999ZM774.5 233.999L774.5 305L776.5 305L776.5 233.999L774.5 233.999ZM737.5 196.999C746.485 196.999 753.123 197.001 758.215 197.686C763.278 198.367 766.662 199.706 769.228 202.271L770.642 200.857C767.643 197.858 763.766 196.414 758.482 195.704C753.225 194.997 746.429 194.999 737.5 194.999L737.5 196.999ZM776.5 233.999C776.5 225.071 776.502 218.274 775.796 213.018C775.085 207.733 773.641 203.856 770.642 200.857L769.228 202.271C771.794 204.837 773.133 208.221 773.813 213.284C774.498 218.376 774.5 225.014 774.5 233.999L776.5 233.999Z" fill="#3B82F6"/>
    <path d="M422.352 64.2929C421.961 63.9024 421.328 63.9024 420.937 64.2929L414.573 70.6569C414.183 71.0474 414.183 71.6805 414.573 72.0711C414.964 72.4616 415.597 72.4616 415.988 72.0711L421.645 66.4142L427.301 72.0711C427.692 72.4616 428.325 72.4616 428.716 72.0711C429.106 71.6805 429.106 71.0474 428.716 70.6569L422.352 64.2929ZM422.645 159L422.645 65L420.645 65L420.645 159L422.645 159Z" fill="#3B82F6"/>
    <path d="M396.937 159.707C397.328 160.098 397.961 160.098 398.352 159.707L404.716 153.343C405.106 152.953 405.106 152.319 404.716 151.929C404.325 151.538 403.692 151.538 403.301 151.929L397.645 157.586L391.988 151.929C391.597 151.538 390.964 151.538 390.573 151.929C390.183 152.319 390.183 152.953 390.573 153.343L396.937 159.707ZM396.645 65L396.645 159H398.645L398.645 65L396.645 65Z" fill="#3B82F6"/>
    <path d="M422.352 305.707C421.961 306.098 421.328 306.098 420.937 305.707L414.573 299.343C414.183 298.953 414.183 298.319 414.573 297.929C414.964 297.538 415.597 297.538 415.988 297.929L421.645 303.586L427.301 297.929C427.692 297.538 428.325 297.538 428.716 297.929C429.106 298.319 429.106 298.953 428.716 299.343L422.352 305.707ZM422.645 211L422.645 305L420.645 305L420.645 211L422.645 211Z" fill="#3B82F6"/>
    <path d="M396.937 210.293C397.328 209.902 397.961 209.902 398.352 210.293L404.716 216.657C405.106 217.047 405.106 217.681 404.716 218.071C404.325 218.462 403.692 218.462 403.301 218.071L397.645 212.414L391.988 218.071C391.597 218.462 390.964 218.462 390.573 218.071C390.183 217.681 390.183 217.047 390.573 216.657L396.937 210.293ZM396.645 305L396.645 211H398.645L398.645 305L396.645 305Z" fill="#3B82F6"/>
    <rect x="405" y="97" width="36" height="28" rx="14" fill="#3B82F6"/>
    <g clip-path="url(#clip1_2722_321)">
        <path d="M418.625 112.46C418.625 111.539 419.371 110.793 420.292 110.793H425.708C426.629 110.793 427.375 111.539 427.375 112.46V114.96C427.375 115.88 426.629 116.626 425.708 116.626H420.292C419.371 116.626 418.625 115.88 418.625 114.96V112.46Z" stroke="#010207" stroke-width="1.25"/>
        <path d="M421.125 110.604L421.125 107.043C421.125 106.123 421.871 105.376 422.792 105.376L423.208 105.376C424.129 105.376 424.875 106.123 424.875 107.043L424.875 110.793" stroke="#010207" stroke-width="1.25"/>
        <path d="M422.168 113.681C422.165 113.79 422.183 113.899 422.221 114.002C422.26 114.104 422.318 114.198 422.393 114.278C422.468 114.358 422.557 114.422 422.657 114.467C422.757 114.512 422.864 114.538 422.974 114.541C423.083 114.545 423.192 114.527 423.295 114.488C423.397 114.45 423.491 114.392 423.571 114.317C423.651 114.242 423.715 114.152 423.76 114.053C423.805 113.953 423.831 113.845 423.834 113.736C423.838 113.627 423.82 113.517 423.781 113.415C423.743 113.313 423.685 113.219 423.61 113.139C423.535 113.059 423.445 112.995 423.345 112.949C423.246 112.904 423.138 112.879 423.029 112.875C422.919 112.872 422.81 112.89 422.708 112.928C422.606 112.967 422.512 113.025 422.432 113.1C422.352 113.175 422.288 113.264 422.242 113.364C422.197 113.464 422.172 113.571 422.168 113.681Z" fill="#010207"/>
    </g>
    <rect x="110" y="170" width="40" height="40" rx="20" fill="url(#paint2_linear_2722_321)"/>
    <path d="M136 190H136.01M124 190H124.01M133 190C133 191.657 131.657 193 130 193C128.343 193 127 191.657 127 190C127 188.343 128.343 187 130 187C131.657 187 133 188.343 133 190ZM123 184H137C138.105 184 139 184.895 139 186V194C139 195.105 138.105 196 137 196H123C121.895 196 121 195.105 121 194V186C121 184.895 121.895 184 123 184Z" stroke="white" stroke-width="2" stroke-linecap="round" stroke-linejoin="round"/>
    <rect x="404" y="243" width="36" height="28" rx="14" fill="#3B82F6"/>
    <g clip-path="url(#clip2_2722_321)">
        <path d="M417.625 258.46C417.625 257.539 418.371 256.793 419.292 256.793H424.708C425.629 256.793 426.375 257.539 426.375 258.46V260.96C426.375 261.88 425.629 262.626 424.708 262.626H419.292C418.371 262.626 417.625 261.88 417.625 260.96V258.46Z" stroke="#010207" stroke-width="1.25"/>
        <path d="M420.125 256.604L420.125 253.042C420.125 252.122 420.871 251.376 421.792 251.376L422.208 251.376C423.129 251.376 423.875 252.122 423.875 253.043L423.875 253.876" stroke="#010207" stroke-width="1.25" stroke-linecap="round"/>
        <path d="M421.168 259.681C421.165 259.79 421.183 259.899 421.221 260.002C421.26 260.104 421.318 260.198 421.393 260.278C421.468 260.358 421.557 260.422 421.657 260.467C421.757 260.512 421.864 260.538 421.974 260.541C422.083 260.545 422.192 260.527 422.295 260.488C422.397 260.45 422.491 260.392 422.571 260.317C422.651 260.242 422.715 260.152 422.76 260.053C422.805 259.953 422.831 259.845 422.834 259.736C422.838 259.627 422.82 259.517 422.781 259.415C422.743 259.313 422.685 259.219 422.61 259.139C422.535 259.059 422.445 258.995 422.345 258.949C422.246 258.904 422.138 258.879 422.029 258.875C421.919 258.872 421.81 258.89 421.708 258.928C421.606 258.967 421.512 259.025 421.432 259.1C421.352 259.175 421.288 259.264 421.242 259.364C421.197 259.464 421.172 259.571 421.168 259.681Z" fill="#010207"/>
    </g>
    <rect x="713" y="344.5" width="15" height="15" rx="7.5" fill="#84CC16"/>
    <path d="M718 352.417L719.522 353.875L723 350.125" stroke="white" stroke-width="1.25" stroke-linecap="round" stroke-linejoin="round"/>
    <defs>
        <linearGradient id="paint0_linear_2722_321" x1="679.548" y1="310" x2="912.615" y2="358.954" gradientUnits="userSpaceOnUse">
            <stop stop-color="#534289"/>
            <stop offset="0.46875" stop-color="#D55B89"/>
            <stop offset="0.692708" stop-color="#F3AFCD"/>
            <stop offset="0.842814" stop-color="#E7BCFB"/>
        </linearGradient>
        <linearGradient id="paint1_linear_2722_321" x1="66.5355" y1="58" x2="391.46" y2="100.571" gradientUnits="userSpaceOnUse">
            <stop stop-color="#534289"/>
            <stop offset="0.46875" stop-color="#D55B89"/>
            <stop offset="0.692708" stop-color="#F3AFCD"/>
            <stop offset="0.842814" stop-color="#E7BCFB"/>
        </linearGradient>
        <linearGradient id="paint2_linear_2722_321" x1="99" y1="166" x2="159.46" y2="159.634" gradientUnits="userSpaceOnUse">
            <stop stop-color="#534289"/>
            <stop offset="0.46875" stop-color="#D55B89"/>
            <stop offset="0.735418" stop-color="#F3AFCD"/>
            <stop offset="0.842814" stop-color="#E7BCFB"/>
        </linearGradient>
        <clipPath id="clip0_2722_321">
            <rect width="24" height="24" fill="white" transform="translate(366.52 173.059)"/>
        </clipPath>
        <clipPath id="clip1_2722_321">
            <rect width="20" height="20" fill="white" transform="translate(413 101)"/>
        </clipPath>
        <clipPath id="clip2_2722_321">
            <rect width="20" height="20" fill="white" transform="translate(412 247)"/>
        </clipPath>
    </defs>
</svg>
