<svg width="1041" height="434" viewBox="0 0 1041 434" fill="none" xmlns="http://www.w3.org/2000/svg">
    <path d="M529.318 126.627V113.15H530.965V126.627H529.318ZM537.62 126.852C534.775 126.852 533.072 124.905 533.072 121.667C533.072 118.298 534.831 116.445 537.62 116.445C540.465 116.445 542.168 118.429 542.168 121.667C542.168 125.017 540.409 126.852 537.62 126.852ZM537.62 125.429C539.473 125.429 540.484 124.1 540.484 121.667C540.484 119.252 539.454 117.867 537.62 117.867C535.767 117.867 534.756 119.215 534.756 121.667C534.756 124.063 535.786 125.429 537.62 125.429ZM552.506 120.113H550.858C550.596 118.597 549.586 117.867 548.275 117.867C546.441 117.867 545.468 119.215 545.468 121.667C545.468 124.081 546.497 125.448 548.332 125.448C549.661 125.448 550.615 124.736 550.933 123.314H552.58C552.131 125.785 550.465 126.852 548.294 126.852C545.468 126.852 543.783 124.886 543.783 121.667C543.783 118.298 545.505 116.445 548.275 116.445C550.465 116.445 552.187 117.68 552.506 120.113ZM554.616 126.627V113.15H556.263V120.955L560.55 116.688H562.571L558.042 121.124L562.833 126.627H560.737L556.263 121.554V126.627H554.616ZM572.183 123.389C571.64 125.71 569.974 126.852 567.709 126.852C564.827 126.852 563.086 124.905 563.086 121.667C563.086 118.298 564.827 116.445 567.615 116.445C570.423 116.445 572.108 118.372 572.108 121.536V121.948H564.77C564.864 124.175 565.912 125.429 567.709 125.429C569.113 125.429 570.105 124.755 570.461 123.389H572.183ZM567.615 117.867C566.024 117.867 565.07 118.859 564.827 120.712H570.386C570.161 118.878 569.169 117.867 567.615 117.867ZM578.027 126.852C575.388 126.852 573.797 124.905 573.797 121.667C573.797 118.298 575.426 116.445 578.027 116.445C579.207 116.445 580.161 116.931 580.816 117.848V113.15H582.464V126.627H580.816V125.373C580.161 126.309 579.207 126.852 578.027 126.852ZM578.14 125.429C579.881 125.429 580.816 124.1 580.816 121.667C580.816 119.252 579.843 117.867 578.14 117.867C576.418 117.867 575.482 119.215 575.482 121.667C575.482 124.063 576.455 125.429 578.14 125.429ZM533.043 151.852C530.404 151.852 528.813 149.905 528.813 146.667C528.813 143.298 530.441 141.445 533.043 141.445C534.222 141.445 535.177 141.931 535.832 142.848V138.15H537.479V151.627H535.832V150.373C535.177 151.309 534.222 151.852 533.043 151.852ZM533.155 150.429C534.896 150.429 535.832 149.1 535.832 146.667C535.832 144.252 534.858 142.867 533.155 142.867C531.433 142.867 530.497 144.215 530.497 146.667C530.497 149.063 531.471 150.429 533.155 150.429ZM543.734 151.627V140.359H539.373V138.899H549.817V140.359H545.456V151.627H543.734ZM554.071 151.852C551.226 151.852 549.523 149.905 549.523 146.667C549.523 143.298 551.282 141.445 554.071 141.445C556.916 141.445 558.62 143.429 558.62 146.667C558.62 150.017 556.86 151.852 554.071 151.852ZM554.071 150.429C555.924 150.429 556.935 149.1 556.935 146.667C556.935 144.252 555.906 142.867 554.071 142.867C552.218 142.867 551.207 144.215 551.207 146.667C551.207 149.063 552.237 150.429 554.071 150.429ZM560.74 151.627V138.15H562.387V145.955L566.673 141.688H568.695L564.165 146.124L568.957 151.627H566.86L562.387 146.554V151.627H560.74ZM578.306 148.389C577.763 150.71 576.097 151.852 573.833 151.852C570.95 151.852 569.209 149.905 569.209 146.667C569.209 143.298 570.95 141.445 573.739 141.445C576.547 141.445 578.231 143.372 578.231 146.536V146.948H570.894C570.987 149.175 572.036 150.429 573.833 150.429C575.236 150.429 576.228 149.755 576.584 148.389H578.306ZM573.739 142.867C572.148 142.867 571.193 143.859 570.95 145.712H576.509C576.285 143.878 575.292 142.867 573.739 142.867ZM580.426 151.627V141.688H582.073V143.036C582.747 141.987 583.833 141.445 585.143 141.445C587.258 141.445 588.512 142.68 588.512 144.982V151.627H586.865V145.319C586.865 143.822 586.191 142.848 584.694 142.848C583.047 142.848 582.073 144.327 582.073 145.75V151.627H580.426ZM595.035 151.627V138.899H596.831L602.69 147.883L603.42 149.138V138.899H605.142V151.627H603.345L597.505 142.699L596.757 141.388V151.627H595.035ZM608.067 151.627V138.899H616.696V140.303H609.789V144.664H616.004V146.068H609.789V151.627H608.067ZM622.297 151.627V140.359H617.936V138.899H628.38V140.359H624.019V151.627H622.297Z" fill="#475569"/>
    <path d="M533.043 307.008C530.404 307.008 528.813 305.061 528.813 301.823C528.813 298.454 530.441 296.601 533.043 296.601C534.222 296.601 535.177 297.087 535.832 298.005V293.306H537.479V306.783H535.832V305.529C535.177 306.465 534.222 307.008 533.043 307.008ZM533.155 305.585C534.896 305.585 535.832 304.256 535.832 301.823C535.832 299.408 534.858 298.023 533.155 298.023C531.433 298.023 530.497 299.371 530.497 301.823C530.497 304.219 531.471 305.585 533.155 305.585ZM543.734 306.783V295.515H539.373V294.055H549.817V295.515H545.456V306.783H543.734ZM554.071 307.008C551.226 307.008 549.523 305.061 549.523 301.823C549.523 298.454 551.282 296.601 554.071 296.601C556.916 296.601 558.62 298.585 558.62 301.823C558.62 305.173 556.86 307.008 554.071 307.008ZM554.071 305.585C555.924 305.585 556.935 304.256 556.935 301.823C556.935 299.408 555.906 298.023 554.071 298.023C552.218 298.023 551.207 299.371 551.207 301.823C551.207 304.219 552.237 305.585 554.071 305.585ZM560.74 306.783V293.306H562.387V301.112L566.673 296.844H568.695L564.165 301.28L568.957 306.783H566.86L562.387 301.711V306.783H560.74ZM578.306 303.545C577.763 305.866 576.097 307.008 573.833 307.008C570.95 307.008 569.209 305.061 569.209 301.823C569.209 298.454 570.95 296.601 573.739 296.601C576.547 296.601 578.231 298.529 578.231 301.692V302.104H570.894C570.987 304.331 572.036 305.585 573.833 305.585C575.236 305.585 576.228 304.911 576.584 303.545H578.306ZM573.739 298.023C572.148 298.023 571.193 299.015 570.95 300.868H576.509C576.285 299.034 575.292 298.023 573.739 298.023ZM580.426 306.783V296.844H582.073V298.192C582.747 297.144 583.833 296.601 585.143 296.601C587.258 296.601 588.512 297.836 588.512 300.138V306.783H586.865V300.475C586.865 298.978 586.191 298.005 584.694 298.005C583.047 298.005 582.073 299.483 582.073 300.906V306.783H580.426Z" fill="#475569"/>
    <path d="M703.84 191.193C701.201 191.193 699.61 189.247 699.61 186.009C699.61 182.639 701.238 180.786 703.84 180.786C705.019 180.786 705.974 181.273 706.629 182.19V177.492H708.276V190.969H706.629V189.715C705.974 190.651 705.019 191.193 703.84 191.193ZM703.952 189.771C705.693 189.771 706.629 188.442 706.629 186.009C706.629 183.594 705.655 182.209 703.952 182.209C702.23 182.209 701.294 183.557 701.294 186.009C701.294 188.404 702.267 189.771 703.952 189.771ZM714.531 190.969V179.701H710.17V178.241H720.614V179.701H716.253V190.969H714.531ZM724.868 191.193C722.023 191.193 720.32 189.247 720.32 186.009C720.32 182.639 722.079 180.786 724.868 180.786C727.713 180.786 729.416 182.77 729.416 186.009C729.416 189.359 727.657 191.193 724.868 191.193ZM724.868 189.771C726.721 189.771 727.732 188.442 727.732 186.009C727.732 183.594 726.702 182.209 724.868 182.209C723.015 182.209 722.004 183.557 722.004 186.009C722.004 188.404 723.034 189.771 724.868 189.771ZM731.537 190.969V177.492H733.184V185.297L737.47 181.03H739.492L734.962 185.466L739.754 190.969H737.657L733.184 185.896V190.969H731.537ZM749.103 187.731C748.56 190.052 746.894 191.193 744.629 191.193C741.747 191.193 740.006 189.247 740.006 186.009C740.006 182.639 741.747 180.786 744.536 180.786C747.343 180.786 749.028 182.714 749.028 185.878V186.289H741.691C741.784 188.517 742.832 189.771 744.629 189.771C746.033 189.771 747.025 189.097 747.381 187.731H749.103ZM744.536 182.209C742.945 182.209 741.99 183.201 741.747 185.054H747.306C747.081 183.22 746.089 182.209 744.536 182.209ZM751.223 190.969V181.03H752.87V182.377C753.544 181.329 754.63 180.786 755.94 180.786C758.055 180.786 759.309 182.022 759.309 184.324V190.969H757.662V184.661C757.662 183.163 756.988 182.19 755.491 182.19C753.843 182.19 752.87 183.669 752.87 185.091V190.969H751.223Z" fill="#475569"/>
    <path d="M233.386 183.575C233.386 186.345 239.844 184.062 239.844 188.161C239.844 190.014 238.197 191.193 235.857 191.193C233.499 191.193 231.851 190.07 231.477 187.731H233.124C233.349 189.116 234.378 189.883 235.913 189.883C237.411 189.883 238.197 189.209 238.197 188.273C238.197 185.559 231.814 187.805 231.814 183.688C231.814 182.171 232.993 180.786 235.426 180.786C237.579 180.786 239.17 181.797 239.488 184.268H237.841C237.598 182.714 236.737 182.134 235.333 182.134C234.098 182.134 233.386 182.752 233.386 183.575ZM250.394 187.731C249.851 190.052 248.185 191.193 245.921 191.193C243.038 191.193 241.297 189.247 241.297 186.009C241.297 182.639 243.038 180.786 245.827 180.786C248.635 180.786 250.319 182.714 250.319 185.878V186.289H242.982C243.075 188.517 244.124 189.771 245.921 189.771C247.324 189.771 248.316 189.097 248.672 187.731H250.394ZM245.827 182.209C244.236 182.209 243.281 183.201 243.038 185.054H248.597C248.373 183.22 247.381 182.209 245.827 182.209ZM252.739 188.105V182.34H251.354V181.03H252.739V178.746H254.386V181.03H256.576V182.34H254.386V188.105C254.386 189.303 254.742 189.864 256.202 189.864H256.538V191.044C256.351 191.137 255.939 191.193 255.472 191.193C253.618 191.193 252.739 190.201 252.739 188.105ZM258.369 188.105V182.34H256.984V181.03H258.369V178.746H260.016V181.03H262.206V182.34H260.016V188.105C260.016 189.303 260.371 189.864 261.831 189.864H262.168V191.044C261.981 191.137 261.569 191.193 261.101 191.193C259.248 191.193 258.369 190.201 258.369 188.105ZM263.774 190.969V177.492H265.421V190.969H263.774ZM276.624 187.731C276.082 190.052 274.416 191.193 272.151 191.193C269.268 191.193 267.528 189.247 267.528 186.009C267.528 182.639 269.268 180.786 272.057 180.786C274.865 180.786 276.55 182.714 276.55 185.878V186.289H269.212C269.306 188.517 270.354 189.771 272.151 189.771C273.555 189.771 274.547 189.097 274.902 187.731H276.624ZM272.057 182.209C270.466 182.209 269.512 183.201 269.268 185.054H274.828C274.603 183.22 273.611 182.209 272.057 182.209ZM282.469 191.193C279.83 191.193 278.239 189.247 278.239 186.009C278.239 182.639 279.868 180.786 282.469 180.786C283.649 180.786 284.603 181.273 285.258 182.19V177.492H286.905V190.969H285.258V189.715C284.603 190.651 283.649 191.193 282.469 191.193ZM282.582 189.771C284.322 189.771 285.258 188.442 285.258 186.009C285.258 183.594 284.285 182.209 282.582 182.209C280.86 182.209 279.924 183.557 279.924 186.009C279.924 188.404 280.897 189.771 282.582 189.771ZM293.501 188.105V182.34H292.116V181.03H293.501V178.746H295.148V181.03H297.338V182.34H295.148V188.105C295.148 189.303 295.504 189.864 296.964 189.864H297.301V191.044C297.113 191.137 296.702 191.193 296.234 191.193C294.381 191.193 293.501 190.201 293.501 188.105ZM298.906 190.969V181.03H300.553V182.565C301.227 181.348 302.294 180.786 303.492 180.786C303.885 180.786 304.241 180.88 304.428 181.03V182.508C304.147 182.415 303.792 182.377 303.398 182.377C301.414 182.377 300.553 183.613 300.553 185.41V190.969H298.906ZM307.222 184.268H305.575C305.893 182.078 307.334 180.786 309.768 180.786C312.426 180.786 313.717 182.34 313.717 184.661V188.573C313.717 189.715 313.811 190.426 314.073 190.969H312.332C312.145 190.576 312.089 189.995 312.07 189.396C311.228 190.651 309.88 191.193 308.682 191.193C306.623 191.193 305.238 190.239 305.238 188.348C305.238 186.982 305.987 185.99 307.447 185.503C308.794 185.054 310.161 184.942 312.07 184.923V184.698C312.07 183.089 311.321 182.209 309.618 182.209C308.195 182.209 307.428 182.995 307.222 184.268ZM306.923 188.311C306.923 189.228 307.69 189.771 308.851 189.771C310.685 189.771 312.07 188.33 312.07 186.626V186.158C307.84 186.196 306.923 187.094 306.923 188.311ZM320.142 191.193C317.503 191.193 315.912 189.247 315.912 186.009C315.912 182.639 317.541 180.786 320.142 180.786C321.322 180.786 322.276 181.273 322.931 182.19V177.492H324.578V190.969H322.931V189.715C322.276 190.651 321.322 191.193 320.142 191.193ZM320.255 189.771C321.995 189.771 322.931 188.442 322.931 186.009C322.931 183.594 321.958 182.209 320.255 182.209C318.533 182.209 317.597 183.557 317.597 186.009C317.597 188.404 318.57 189.771 320.255 189.771ZM327.202 179.701V177.492H328.849V179.701H327.202ZM327.202 190.969V181.03H328.849V190.969H327.202ZM331.461 190.969V181.03H333.108V182.377C333.782 181.329 334.868 180.786 336.178 180.786C338.293 180.786 339.547 182.022 339.547 184.324V190.969H337.9V184.661C337.9 183.163 337.226 182.19 335.729 182.19C334.082 182.19 333.108 183.669 333.108 185.091V190.969H331.461ZM345.71 191.044C343.183 191.044 341.667 189.116 341.667 185.934C341.667 182.602 343.221 180.786 345.71 180.786C347.039 180.786 348.031 181.254 348.686 182.115V181.03H350.333V191.268C350.333 194.038 348.555 195.33 346.272 195.33C343.932 195.33 342.285 194.207 341.929 191.942H343.576C343.782 193.252 344.812 193.964 346.253 193.964C347.713 193.964 348.686 193.177 348.686 191.324V189.621C347.994 190.557 346.983 191.044 345.71 191.044ZM346.01 189.621C347.75 189.621 348.686 188.311 348.686 185.915C348.686 183.575 347.713 182.209 346.01 182.209C344.288 182.209 343.352 183.519 343.352 185.934C343.352 188.273 344.306 189.621 346.01 189.621ZM356.872 190.969V178.241H361.234C364.116 178.241 365.932 179.776 365.932 182.265C365.932 184.829 364.097 186.327 361.252 186.327H358.594V190.969H356.872ZM361.215 179.645H358.594V184.923H361.159C363.049 184.923 364.154 183.912 364.154 182.284C364.154 180.674 363.031 179.645 361.215 179.645ZM367.983 190.969V181.03H369.63V182.377C370.304 181.329 371.389 180.786 372.699 180.786C374.814 180.786 376.069 182.022 376.069 184.324V190.969H374.421V184.661C374.421 183.163 373.748 182.19 372.25 182.19C370.603 182.19 369.63 183.669 369.63 185.091V190.969H367.983ZM378.844 190.969V178.241H380.566V189.565H386.967V190.969H378.844Z" fill="#475569"/>
    <path d="M132.687 271.248V269.938H134.072V269.264C134.072 267.168 134.933 266.176 136.768 266.176C137.18 266.176 137.517 266.25 137.685 266.325V267.505H137.517C136.075 267.505 135.72 268.066 135.72 269.264V269.938H137.685V271.248H135.72V279.877H134.072V271.248H132.687ZM147.595 276.639C147.052 278.96 145.387 280.102 143.122 280.102C140.239 280.102 138.498 278.155 138.498 274.917C138.498 271.548 140.239 269.695 143.028 269.695C145.836 269.695 147.52 271.622 147.52 274.786V275.198H140.183C140.277 277.425 141.325 278.679 143.122 278.679C144.526 278.679 145.518 278.005 145.873 276.639H147.595ZM143.028 271.117C141.437 271.117 140.483 272.109 140.239 273.962H145.798C145.574 272.128 144.582 271.117 143.028 271.117ZM158.307 276.639C157.764 278.96 156.098 280.102 153.833 280.102C150.951 280.102 149.21 278.155 149.21 274.917C149.21 271.548 150.951 269.695 153.74 269.695C156.547 269.695 158.232 271.622 158.232 274.786V275.198H150.895C150.988 277.425 152.036 278.679 153.833 278.679C155.237 278.679 156.229 278.005 156.585 276.639H158.307ZM153.74 271.117C152.149 271.117 151.194 272.109 150.951 273.962H156.51C156.285 272.128 155.293 271.117 153.74 271.117ZM163.903 271.622L162.836 272.409L161.788 270.724L160.74 272.409L159.673 271.622L160.946 270.125L159.018 269.657L159.43 268.384L161.264 269.133L161.114 267.149H162.443L162.312 269.133L164.128 268.384L164.54 269.657L162.63 270.125L163.903 271.622ZM178.277 273.363H176.63C176.368 271.847 175.357 271.117 174.047 271.117C172.212 271.117 171.239 272.465 171.239 274.917C171.239 277.331 172.269 278.698 174.103 278.698C175.432 278.698 176.386 277.986 176.705 276.564H178.352C177.903 279.035 176.237 280.102 174.065 280.102C171.239 280.102 169.554 278.136 169.554 274.917C169.554 271.548 171.276 269.695 174.047 269.695C176.237 269.695 177.959 270.93 178.277 273.363ZM184.43 280.102C181.585 280.102 179.882 278.155 179.882 274.917C179.882 271.548 181.642 269.695 184.43 269.695C187.276 269.695 188.979 271.679 188.979 274.917C188.979 278.267 187.219 280.102 184.43 280.102ZM184.43 278.679C186.284 278.679 187.294 277.35 187.294 274.917C187.294 272.502 186.265 271.117 184.43 271.117C182.577 271.117 181.567 272.465 181.567 274.917C181.567 277.313 182.596 278.679 184.43 278.679ZM191.099 279.877V266.4H192.746V279.877H191.099ZM195.358 279.877V266.4H197.005V279.877H195.358ZM208.208 276.639C207.666 278.96 206 280.102 203.735 280.102C200.852 280.102 199.112 278.155 199.112 274.917C199.112 271.548 200.852 269.695 203.641 269.695C206.449 269.695 208.134 271.622 208.134 274.786V275.198H200.796C200.89 277.425 201.938 278.679 203.735 278.679C205.139 278.679 206.131 278.005 206.486 276.639H208.208ZM203.641 271.117C202.05 271.117 201.096 272.109 200.852 273.962H206.411C206.187 272.128 205.195 271.117 203.641 271.117ZM218.546 273.363H216.898C216.636 271.847 215.626 271.117 214.315 271.117C212.481 271.117 211.508 272.465 211.508 274.917C211.508 277.331 212.537 278.698 214.371 278.698C215.7 278.698 216.655 277.986 216.973 276.564H218.62C218.171 279.035 216.505 280.102 214.334 280.102C211.508 280.102 209.823 278.136 209.823 274.917C209.823 271.548 211.545 269.695 214.315 269.695C216.505 269.695 218.227 270.93 218.546 273.363ZM220.881 277.013V271.248H219.496V269.938H220.881V267.654H222.528V269.938H224.718V271.248H222.528V277.013C222.528 278.211 222.883 278.773 224.343 278.773H224.68V279.952C224.493 280.045 224.081 280.102 223.613 280.102C221.76 280.102 220.881 279.11 220.881 277.013ZM234.877 276.639C234.335 278.96 232.669 280.102 230.404 280.102C227.521 280.102 225.781 278.155 225.781 274.917C225.781 271.548 227.521 269.695 230.31 269.695C233.118 269.695 234.803 271.622 234.803 274.786V275.198H227.465C227.559 277.425 228.607 278.679 230.404 278.679C231.808 278.679 232.8 278.005 233.155 276.639H234.877ZM230.31 271.117C228.719 271.117 227.765 272.109 227.521 273.962H233.081C232.856 272.128 231.864 271.117 230.31 271.117ZM240.722 280.102C238.083 280.102 236.492 278.155 236.492 274.917C236.492 271.548 238.121 269.695 240.722 269.695C241.902 269.695 242.856 270.181 243.511 271.098V266.4H245.158V279.877H243.511V278.623C242.856 279.559 241.902 280.102 240.722 280.102ZM240.835 278.679C242.575 278.679 243.511 277.35 243.511 274.917C243.511 272.502 242.538 271.117 240.835 271.117C239.113 271.117 238.177 272.465 238.177 274.917C238.177 277.313 239.15 278.679 240.835 278.679ZM253.045 273.176H251.398C251.716 270.986 253.158 269.695 255.591 269.695C258.249 269.695 259.54 271.248 259.54 273.569V277.481C259.54 278.623 259.634 279.334 259.896 279.877H258.155C257.968 279.484 257.912 278.904 257.893 278.305C257.051 279.559 255.703 280.102 254.505 280.102C252.446 280.102 251.061 279.147 251.061 277.256C251.061 275.89 251.81 274.898 253.27 274.411C254.618 273.962 255.984 273.85 257.893 273.831V273.607C257.893 271.997 257.145 271.117 255.441 271.117C254.019 271.117 253.251 271.903 253.045 273.176ZM252.746 277.219C252.746 278.136 253.513 278.679 254.674 278.679C256.508 278.679 257.893 277.238 257.893 275.534V275.067C253.663 275.104 252.746 276.002 252.746 277.219ZM263.457 272.483C263.457 275.254 269.915 272.97 269.915 277.069C269.915 278.922 268.268 280.102 265.928 280.102C263.57 280.102 261.923 278.979 261.548 276.639H263.195C263.42 278.024 264.449 278.791 265.984 278.791C267.482 278.791 268.268 278.117 268.268 277.182C268.268 274.468 261.885 276.714 261.885 272.596C261.885 271.08 263.064 269.695 265.498 269.695C267.65 269.695 269.241 270.705 269.559 273.176H267.912C267.669 271.622 266.808 271.042 265.404 271.042C264.169 271.042 263.457 271.66 263.457 272.483ZM275.621 279.877V269.938H277.268V271.473C277.942 270.256 279.009 269.695 280.207 269.695C280.6 269.695 280.956 269.788 281.143 269.938V271.417C280.862 271.323 280.506 271.286 280.113 271.286C278.129 271.286 277.268 272.521 277.268 274.318V279.877H275.621ZM291.012 276.639C290.469 278.96 288.804 280.102 286.539 280.102C283.656 280.102 281.915 278.155 281.915 274.917C281.915 271.548 283.656 269.695 286.445 269.695C289.253 269.695 290.937 271.622 290.937 274.786V275.198H283.6C283.694 277.425 284.742 278.679 286.539 278.679C287.943 278.679 288.935 278.005 289.29 276.639H291.012ZM286.445 271.117C284.854 271.117 283.899 272.109 283.656 273.962H289.215C288.991 272.128 287.999 271.117 286.445 271.117ZM301.56 279.877L299.407 272.446L299.182 271.323L298.958 272.446L296.824 279.877H294.784L291.826 269.938H293.605L295.645 277.65L295.888 278.66L296.131 277.65L298.396 269.938H300.175L302.439 277.65L302.664 278.623L302.87 277.65L304.91 269.938H306.613L303.637 279.877H301.56ZM309.619 273.176H307.972C308.29 270.986 309.731 269.695 312.165 269.695C314.822 269.695 316.114 271.248 316.114 273.569V277.481C316.114 278.623 316.208 279.334 316.47 279.877H314.729C314.542 279.484 314.486 278.904 314.467 278.305C313.624 279.559 312.277 280.102 311.079 280.102C309.02 280.102 307.635 279.147 307.635 277.256C307.635 275.89 308.384 274.898 309.844 274.411C311.191 273.962 312.558 273.85 314.467 273.831V273.607C314.467 271.997 313.718 271.117 312.015 271.117C310.592 271.117 309.825 271.903 309.619 273.176ZM309.319 277.219C309.319 278.136 310.087 278.679 311.247 278.679C313.082 278.679 314.467 277.238 314.467 275.534V275.067C310.237 275.104 309.319 276.002 309.319 277.219ZM318.814 279.877V269.938H320.461V271.473C321.135 270.256 322.202 269.695 323.4 269.695C323.793 269.695 324.149 269.788 324.336 269.938V271.417C324.055 271.323 323.7 271.286 323.307 271.286C321.322 271.286 320.461 272.521 320.461 274.318V279.877H318.814ZM329.339 280.102C326.7 280.102 325.109 278.155 325.109 274.917C325.109 271.548 326.737 269.695 329.339 269.695C330.518 269.695 331.473 270.181 332.128 271.098V266.4H333.775V279.877H332.128V278.623C331.473 279.559 330.518 280.102 329.339 280.102ZM329.451 278.679C331.192 278.679 332.128 277.35 332.128 274.917C332.128 272.502 331.154 271.117 329.451 271.117C327.729 271.117 326.793 272.465 326.793 274.917C326.793 277.313 327.767 278.679 329.451 278.679Z" fill="#475569"/>
    <path d="M701.631 247.44H699.984C700.302 245.25 701.743 243.958 704.177 243.958C706.835 243.958 708.126 245.512 708.126 247.833V251.745C708.126 252.887 708.22 253.598 708.482 254.141H706.741C706.554 253.748 706.498 253.167 706.479 252.568C705.637 253.822 704.289 254.365 703.091 254.365C701.032 254.365 699.647 253.411 699.647 251.52C699.647 250.154 700.396 249.162 701.856 248.675C703.203 248.226 704.57 248.114 706.479 248.095V247.87C706.479 246.26 705.73 245.381 704.027 245.381C702.604 245.381 701.837 246.167 701.631 247.44ZM701.332 251.483C701.332 252.4 702.099 252.943 703.259 252.943C705.094 252.943 706.479 251.501 706.479 249.798V249.33C702.249 249.368 701.332 250.266 701.332 251.483ZM712.043 246.747C712.043 249.517 718.501 247.234 718.501 251.333C718.501 253.186 716.854 254.365 714.514 254.365C712.155 254.365 710.508 253.242 710.134 250.902H711.781C712.006 252.288 713.035 253.055 714.57 253.055C716.067 253.055 716.854 252.381 716.854 251.445C716.854 248.731 710.471 250.977 710.471 246.859C710.471 245.343 711.65 243.958 714.083 243.958C716.236 243.958 717.827 244.969 718.145 247.44H716.498C716.255 245.886 715.394 245.306 713.99 245.306C712.754 245.306 712.043 245.924 712.043 246.747ZM721.676 246.747C721.676 249.517 728.134 247.234 728.134 251.333C728.134 253.186 726.487 254.365 724.147 254.365C721.788 254.365 720.141 253.242 719.767 250.902H721.414C721.639 252.288 722.668 253.055 724.203 253.055C725.7 253.055 726.487 252.381 726.487 251.445C726.487 248.731 720.104 250.977 720.104 246.859C720.104 245.343 721.283 243.958 723.716 243.958C725.869 243.958 727.46 244.969 727.778 247.44H726.131C725.888 245.886 725.027 245.306 723.623 245.306C722.387 245.306 721.676 245.924 721.676 246.747ZM738.684 250.902C738.141 253.223 736.475 254.365 734.21 254.365C731.328 254.365 729.587 252.419 729.587 249.18C729.587 245.811 731.328 243.958 734.117 243.958C736.924 243.958 738.609 245.886 738.609 249.049V249.461H731.272C731.365 251.689 732.413 252.943 734.21 252.943C735.614 252.943 736.606 252.269 736.962 250.902H738.684ZM734.117 245.381C732.526 245.381 731.571 246.373 731.328 248.226H736.887C736.662 246.392 735.67 245.381 734.117 245.381ZM741.029 251.277V245.512H739.643V244.202H741.029V241.918H742.676V244.202H744.866V245.512H742.676V251.277C742.676 252.475 743.031 253.036 744.491 253.036H744.828V254.215C744.641 254.309 744.229 254.365 743.761 254.365C741.908 254.365 741.029 253.373 741.029 251.277Z" fill="#475569"/>
    <path d="M353.491 126.852C350.852 126.852 349.261 124.905 349.261 121.667C349.261 118.298 350.889 116.445 353.491 116.445C354.67 116.445 355.625 116.931 356.28 117.848V113.15H357.927V126.627H356.28V125.373C355.625 126.309 354.67 126.852 353.491 126.852ZM353.604 125.429C355.344 125.429 356.28 124.1 356.28 121.667C356.28 119.252 355.307 117.867 353.604 117.867C351.881 117.867 350.946 119.215 350.946 121.667C350.946 124.063 351.919 125.429 353.604 125.429ZM360.551 115.359V113.15H362.198V115.359H360.551ZM360.551 126.627V116.688H362.198V126.627H360.551ZM366.027 119.233C366.027 122.004 372.484 119.72 372.484 123.819C372.484 125.672 370.837 126.852 368.497 126.852C366.139 126.852 364.492 125.729 364.117 123.389H365.765C365.989 124.774 367.019 125.541 368.554 125.541C370.051 125.541 370.837 124.867 370.837 123.932C370.837 121.218 364.454 123.464 364.454 119.346C364.454 117.83 365.634 116.445 368.067 116.445C370.219 116.445 371.81 117.455 372.129 119.926H370.481C370.238 118.372 369.377 117.792 367.973 117.792C366.738 117.792 366.027 118.41 366.027 119.233ZM382.66 120.113H381.013C380.751 118.597 379.74 117.867 378.43 117.867C376.596 117.867 375.622 119.215 375.622 121.667C375.622 124.081 376.652 125.448 378.486 125.448C379.815 125.448 380.77 124.736 381.088 123.314H382.735C382.286 125.785 380.62 126.852 378.449 126.852C375.622 126.852 373.938 124.886 373.938 121.667C373.938 118.298 375.66 116.445 378.43 116.445C380.62 116.445 382.342 117.68 382.66 120.113ZM388.814 126.852C385.969 126.852 384.265 124.905 384.265 121.667C384.265 118.298 386.025 116.445 388.814 116.445C391.659 116.445 393.362 118.429 393.362 121.667C393.362 125.017 391.603 126.852 388.814 126.852ZM388.814 125.429C390.667 125.429 391.677 124.1 391.677 121.667C391.677 119.252 390.648 117.867 388.814 117.867C386.961 117.867 385.95 119.215 385.95 121.667C385.95 124.063 386.979 125.429 388.814 125.429ZM401.809 122.565V116.688H403.456V126.627H401.809V125.279C401.135 126.327 400.087 126.852 398.795 126.852C396.718 126.852 395.482 125.635 395.482 123.333V116.688H397.129V122.996C397.129 124.493 397.784 125.448 399.244 125.448C400.854 125.448 401.809 123.988 401.809 122.565ZM406.084 126.627V116.688H407.731V118.036C408.405 116.987 409.491 116.445 410.801 116.445C412.916 116.445 414.17 117.68 414.17 119.982V126.627H412.523V120.319C412.523 118.822 411.849 117.848 410.352 117.848C408.704 117.848 407.731 119.327 407.731 120.75V126.627H406.084ZM417.02 123.763V117.998H415.635V116.688H417.02V114.404H418.667V116.688H420.857V117.998H418.667V123.763C418.667 124.961 419.023 125.523 420.483 125.523H420.82V126.702C420.633 126.795 420.221 126.852 419.753 126.852C417.9 126.852 417.02 125.86 417.02 123.763ZM431.017 123.389C430.474 125.71 428.808 126.852 426.543 126.852C423.661 126.852 421.92 124.905 421.92 121.667C421.92 118.298 423.661 116.445 426.45 116.445C429.257 116.445 430.942 118.372 430.942 121.536V121.948H423.605C423.698 124.175 424.746 125.429 426.543 125.429C427.947 125.429 428.939 124.755 429.295 123.389H431.017ZM426.45 117.867C424.859 117.867 423.904 118.859 423.661 120.712H429.22C428.995 118.878 428.003 117.867 426.45 117.867ZM436.862 126.852C434.223 126.852 432.631 124.905 432.631 121.667C432.631 118.298 434.26 116.445 436.862 116.445C438.041 116.445 438.996 116.931 439.651 117.848V113.15H441.298V126.627H439.651V125.373C438.996 126.309 438.041 126.852 436.862 126.852ZM436.974 125.429C438.715 125.429 439.651 124.1 439.651 121.667C439.651 119.252 438.677 117.867 436.974 117.867C435.252 117.867 434.316 119.215 434.316 121.667C434.316 124.063 435.289 125.429 436.974 125.429ZM399.119 144.926H397.471C397.79 142.736 399.231 141.445 401.664 141.445C404.322 141.445 405.614 142.998 405.614 145.319V149.231C405.614 150.373 405.707 151.084 405.969 151.627H404.229C404.041 151.234 403.985 150.654 403.967 150.055C403.124 151.309 401.777 151.852 400.579 151.852C398.52 151.852 397.135 150.897 397.135 149.006C397.135 147.64 397.883 146.648 399.343 146.161C400.691 145.712 402.057 145.6 403.967 145.581V145.357C403.967 143.747 403.218 142.867 401.515 142.867C400.092 142.867 399.325 143.653 399.119 144.926ZM398.819 148.969C398.819 149.886 399.587 150.429 400.747 150.429C402.581 150.429 403.967 148.988 403.967 147.284V146.817C399.736 146.854 398.819 147.752 398.819 148.969ZM409.531 144.233C409.531 147.004 415.988 144.72 415.988 148.819C415.988 150.672 414.341 151.852 412.001 151.852C409.643 151.852 407.996 150.729 407.621 148.389H409.269C409.493 149.774 410.523 150.541 412.058 150.541C413.555 150.541 414.341 149.867 414.341 148.932C414.341 146.218 407.958 148.464 407.958 144.346C407.958 142.83 409.138 141.445 411.571 141.445C413.723 141.445 415.314 142.455 415.633 144.926H413.985C413.742 143.372 412.881 142.792 411.477 142.792C410.242 142.792 409.531 143.41 409.531 144.233ZM419.164 144.233C419.164 147.004 425.621 144.72 425.621 148.819C425.621 150.672 423.974 151.852 421.634 151.852C419.276 151.852 417.629 150.729 417.254 148.389H418.902C419.126 149.774 420.156 150.541 421.691 150.541C423.188 150.541 423.974 149.867 423.974 148.932C423.974 146.218 417.591 148.464 417.591 144.346C417.591 142.83 418.771 141.445 421.204 141.445C423.356 141.445 424.947 142.455 425.266 144.926H423.618C423.375 143.372 422.514 142.792 421.11 142.792C419.875 142.792 419.164 143.41 419.164 144.233ZM436.171 148.389C435.629 150.71 433.963 151.852 431.698 151.852C428.815 151.852 427.075 149.905 427.075 146.667C427.075 143.298 428.815 141.445 431.604 141.445C434.412 141.445 436.097 143.372 436.097 146.536V146.948H428.759C428.853 149.175 429.901 150.429 431.698 150.429C433.102 150.429 434.094 149.755 434.449 148.389H436.171ZM431.604 142.867C430.013 142.867 429.059 143.859 428.815 145.712H434.375C434.15 143.878 433.158 142.867 431.604 142.867ZM438.516 148.763V142.998H437.131V141.688H438.516V139.404H440.163V141.688H442.353V142.998H440.163V148.763C440.163 149.961 440.519 150.523 441.979 150.523H442.316V151.702C442.129 151.795 441.717 151.852 441.249 151.852C439.396 151.852 438.516 150.86 438.516 148.763Z" fill="#475569"/>
    <path d="M399.32 304.762H397.673C397.991 302.572 399.432 301.28 401.866 301.28C404.523 301.28 405.815 302.834 405.815 305.155V309.067C405.815 310.209 405.909 310.92 406.171 311.463H404.43C404.243 311.07 404.187 310.49 404.168 309.891C403.325 311.145 401.978 311.688 400.78 311.688C398.721 311.688 397.336 310.733 397.336 308.842C397.336 307.476 398.085 306.484 399.545 305.997C400.892 305.548 402.259 305.436 404.168 305.417V305.192C404.168 303.583 403.419 302.703 401.716 302.703C400.293 302.703 399.526 303.489 399.32 304.762ZM399.02 308.805C399.02 309.722 399.788 310.265 400.948 310.265C402.783 310.265 404.168 308.824 404.168 307.12V306.652C399.938 306.69 399.02 307.588 399.02 308.805ZM409.732 304.069C409.732 306.84 416.19 304.556 416.19 308.655C416.19 310.508 414.542 311.688 412.203 311.688C409.844 311.688 408.197 310.564 407.823 308.225H409.47C409.694 309.61 410.724 310.377 412.259 310.377C413.756 310.377 414.542 309.703 414.542 308.768C414.542 306.053 408.16 308.3 408.16 304.182C408.16 302.666 409.339 301.28 411.772 301.28C413.925 301.28 415.516 302.291 415.834 304.762H414.187C413.943 303.208 413.082 302.628 411.679 302.628C410.443 302.628 409.732 303.246 409.732 304.069ZM419.365 304.069C419.365 306.84 425.823 304.556 425.823 308.655C425.823 310.508 424.175 311.688 421.836 311.688C419.477 311.688 417.83 310.564 417.456 308.225H419.103C419.328 309.61 420.357 310.377 421.892 310.377C423.389 310.377 424.175 309.703 424.175 308.768C424.175 306.053 417.793 308.3 417.793 304.182C417.793 302.666 418.972 301.28 421.405 301.28C423.558 301.28 425.149 302.291 425.467 304.762H423.82C423.576 303.208 422.715 302.628 421.312 302.628C420.076 302.628 419.365 303.246 419.365 304.069ZM436.373 308.225C435.83 310.546 434.164 311.688 431.899 311.688C429.017 311.688 427.276 309.741 427.276 306.503C427.276 303.134 429.017 301.28 431.806 301.28C434.613 301.28 436.298 303.208 436.298 306.372V306.783H428.961C429.054 309.011 430.102 310.265 431.899 310.265C433.303 310.265 434.295 309.591 434.651 308.225H436.373ZM431.806 302.703C430.215 302.703 429.26 303.695 429.017 305.548H434.576C434.351 303.714 433.359 302.703 431.806 302.703ZM438.717 308.599V302.834H437.332V301.524H438.717V299.24H440.365V301.524H442.555V302.834H440.365V308.599C440.365 309.797 440.72 310.359 442.18 310.359H442.517V311.538C442.33 311.631 441.918 311.688 441.45 311.688C439.597 311.688 438.717 310.695 438.717 308.599Z" fill="#475569"/>
    <rect x="411.608" y="188.931" width="137.29" height="55.1194" rx="27.5597" fill="#F0FDF4"/>
    <rect x="411.608" y="188.931" width="137.29" height="55.1194" rx="27.5597" stroke="#22C55E" stroke-width="1.16986" stroke-dasharray="2.34 2.34"/>
    <path d="M446.513 213.898L441.582 217.896L439.683 215.664C439.562 215.555 439.406 215.494 439.243 215.492C439.081 215.491 438.923 215.549 438.8 215.655C438.677 215.762 438.598 215.909 438.576 216.071C438.555 216.232 438.593 216.395 438.683 216.53L441.016 219.262L441.082 219.329H441.949L447.38 214.931C447.457 214.88 447.523 214.813 447.573 214.735C447.623 214.657 447.656 214.569 447.67 214.477C447.684 214.386 447.679 214.292 447.655 214.202C447.631 214.113 447.589 214.029 447.53 213.957C447.472 213.885 447.399 213.826 447.317 213.783C447.235 213.741 447.144 213.716 447.052 213.71C446.959 213.705 446.866 213.718 446.779 213.751C446.692 213.783 446.613 213.833 446.547 213.898H446.513Z" fill="#22C55E" stroke="#22C55E" stroke-width="0.584928"/>
    <path d="M453.745 210.633C453.746 209.842 453.512 209.068 453.073 208.41C452.634 207.752 452.01 207.238 451.279 206.935L443.483 203.67C443.322 203.605 443.143 203.605 442.983 203.67L435.153 206.935C434.422 207.238 433.798 207.752 433.359 208.41C432.92 209.068 432.686 209.842 432.688 210.633V218.963C432.688 224.727 437.252 229.525 442.883 229.692H443.216C446.003 229.692 448.676 228.587 450.649 226.62C452.623 224.652 453.736 221.983 453.745 219.196V210.633ZM452.412 219.196C452.408 220.424 452.159 221.638 451.678 222.768C451.197 223.897 450.495 224.919 449.613 225.773C448.731 226.627 447.687 227.296 446.543 227.74C445.399 228.184 444.177 228.394 442.95 228.359C438.018 228.226 434.02 223.994 434.02 218.963V210.633C434.019 210.107 434.173 209.592 434.463 209.153C434.754 208.715 435.168 208.372 435.653 208.168L443.216 205.002L450.78 208.168C451.265 208.372 451.679 208.715 451.969 209.153C452.26 209.592 452.414 210.107 452.412 210.633V219.196Z" fill="#22C55E" stroke="#22C55E" stroke-width="0.584928"/>
    <path d="M473.631 224.806C470.683 224.806 468.872 222.553 468.872 218.868C468.872 215.035 470.725 212.888 473.631 212.888C474.874 212.888 475.905 213.414 476.6 214.425V209.329H479.296V224.49H476.6V223.206C475.884 224.238 474.874 224.806 473.631 224.806ZM474.115 222.574C475.737 222.574 476.6 221.268 476.6 218.868C476.6 216.467 475.695 215.12 474.115 215.12C472.515 215.12 471.652 216.446 471.652 218.868C471.652 221.247 472.536 222.574 474.115 222.574ZM483.779 210.171L487.485 220.237L487.927 221.816L488.348 220.237L492.055 210.171H494.897L489.507 224.49H486.18L480.768 210.171H483.779ZM498.064 216.91H495.348C495.706 214.404 497.538 212.888 500.38 212.888C503.518 212.888 505.118 214.741 505.118 217.352V221.732C505.118 223.122 505.245 223.901 505.455 224.49H502.655C502.507 224.111 502.444 223.564 502.423 222.953C501.497 224.259 500.107 224.806 498.759 224.806C496.548 224.806 494.969 223.711 494.969 221.542C494.969 220.005 495.832 218.847 497.559 218.278C499.054 217.773 500.507 217.647 502.402 217.626V217.352C502.402 215.899 501.707 215.12 500.212 215.12C498.928 215.12 498.233 215.836 498.064 216.91ZM497.685 221.395C497.685 222.258 498.359 222.806 499.454 222.806C501.117 222.806 502.402 221.458 502.402 219.773V219.289C498.57 219.352 497.685 220.258 497.685 221.395ZM514.701 219.752V213.203H517.396V224.49H514.701V222.974C513.964 224.216 512.806 224.806 511.416 224.806C509.184 224.806 507.689 223.458 507.689 220.742V213.203H510.384V220.195C510.384 221.732 511.016 222.574 512.342 222.574C513.795 222.574 514.701 221.268 514.701 219.752ZM519.883 224.49V209.329H522.578V224.49H519.883ZM525.402 220.974V215.288H523.949V213.203H525.402V210.613H528.098V213.203H530.477V215.288H528.098V220.742C528.098 221.921 528.435 222.553 529.93 222.553H530.435V224.532C530.14 224.68 529.53 224.806 528.793 224.806C526.497 224.806 525.402 223.501 525.402 220.974Z" fill="#22C55E"/>
    <rect x="346.68" width="266.727" height="70.9233" rx="35.4616" fill="#E2E8F0"/>
    <rect x="364.836" y="16.7441" width="37.4354" height="37.4354" rx="18.7177" fill="#94A3B8"/>
    <path fill-rule="evenodd" clip-rule="evenodd" d="M383.544 36.1514C381.143 36.1514 379.195 34.1703 379.195 31.7268C379.195 29.4404 380.901 27.5585 383.089 27.3268C383.233 27.3128 383.379 27.3049 383.526 27.3049C385.927 27.3049 387.875 29.2851 387.875 31.7286C387.875 34.0159 386.168 35.897 383.98 36.1295C383.836 36.1435 383.691 36.1514 383.544 36.1514ZM392.31 44.3697L392.321 44.5048C392.319 44.4627 392.312 44.4223 392.309 44.3802C392.302 44.7865 391.978 45.1146 391.577 45.1146C391.173 45.1146 390.845 44.7803 390.845 44.3697H390.843C390.479 40.5961 387.353 37.6473 383.547 37.6456L383.544 37.6447C383.538 37.6447 383.532 37.6456 383.526 37.6456C380.313 37.6456 377.709 34.9968 377.709 31.7286C377.709 28.4613 380.313 25.8125 383.526 25.8125C383.528 25.8125 383.532 25.8134 383.534 25.8134C383.538 25.8134 383.54 25.8125 383.544 25.8125C386.755 25.8125 389.358 28.4604 389.358 31.7268C389.358 32.949 388.985 34.0764 388.359 35.0178C388.353 35.0275 388.348 35.0363 388.341 35.0459C388.249 35.1828 388.153 35.3135 388.05 35.4407C388.016 35.4855 387.979 35.5285 387.943 35.5715C387.849 35.6803 387.756 35.789 387.656 35.8926C387.583 35.9672 387.504 36.0365 387.427 36.1075C387.312 36.2119 387.196 36.3137 387.074 36.4085C386.952 36.505 386.828 36.598 386.698 36.684C386.674 36.6998 386.654 36.7182 386.631 36.7322C389.701 37.9044 391.951 40.7664 392.291 44.2065C392.302 44.2592 392.31 44.3136 392.31 44.3697ZM382.088 40.3852C382.483 40.3852 382.803 40.7055 382.803 41.1003C382.803 41.4951 382.483 41.8153 382.088 41.8153H379.504V44.4001C379.504 44.7949 379.183 45.1151 378.788 45.1151C378.394 45.1151 378.073 44.7949 378.073 44.4001V41.8153H375.489C375.094 41.8153 374.773 41.4951 374.773 41.1003C374.773 40.7055 375.094 40.3852 375.489 40.3852H378.073V37.8005C378.073 37.4057 378.394 37.0854 378.788 37.0854C379.183 37.0854 379.504 37.4057 379.504 37.8005V40.3852H382.088Z" fill="#E2E8F0"/>
    <path d="M429.824 19.9336C429.824 22.9846 437.443 20.5139 437.443 25.7174C437.443 28.2817 435.346 29.7417 432.464 29.7417C429.562 29.7417 427.503 28.394 427.017 25.6238H429.656C429.974 26.9715 430.948 27.7202 432.482 27.7202C434.055 27.7202 434.86 27.0651 434.86 26.0356C434.86 22.7974 427.26 25.2307 427.26 20.1582C427.26 18.1367 428.926 16.4521 431.94 16.4521C434.504 16.4521 436.675 17.6875 437.087 20.5513H434.41C434.111 19.1288 433.231 18.4737 431.865 18.4737C430.592 18.4737 429.824 19.0539 429.824 19.9336ZM439.448 26.3351V21.2813H438.156V19.4283H439.448V17.126H441.844V19.4283H443.959V21.2813H441.844V26.1292C441.844 27.1774 442.143 27.7389 443.472 27.7389H443.922V29.4984C443.659 29.6294 443.117 29.7417 442.462 29.7417C440.421 29.7417 439.448 28.5812 439.448 26.3351ZM447.684 22.7226H445.269C445.588 20.4952 447.216 19.1475 449.743 19.1475C452.532 19.1475 453.954 20.7946 453.954 23.1156V27.0089C453.954 28.2443 454.067 28.9368 454.254 29.4609H451.764C451.633 29.124 451.577 28.6374 451.558 28.0945C450.735 29.255 449.5 29.7417 448.302 29.7417C446.336 29.7417 444.932 28.7684 444.932 26.8405C444.932 25.4741 445.7 24.4446 447.235 23.9392C448.564 23.49 449.855 23.3777 451.54 23.359V23.1156C451.54 21.8241 450.922 21.1316 449.593 21.1316C448.451 21.1316 447.834 21.768 447.684 22.7226ZM447.347 26.7094C447.347 27.4769 447.946 27.9635 448.919 27.9635C450.398 27.9635 451.54 26.7656 451.54 25.2682V24.8377C448.133 24.8938 447.347 25.6987 447.347 26.7094ZM456.239 29.4609V15.9842H458.635V23.621L462.266 19.4283H465.074L461.031 23.8831L465.354 29.4609H462.416L458.635 24.6131V29.4609H456.239ZM475.007 26.1853C474.464 28.5063 472.667 29.7417 470.271 29.7417C467.239 29.7417 465.386 27.7389 465.386 24.4633C465.386 21.0567 467.257 19.1475 470.177 19.1475C473.116 19.1475 474.932 21.1316 474.932 24.3697V24.9313H467.856C467.969 26.7656 468.811 27.7763 470.271 27.7763C471.394 27.7763 472.162 27.2523 472.48 26.1853H475.007ZM470.177 21.1128C468.905 21.1128 468.137 21.9177 467.913 23.4338H472.424C472.199 21.9364 471.432 21.1128 470.177 21.1128ZM476.73 29.4609V19.4283H479.126V20.8882C479.781 19.6903 480.791 19.1475 481.877 19.1475C482.289 19.1475 482.663 19.2598 482.85 19.4283V21.5059C482.532 21.4123 482.177 21.3749 481.746 21.3749C479.93 21.3749 479.126 22.4605 479.126 24.1264V29.4609H476.73ZM496.171 29.4609L495.197 26.8217H489.769L488.796 29.4609H486.269L491.061 16.7329H494.037L498.829 29.4609H496.171ZM492.109 20.5139L490.499 24.8751H494.467L492.858 20.5139L492.483 19.2036L492.109 20.5139ZM503.198 29.4609V19.4283H505.594V20.7198C506.23 19.6716 507.203 19.1475 508.382 19.1475C509.655 19.1475 510.647 19.709 511.153 20.8508C511.827 19.709 512.893 19.1475 514.185 19.1475C516.113 19.1475 517.423 20.3454 517.423 22.7787V29.4609H515.027V23.2654C515.027 21.899 514.522 21.1316 513.455 21.1316C512.257 21.1316 511.508 22.2921 511.508 23.6397V29.4609H509.112V23.2654C509.112 21.899 508.607 21.1316 507.54 21.1316C506.342 21.1316 505.594 22.2921 505.594 23.6397V29.4609H503.198ZM521.951 22.7226H519.537C519.855 20.4952 521.484 19.1475 524.01 19.1475C526.799 19.1475 528.222 20.7946 528.222 23.1156V27.0089C528.222 28.2443 528.334 28.9368 528.521 29.4609H526.032C525.901 29.124 525.845 28.6374 525.826 28.0945C525.002 29.255 523.767 29.7417 522.569 29.7417C520.604 29.7417 519.2 28.7684 519.2 26.8405C519.2 25.4741 519.967 24.4446 521.502 23.9392C522.831 23.49 524.123 23.3777 525.807 23.359V23.1156C525.807 21.8241 525.19 21.1316 523.861 21.1316C522.719 21.1316 522.101 21.768 521.951 22.7226ZM521.615 26.7094C521.615 27.4769 522.214 27.9635 523.187 27.9635C524.666 27.9635 525.807 26.7656 525.807 25.2682V24.8377C522.401 24.8938 521.615 25.6987 521.615 26.7094ZM530.506 29.4609V15.9842H532.902V23.621L536.534 19.4283H539.341L535.298 23.8831L539.622 29.4609H536.683L532.902 24.6131V29.4609H530.506ZM540.889 18.3052V15.9842H543.285V18.3052H540.889ZM540.889 29.4609V19.4283H543.285V29.4609H540.889ZM545.477 29.4609V19.4283H547.873V20.7759C548.528 19.6903 549.576 19.1475 550.849 19.1475C552.852 19.1475 554.218 20.3454 554.218 22.7787V29.4609H551.822V23.2654C551.822 21.899 551.242 21.1316 550.025 21.1316C548.696 21.1316 547.873 22.2921 547.873 23.6397V29.4609H545.477ZM560.076 29.4984C557.53 29.4984 555.958 27.533 555.958 24.3323C555.958 21.0005 557.568 19.1475 560.076 19.1475C561.274 19.1475 562.21 19.5967 562.828 20.439V19.4283H565.223V29.7791C565.223 32.4932 563.352 33.8783 560.862 33.8783C558.391 33.8783 556.595 32.7365 556.239 30.3594H558.653C558.803 31.4263 559.664 31.9878 560.825 31.9878C562.023 31.9878 562.828 31.4076 562.828 29.8166V28.132C562.172 29.0304 561.237 29.4984 560.076 29.4984ZM560.619 27.5143C562.06 27.5143 562.828 26.3912 562.828 24.3323C562.828 22.2921 562.023 21.1316 560.619 21.1316C559.196 21.1316 558.429 22.2546 558.429 24.3323C558.429 26.3725 559.196 27.5143 560.619 27.5143ZM573.352 22.7226H570.937C571.256 20.4952 572.884 19.1475 575.411 19.1475C578.2 19.1475 579.622 20.7946 579.622 23.1156V27.0089C579.622 28.2443 579.735 28.9368 579.922 29.4609H577.432C577.301 29.124 577.245 28.6374 577.227 28.0945C576.403 29.255 575.168 29.7417 573.97 29.7417C572.004 29.7417 570.6 28.7684 570.6 26.8405C570.6 25.4741 571.368 24.4446 572.903 23.9392C574.232 23.49 575.523 23.3777 577.208 23.359V23.1156C577.208 21.8241 576.59 21.1316 575.261 21.1316C574.119 21.1316 573.502 21.768 573.352 22.7226ZM573.015 26.7094C573.015 27.4769 573.614 27.9635 574.587 27.9635C576.066 27.9635 577.208 26.7656 577.208 25.2682V24.8377C573.801 24.8938 573.015 25.6987 573.015 26.7094ZM435.626 54.7417C433.006 54.7417 431.396 52.7389 431.396 49.4633C431.396 46.0567 433.043 44.1475 435.626 44.1475C436.73 44.1475 437.648 44.6154 438.265 45.5139V40.9842H440.661V54.4609H438.265V53.3192C437.629 54.2363 436.73 54.7417 435.626 54.7417ZM436.057 52.7576C437.498 52.7576 438.265 51.5971 438.265 49.4633C438.265 47.3295 437.46 46.1316 436.057 46.1316C434.634 46.1316 433.867 47.3108 433.867 49.4633C433.867 51.5784 434.653 52.7576 436.057 52.7576ZM452.003 51.1853C451.46 53.5063 449.663 54.7417 447.267 54.7417C444.235 54.7417 442.382 52.7389 442.382 49.4633C442.382 46.0567 444.253 44.1475 447.173 44.1475C450.112 44.1475 451.928 46.1316 451.928 49.3697V49.9313H444.852C444.965 51.7656 445.807 52.7763 447.267 52.7763C448.39 52.7763 449.157 52.2523 449.476 51.1853H452.003ZM447.173 46.1128C445.901 46.1128 445.133 46.9177 444.909 48.4338H449.419C449.195 46.9364 448.427 46.1128 447.173 46.1128ZM456.121 58.5788H453.726V44.4283H456.121V45.57C456.758 44.6529 457.656 44.1475 458.761 44.1475C461.381 44.1475 462.991 46.1503 462.991 49.4259C462.991 52.8325 461.344 54.7417 458.761 54.7417C457.656 54.7417 456.739 54.2738 456.121 53.3753V58.5788ZM458.33 46.1316C456.889 46.1316 456.121 47.2921 456.121 49.4259C456.121 51.5597 456.926 52.7576 458.33 52.7576C459.753 52.7576 460.52 51.5784 460.52 49.4259C460.52 47.3108 459.734 46.1316 458.33 46.1316ZM469.072 54.7417C466.096 54.7417 464.262 52.7389 464.262 49.4633C464.262 46.0567 466.152 44.1475 469.072 44.1475C472.029 44.1475 473.864 46.169 473.864 49.4633C473.864 52.8325 471.973 54.7417 469.072 54.7417ZM469.072 52.7576C470.588 52.7576 471.393 51.5971 471.393 49.4633C471.393 47.3295 470.569 46.1316 469.072 46.1316C467.537 46.1316 466.732 47.3108 466.732 49.4633C466.732 51.5784 467.556 52.7576 469.072 52.7576ZM477.608 47.1236C477.608 49.4259 483.935 47.4792 483.935 51.5035C483.935 53.4315 482.157 54.7417 479.649 54.7417C477.178 54.7417 475.4 53.5999 475.044 51.1853H477.44C477.608 52.271 478.469 52.8887 479.723 52.8887C480.903 52.8887 481.52 52.3833 481.52 51.6533C481.52 49.4072 475.325 51.3351 475.325 47.2733C475.325 45.6449 476.598 44.1475 479.218 44.1475C481.52 44.1475 483.261 45.2331 483.561 47.7226H481.165C480.977 46.5059 480.266 46.0193 479.124 46.0193C478.17 46.0193 477.608 46.4872 477.608 47.1236ZM485.568 43.3052V40.9842H487.963V43.3052H485.568ZM485.568 54.4609V44.4283H487.963V54.4609H485.568ZM490.474 51.3351V46.2813H489.182V44.4283H490.474V42.126H492.87V44.4283H494.985V46.2813H492.87V51.1292C492.87 52.1774 493.169 52.7389 494.498 52.7389H494.947V54.4984C494.685 54.6294 494.142 54.7417 493.487 54.7417C491.447 54.7417 490.474 53.5812 490.474 51.3351ZM508.862 54.4609L507.046 47.7413L506.859 46.5621L506.634 47.7413L504.838 54.4609H501.861L499.073 44.4283H501.637L503.247 51.5035L503.49 52.7202L503.771 51.5035L505.699 44.4283H508.188L510.116 51.5035L510.359 52.6828L510.584 51.5035L512.212 44.4283H514.664L511.857 54.4609H508.862ZM515.947 43.3052V40.9842H518.343V43.3052H515.947ZM515.947 54.4609V44.4283H518.343V54.4609H515.947ZM520.853 51.3351V46.2813H519.562V44.4283H520.853V42.126H523.249V44.4283H525.364V46.2813H523.249V51.1292C523.249 52.1774 523.549 52.7389 524.878 52.7389H525.327V54.4984C525.065 54.6294 524.522 54.7417 523.867 54.7417C521.827 54.7417 520.853 53.5812 520.853 51.3351ZM526.768 54.4609V40.9842H529.164V45.7759C529.819 44.6903 530.868 44.1475 532.14 44.1475C534.143 44.1475 535.51 45.3454 535.51 47.7787V54.4609H533.114V48.2654C533.114 46.899 532.533 46.1316 531.317 46.1316C529.988 46.1316 529.164 47.2921 529.164 48.6397V54.4609H526.768ZM541.318 54.4609V40.9842H543.714V54.4609H541.318ZM550.249 54.7417C547.273 54.7417 545.439 52.7389 545.439 49.4633C545.439 46.0567 547.329 44.1475 550.249 44.1475C553.206 44.1475 555.041 46.169 555.041 49.4633C555.041 52.8325 553.15 54.7417 550.249 54.7417ZM550.249 52.7576C551.765 52.7576 552.57 51.5971 552.57 49.4633C552.57 47.3295 551.746 46.1316 550.249 46.1316C548.714 46.1316 547.909 47.3108 547.909 49.4633C547.909 51.5784 548.733 52.7576 550.249 52.7576ZM565.468 47.9846H563.072C562.847 46.6744 562.061 46.1316 561.05 46.1316C559.571 46.1316 558.785 47.3108 558.785 49.4633C558.785 51.5784 559.609 52.7576 561.125 52.7576C562.154 52.7576 562.884 52.1961 563.128 51.0543H565.542C565.093 53.5625 563.334 54.7417 561.069 54.7417C558.111 54.7417 556.315 52.7202 556.315 49.4633C556.315 46.0567 558.168 44.1475 561.05 44.1475C563.334 44.1475 565.131 45.4203 565.468 47.9846ZM567.202 54.4609V40.9842H569.597V48.621L573.229 44.4283H576.036L571.993 48.8831L576.317 54.4609H573.378L569.597 49.6131V54.4609H567.202Z" fill="#334155"/>
    <rect x="789.76" y="363.532" width="249.765" height="69.1685" rx="34.5842" fill="#CBD5E1"/>
    <rect x="789.76" y="363.532" width="249.765" height="69.1685" rx="34.5842" stroke="url(#paint0_linear_3657_10095)" stroke-width="1.75478" stroke-dasharray="1.81 1.81"/>
    <rect x="802.922" y="374.23" width="47.7704" height="47.7702" rx="23.8851" fill="#64748B"/>
    <path d="M826.81 401.747C830.821 401.747 834.073 398.495 834.073 394.484C834.073 390.473 830.821 387.221 826.81 387.221C822.799 387.221 819.547 390.473 819.547 394.484C819.547 398.495 822.799 401.747 826.81 401.747Z" stroke="#010207" stroke-width="1.81579" stroke-miterlimit="10"/>
    <path d="M815.797 408.102C816.912 406.17 818.517 404.565 820.449 403.449C822.382 402.334 824.574 401.746 826.805 401.746C829.036 401.746 831.229 402.334 833.161 403.449C835.093 404.565 836.698 406.17 837.813 408.102" stroke="#010207" stroke-width="1.81579" stroke-linecap="round" stroke-linejoin="round"/>
    <path d="M867.59 382.588C867.59 385.639 875.208 383.168 875.208 388.372C875.208 390.936 873.111 392.396 870.229 392.396C867.328 392.396 865.269 391.048 864.782 388.278H867.421C867.739 389.626 868.713 390.374 870.248 390.374C871.82 390.374 872.625 389.719 872.625 388.69C872.625 385.452 865.025 387.885 865.025 382.813C865.025 380.791 866.691 379.106 869.705 379.106C872.269 379.106 874.44 380.342 874.852 383.206H872.176C871.876 381.783 870.996 381.128 869.63 381.128C868.357 381.128 867.59 381.708 867.59 382.588ZM877.213 388.989V383.936H875.922V382.083H877.213V379.78H879.609V382.083H881.724V383.936H879.609V388.783C879.609 389.832 879.909 390.393 881.238 390.393H881.687V392.153C881.425 392.284 880.882 392.396 880.227 392.396C878.187 392.396 877.213 391.236 877.213 388.989ZM885.449 385.377H883.035C883.353 383.149 884.981 381.802 887.508 381.802C890.297 381.802 891.72 383.449 891.72 385.77V389.663C891.72 390.899 891.832 391.591 892.019 392.115H889.53C889.399 391.778 889.342 391.292 889.324 390.749C888.5 391.909 887.265 392.396 886.067 392.396C884.101 392.396 882.698 391.423 882.698 389.495C882.698 388.128 883.465 387.099 885 386.594C886.329 386.144 887.62 386.032 889.305 386.013V385.77C889.305 384.478 888.687 383.786 887.358 383.786C886.217 383.786 885.599 384.422 885.449 385.377ZM885.112 389.364C885.112 390.131 885.711 390.618 886.685 390.618C888.163 390.618 889.305 389.42 889.305 387.922V387.492C885.898 387.548 885.112 388.353 885.112 389.364ZM894.004 392.115V378.638H896.4V386.275L900.031 382.083H902.839L898.796 386.537L903.12 392.115H900.181L896.4 387.267V392.115H894.004ZM912.772 388.84C912.229 391.161 910.432 392.396 908.036 392.396C905.004 392.396 903.151 390.393 903.151 387.118C903.151 383.711 905.023 381.802 907.943 381.802C910.881 381.802 912.697 383.786 912.697 387.024V387.586H905.622C905.734 389.42 906.576 390.431 908.036 390.431C909.159 390.431 909.927 389.907 910.245 388.84H912.772ZM907.943 383.767C906.67 383.767 905.902 384.572 905.678 386.088H910.189C909.964 384.591 909.197 383.767 907.943 383.767ZM914.495 392.115V382.083H916.891V383.543C917.546 382.345 918.557 381.802 919.642 381.802C920.054 381.802 920.428 381.914 920.616 382.083V384.16C920.297 384.067 919.942 384.029 919.511 384.029C917.696 384.029 916.891 385.115 916.891 386.781V392.115H914.495ZM936.674 383.318H934.035C933.642 381.933 932.575 381.203 931.152 381.203C929.018 381.203 927.783 382.944 927.783 385.77C927.783 388.615 929 390.3 931.152 390.3C932.5 390.3 933.567 389.607 933.997 388.278H936.655C935.981 390.936 933.791 392.396 931.189 392.396C927.465 392.396 925.2 389.888 925.2 385.77C925.2 381.671 927.502 379.106 931.227 379.106C933.866 379.106 936.094 380.548 936.674 383.318ZM942.023 392.115V382.083H944.419V383.374C945.055 382.326 946.029 381.802 947.208 381.802C948.481 381.802 949.473 382.363 949.978 383.505C950.652 382.363 951.719 381.802 953.01 381.802C954.938 381.802 956.249 383 956.249 385.433V392.115H953.853V385.92C953.853 384.553 953.347 383.786 952.28 383.786C951.082 383.786 950.334 384.946 950.334 386.294V392.115H947.938V385.92C947.938 384.553 947.432 383.786 946.366 383.786C945.168 383.786 944.419 384.946 944.419 386.294V392.115H942.023ZM960.777 385.377H958.362C958.681 383.149 960.309 381.802 962.836 381.802C965.625 381.802 967.047 383.449 967.047 385.77V389.663C967.047 390.899 967.16 391.591 967.347 392.115H964.857C964.726 391.778 964.67 391.292 964.651 390.749C963.828 391.909 962.593 392.396 961.395 392.396C959.429 392.396 958.025 391.423 958.025 389.495C958.025 388.128 958.793 387.099 960.328 386.594C961.657 386.144 962.948 386.032 964.633 386.013V385.77C964.633 384.478 964.015 383.786 962.686 383.786C961.544 383.786 960.927 384.422 960.777 385.377ZM960.44 389.364C960.44 390.131 961.039 390.618 962.012 390.618C963.491 390.618 964.633 389.42 964.633 387.922V387.492C961.226 387.548 960.44 388.353 960.44 389.364ZM969.332 392.115V378.638H971.728V386.275L975.359 382.083H978.167L974.124 386.537L978.447 392.115H975.509L971.728 387.267V392.115H969.332ZM979.714 380.959V378.638H982.11V380.959H979.714ZM979.714 392.115V382.083H982.11V392.115H979.714ZM984.302 392.115V382.083H986.698V383.43C987.353 382.345 988.402 381.802 989.674 381.802C991.677 381.802 993.044 383 993.044 385.433V392.115H990.648V385.92C990.648 384.553 990.067 383.786 988.851 383.786C987.522 383.786 986.698 384.946 986.698 386.294V392.115H984.302ZM998.901 392.153C996.356 392.153 994.784 390.187 994.784 386.987C994.784 383.655 996.393 381.802 998.901 381.802C1000.1 381.802 1001.04 382.251 1001.65 383.093V382.083H1004.05V392.433C1004.05 395.147 1002.18 396.533 999.688 396.533C997.217 396.533 995.42 395.391 995.064 393.014H997.479C997.629 394.081 998.49 394.642 999.65 394.642C1000.85 394.642 1001.65 394.062 1001.65 392.471V390.786C1001 391.685 1000.06 392.153 998.901 392.153ZM999.444 390.169C1000.89 390.169 1001.65 389.046 1001.65 386.987C1001.65 384.946 1000.85 383.786 999.444 383.786C998.022 383.786 997.254 384.909 997.254 386.987C997.254 389.027 998.022 390.169 999.444 390.169ZM1012.18 385.377H1009.76C1010.08 383.149 1011.71 381.802 1014.24 381.802C1017.03 381.802 1018.45 383.449 1018.45 385.77V389.663C1018.45 390.899 1018.56 391.591 1018.75 392.115H1016.26C1016.13 391.778 1016.07 391.292 1016.05 390.749C1015.23 391.909 1013.99 392.396 1012.8 392.396C1010.83 392.396 1009.43 391.423 1009.43 389.495C1009.43 388.128 1010.19 387.099 1011.73 386.594C1013.06 386.144 1014.35 386.032 1016.03 386.013V385.77C1016.03 384.478 1015.42 383.786 1014.09 383.786C1012.94 383.786 1012.33 384.422 1012.18 385.377ZM1011.84 389.364C1011.84 390.131 1012.44 390.618 1013.41 390.618C1014.89 390.618 1016.03 389.42 1016.03 387.922V387.492C1012.63 387.548 1011.84 388.353 1011.84 389.364ZM893.008 417.115V407.083H895.404V408.543C896.059 407.345 897.07 406.802 898.155 406.802C898.567 406.802 898.941 406.914 899.129 407.083V409.16C898.81 409.067 898.455 409.029 898.024 409.029C896.209 409.029 895.404 410.115 895.404 411.781V417.115H893.008ZM909.363 413.84C908.82 416.161 907.023 417.396 904.627 417.396C901.595 417.396 899.742 415.393 899.742 412.118C899.742 408.711 901.614 406.802 904.534 406.802C907.472 406.802 909.288 408.786 909.288 412.024V412.586H902.213C902.325 414.42 903.167 415.431 904.627 415.431C905.75 415.431 906.518 414.907 906.836 413.84H909.363ZM904.534 408.767C903.261 408.767 902.493 409.572 902.269 411.088H906.78C906.555 409.591 905.788 408.767 904.534 408.767ZM914.848 417.396C912.228 417.396 910.618 415.393 910.618 412.118C910.618 408.711 912.265 406.802 914.848 406.802C915.952 406.802 916.87 407.27 917.487 408.168V403.638H919.883V417.115H917.487V415.973C916.851 416.891 915.952 417.396 914.848 417.396ZM915.279 415.412C916.72 415.412 917.487 414.251 917.487 412.118C917.487 409.984 916.682 408.786 915.279 408.786C913.856 408.786 913.089 409.965 913.089 412.118C913.089 414.233 913.875 415.412 915.279 415.412ZM931.225 413.84C930.682 416.161 928.885 417.396 926.489 417.396C923.457 417.396 921.604 415.393 921.604 412.118C921.604 408.711 923.475 406.802 926.395 406.802C929.334 406.802 931.15 408.786 931.15 412.024V412.586H924.074C924.187 414.42 925.029 415.431 926.489 415.431C927.612 415.431 928.379 414.907 928.698 413.84H931.225ZM926.395 408.767C925.123 408.767 924.355 409.572 924.131 411.088H928.641C928.417 409.591 927.649 408.767 926.395 408.767ZM932.948 417.115V407.083H935.343V408.374C935.98 407.326 936.953 406.802 938.132 406.802C939.405 406.802 940.397 407.363 940.903 408.505C941.576 407.363 942.643 406.802 943.935 406.802C945.863 406.802 947.173 408 947.173 410.433V417.115H944.777V410.92C944.777 409.553 944.272 408.786 943.205 408.786C942.007 408.786 941.258 409.946 941.258 411.294V417.115H938.862V410.92C938.862 409.553 938.357 408.786 937.29 408.786C936.092 408.786 935.343 409.946 935.343 411.294V417.115H932.948ZM951.776 421.233H949.38V407.083H951.776V408.224C952.413 407.307 953.311 406.802 954.415 406.802C957.036 406.802 958.646 408.805 958.646 412.08C958.646 415.487 956.998 417.396 954.415 417.396C953.311 417.396 952.394 416.928 951.776 416.03V421.233ZM953.985 408.786C952.544 408.786 951.776 409.946 951.776 412.08C951.776 414.214 952.581 415.412 953.985 415.412C955.407 415.412 956.175 414.233 956.175 412.08C956.175 409.965 955.389 408.786 953.985 408.786ZM960.703 413.989V408.936H959.411V407.083H960.703V404.78H963.098V407.083H965.213V408.936H963.098V413.783C963.098 414.832 963.398 415.393 964.727 415.393H965.176V417.153C964.914 417.284 964.371 417.396 963.716 417.396C961.676 417.396 960.703 416.236 960.703 413.989ZM966.617 405.959V403.638H969.013V405.959H966.617ZM966.617 417.115V407.083H969.013V417.115H966.617ZM975.548 417.396C972.572 417.396 970.738 415.393 970.738 412.118C970.738 408.711 972.628 406.802 975.548 406.802C978.505 406.802 980.34 408.823 980.34 412.118C980.34 415.487 978.449 417.396 975.548 417.396ZM975.548 415.412C977.064 415.412 977.869 414.251 977.869 412.118C977.869 409.984 977.045 408.786 975.548 408.786C974.013 408.786 973.208 409.965 973.208 412.118C973.208 414.233 974.032 415.412 975.548 415.412ZM982.081 417.115V407.083H984.477V408.43C985.132 407.345 986.181 406.802 987.453 406.802C989.456 406.802 990.823 408 990.823 410.433V417.115H988.427V410.92C988.427 409.553 987.847 408.786 986.63 408.786C985.301 408.786 984.477 409.946 984.477 411.294V417.115H982.081Z" fill="#1E293B"/>
    <rect x="346.68" y="362.654" width="266.727" height="70.9233" rx="35.4616" fill="#E2E8F0"/>
    <rect x="364.836" y="379.398" width="37.4354" height="37.4354" rx="18.7177" fill="#94A3B8"/>
    <path fill-rule="evenodd" clip-rule="evenodd" d="M383.544 398.806C381.143 398.806 379.195 396.825 379.195 394.381C379.195 392.095 380.901 390.213 383.089 389.981C383.233 389.967 383.379 389.959 383.526 389.959C385.927 389.959 387.875 391.939 387.875 394.383C387.875 396.67 386.168 398.551 383.98 398.784C383.836 398.798 383.691 398.806 383.544 398.806ZM392.31 407.024L392.321 407.159C392.319 407.117 392.312 407.077 392.309 407.035C392.302 407.441 391.978 407.769 391.577 407.769C391.173 407.769 390.845 407.435 390.845 407.024H390.843C390.479 403.25 387.353 400.302 383.547 400.3L383.544 400.299C383.538 400.299 383.532 400.3 383.526 400.3C380.313 400.3 377.709 397.651 377.709 394.383C377.709 391.116 380.313 388.467 383.526 388.467C383.528 388.467 383.532 388.468 383.534 388.468C383.538 388.468 383.54 388.467 383.544 388.467C386.755 388.467 389.358 391.115 389.358 394.381C389.358 395.603 388.985 396.731 388.359 397.672C388.353 397.682 388.348 397.691 388.341 397.7C388.249 397.837 388.153 397.968 388.05 398.095C388.016 398.14 387.979 398.183 387.943 398.226C387.849 398.335 387.756 398.443 387.656 398.547C387.583 398.621 387.504 398.691 387.427 398.762C387.312 398.866 387.196 398.968 387.074 399.063C386.952 399.159 386.828 399.252 386.698 399.338C386.674 399.354 386.654 399.372 386.631 399.387C389.701 400.559 391.951 403.421 392.291 406.861C392.302 406.913 392.31 406.968 392.31 407.024ZM382.088 403.04C382.483 403.04 382.803 403.36 382.803 403.755C382.803 404.149 382.483 404.47 382.088 404.47H379.504V407.054C379.504 407.449 379.183 407.769 378.788 407.769C378.394 407.769 378.073 407.449 378.073 407.054V404.47H375.489C375.094 404.47 374.773 404.149 374.773 403.755C374.773 403.36 375.094 403.04 375.489 403.04H378.073V400.455C378.073 400.06 378.394 399.74 378.788 399.74C379.183 399.74 379.504 400.06 379.504 400.455V403.04H382.088Z" fill="#E2E8F0"/>
    <path d="M429.751 382.588C429.751 385.639 437.369 383.168 437.369 388.372C437.369 390.936 435.273 392.396 432.391 392.396C429.489 392.396 427.43 391.048 426.944 388.278H429.583C429.901 389.626 430.874 390.374 432.409 390.374C433.982 390.374 434.786 389.719 434.786 388.69C434.786 385.452 427.187 387.885 427.187 382.813C427.187 380.791 428.853 379.106 431.866 379.106C434.431 379.106 436.602 380.342 437.014 383.206H434.337C434.038 381.783 433.158 381.128 431.792 381.128C430.519 381.128 429.751 381.708 429.751 382.588ZM439.375 388.989V383.936H438.083V382.083H439.375V379.78H441.771V382.083H443.886V383.936H441.771V388.783C441.771 389.832 442.07 390.393 443.399 390.393H443.848V392.153C443.586 392.284 443.044 392.396 442.388 392.396C440.348 392.396 439.375 391.236 439.375 388.989ZM447.611 385.377H445.196C445.514 383.149 447.143 381.802 449.67 381.802C452.459 381.802 453.881 383.449 453.881 385.77V389.663C453.881 390.899 453.994 391.591 454.181 392.115H451.691C451.56 391.778 451.504 391.292 451.485 390.749C450.662 391.909 449.426 392.396 448.228 392.396C446.263 392.396 444.859 391.423 444.859 389.495C444.859 388.128 445.627 387.099 447.162 386.594C448.491 386.144 449.782 386.032 451.467 386.013V385.77C451.467 384.478 450.849 383.786 449.52 383.786C448.378 383.786 447.761 384.422 447.611 385.377ZM447.274 389.364C447.274 390.131 447.873 390.618 448.846 390.618C450.325 390.618 451.467 389.42 451.467 387.922V387.492C448.06 387.548 447.274 388.353 447.274 389.364ZM456.166 392.115V378.638H458.562V386.275L462.193 382.083H465.001L460.958 386.537L465.281 392.115H462.343L458.562 387.267V392.115H456.166ZM474.934 388.84C474.391 391.161 472.594 392.396 470.198 392.396C467.166 392.396 465.313 390.393 465.313 387.118C465.313 383.711 467.184 381.802 470.104 381.802C473.043 381.802 474.859 383.786 474.859 387.024V387.586H467.783C467.896 389.42 468.738 390.431 470.198 390.431C471.321 390.431 472.088 389.907 472.407 388.84H474.934ZM470.104 383.767C468.832 383.767 468.064 384.572 467.84 386.088H472.35C472.126 384.591 471.358 383.767 470.104 383.767ZM476.657 392.115V382.083H479.052V383.543C479.708 382.345 480.718 381.802 481.804 381.802C482.216 381.802 482.59 381.914 482.777 382.083V384.16C482.459 384.067 482.103 384.029 481.673 384.029C479.857 384.029 479.052 385.115 479.052 386.781V392.115H476.657ZM487.792 392.115V379.387H492.696C495.485 379.387 497.226 380.754 497.226 382.925C497.226 384.048 496.664 384.909 495.672 385.396C497.132 385.882 497.937 386.968 497.937 388.428C497.937 390.768 496.252 392.115 493.332 392.115H487.792ZM492.64 381.39H490.319V384.684H492.584C493.931 384.684 494.643 384.029 494.643 383.056C494.643 382.026 493.913 381.39 492.64 381.39ZM493.127 386.556H490.319V390.112H493.276C494.586 390.112 495.354 389.401 495.354 388.334C495.354 387.267 494.549 386.556 493.127 386.556ZM503.271 392.115V382.083H505.667V383.374C506.303 382.326 507.276 381.802 508.456 381.802C509.728 381.802 510.72 382.363 511.226 383.505C511.9 382.363 512.967 381.802 514.258 381.802C516.186 381.802 517.496 383 517.496 385.433V392.115H515.1V385.92C515.1 384.553 514.595 383.786 513.528 383.786C512.33 383.786 511.581 384.946 511.581 386.294V392.115H509.186V385.92C509.186 384.553 508.68 383.786 507.613 383.786C506.415 383.786 505.667 384.946 505.667 386.294V392.115H503.271ZM522.025 385.377H519.61C519.928 383.149 521.557 381.802 524.084 381.802C526.872 381.802 528.295 383.449 528.295 385.77V389.663C528.295 390.899 528.407 391.591 528.594 392.115H526.105C525.974 391.778 525.918 391.292 525.899 390.749C525.076 391.909 523.84 392.396 522.642 392.396C520.677 392.396 519.273 391.423 519.273 389.495C519.273 388.128 520.041 387.099 521.575 386.594C522.904 386.144 524.196 386.032 525.88 386.013V385.77C525.88 384.478 525.263 383.786 523.934 383.786C522.792 383.786 522.174 384.422 522.025 385.377ZM521.688 389.364C521.688 390.131 522.287 390.618 523.26 390.618C524.739 390.618 525.88 389.42 525.88 387.922V387.492C522.474 387.548 521.688 388.353 521.688 389.364ZM530.58 392.115V378.638H532.975V386.275L536.607 382.083H539.414L535.371 386.537L539.695 392.115H536.756L532.975 387.267V392.115H530.58ZM540.962 380.959V378.638H543.358V380.959H540.962ZM540.962 392.115V382.083H543.358V392.115H540.962ZM545.55 392.115V382.083H547.946V383.43C548.601 382.345 549.649 381.802 550.922 381.802C552.925 381.802 554.291 383 554.291 385.433V392.115H551.895V385.92C551.895 384.553 551.315 383.786 550.098 383.786C548.77 383.786 547.946 384.946 547.946 386.294V392.115H545.55ZM560.149 392.153C557.604 392.153 556.031 390.187 556.031 386.987C556.031 383.655 557.641 381.802 560.149 381.802C561.347 381.802 562.283 382.251 562.901 383.093V382.083H565.297V392.433C565.297 395.147 563.425 396.533 560.935 396.533C558.465 396.533 556.668 395.391 556.312 393.014H558.727C558.876 394.081 559.737 394.642 560.898 394.642C562.096 394.642 562.901 394.062 562.901 392.471V390.786C562.246 391.685 561.31 392.153 560.149 392.153ZM560.692 390.169C562.133 390.169 562.901 389.046 562.901 386.987C562.901 384.946 562.096 383.786 560.692 383.786C559.269 383.786 558.502 384.909 558.502 386.987C558.502 389.027 559.269 390.169 560.692 390.169ZM573.425 385.377H571.011C571.329 383.149 572.957 381.802 575.484 381.802C578.273 381.802 579.696 383.449 579.696 385.77V389.663C579.696 390.899 579.808 391.591 579.995 392.115H577.506C577.375 391.778 577.318 391.292 577.3 390.749C576.476 391.909 575.241 392.396 574.043 392.396C572.077 392.396 570.674 391.423 570.674 389.495C570.674 388.128 571.441 387.099 572.976 386.594C574.305 386.144 575.596 386.032 577.281 386.013V385.77C577.281 384.478 576.663 383.786 575.334 383.786C574.193 383.786 573.575 384.422 573.425 385.377ZM573.088 389.364C573.088 390.131 573.687 390.618 574.66 390.618C576.139 390.618 577.281 389.42 577.281 387.922V387.492C573.874 387.548 573.088 388.353 573.088 389.364ZM421.652 417.396C419.031 417.396 417.422 415.393 417.422 412.118C417.422 408.711 419.069 406.802 421.652 406.802C422.756 406.802 423.673 407.27 424.291 408.168V403.638H426.687V417.115H424.291V415.973C423.655 416.891 422.756 417.396 421.652 417.396ZM422.082 415.412C423.524 415.412 424.291 414.251 424.291 412.118C424.291 409.984 423.486 408.786 422.082 408.786C420.66 408.786 419.892 409.965 419.892 412.118C419.892 414.233 420.679 415.412 422.082 415.412ZM438.028 413.84C437.485 416.161 435.689 417.396 433.293 417.396C430.26 417.396 428.407 415.393 428.407 412.118C428.407 408.711 430.279 406.802 433.199 406.802C436.138 406.802 437.953 408.786 437.953 412.024V412.586H430.878C430.99 414.42 431.833 415.431 433.293 415.431C434.416 415.431 435.183 414.907 435.501 413.84H438.028ZM433.199 408.767C431.926 408.767 431.159 409.572 430.934 411.088H435.445C435.221 409.591 434.453 408.767 433.199 408.767ZM442.147 421.233H439.751V407.083H442.147V408.224C442.784 407.307 443.682 406.802 444.786 406.802C447.407 406.802 449.017 408.805 449.017 412.08C449.017 415.487 447.369 417.396 444.786 417.396C443.682 417.396 442.765 416.928 442.147 416.03V421.233ZM444.356 408.786C442.915 408.786 442.147 409.946 442.147 412.08C442.147 414.214 442.952 415.412 444.356 415.412C445.778 415.412 446.546 414.233 446.546 412.08C446.546 409.965 445.76 408.786 444.356 408.786ZM455.098 417.396C452.122 417.396 450.287 415.393 450.287 412.118C450.287 408.711 452.178 406.802 455.098 406.802C458.055 406.802 459.889 408.823 459.889 412.118C459.889 415.487 457.999 417.396 455.098 417.396ZM455.098 415.412C456.614 415.412 457.419 414.251 457.419 412.118C457.419 409.984 456.595 408.786 455.098 408.786C453.563 408.786 452.758 409.965 452.758 412.118C452.758 414.233 453.582 415.412 455.098 415.412ZM463.634 409.778C463.634 412.08 469.961 410.134 469.961 414.158C469.961 416.086 468.182 417.396 465.674 417.396C463.204 417.396 461.425 416.254 461.07 413.84H463.466C463.634 414.925 464.495 415.543 465.749 415.543C466.928 415.543 467.546 415.038 467.546 414.308C467.546 412.061 461.35 413.989 461.35 409.928C461.35 408.299 462.623 406.802 465.244 406.802C467.546 406.802 469.287 407.887 469.586 410.377H467.19C467.003 409.16 466.292 408.674 465.15 408.674C464.196 408.674 463.634 409.141 463.634 409.778ZM471.593 405.959V403.638H473.989V405.959H471.593ZM471.593 417.115V407.083H473.989V417.115H471.593ZM476.5 413.989V408.936H475.208V407.083H476.5V404.78H478.895V407.083H481.01V408.936H478.895V413.783C478.895 414.832 479.195 415.393 480.524 415.393H480.973V417.153C480.711 417.284 480.168 417.396 479.513 417.396C477.473 417.396 476.5 416.236 476.5 413.989ZM494.888 417.115L493.072 410.396L492.885 409.216L492.66 410.396L490.863 417.115H487.887L485.098 407.083H487.663L489.272 414.158L489.516 415.374L489.796 414.158L491.724 407.083H494.214L496.142 414.158L496.385 415.337L496.61 414.158L498.238 407.083H500.69L497.882 417.115H494.888ZM501.973 405.959V403.638H504.369V405.959H501.973ZM501.973 417.115V407.083H504.369V417.115H501.973ZM506.879 413.989V408.936H505.588V407.083H506.879V404.78H509.275V407.083H511.39V408.936H509.275V413.783C509.275 414.832 509.575 415.393 510.903 415.393H511.353V417.153C511.091 417.284 510.548 417.396 509.893 417.396C507.853 417.396 506.879 416.236 506.879 413.989ZM512.794 417.115V403.638H515.19V408.43C515.845 407.345 516.893 406.802 518.166 406.802C520.169 406.802 521.535 408 521.535 410.433V417.115H519.139V410.92C519.139 409.553 518.559 408.786 517.343 408.786C516.014 408.786 515.19 409.946 515.19 411.294V417.115H512.794ZM528.086 417.396C525.11 417.396 523.275 415.393 523.275 412.118C523.275 408.711 525.166 406.802 528.086 406.802C531.043 406.802 532.877 408.823 532.877 412.118C532.877 415.487 530.987 417.396 528.086 417.396ZM528.086 415.412C529.602 415.412 530.407 414.251 530.407 412.118C530.407 409.984 529.583 408.786 528.086 408.786C526.551 408.786 525.746 409.965 525.746 412.118C525.746 414.233 526.57 415.412 528.086 415.412ZM540.852 412.904V407.083H543.248V417.115H540.852V415.768C540.197 416.872 539.168 417.396 537.932 417.396C535.948 417.396 534.619 416.198 534.619 413.783V407.083H537.015V413.297C537.015 414.663 537.577 415.412 538.756 415.412C540.047 415.412 540.852 414.251 540.852 412.904ZM545.777 413.989V408.936H544.485V407.083H545.777V404.78H548.173V407.083H550.288V408.936H548.173V413.783C548.173 414.832 548.472 415.393 549.801 415.393H550.25V417.153C549.988 417.284 549.446 417.396 548.79 417.396C546.75 417.396 545.777 416.236 545.777 413.989ZM555.293 417.115V403.638H557.689V417.115H555.293ZM564.223 417.396C561.247 417.396 559.413 415.393 559.413 412.118C559.413 408.711 561.303 406.802 564.223 406.802C567.181 406.802 569.015 408.823 569.015 412.118C569.015 415.487 567.125 417.396 564.223 417.396ZM564.223 415.412C565.739 415.412 566.544 414.251 566.544 412.118C566.544 409.984 565.721 408.786 564.223 408.786C562.688 408.786 561.884 409.965 561.884 412.118C561.884 414.233 562.707 415.412 564.223 415.412ZM579.442 410.639H577.046C576.821 409.329 576.035 408.786 575.024 408.786C573.546 408.786 572.76 409.965 572.76 412.118C572.76 414.233 573.583 415.412 575.099 415.412C576.129 415.412 576.859 414.85 577.102 413.709H579.517C579.067 416.217 577.308 417.396 575.043 417.396C572.086 417.396 570.289 415.374 570.289 412.118C570.289 408.711 572.142 406.802 575.024 406.802C577.308 406.802 579.105 408.075 579.442 410.639ZM581.176 417.115V403.638H583.572V411.275L587.203 407.083H590.011L585.968 411.537L590.291 417.115H587.353L583.572 412.267V417.115H581.176Z" fill="#334155"/>
    <rect x="0.398438" y="7.01758" width="143.089" height="56.2893" rx="28.1447" fill="#3B82F6"/>
    <rect x="10.1016" y="14.1055" width="42.1149" height="42.1147" rx="21.0574" fill="#2563EB"/>
    <path d="M31.1618 38.0872C34.3923 38.0872 37.0111 35.4684 37.0111 32.2379C37.0111 29.0075 34.3923 26.3887 31.1618 26.3887C27.9313 26.3887 25.3125 29.0075 25.3125 32.2379C25.3125 35.4684 27.9313 38.0872 31.1618 38.0872Z" stroke="#F8FAFC" stroke-width="1.46232" stroke-miterlimit="10"/>
    <path d="M22.2969 43.2068C23.1952 41.6505 24.4875 40.3581 26.0437 39.4595C27.5999 38.561 29.3652 38.0879 31.1622 38.0879C32.9592 38.0879 34.7245 38.561 36.2807 39.4595C37.8369 40.3581 39.1292 41.6505 40.0275 43.2068" stroke="#F8FAFC" stroke-width="1.46232" stroke-linecap="round" stroke-linejoin="round"/>
    <path d="M68.2895 43.1621V31.1804H63.6779V28.8431H75.7438V31.1804H71.1322V43.1621H68.2895ZM76.6695 43.1621V31.8753H79.3649V33.5178C80.1019 32.1701 81.239 31.5595 82.4603 31.5595C82.9236 31.5595 83.3447 31.6858 83.5553 31.8753V34.2127C83.1973 34.1074 82.7972 34.0653 82.3129 34.0653C80.2703 34.0653 79.3649 35.2866 79.3649 37.1608V43.1621H76.6695ZM87.4651 35.5814H84.7486C85.1066 33.0756 86.9386 31.5595 89.7814 31.5595C92.9189 31.5595 94.5193 33.4125 94.5193 36.0237V40.4036C94.5193 41.7934 94.6456 42.5725 94.8562 43.1621H92.0556C91.9082 42.7831 91.845 42.2356 91.8239 41.6249C90.8974 42.9305 89.5076 43.478 88.1599 43.478C85.9489 43.478 84.3696 42.383 84.3696 40.2141C84.3696 38.6769 85.233 37.5187 86.9597 36.9502C88.4548 36.4448 89.9077 36.3185 91.8029 36.2974V36.0237C91.8029 34.5707 91.108 33.7916 89.6129 33.7916C88.3284 33.7916 87.6335 34.5075 87.4651 35.5814ZM87.086 40.0667C87.086 40.93 87.7599 41.4775 88.8548 41.4775C90.5184 41.4775 91.8029 40.1298 91.8029 38.4453V37.9609C87.9704 38.0241 87.086 38.9296 87.086 40.0667ZM101.322 43.478C98.3739 43.478 96.563 41.2248 96.563 37.5398C96.563 33.7073 98.416 31.5595 101.322 31.5595C102.564 31.5595 103.596 32.0859 104.291 33.0967V28.0008H106.986V43.1621H104.291V41.8776C103.575 42.9094 102.564 43.478 101.322 43.478ZM101.806 41.2459C103.428 41.2459 104.291 39.9403 104.291 37.5398C104.291 35.1392 103.386 33.7916 101.806 33.7916C100.206 33.7916 99.3426 35.1182 99.3426 37.5398C99.3426 39.9193 100.227 41.2459 101.806 41.2459ZM119.745 39.4771C119.135 42.0882 117.113 43.478 114.418 43.478C111.007 43.478 108.922 41.2248 108.922 37.5398C108.922 33.7073 111.028 31.5595 114.313 31.5595C117.619 31.5595 119.661 33.7916 119.661 37.4345V38.0662H111.701C111.828 40.1298 112.775 41.2669 114.418 41.2669C115.681 41.2669 116.545 40.6773 116.903 39.4771H119.745ZM114.313 33.7705C112.881 33.7705 112.017 34.676 111.765 36.3816H116.839C116.587 34.697 115.723 33.7705 114.313 33.7705ZM121.684 43.1621V31.8753H124.379V33.5178C125.116 32.1701 126.253 31.5595 127.475 31.5595C127.938 31.5595 128.359 31.6858 128.57 31.8753V34.2127C128.212 34.1074 127.812 34.0653 127.327 34.0653C125.285 34.0653 124.379 35.2866 124.379 37.1608V43.1621H121.684Z" fill="#F8FAFC"/>
    <path d="M149.313 33.6635C148.856 34.1203 148.856 34.8611 149.313 35.3179L156.758 42.7627C157.215 43.2195 157.956 43.2195 158.413 42.7626C158.869 42.3058 158.869 41.565 158.413 41.1082L151.795 34.4906L158.412 27.8728C158.869 27.4159 158.869 26.6752 158.412 26.2184C157.955 25.7615 157.215 25.7616 156.758 26.2184L149.313 33.6635ZM411.838 202.041C412.295 201.584 412.295 200.843 411.838 200.386L404.393 192.941C403.936 192.484 403.196 192.484 402.739 192.941C402.282 193.398 402.282 194.139 402.739 194.596L409.356 201.213L402.739 207.831C402.282 208.288 402.282 209.029 402.739 209.486C403.196 209.942 403.936 209.942 404.393 209.486L411.838 202.041ZM191.69 40.3151L190.863 41.1423L191.69 40.3151ZM237.287 201.213L237.287 200.044L237.287 201.213ZM203.336 195.388L202.509 196.215L203.336 195.388ZM237.287 202.383L411.011 202.383L411.011 200.044L237.287 200.044L237.287 202.383ZM150.14 35.6605L157.739 35.6604L157.739 33.3207L150.14 33.3208L150.14 35.6605ZM196.345 74.2666L196.342 161.437L198.682 161.437L198.684 74.2666L196.345 74.2666ZM157.739 35.6604C167.147 35.6602 174.086 35.6625 179.406 36.3777C184.692 37.0883 188.204 38.4833 190.863 41.1423L192.517 39.4879C189.351 36.3217 185.263 34.8043 179.717 34.0588C174.206 33.3178 167.081 33.3205 157.739 33.3207L157.739 35.6604ZM198.684 74.2666C198.685 64.9242 198.687 57.7998 197.946 52.2878C197.201 46.7422 195.684 42.654 192.517 39.4879L190.863 41.1423C193.522 43.8012 194.917 47.3134 195.628 52.5995C196.343 57.9193 196.345 64.858 196.345 74.2666L198.684 74.2666ZM237.287 200.044C227.879 200.044 220.94 200.041 215.621 199.326C210.335 198.615 206.822 197.22 204.164 194.561L202.509 196.215C205.675 199.382 209.763 200.899 215.309 201.645C220.821 202.386 227.945 202.383 237.287 202.383L237.287 200.044ZM196.342 161.437C196.342 170.78 196.339 177.904 197.08 183.416C197.826 188.961 199.343 193.049 202.509 196.215L204.164 194.561C201.505 191.902 200.11 188.39 199.399 183.104C198.684 177.784 198.682 170.846 198.682 161.437L196.342 161.437Z" fill="#3B82F6"/>
    <path d="M411.847 223.098C412.304 222.641 412.304 221.9 411.847 221.443L404.402 213.998C403.946 213.541 403.205 213.541 402.748 213.998C402.291 214.455 402.291 215.196 402.748 215.653L409.366 222.27L402.748 228.888C402.291 229.345 402.291 230.086 402.748 230.542C403.205 230.999 403.946 230.999 404.402 230.542L411.847 223.098ZM77.9879 213.704L77.1607 214.531L77.9879 213.704ZM68.252 67.8496V163.778H70.5917V67.8496H68.252ZM127.915 223.44H411.02V221.1H127.915V223.44ZM68.252 163.778C68.252 177.531 68.2495 187.964 69.3332 196.025C70.4214 204.119 72.6241 209.995 77.1607 214.531L78.8152 212.877C74.7857 208.848 72.7054 203.547 71.6521 195.713C70.5942 187.845 70.5917 177.597 70.5917 163.778H68.252ZM127.915 221.1C114.095 221.1 103.847 221.098 95.9793 220.04C88.1448 218.987 82.8446 216.906 78.8152 212.877L77.1607 214.531C81.6974 219.068 87.5736 221.271 95.6675 222.359C103.728 223.443 114.161 223.44 127.915 223.44V221.1Z" fill="url(#paint1_linear_3657_10095)"/>
    <path d="M549.407 202.727C548.95 203.184 548.95 203.925 549.407 204.382L556.852 211.827C557.309 212.284 558.05 212.284 558.507 211.827C558.963 211.37 558.963 210.629 558.507 210.172L551.889 203.555L558.507 196.937C558.963 196.48 558.963 195.739 558.507 195.283C558.05 194.826 557.309 194.826 556.852 195.283L549.407 202.727ZM926.752 210.75L927.579 209.923L926.752 210.75ZM550.234 204.725H884.814V202.385H550.234V204.725ZM932.778 252.689V357.975H935.117V252.689H932.778ZM884.814 204.725C896.428 204.725 905.021 204.727 911.614 205.614C918.175 206.496 922.581 208.233 925.925 211.577L927.579 209.923C923.728 206.072 918.746 204.212 911.926 203.295C905.14 202.382 896.361 202.385 884.814 202.385V204.725ZM935.117 252.689C935.117 241.141 935.12 232.362 934.208 225.576C933.291 218.756 931.431 213.774 927.579 209.923L925.925 211.577C929.269 214.922 931.007 219.328 931.889 225.888C932.775 232.482 932.778 241.075 932.778 252.689H935.117Z" fill="#3B82F6"/>
    <path d="M906.795 357.632C907.252 358.088 907.992 358.088 908.449 357.632L915.894 350.187C916.351 349.73 916.351 348.989 915.894 348.532C915.437 348.075 914.697 348.075 914.24 348.532L907.622 355.15L901.004 348.532C900.547 348.075 899.807 348.075 899.35 348.532C898.893 348.989 898.893 349.73 899.35 350.187L906.795 357.632ZM863.167 229.289L863.167 228.119L863.167 229.289ZM901.111 235.8L901.939 234.972L901.111 235.8ZM550.231 230.459L863.167 230.459L863.167 228.119L550.231 228.12L550.231 230.459ZM906.452 273.744L906.452 356.804L908.792 356.804L908.792 273.744L906.452 273.744ZM863.167 230.459C873.678 230.459 881.444 230.462 887.401 231.263C893.324 232.059 897.283 233.625 900.284 236.627L901.939 234.972C898.43 231.464 893.895 229.775 887.712 228.944C881.564 228.117 873.612 228.119 863.167 228.119L863.167 230.459ZM908.792 273.744C908.792 263.299 908.794 255.347 907.967 249.199C907.136 243.016 905.447 238.481 901.939 234.972L900.284 236.627C903.286 239.628 904.852 243.587 905.648 249.51C906.449 255.467 906.452 263.233 906.452 273.744L908.792 273.744Z" fill="#3B82F6"/>
    <path d="M494.483 75.2143C494.027 74.7575 493.286 74.7575 492.829 75.2143L485.384 82.6593C484.927 83.1161 484.927 83.8568 485.384 84.3137C485.841 84.7705 486.582 84.7705 487.039 84.3137L493.656 77.696L500.274 84.3137C500.731 84.7705 501.472 84.7705 501.928 84.3137C502.385 83.8568 502.385 83.1161 501.928 82.6593L494.483 75.2143ZM494.826 186.008L494.826 76.0416L492.486 76.0416L492.486 186.008L494.826 186.008Z" fill="#3B82F6"/>
    <path d="M464.759 186.834C465.216 187.291 465.956 187.291 466.413 186.834L473.858 179.39C474.315 178.933 474.315 178.192 473.858 177.735C473.401 177.278 472.66 177.278 472.204 177.735L465.586 184.353L458.968 177.735C458.511 177.278 457.771 177.278 457.314 177.735C456.857 178.192 456.857 178.933 457.314 179.39L464.759 186.834ZM464.416 76.041L464.416 186.007H466.756L466.756 76.041L464.416 76.041Z" fill="#3B82F6"/>
    <path d="M494.483 357.631C494.027 358.088 493.286 358.088 492.829 357.631L485.384 350.186C484.927 349.73 484.927 348.989 485.384 348.532C485.841 348.075 486.582 348.075 487.039 348.532L493.656 355.15L500.274 348.532C500.731 348.075 501.472 348.075 501.928 348.532C502.385 348.989 502.385 349.73 501.928 350.186L494.483 357.631ZM494.826 246.838L494.826 356.804L492.486 356.804L492.486 246.838L494.826 246.838Z" fill="#3B82F6"/>
    <path d="M464.759 246.011C465.216 245.554 465.956 245.554 466.413 246.011L473.858 253.456C474.315 253.913 474.315 254.654 473.858 255.111C473.401 255.567 472.66 255.567 472.204 255.111L465.586 248.493L458.968 255.111C458.511 255.567 457.771 255.567 457.314 255.111C456.857 254.654 456.857 253.913 457.314 253.456L464.759 246.011ZM464.416 356.805L464.416 246.838H466.756L466.756 356.805L464.416 356.805Z" fill="#3B82F6"/>
    <rect x="474.188" y="113.477" width="42.1149" height="32.7559" rx="16.378" fill="#3B82F6"/>
    <g clip-path="url(#clip0_3657_10095)">
        <path d="M490.125 131.563C490.125 130.486 490.998 129.613 492.075 129.613H498.411C499.488 129.613 500.361 130.486 500.361 131.563V134.488C500.361 135.564 499.488 136.437 498.411 136.437H492.075C490.998 136.437 490.125 135.564 490.125 134.488V131.563Z" stroke="#F8FAFC" stroke-width="1.46232"/>
        <path d="M493.047 129.392L493.047 125.226C493.047 124.15 493.92 123.277 494.997 123.277L495.484 123.277C496.561 123.277 497.434 124.15 497.434 125.226L497.434 129.613" stroke="#F8FAFC" stroke-width="1.46232"/>
        <path d="M494.258 132.991C494.254 133.119 494.275 133.247 494.32 133.367C494.365 133.487 494.433 133.596 494.521 133.69C494.608 133.783 494.713 133.859 494.83 133.912C494.947 133.964 495.073 133.994 495.2 133.998C495.328 134.002 495.456 133.981 495.576 133.936C495.696 133.891 495.805 133.823 495.899 133.735C495.992 133.648 496.068 133.543 496.121 133.426C496.173 133.31 496.203 133.184 496.207 133.056C496.211 132.928 496.19 132.8 496.145 132.681C496.1 132.561 496.032 132.451 495.944 132.358C495.857 132.264 495.752 132.189 495.635 132.136C495.519 132.083 495.393 132.054 495.265 132.049C495.137 132.045 495.009 132.066 494.89 132.111C494.77 132.156 494.66 132.224 494.567 132.312C494.473 132.399 494.398 132.504 494.345 132.621C494.292 132.738 494.263 132.864 494.258 132.991Z" fill="#F8FAFC"/>
    </g>
    <rect x="129.086" y="198.875" width="46.7943" height="46.7941" rx="23.3971" fill="url(#paint2_linear_3657_10095)"/>
    <path d="M159.501 222.273H159.513M145.463 222.273H145.474M155.991 222.273C155.991 224.211 154.42 225.783 152.482 225.783C150.544 225.783 148.972 224.211 148.972 222.273C148.972 220.335 150.544 218.763 152.482 218.763C154.42 218.763 155.991 220.335 155.991 222.273ZM144.293 215.254H160.671C161.963 215.254 163.011 216.301 163.011 217.594V226.952C163.011 228.245 161.963 229.292 160.671 229.292H144.293C143.001 229.292 141.953 228.245 141.953 226.952V217.594C141.953 216.301 143.001 215.254 144.293 215.254Z" stroke="white" stroke-width="2.33971" stroke-linecap="round" stroke-linejoin="round"/>
    <rect x="473.016" y="284.273" width="42.1149" height="32.7559" rx="16.378" fill="#3B82F6"/>
    <g clip-path="url(#clip1_3657_10095)">
        <path d="M488.961 302.36C488.961 301.283 489.834 300.41 490.911 300.41H497.247C498.324 300.41 499.197 301.283 499.197 302.36V305.285C499.197 306.361 498.324 307.234 497.247 307.234H490.911C489.834 307.234 488.961 306.361 488.961 305.285V302.36Z" stroke="#F8FAFC" stroke-width="1.46232"/>
        <path d="M491.883 300.188L491.883 296.022C491.883 294.945 492.756 294.072 493.833 294.072L494.32 294.072C495.397 294.072 496.27 294.945 496.27 296.022L496.27 296.997" stroke="#F8FAFC" stroke-width="1.46232" stroke-linecap="round"/>
        <path d="M493.102 303.788C493.098 303.916 493.119 304.044 493.164 304.164C493.209 304.283 493.277 304.393 493.365 304.487C493.452 304.58 493.557 304.656 493.674 304.708C493.79 304.761 493.916 304.791 494.044 304.795C494.172 304.799 494.3 304.778 494.42 304.733C494.539 304.688 494.649 304.62 494.743 304.532C494.836 304.445 494.911 304.34 494.964 304.223C495.017 304.107 495.047 303.981 495.051 303.853C495.055 303.725 495.034 303.597 494.989 303.477C494.944 303.358 494.876 303.248 494.788 303.154C494.701 303.061 494.596 302.986 494.479 302.933C494.362 302.88 494.237 302.85 494.109 302.846C493.981 302.842 493.853 302.863 493.733 302.908C493.614 302.953 493.504 303.021 493.41 303.109C493.317 303.196 493.241 303.301 493.189 303.418C493.136 303.535 493.106 303.66 493.102 303.788Z" fill="#F8FAFC"/>
    </g>
    <rect x="834.508" y="403.826" width="17.5478" height="17.5478" rx="8.77391" fill="#84CC16"/>
    <path d="M840.359 413.087L842.14 414.793L846.209 410.406" stroke="white" stroke-width="1.46232" stroke-linecap="round" stroke-linejoin="round"/>
    <defs>
        <linearGradient id="paint0_linear_3657_10095" x1="795.374" y1="362.654" x2="1068.03" y2="419.924" gradientUnits="userSpaceOnUse">
            <stop stop-color="#534289"/>
            <stop offset="0.46875" stop-color="#D55B89"/>
            <stop offset="0.692708" stop-color="#F3AFCD"/>
            <stop offset="0.842814" stop-color="#E7BCFB"/>
        </linearGradient>
        <linearGradient id="paint1_linear_3657_10095" x1="78.2373" y1="67.8496" x2="458.353" y2="117.652" gradientUnits="userSpaceOnUse">
            <stop stop-color="#534289"/>
            <stop offset="0.46875" stop-color="#D55B89"/>
            <stop offset="0.692708" stop-color="#F3AFCD"/>
            <stop offset="0.842814" stop-color="#E7BCFB"/>
        </linearGradient>
        <linearGradient id="paint2_linear_3657_10095" x1="116.218" y1="194.196" x2="186.947" y2="186.748" gradientUnits="userSpaceOnUse">
            <stop stop-color="#534289"/>
            <stop offset="0.46875" stop-color="#D55B89"/>
            <stop offset="0.735418" stop-color="#F3AFCD"/>
            <stop offset="0.842814" stop-color="#E7BCFB"/>
        </linearGradient>
        <clipPath id="clip0_3657_10095">
            <rect width="23.3971" height="23.3971" fill="white" transform="translate(483.547 118.156)"/>
        </clipPath>
        <clipPath id="clip1_3657_10095">
            <rect width="23.3971" height="23.3971" fill="white" transform="translate(482.375 288.953)"/>
        </clipPath>
    </defs>
</svg>
