<svg width="40" height="40" viewBox="0 0 40 40" fill="none" xmlns="http://www.w3.org/2000/svg">
    <path d="M35.7101 20.4459C35.7757 24.1207 34.4633 27.8612 32.1009 30.8142C29.7385 33.7671 26.2605 35.7358 22.5201 36.392C18.7796 37.1138 14.7767 36.392 11.4956 34.4234C8.14889 32.5203 5.52402 29.3705 4.2772 25.6956C3.03039 22.0208 2.96477 17.8866 4.40845 14.2118C5.85213 10.537 8.54263 7.38715 12.0862 5.41849C13.858 4.43416 15.761 3.84357 17.7297 3.51546C19.6983 3.25297 21.7326 3.25297 23.7013 3.6467C27.6386 4.43416 31.3134 6.73093 33.807 9.9464C34.4633 10.7995 34.332 12.0463 33.4789 12.7025C32.6259 13.3587 31.379 13.2275 30.7228 12.3744C30.7228 12.3744 30.7228 12.3088 30.6572 12.3088C28.8198 9.74953 26.0637 7.8465 22.9138 7.12466C21.3389 6.73093 19.764 6.66531 18.1234 6.79655C16.5485 6.99342 14.9736 7.38715 13.5299 8.17461C10.6425 9.61829 8.21452 12.1775 6.9677 15.1961C5.65526 18.2148 5.52402 21.7583 6.50835 24.9082C7.49268 28.1237 9.6582 30.9454 12.5456 32.7172C15.3673 34.5546 18.9109 35.3421 22.3232 34.8171C25.7356 34.3577 28.951 32.6516 31.2478 30.0267C33.5446 27.4018 34.9226 23.9895 34.9882 20.4459C34.9882 20.249 35.1851 20.0522 35.382 20.0522C35.5132 20.0522 35.7101 20.249 35.7101 20.4459Z" fill="white"/>
</svg>
