<svg width="24" height="24" viewBox="0 0 24 24" fill="none" xmlns="http://www.w3.org/2000/svg">
    <g clip-path="url(#clip0_2614_2743)">
        <path d="M11.9963 1.00009C10.4972 0.994129 9.01309 1.29744 7.63659 1.89105C6.26009 2.48467 5.02083 3.35583 3.99627 4.45009V3.50009C3.99791 3.35513 3.96802 3.21155 3.90866 3.0793C3.8493 2.94705 3.7619 2.82928 3.65251 2.73416C3.54312 2.63903 3.41436 2.56883 3.27514 2.52842C3.13593 2.488 2.98959 2.47833 2.84627 2.50009C2.60369 2.54711 2.38546 2.67818 2.22999 2.87024C2.07451 3.06229 1.99175 3.30303 1.99627 3.55009V7.00009C1.99627 7.2653 2.10163 7.51966 2.28916 7.70719C2.4767 7.89473 2.73105 8.00009 2.99627 8.00009H6.49627C6.64122 8.00173 6.7848 7.97183 6.91706 7.91248C7.04931 7.85312 7.16708 7.76572 7.2622 7.65633C7.35732 7.54694 7.42752 7.41818 7.46794 7.27896C7.50836 7.13975 7.51802 6.99341 7.49627 6.85009C7.44924 6.6075 7.31817 6.38928 7.12612 6.2338C6.93406 6.07833 6.69333 5.99557 6.44627 6.00009H5.29627C6.46102 4.70297 7.97743 3.77206 9.66123 3.32044C11.345 2.86883 13.1238 2.91596 14.7813 3.45612C16.4388 3.99627 17.9038 5.00619 18.9982 6.36316C20.0926 7.72014 20.7694 9.36576 20.9463 11.1001C20.9711 11.3476 21.0874 11.577 21.2723 11.7434C21.4572 11.9098 21.6975 12.0013 21.9463 12.0001C22.0864 12.0008 22.2252 11.972 22.3535 11.9156C22.4819 11.8592 22.5969 11.7765 22.6912 11.6728C22.7855 11.569 22.857 11.4467 22.9009 11.3135C22.9448 11.1804 22.9603 11.0396 22.9463 10.9001C22.6735 8.18593 21.402 5.66995 19.3785 3.84054C17.3551 2.01113 14.7241 0.998812 11.9963 1.00009Z" fill="white"/>
        <path d="M20.998 16H17.498C17.353 15.9984 17.2094 16.0283 17.0772 16.0876C16.9449 16.147 16.8272 16.2344 16.7321 16.3438C16.6369 16.4532 16.5667 16.5819 16.5263 16.7211C16.4859 16.8604 16.4762 17.0067 16.498 17.15C16.545 17.3926 16.6761 17.6108 16.8681 17.7663C17.0602 17.9218 17.3009 18.0045 17.548 18H18.698C17.5332 19.2971 16.0168 20.228 14.333 20.6797C12.6492 21.1313 10.8705 21.0841 9.21297 20.544C7.55544 20.0038 6.09047 18.9939 4.99604 17.6369C3.90162 16.28 3.22486 14.6343 3.04798 12.9C3.02311 12.6525 2.90687 12.4231 2.72196 12.2567C2.53705 12.0903 2.29675 11.9988 2.04798 12C1.90781 11.9993 1.76905 12.0281 1.64071 12.0845C1.51237 12.1409 1.39732 12.2236 1.30303 12.3273C1.20873 12.4311 1.1373 12.5534 1.09336 12.6866C1.04942 12.8197 1.03396 12.9605 1.04798 13.1C1.258 15.1995 2.06738 17.1942 3.37962 18.8464C4.69186 20.4986 6.45159 21.7386 8.44898 22.4184C10.4464 23.0983 12.5971 23.1893 14.6448 22.6807C16.6925 22.1722 18.5508 21.0854 19.998 19.55V20.5C19.9963 20.645 20.0262 20.7885 20.0856 20.9208C20.1449 21.0531 20.2323 21.1708 20.3417 21.2659C20.4511 21.3611 20.5799 21.4313 20.7191 21.4717C20.8583 21.5121 21.0047 21.5218 21.148 21.5C21.3906 21.453 21.6088 21.3219 21.7643 21.1299C21.9197 20.9378 22.0025 20.6971 21.998 20.45V17C21.998 16.7348 21.8926 16.4804 21.7051 16.2929C21.5176 16.1054 21.2632 16 20.998 16Z" fill="white"/>
        <path d="M9.04609 16.4996C9.88863 17.2109 10.7921 17.8467 11.7461 18.3996L11.9961 18.4996L12.2461 18.3996C13.1961 17.8496 16.9961 15.6496 16.9961 13.1496V8.69961L11.9961 6.59961L6.99609 8.69961V13.1496C6.99609 14.3996 7.94609 15.5496 8.99609 16.4496H9.04609V16.4996ZM11.9961 8.74961L14.9961 10.0496V13.1496C14.9961 13.2496 14.8961 14.3496 11.9961 16.1996V8.74961Z" fill="white"/>
    </g>
    <defs>
        <clipPath id="clip0_2614_2743">
            <rect width="24" height="24" fill="white"/>
        </clipPath>
    </defs>
</svg>
