<svg width="24" height="24" viewBox="0 0 24 24" fill="none" xmlns="http://www.w3.org/2000/svg">
    <circle cx="12" cy="12" r="12" fill="#f1f5f9"/>
    <path fill-rule="evenodd" clip-rule="evenodd" d="M12 7.125C12.2071 7.125 12.375 7.29289 12.375 7.5L12.375 15.5947L15.2348 12.7348C15.3813 12.5884 15.6187 12.5884 15.7652 12.7348C15.9116 12.8813 15.9116 13.1187 15.7652 13.2652L12.2652 16.7652C12.1187 16.9116 11.8813 16.9116 11.7348 16.7652L8.23483 13.2652C8.08839 13.1187 8.08839 12.8813 8.23483 12.7348C8.38128 12.5884 8.61872 12.5884 8.76517 12.7348L11.625 15.5947L11.625 7.5C11.625 7.29289 11.7929 7.125 12 7.125Z" fill="#010207"/>
</svg>
