<svg width="42" height="20" viewBox="0 0 42 20" fill="none" xmlns="http://www.w3.org/2000/svg">
    <rect x="0.5" y="0.5" width="41" height="19" rx="9.5" stroke="url(#paint0_linear_3350_1636)"/>
    <path d="M8.876 14L10.46 5.84H13.46C14.972 5.84 15.908 6.524 15.908 7.772C15.908 8.576 15.44 9.356 14.468 9.716C15.248 9.98 15.644 10.592 15.644 11.324C15.644 12.86 14.336 14 12.284 14H8.876ZM13.22 6.908H11.6L11.132 9.308H12.728C13.88 9.308 14.48 8.672 14.48 7.868C14.48 7.268 14.036 6.908 13.22 6.908ZM12.824 10.352H10.928L10.424 12.932H12.452C13.676 12.932 14.264 12.164 14.264 11.372C14.264 10.748 13.736 10.352 12.824 10.352ZM22.4812 11.912C21.8332 13.472 20.5852 14.156 19.1572 14.156C17.6092 14.156 16.6132 13.22 16.6132 11.588C16.6132 9.404 18.0772 7.436 20.2252 7.436C21.8692 7.436 22.7332 8.42 22.7332 9.92C22.7332 10.184 22.6972 10.472 22.6492 10.76L22.6012 11.048H17.9572C17.9452 11.192 17.9332 11.336 17.9332 11.48C17.9332 12.548 18.4132 13.088 19.3012 13.088C20.1172 13.088 20.8012 12.716 21.1492 11.912H22.4812ZM20.1292 8.504C19.1812 8.504 18.4852 9.224 18.1492 10.172H21.4372C21.4372 10.112 21.4372 10.04 21.4372 9.98C21.4372 9.032 20.9932 8.504 20.1292 8.504ZM23.8513 12.08L24.5353 8.6H23.6713L23.8633 7.604H24.7273L25.0153 6.128H26.2873L25.9993 7.604H27.3793L27.1993 8.6H25.8073L25.1593 11.996C25.1233 12.164 25.0993 12.32 25.0993 12.452C25.0993 12.908 25.3393 13.1 25.9513 13.1H26.2873L26.1073 14.036C25.9513 14.108 25.6393 14.156 25.2793 14.156C24.2593 14.156 23.7673 13.772 23.7673 12.836C23.7673 12.62 23.8033 12.368 23.8513 12.08ZM29.0881 9.692H27.8041C28.2001 8.252 29.3641 7.436 30.9001 7.436C32.5681 7.436 33.2521 8.288 33.2521 9.392C33.2521 9.584 33.2281 9.788 33.1921 9.992L32.7241 12.44C32.6281 12.932 32.5801 13.292 32.5801 13.568C32.5801 13.724 32.6041 13.868 32.6281 14H31.2841C31.2721 13.916 31.2601 13.82 31.2601 13.712C31.2601 13.544 31.2841 13.352 31.3081 13.148C30.6601 13.832 29.8441 14.156 29.0761 14.156C27.8881 14.156 27.0961 13.568 27.0961 12.5C27.0961 11.6 27.6721 10.868 28.7521 10.496C29.7361 10.16 30.5881 10.1 31.8961 10.1L31.9201 9.956C31.9441 9.8 31.9561 9.644 31.9561 9.512C31.9561 8.864 31.5721 8.516 30.7441 8.516C29.8921 8.516 29.3401 8.972 29.0881 9.692ZM28.4281 12.356C28.4281 12.884 28.8001 13.148 29.4121 13.148C30.4441 13.148 31.4041 12.344 31.6441 11.36L31.7161 10.976C29.1841 11 28.4281 11.54 28.4281 12.356Z" fill="url(#paint1_linear_3350_1636)"/>
    <defs>
        <linearGradient id="paint0_linear_3350_1636" x1="-6.06667" y1="2.72727" x2="41.9389" y2="10.3833" gradientUnits="userSpaceOnUse">
            <stop stop-color="#FEC600"/>
            <stop offset="1" stop-color="#EC7FDA"/>
        </linearGradient>
        <linearGradient id="paint1_linear_3350_1636" x1="8" y1="10" x2="34" y2="10" gradientUnits="userSpaceOnUse">
            <stop stop-color="#DFBB3B"/>
            <stop offset="1" stop-color="#EC7FDA"/>
        </linearGradient>
    </defs>
</svg>
