<svg width="20" height="20" viewBox="0 0 20 20" fill="none" xmlns="http://www.w3.org/2000/svg">
    <path fill-rule="evenodd" clip-rule="evenodd" d="M10 2.29297C6.66332 2.29297 3.95837 4.99792 3.95837 8.33464C3.95837 10.4903 5.60801 12.2884 6.82424 13.306C7.19081 13.6126 7.50922 13.9925 7.73926 14.4239C7.75127 14.4289 7.76319 14.4342 7.77501 14.44L7.77508 14.4401L7.78962 14.4466C7.80564 14.4536 7.83435 14.4657 7.87574 14.4812C7.9585 14.5122 8.09211 14.5572 8.27663 14.6033C8.53874 14.6688 8.90475 14.7371 9.37504 14.771L9.37504 11.668C9.37504 11.3228 9.65486 11.043 10 11.043C10.3452 11.043 10.625 11.3228 10.625 11.668L10.625 14.771C11.0953 14.7371 11.4613 14.6688 11.7235 14.6033C11.908 14.5572 12.0416 14.5122 12.1243 14.4812C12.1657 14.4657 12.1944 14.4536 12.2105 14.4466L12.225 14.4401L12.2251 14.44L12.2251 14.44C12.2403 14.4326 12.2556 14.4258 12.2711 14.4197C12.5047 13.9888 12.8264 13.6102 13.1948 13.3053C14.4058 12.3034 16.0417 10.526 16.0417 8.33464C16.0417 4.99792 13.3368 2.29297 10 2.29297ZM8.12504 15.9282C8.12504 15.9026 8.12472 15.8771 8.12408 15.8517C8.57991 15.9538 9.20549 16.043 10 16.043C10.7948 16.043 11.4205 15.9538 11.8763 15.8516C11.8755 15.8811 11.875 15.9106 11.875 15.9403C11.875 16.9175 11.0829 17.7096 10.1057 17.7096H9.90645C8.92261 17.7096 8.12504 16.9121 8.12504 15.9282ZM2.70837 8.33464C2.70837 4.30756 5.97296 1.04297 10 1.04297C14.0271 1.04297 17.2917 4.30756 17.2917 8.33464C17.2917 11.1258 15.2497 13.2276 13.9917 14.2684C13.4547 14.7127 13.125 15.3239 13.125 15.9403C13.125 17.6078 11.7732 18.9596 10.1057 18.9596H9.90645C8.23225 18.9596 6.87504 17.6024 6.87504 15.9282C6.87504 15.3149 6.55145 14.7075 6.02214 14.2647C4.76924 13.2164 2.70837 11.0927 2.70837 8.33464Z" fill="#3B82F6"/>
</svg>
