<svg width="98" height="32" viewBox="0 0 98 32" fill="none" xmlns="http://www.w3.org/2000/svg">
    <rect y="0.5" width="98" height="31" rx="8" fill="url(#paint0_linear_3364_2250)"/>
    <path d="M8.737 20.5V13.02H11.454C13.797 13.02 15.26 14.439 15.26 16.771C15.26 19.103 13.797 20.5 11.454 20.5H8.737ZM11.454 19.301C12.895 19.301 13.753 18.366 13.753 16.771C13.753 15.165 12.895 14.219 11.454 14.219H10.222V19.301H11.454ZM16.4929 20.5V13.02H21.7509V14.197H17.9779V16.067H21.3329V17.233H17.9779V19.323H21.7509V20.5H16.4929ZM22.9382 20.5V13.02H24.9072L26.7992 17.849L27.0742 18.784L27.3602 17.849L29.2412 13.02H31.1552V20.5H29.6812L29.7362 14.692L29.1862 16.419L27.5802 20.5H26.5132L24.8962 16.397L24.3572 14.714L24.4232 20.5H22.9382ZM36.0376 20.665C33.7716 20.665 32.3746 19.18 32.3746 16.771C32.3746 14.362 33.7716 12.855 36.0376 12.855C38.3036 12.855 39.7116 14.362 39.7116 16.771C39.7116 19.18 38.3036 20.665 36.0376 20.665ZM36.0376 19.433C37.3906 19.433 38.1936 18.432 38.1936 16.771C38.1936 15.11 37.3906 14.087 36.0376 14.087C34.6846 14.087 33.8926 15.099 33.8926 16.771C33.8926 18.432 34.6846 19.433 36.0376 19.433ZM44.8017 20.5V14.241H42.3927V13.02H48.6957V14.241H46.2867V20.5H44.8017ZM49.7292 20.5V13.02H52.6552C54.3382 13.02 55.3832 13.867 55.3832 15.231C55.3832 16.067 55.0202 16.65 54.3822 16.991C54.7672 17.233 54.9982 17.629 55.1522 18.245L55.7132 20.5H54.1732L53.7332 18.52C53.5572 17.75 53.2712 17.596 52.5342 17.596H51.2142V20.5H49.7292ZM52.6222 14.197H51.2142V16.43H52.5892C53.4252 16.43 53.8652 15.99 53.8652 15.308C53.8652 14.637 53.4142 14.197 52.6222 14.197ZM61.9578 20.5L61.3858 18.949H58.1958L57.6238 20.5H56.1388L58.9548 13.02H60.7038L63.5198 20.5H61.9578ZM59.5708 15.242L58.6248 17.805H60.9568L60.0108 15.242L59.7908 14.472L59.5708 15.242ZM64.3923 20.5V13.02H67.1093C69.4523 13.02 70.9153 14.439 70.9153 16.771C70.9153 19.103 69.4523 20.5 67.1093 20.5H64.3923ZM67.1093 19.301C68.5503 19.301 69.4083 18.366 69.4083 16.771C69.4083 15.165 68.5503 14.219 67.1093 14.219H65.8773V19.301H67.1093ZM72.1481 20.5V13.02H73.6331V20.5H72.1481ZM75.1022 20.5V13.02H76.6642L79.4362 17.464L79.9532 18.487L79.8982 13.02H81.3722V20.5H79.8212L77.0492 16.067L76.5212 15.022L76.5872 20.5H75.1022ZM89.3371 20.5H88.3031L88.1821 19.554C87.7201 20.313 86.9391 20.665 86.0151 20.665C83.9581 20.665 82.6051 19.191 82.6051 16.771C82.6051 14.362 83.9581 12.855 86.1471 12.855C87.6981 12.855 89.0071 13.702 89.3481 15.33H87.7971C87.5661 14.527 86.9391 14.087 86.1031 14.087C84.8491 14.087 84.1231 15.099 84.1231 16.771C84.1231 18.443 84.8821 19.433 86.1581 19.433C87.0821 19.433 87.8301 18.905 87.9291 17.662H86.3121V16.54H89.3371V20.5Z" fill="#010207"/>
    <defs>
        <linearGradient id="paint0_linear_3364_2250" x1="0" y1="16" x2="98" y2="16" gradientUnits="userSpaceOnUse">
            <stop stop-color="#F0D162"/>
            <stop offset="1" stop-color="#EC7FDA"/>
        </linearGradient>
    </defs>
</svg>
