<svg width="24" height="24" viewBox="0 0 24 24" fill="none" xmlns="http://www.w3.org/2000/svg">
    <path d="M8.10355 14.1464C7.90829 14.3417 7.59171 14.3417 7.39645 14.1464L5.60355 12.3536C5.40829 12.1583 5.40829 11.8417 5.60355 11.6464L7.39645 9.85355C7.59171 9.65829 7.90829 9.65829 8.10355 9.85355L9.89645 11.6464C10.0917 11.8417 10.0917 12.1583 9.89645 12.3536L8.10355 14.1464Z" stroke="#3B82F6" stroke-width="1.5" stroke-linejoin="round"/>
    <path d="M12.3536 18.3964C12.1583 18.5917 11.8417 18.5917 11.6464 18.3964L9.85355 16.6036C9.65829 16.4083 9.65829 16.0917 9.85355 15.8964L11.6464 14.1036C11.8417 13.9083 12.1583 13.9083 12.3536 14.1036L14.1464 15.8964C14.3417 16.0917 14.3417 16.4083 14.1464 16.6036L12.3536 18.3964Z" stroke="#3B82F6" stroke-width="1.5" stroke-linejoin="round"/>
    <path d="M12.3536 9.89645C12.1583 10.0917 11.8417 10.0917 11.6464 9.89645L9.85355 8.10355C9.65829 7.90829 9.65829 7.59171 9.85355 7.39645L11.6464 5.60355C11.8417 5.40829 12.1583 5.40829 12.3536 5.60355L14.1464 7.39645C14.3417 7.59171 14.3417 7.90829 14.1464 8.10355L12.3536 9.89645Z" stroke="#3B82F6" stroke-width="1.5" stroke-linejoin="round"/>
    <path d="M16.6036 14.1464C16.4083 14.3417 16.0917 14.3417 15.8964 14.1464L14.1036 12.3536C13.9083 12.1583 13.9083 11.8417 14.1036 11.6464L15.8964 9.85355C16.0917 9.65829 16.4083 9.65829 16.6036 9.85355L18.3964 11.6464C18.5917 11.8417 18.5917 12.1583 18.3964 12.3536L16.6036 14.1464Z" stroke="#3B82F6" stroke-width="1.5" stroke-linejoin="round"/>
</svg>
