<svg width="25" height="24" viewBox="0 0 25 24" fill="none" xmlns="http://www.w3.org/2000/svg">
    <path d="M7.25 17.75V11.5H17.75V17.75C17.75 18.3023 17.3023 18.75 16.75 18.75H8.25C7.69772 18.75 7.25 18.3023 7.25 17.75Z" stroke="#B8BCC2" stroke-width="1.5"/>
    <path d="M5.75 10.5V9.5C5.75 8.94772 6.19772 8.5 6.75 8.5H18.25C18.8023 8.5 19.25 8.94772 19.25 9.5V10.5C19.25 11.0523 18.8023 11.5 18.25 11.5H6.75C6.19772 11.5 5.75 11.0523 5.75 10.5Z" stroke="#B8BCC2" stroke-width="1.5"/>
    <path d="M12.5 8.5H10.75C9.7835 8.5 9 7.7165 9 6.75C9 5.7835 9.7835 5 10.75 5C11.7165 5 12.5 5.7835 12.5 6.75V8.5Z" stroke="#B8BCC2" stroke-width="1.5"/>
    <path d="M12.5 8.5H14.25C15.2165 8.5 16 7.7165 16 6.75C16 5.7835 15.2165 5 14.25 5C13.2835 5 12.5 5.7835 12.5 6.75V8.5Z" stroke="#B8BCC2" stroke-width="1.5"/>
    <path d="M12.5 9L12.5 11" stroke="#B8BCC2" stroke-width="1.5" stroke-linecap="round" stroke-linejoin="round"/>
</svg>
