<svg width="24" height="24" viewBox="0 0 24 24" fill="none" xmlns="http://www.w3.org/2000/svg">
    <path d="M20.25 9.75003V14.5247C20.25 18.856 16.7953 22.4513 12.4688 22.4991C11.4187 22.5133 10.3764 22.3165 9.40379 21.9205C8.43114 21.5245 7.54785 20.9374 6.80626 20.1938C4.76158 18.031 2.45158 12.75 2.45158 12.75C2.34997 12.5742 2.28513 12.3795 2.26099 12.1778C2.23686 11.9762 2.25393 11.7717 2.31117 11.5768C2.36842 11.382 2.46464 11.2008 2.594 11.0442C2.72337 10.8876 2.88319 10.7589 3.06376 10.666C3.78189 10.291 4.66689 10.5872 5.07001 11.2866L7.03876 14.7028C7.09352 14.8012 7.17613 14.8812 7.27622 14.9327C7.3763 14.9843 7.48939 15.0051 7.60126 14.9925H7.61251C7.79267 14.9615 7.95585 14.8673 8.07271 14.7267C8.18957 14.5861 8.25244 14.4084 8.25001 14.2257V3.00003C8.24978 2.79682 8.29083 2.59569 8.37069 2.40883C8.45055 2.22197 8.56754 2.05328 8.71456 1.91301C8.86159 1.77273 9.03558 1.6638 9.22598 1.5928C9.41639 1.52181 9.61923 1.49025 9.8222 1.50003C10.6294 1.53753 11.25 2.23315 11.25 3.04034V9.75003C11.2498 9.85285 11.2707 9.95461 11.3115 10.049C11.3522 10.1434 11.412 10.2284 11.4869 10.2987C11.5619 10.3691 11.6506 10.4232 11.7474 10.4579C11.8442 10.4925 11.9471 10.5068 12.0497 10.5C12.2426 10.4835 12.422 10.3945 12.5519 10.251C12.6818 10.1075 12.7526 9.92014 12.75 9.72659V8.25003C12.7498 8.04682 12.7908 7.84569 12.8707 7.65883C12.9505 7.47197 13.0675 7.30328 13.2146 7.16301C13.3616 7.02273 13.5356 6.9138 13.726 6.8428C13.9164 6.77181 14.1192 6.74025 14.3222 6.75003C15.1294 6.78753 15.75 7.48315 15.75 8.29034V10.5C15.7498 10.6028 15.7707 10.7046 15.8115 10.799C15.8522 10.8934 15.912 10.9784 15.987 11.0487C16.0619 11.1191 16.1506 11.1732 16.2474 11.2079C16.3442 11.2425 16.4471 11.2568 16.5497 11.25C16.7426 11.2335 16.922 11.1445 17.0519 11.001C17.1818 10.8575 17.2526 10.6701 17.25 10.4766V9.79409C17.25 8.9869 17.8706 8.29409 18.6778 8.25378C18.8805 8.24401 19.083 8.27546 19.2732 8.34623C19.4633 8.41699 19.6371 8.52559 19.7841 8.66546C19.9311 8.80534 20.0482 8.97357 20.1282 9.15999C20.2083 9.34641 20.2497 9.54714 20.25 9.75003Z" fill="#3B82F6"/>
</svg>
