<svg width="24" height="24" viewBox="0 0 24 24" fill="none" xmlns="http://www.w3.org/2000/svg">
    <path d="M11.5984 4.30787L6.04406 8.56622C5.5435 8.94998 5.81489 9.75 6.44563 9.75H17.5544C18.1851 9.75 18.4565 8.94998 17.9559 8.56622L12.4016 4.30787C12.1647 4.12624 11.8353 4.12624 11.5984 4.30787Z"
          stroke="#B8BCC2" stroke-width="1.5" stroke-linecap="round" stroke-linejoin="round"/>
    <path d="M6.25 18.75L17.75 18.75" stroke="#B8BCC2" stroke-width="1.5" stroke-linecap="round"
          stroke-linejoin="round"/>
    <path d="M8.25 12.75V15.75" stroke="#B8BCC2" stroke-width="1.5" stroke-linecap="round" stroke-linejoin="round"/>
    <path d="M12 12.75V15.75" stroke="#B8BCC2" stroke-width="1.5" stroke-linecap="round" stroke-linejoin="round"/>
    <path d="M15.75 12.75V15.75" stroke="#B8BCC2" stroke-width="1.5" stroke-linecap="round" stroke-linejoin="round"/>
    <g clip-path="url(#clip0_1_3)">
        <path d="M17 23C20.325 23 23 20.325 23 17C23 13.675 20.325 11 17 11C13.675 11 11 13.675 11 17C11 20.325 13.675 23 17 23Z"
              fill="#2775CA"/>
        <path d="M18.6498 17.9502C18.6498 17.0752 18.1248 16.7752 17.0748 16.6502C16.3248 16.5502 16.1748 16.3502 16.1748 16.0002C16.1748 15.6501 16.4248 15.4252 16.9248 15.4252C17.3748 15.4252 17.6248 15.5752 17.7498 15.9502C17.7748 16.0252 17.8498 16.0752 17.9248 16.0752H18.3247C18.4248 16.0752 18.4998 16.0002 18.4998 15.9002V15.8752C18.3997 15.3252 17.9497 14.9002 17.3748 14.8502V14.2502C17.3748 14.1502 17.2998 14.0752 17.1748 14.0502H16.7998C16.6998 14.0502 16.6248 14.1252 16.5998 14.2502V14.8252C15.8498 14.9252 15.3748 15.4252 15.3748 16.0502C15.3748 16.8752 15.8748 17.2002 16.9248 17.3252C17.6248 17.4502 17.8498 17.6002 17.8498 18.0002C17.8498 18.4002 17.4997 18.6752 17.0248 18.6752C16.3748 18.6752 16.1498 18.4002 16.0748 18.0252C16.0498 17.9252 15.9748 17.8752 15.8998 17.8752H15.4748C15.3748 17.8752 15.2998 17.9502 15.2998 18.0502V18.0752C15.3998 18.7002 15.7998 19.1502 16.6248 19.2752V19.8752C16.6248 19.9752 16.6998 20.0502 16.8248 20.0752H17.1998C17.2998 20.0752 17.3748 20.0002 17.3998 19.8752V19.2752C18.1498 19.1502 18.6498 18.6252 18.6498 17.9502Z"
              fill="white"/>
        <path d="M15.725 20.5751C13.775 19.8751 12.775 17.7001 13.5 15.7751C13.875 14.7251 14.7 13.9251 15.725 13.5501C15.825 13.5001 15.875 13.4251 15.875 13.3001V12.9501C15.875 12.8501 15.825 12.7751 15.725 12.7501C15.7 12.7501 15.65 12.7501 15.625 12.7751C13.25 13.5251 11.95 16.0501 12.7 18.4251C13.15 19.8251 14.225 20.9001 15.625 21.3501C15.725 21.4001 15.825 21.3501 15.85 21.2501C15.875 21.2251 15.875 21.2001 15.875 21.1501V20.8001C15.875 20.7251 15.8 20.6251 15.725 20.5751ZM18.375 12.7751C18.275 12.7251 18.175 12.7751 18.15 12.8751C18.125 12.9001 18.125 12.9251 18.125 12.9751V13.3251C18.125 13.4251 18.2 13.5251 18.275 13.5751C20.225 14.2751 21.225 16.4501 20.5 18.3751C20.125 19.4251 19.3 20.2251 18.275 20.6001C18.175 20.6501 18.125 20.7251 18.125 20.8501V21.2001C18.125 21.3001 18.175 21.3751 18.275 21.4001C18.3 21.4001 18.35 21.4001 18.375 21.3751C20.75 20.6251 22.05 18.1001 21.3 15.7251C20.85 14.3001 19.75 13.2251 18.375 12.7751Z"
              fill="white"/>
    </g>
    <defs>
        <clipPath id="clip0_1_3">
            <rect width="12" height="12" fill="white" transform="translate(11 11)"/>
        </clipPath>
    </defs>
</svg>
