<svg width="24" height="24" viewBox="0 0 24 24" fill="none" xmlns="http://www.w3.org/2000/svg">
    <path d="M3.75 16.25V7.75C3.75 7.19772 4.19772 6.75 4.75 6.75H19.25C19.8023 6.75 20.25 7.19772 20.25 7.75V16.25C20.25 16.8023 19.8023 17.25 19.25 17.25H4.75C4.19772 17.25 3.75 16.8023 3.75 16.25Z"
          stroke="#3E71F6" stroke-width="1.5"/>
    <circle cx="12" cy="12" r="2" stroke="#3E71F6" stroke-width="1.5"/>
    <path d="M7.25 7C7.25 7.4268 7.16594 7.84941 7.00261 8.24372C6.83928 8.63803 6.59989 8.99631 6.2981 9.2981C5.99631 9.59989 5.63803 9.83928 5.24372 10.0026C4.84941 10.1659 4.4268 10.25 4 10.25"
          stroke="#3E71F6" stroke-width="1.5"/>
    <path d="M16.75 7C16.75 7.4268 16.8341 7.84941 16.9974 8.24372C17.1607 8.63803 17.4001 8.99631 17.7019 9.2981C18.0037 9.59989 18.362 9.83928 18.7563 10.0026C19.1506 10.1659 19.5732 10.25 20 10.25"
          stroke="#3E71F6" stroke-width="1.5"/>
    <path d="M7.25 17C7.25 16.5732 7.16594 16.1506 7.00261 15.7563C6.83928 15.362 6.59989 15.0037 6.2981 14.7019C5.99631 14.4001 5.63803 14.1607 5.24372 13.9974C4.84941 13.8341 4.4268 13.75 4 13.75"
          stroke="#3E71F6" stroke-width="1.5"/>
    <path d="M16.75 17C16.75 16.5732 16.8341 16.1506 16.9974 15.7563C17.1607 15.362 17.4001 15.0037 17.7019 14.7019C18.0037 14.4001 18.362 14.1607 18.7563 13.9974C19.1506 13.8341 19.5732 13.75 20 13.75"
          stroke="#3E71F6" stroke-width="1.5"/>
</svg>
