<svg width="21" height="20" viewBox="0 0 21 20" fill="none" xmlns="http://www.w3.org/2000/svg">
    <g clip-path="url(#clip0_1212_1861)">
        <path d="M6.125 11.4587C6.125 10.5382 6.87119 9.79199 7.79167 9.79199H13.2083C14.1288 9.79199 14.875 10.5382 14.875 11.4587V13.9587C14.875 14.8791 14.1288 15.6253 13.2083 15.6253H7.79167C6.87119 15.6253 6.125 14.8791 6.125 13.9587V11.4587Z" stroke="white" stroke-width="1.25"/>
        <path d="M8.625 9.60303L8.625 6.04201C8.625 5.12153 9.3712 4.37533 10.2917 4.37534L10.7084 4.37535C11.6288 4.37536 12.375 5.12155 12.375 6.04201L12.375 9.79199" stroke="white" stroke-width="1.25"/>
        <path d="M9.66745 12.6808C9.66383 12.7902 9.68179 12.8992 9.7203 13.0016C9.75882 13.104 9.81713 13.1979 9.89191 13.2778C9.96669 13.3577 10.0565 13.4221 10.1561 13.4673C10.2558 13.5125 10.3634 13.5376 10.4728 13.5412C10.5821 13.5448 10.6912 13.5269 10.7936 13.4884C10.896 13.4498 10.9899 13.3915 11.0698 13.3168C11.1497 13.242 11.2141 13.1522 11.2593 13.0525C11.3045 12.9529 11.3296 12.8453 11.3332 12.7359C11.3368 12.6265 11.3189 12.5175 11.2803 12.4151C11.2418 12.3126 11.1835 12.2188 11.1087 12.1389C11.034 12.059 10.9442 11.9946 10.8445 11.9494C10.7448 11.9042 10.6373 11.8791 10.5279 11.8755C10.4185 11.8718 10.3095 11.8898 10.2071 11.9283C10.1046 11.9668 10.0108 12.0251 9.93088 12.0999C9.85098 12.1747 9.78659 12.2645 9.74139 12.3641C9.69619 12.4638 9.67107 12.5714 9.66745 12.6808Z" fill="white"/>
    </g>
    <defs>
        <clipPath id="clip0_1212_1861">
            <rect width="20" height="20" fill="white" transform="translate(0.5)"/>
        </clipPath>
    </defs>
</svg>
