<svg width="16" height="16" viewBox="0 0 16 16" fill="none" xmlns="http://www.w3.org/2000/svg">
    <path d="M8.63135 8.07279H11.8283C11.8964 8.07279 11.9286 8.07279 11.9335 7.98684C11.9597 7.67398 11.9597 7.35929 11.9335 7.04607C11.9335 6.98524 11.9021 6.96011 11.8336 6.96011H5.47115C5.3924 6.96011 5.3712 6.98524 5.3712 7.05627V7.95661C5.3712 8.07279 5.3712 8.07279 5.49727 8.07279H8.63135ZM11.5765 5.9079C11.5856 5.88495 11.5856 5.85982 11.5765 5.83724C11.5231 5.72542 11.4599 5.61871 11.3865 5.51855C11.2759 5.34737 11.1457 5.18966 10.9973 5.04798C10.9272 4.96239 10.8462 4.88554 10.7553 4.82035C10.3002 4.44776 9.75922 4.18406 9.17768 4.05149C8.88426 3.98812 8.58441 3.95789 8.2838 3.96044H5.46017C5.38142 3.96044 5.37082 3.99067 5.37082 4.05659V5.85217C5.37082 5.92793 5.37082 5.94832 5.47077 5.94832H11.5387C11.5387 5.94832 11.5913 5.93813 11.6019 5.9079H11.5761H11.5765ZM11.5765 9.12501C11.4872 9.11554 11.3971 9.11554 11.3077 9.12501H5.47645C5.3977 9.12501 5.3712 9.12501 5.3712 9.22626V10.9818C5.3712 11.0626 5.3712 11.083 5.47645 11.083H8.1687C8.29743 11.0925 8.42615 11.0838 8.55223 11.0579C8.94295 11.0309 9.32723 10.9494 9.69372 10.815C9.82699 10.7705 9.95571 10.7126 10.0772 10.6431H10.114C10.7451 10.3273 11.2577 9.83122 11.5811 9.22226C11.5811 9.22226 11.6178 9.14577 11.5765 9.12574V9.12501ZM4.31451 11.9932V11.963V10.7844V10.3848V9.19603C4.31451 9.13011 4.31451 9.12028 4.23046 9.12028H3.08935C3.02612 9.12028 3 9.12028 3 9.03942V8.07825H4.21986C4.28801 8.07825 4.31451 8.07826 4.31451 7.9923V7.04133C4.31451 6.98051 4.31451 6.96558 4.23046 6.96558H3.08935C3.02612 6.96558 3 6.96558 3 6.88472V5.99458C3 5.93885 3 5.92392 3.08405 5.92392H4.21456C4.29331 5.92392 4.31451 5.92392 4.31451 5.82777V3.10125C4.31451 3.0204 4.31451 3 4.41976 3H8.3633C8.64953 3.01093 8.93386 3.04116 9.21516 3.09105C9.7948 3.19413 10.3517 3.39335 10.861 3.6778C11.1987 3.86902 11.5095 4.09993 11.7863 4.36581C11.9945 4.57377 12.1823 4.79886 12.3489 5.03851C12.5143 5.28145 12.6518 5.54113 12.7597 5.81247C12.7729 5.88313 12.8433 5.93084 12.9168 5.91882H13.858C13.9788 5.91882 13.9788 5.91882 13.9841 6.03027V6.85995C13.9841 6.94081 13.9526 6.96121 13.8682 6.96121H13.1424C13.069 6.96121 13.0478 6.96121 13.0531 7.05226C13.0818 7.36039 13.0818 7.66961 13.0531 7.97773C13.0531 8.06369 13.0531 8.07388 13.1534 8.07388H13.9837C14.0204 8.11941 13.9837 8.16494 13.9837 8.21083C13.989 8.26947 13.989 8.32884 13.9837 8.38747V8.99972C13.9837 9.08567 13.9576 9.11117 13.8784 9.11117H12.8846C12.8153 9.09842 12.7479 9.14104 12.732 9.20732C12.4954 9.79917 12.1168 10.3298 11.6276 10.7552C11.4489 10.91 11.2611 11.0557 11.065 11.1901C10.8545 11.3067 10.6497 11.4279 10.4339 11.5241C10.0367 11.696 9.62027 11.8228 9.19282 11.9032C8.78696 11.9732 8.37542 12.0049 7.96236 11.9994H4.313V11.9943L4.31451 11.9932Z" fill="#121317"/>
</svg>
