<svg width="16" height="16" viewBox="0 0 16 16" fill="none" xmlns="http://www.w3.org/2000/svg">
    <path d="M10.2156 9.49239C10.2156 8.39993 9.5601 8.02537 8.24913 7.86933C7.31272 7.74445 7.12544 7.49476 7.12544 7.05772C7.12544 6.62068 7.4376 6.33983 8.06185 6.33983C8.62369 6.33983 8.93585 6.52711 9.0919 6.99532C9.12313 7.08896 9.21677 7.15136 9.31042 7.15136H9.80978C9.93466 7.15136 10.0283 7.05772 10.0283 6.93291V6.90167C9.90342 6.21495 9.34158 5.68434 8.62369 5.62194V4.87281C8.62369 4.74793 8.53005 4.65429 8.37401 4.62305H7.9058C7.78092 4.62305 7.68728 4.71669 7.65605 4.87281V5.5907C6.71964 5.71558 6.12663 6.33983 6.12663 7.1202C6.12663 8.15025 6.75088 8.55598 8.06185 8.7121C8.93585 8.86814 9.21677 9.05542 9.21677 9.55487C9.21677 10.0543 8.77973 10.3976 8.18673 10.3976C7.37512 10.3976 7.0942 10.0542 7.00056 9.58603C6.9694 9.46123 6.87576 9.39875 6.78212 9.39875H6.25143C6.12663 9.39875 6.03299 9.49239 6.03299 9.61727V9.64851C6.15779 10.4288 6.65724 10.9906 7.68728 11.1468V11.8959C7.68728 12.0207 7.78093 12.1143 7.93697 12.1456H8.40517C8.53005 12.1456 8.62369 12.0519 8.65493 11.8959V11.1468C9.59134 10.9906 10.2156 10.3352 10.2156 9.49239Z" fill="#121317"/>
    <path d="M6.56346 12.7699C4.12878 11.8959 2.8802 9.18033 3.78545 6.77682C4.25366 5.46584 5.28372 4.46702 6.56346 3.99882C6.68834 3.93641 6.75074 3.84277 6.75074 3.68665V3.24969C6.75074 3.12481 6.68834 3.03116 6.56346 3C6.53222 3 6.46981 3 6.43858 3.03116C3.47329 3.96758 1.85015 7.12022 2.78656 10.0855C3.34841 11.8335 4.69063 13.1757 6.43858 13.7375C6.56346 13.7999 6.68834 13.7375 6.7195 13.6126C6.75074 13.5815 6.75074 13.5502 6.75074 13.4878V13.0508C6.75074 12.9571 6.6571 12.8323 6.56346 12.7699ZM9.87214 3.03116C9.74726 2.96876 9.62238 3.03116 9.59122 3.15604C9.55998 3.18728 9.55998 3.21845 9.55998 3.28092V3.71789C9.55998 3.84277 9.65362 3.96758 9.74726 4.03006C12.1819 4.90399 13.4305 7.61959 12.5253 10.0231C12.0571 11.3341 11.027 12.3329 9.74726 12.8011C9.62238 12.8635 9.55998 12.9571 9.55998 13.1133V13.5502C9.55998 13.6751 9.62238 13.7688 9.74726 13.7999C9.7785 13.7999 9.8409 13.7999 9.87214 13.7688C12.8374 12.8323 14.4606 9.6797 13.5242 6.71442C12.9623 4.93523 11.5889 3.59301 9.87214 3.03116Z" fill="#121317"/>
</svg>
