<svg width="16" height="16" viewBox="0 0 16 16" fill="none" xmlns="http://www.w3.org/2000/svg">
    <path d="M11.1768 6.63701C11.8286 6.3053 12.2363 5.72111 12.1411 4.74788C12.0128 3.41785 10.8634 2.97186 9.41245 2.84485L9.41217 1H8.28796L8.28765 2.79634C7.99186 2.79634 7.69034 2.80214 7.39018 2.80816L7.38993 1.00024L6.26674 1.00014L6.26653 2.84454C6.02311 2.84951 5.78406 2.85423 5.55064 2.85423V2.84877L4 2.84814L4.00021 4.04731C4.00021 4.04731 4.83041 4.03171 4.81674 4.04685C5.27192 4.04717 5.42055 4.31126 5.4633 4.53922L5.46365 6.6409V9.59306C5.4436 9.73613 5.35927 9.96472 5.04099 9.96514C5.05547 9.97787 4.2232 9.965 4.2232 9.965L4.00021 11.3059H5.46295C5.73551 11.3063 6.00331 11.3105 6.26604 11.3126L6.26702 13.1783L7.38993 13.1786L7.38962 11.3325C7.69856 11.3387 7.99676 11.3415 8.28803 11.3411L8.28772 13.1786H9.41189L9.41252 11.316C11.3022 11.2076 12.6251 10.732 12.7896 8.95892C12.9222 7.53144 12.2497 6.89425 11.1768 6.63701ZM7.41704 4.12825C8.05108 4.12825 10.0451 3.92652 10.0454 5.24983C10.0451 6.5185 8.05171 6.3703 7.41704 6.3703V4.12825ZM7.41655 9.97423L7.41704 7.50216C8.17883 7.50195 10.5682 7.28316 10.5685 8.73764C10.5688 10.1325 8.17883 9.97367 7.41655 9.97423Z" fill="white"/>
</svg>
