<svg width="16" height="16" viewBox="0 0 16 16" fill="none" xmlns="http://www.w3.org/2000/svg">
    <path d="M7.42239 13V11.7293C6.0932 11.5111 5.21121 10.7025 5.00003 9.26488H6.10562C6.24227 10.266 7.0373 10.8051 8.16773 10.8051C9.28574 10.8051 9.88202 10.2275 9.88202 9.4189C9.88202 7.12135 5.21121 8.73862 5.21121 5.49125C5.21121 4.4259 5.96897 3.42474 7.42239 3.24504V2H8.5404V3.27071C9.72053 3.47608 10.6025 4.23337 10.764 5.68378H9.65842C9.50935 4.64411 8.83854 4.19487 7.83233 4.19487C6.85096 4.19487 6.32922 4.73396 6.32922 5.52976C6.32922 7.62194 11 6.12019 11 9.31622C11 10.7666 9.96897 11.6394 8.5404 11.7678V13H7.42239Z" fill="#121317"/>
</svg>
