<svg width="24" height="24" viewBox="0 0 24 24" fill="none" xmlns="http://www.w3.org/2000/svg">
    <path d="M11.25 18.2509H9C7.9 18.2509 7 19.1509 7 20.2509V20.5009H6C5.59 20.5009 5.25 20.8409 5.25 21.2509C5.25 21.6609 5.59 22.0009 6 22.0009H18C18.41 22.0009 18.75 21.6609 18.75 21.2509C18.75 20.8409 18.41 20.5009 18 20.5009H17V20.2509C17 19.1509 16.1 18.2509 15 18.2509H12.75V15.9609C12.5 15.9909 12.25 16.0009 12 16.0009C11.75 16.0009 11.5 15.9909 11.25 15.9609V18.2509Z" fill="#C0C0C0"/>
    <path d="M18.4812 11.64C19.1412 11.39 19.7213 10.98 20.1812 10.52C21.1112 9.49 21.7212 8.26 21.7212 6.82C21.7212 5.38 20.5912 4.25 19.1512 4.25H18.5912C18.264 3.57608 17.7539 3.00775 17.1191 2.6099C16.4843 2.21204 15.7504 2.0007 15.0013 2H9.00125C7.42125 2 6.06125 2.92 5.41125 4.25H4.85125C3.41125 4.25 2.28125 5.38 2.28125 6.82C2.28125 8.26 2.89125 9.49 3.82125 10.52C4.28125 10.98 4.86125 11.39 5.52125 11.64C6.04363 12.9299 6.93969 14.0343 8.09435 14.8112C9.24901 15.5881 10.6096 16.0021 12.0013 16C14.9412 16 17.4412 14.2 18.4812 11.64ZM14.8413 8.45L14.2213 9.21C14.1213 9.32 14.0513 9.54 14.0613 9.69L14.1213 10.67C14.1613 11.27 13.7313 11.58 13.1713 11.36L12.2613 11C12.0915 10.95 11.911 10.95 11.7413 11L10.8313 11.36C10.2713 11.58 9.84125 11.27 9.88125 10.67L9.94125 9.69C9.94504 9.51631 9.8885 9.34668 9.78125 9.21L9.16125 8.45C8.77125 7.99 8.94125 7.48 9.52125 7.33L10.4713 7.09C10.6213 7.05 10.8013 6.91 10.8813 6.78L11.4113 5.96C11.7413 5.45 12.2613 5.45 12.5913 5.96L13.1213 6.78C13.2013 6.91 13.3813 7.05 13.5312 7.09L14.4812 7.33C15.0612 7.48 15.2313 7.99 14.8413 8.45Z" fill="#C0C0C0"/>
    <circle cx="12.5" cy="8.5" r="4.5" fill="#C0C0C0"/>
    <path d="M9.96523 12H14.0422V11.37H10.7842C11.1172 9.687 13.9792 9.705 13.9792 7.833C13.9792 6.852 13.3312 6.105 12.0712 6.105C10.8382 6.105 10.1092 6.771 9.95623 7.86H10.7752C10.8832 7.194 11.2702 6.789 12.0622 6.789C12.7822 6.789 13.1692 7.185 13.1692 7.842C13.1692 9.399 9.96523 9.183 9.96523 11.784V12Z" fill="#121317"/>
</svg>
