<svg width="24" height="24" viewBox="0 0 24 24" fill="none" xmlns="http://www.w3.org/2000/svg">
    <path d="M5.25 15.25C5.25 14.6977 5.69772 14.25 6.25 14.25H8.25C8.80228 14.25 9.25 14.6977 9.25 15.25V18.75H6.25C5.69772 18.75 5.25 18.3023 5.25 17.75V15.25Z" stroke="#010207" stroke-width="1.5"/>
    <path d="M9.25 10.75C9.25 10.1977 9.69772 9.75 10.25 9.75H12.25C12.8023 9.75 13.25 10.1977 13.25 10.75V18.75H9.25V10.75Z" stroke="#010207" stroke-width="1.5"/>
    <path d="M13.25 6.25C13.25 5.69772 13.6977 5.25 14.25 5.25H16.25C16.8023 5.25 17.25 5.69772 17.25 6.25V17.75C17.25 18.3023 16.8023 18.75 16.25 18.75H13.25V6.25Z" stroke="#010207" stroke-width="1.5"/>
</svg>
