<svg width="21" height="20" viewBox="0 0 21 20" fill="none" xmlns="http://www.w3.org/2000/svg">
    <path fill-rule="evenodd" clip-rule="evenodd" d="M14.2947 1.04298L14.3726 1.04299L14.83 1.04299L14.8568 1.04299C15.5341 1.04298 16.0805 1.04297 16.5229 1.07912C16.9784 1.11634 17.3786 1.19497 17.7487 1.38359C18.3367 1.68319 18.8148 2.16126 19.1144 2.74927C19.303 3.11945 19.3817 3.51956 19.4189 3.9751C19.455 4.4175 19.455 4.96382 19.455 5.64115V5.64122V5.66799V6.12564L19.455 6.20358C19.4552 6.94425 19.4552 7.42158 19.3457 7.87803C19.2487 8.2819 19.0888 8.668 18.8718 9.02215C18.6265 9.4224 18.289 9.75987 17.7652 10.2835L17.7651 10.2836L17.71 10.3386L16.5919 11.4568L16.94 13.1958L16.9581 13.2863C17.0945 13.9664 17.1888 14.4367 17.1436 14.9001C17.1037 15.3091 16.9835 15.7061 16.7899 16.0686C16.5705 16.4793 16.2313 16.8184 15.7406 17.3087L15.6753 17.3739L14.2727 18.7766C14.1428 18.9065 13.9623 18.9726 13.7792 18.9575C13.5961 18.9423 13.4289 18.8474 13.3221 18.6979L11.5749 16.2518C11.5242 16.281 11.4731 16.3084 11.4216 16.3339C10.3142 16.8827 9.01392 16.8827 7.90644 16.3339C7.32301 16.0448 6.80072 15.5223 5.98176 14.7029L5.98175 14.7029L5.88866 14.6098L5.79555 14.5167L5.79554 14.5167C4.97624 13.6978 4.45373 13.1756 4.16463 12.5922C3.61584 11.4847 3.61582 10.1845 4.16456 9.07711C4.1901 9.02556 4.21747 8.97448 4.2467 8.92364L1.80078 7.17648C1.65128 7.06969 1.55634 6.90254 1.54119 6.71944C1.52604 6.53635 1.59222 6.35586 1.72213 6.22596L3.12505 4.82308L3.19026 4.75783C3.68049 4.26726 4.01948 3.92804 4.43017 3.70869C4.79254 3.51515 5.18952 3.39496 5.5984 3.355C6.06178 3.30971 6.532 3.40394 7.21201 3.5402L7.21201 3.5402L7.30247 3.55832L9.04151 3.90615L10.1593 2.7883L10.2144 2.73318C10.7381 2.20928 11.0755 1.87165 11.4758 1.62634C11.83 1.40929 12.2161 1.24934 12.62 1.15237C13.0765 1.04277 13.5539 1.04285 14.2947 1.04298ZM15.4804 10.8007L15.4714 10.8094L13.0344 13.2468L12.5554 13.7258C11.611 14.6703 11.2417 15.028 10.8666 15.2139C10.1089 15.5894 9.2192 15.5894 8.46145 15.2139C8.15148 15.0603 7.84544 14.7894 7.21552 14.167L8.43921 12.9433C8.68329 12.6992 8.68329 12.3035 8.43921 12.0594C8.19514 11.8153 7.79941 11.8153 7.55533 12.0594L6.33163 13.2831C5.70917 12.6531 5.43825 12.3471 5.28465 12.0371C4.90916 11.2794 4.90914 10.3898 5.2846 9.63209C5.46026 9.27759 5.78935 8.92822 6.62224 8.09358L9.68896 5.02655L9.69378 5.02167L11.0432 3.67215C11.6407 3.07456 11.8703 2.85064 12.129 2.69212C12.3713 2.54362 12.6355 2.43418 12.9119 2.36783C13.2068 2.297 13.5275 2.29299 14.3726 2.29299H14.83C15.5404 2.29299 16.0356 2.29347 16.4211 2.32497C16.7993 2.35587 17.0167 2.41348 17.1813 2.49735C17.5341 2.67711 17.8209 2.96395 18.0007 3.31675C18.0845 3.48135 18.1421 3.69866 18.173 4.07689C18.2045 4.46241 18.205 4.95761 18.205 5.66799V6.12564C18.205 6.97064 18.201 7.29128 18.1302 7.58623C18.0639 7.86257 17.9544 8.12674 17.806 8.36905C17.6475 8.62769 17.4236 8.85727 16.8261 9.4548L15.4804 10.8007ZM13.2213 14.8278L12.5637 15.4855L13.9105 17.371L14.7914 16.49C15.3725 15.909 15.5664 15.706 15.6873 15.4797C15.8034 15.2622 15.8755 15.024 15.8995 14.7787C15.9244 14.5233 15.8756 14.2469 15.7143 13.4411L15.5298 12.5191L13.9164 14.1325L13.3463 14.7028L13.2213 14.8278ZM5.88851 7.0594L7.9793 4.96845L7.0573 4.78404C6.25167 4.6229 5.97529 4.57412 5.71999 4.59907C5.47467 4.62305 5.23648 4.69516 5.01905 4.81129C4.79278 4.93214 4.58988 5.12603 4.00892 5.70697L3.1277 6.58817L5.01316 7.93498L5.56186 7.38622C5.63686 7.31096 5.71469 7.23316 5.7954 7.15249L5.88851 7.0594ZM11.959 7.50132C11.959 6.92602 12.4254 6.45965 13.0007 6.45965C13.5759 6.45965 14.0423 6.92602 14.0423 7.50132C14.0423 8.07662 13.5759 8.54299 13.0007 8.54299C12.4254 8.54299 11.959 8.07662 11.959 7.50132ZM13.0007 5.20965C11.735 5.20965 10.709 6.23567 10.709 7.50132C10.709 8.76697 11.735 9.79299 13.0007 9.79299C14.2663 9.79299 15.2923 8.76697 15.2923 7.50132C15.2923 6.23567 14.2663 5.20965 13.0007 5.20965Z" fill="#121317"/>
</svg>
