<svg width="64" height="64" viewBox="0 0 64 64" fill="none" xmlns="http://www.w3.org/2000/svg">
    <rect width="64" height="64" rx="32" fill="#052E16"/>
    <g clip-path="url(#clip0_2614_1588)">
        <path d="M26.75 33.75C26.75 32.6454 27.6454 31.75 28.75 31.75H35.25C36.3546 31.75 37.25 32.6454 37.25 33.75V36.75C37.25 37.8546 36.3546 38.75 35.25 38.75H28.75C27.6454 38.75 26.75 37.8546 26.75 36.75V33.75Z" stroke="#22C55E" stroke-width="1.5"/>
        <path d="M29.75 31.5232L29.75 27.25C29.75 26.1454 30.6454 25.25 31.75 25.25L32.25 25.25C33.3546 25.25 34.25 26.1455 34.25 27.25L34.25 31.75" stroke="#22C55E" stroke-width="1.5"/>
        <path d="M31.0005 35.2169C30.9962 35.3482 31.0178 35.479 31.064 35.6019C31.1102 35.7248 31.1802 35.8375 31.2699 35.9333C31.3596 36.0292 31.4674 36.1065 31.587 36.1607C31.7066 36.215 31.8357 36.2451 31.9669 36.2495C32.0982 36.2538 32.229 36.2322 32.3519 36.186C32.4748 36.1398 32.5875 36.0698 32.6833 35.9801C32.7792 35.8904 32.8565 35.7826 32.9107 35.663C32.965 35.5434 32.9951 35.4143 32.9995 35.2831C33.0038 35.1518 32.9822 35.021 32.936 34.8981C32.8898 34.7752 32.8198 34.6625 32.7301 34.5667C32.6404 34.4708 32.5326 34.3935 32.413 34.3393C32.2934 34.285 32.1643 34.2549 32.0331 34.2505C31.9018 34.2462 31.771 34.2678 31.6481 34.314C31.5252 34.3602 31.4125 34.4302 31.3167 34.5199C31.2208 34.6096 31.1435 34.7174 31.0893 34.837C31.035 34.9566 31.0049 35.0857 31.0005 35.2169Z" fill="#22C55E"/>
    </g>
    <defs>
        <clipPath id="clip0_2614_1588">
            <rect width="24" height="24" fill="white" transform="translate(20 20)"/>
        </clipPath>
    </defs>
</svg>
