<svg width="24" height="24" viewBox="0 0 24 24" fill="none" xmlns="http://www.w3.org/2000/svg">
    <path fill-rule="evenodd" clip-rule="evenodd" d="M10.5 13.25L10.5 12.75L10.5 11.25L10.5 10.75C10.5 10.3358 10.1642 10 9.75 10C9.33579 10 9 10.3358 9 10.75L9 11.25H6.75C6.33579 11.25 6 11.5858 6 12C6 12.4142 6.33579 12.75 6.75 12.75H9L9 13.25C9 13.6642 9.33579 14 9.75 14C10.1642 14 10.5 13.6642 10.5 13.25ZM11.5 12.75H17.25C17.6642 12.75 18 12.4142 18 12C18 11.5858 17.6642 11.25 17.25 11.25H11.5L11.5 12.75Z" fill="#3B82F6"/>
    <path fill-rule="evenodd" clip-rule="evenodd" d="M15 9.5V9H17.25C17.6642 9 18 8.66421 18 8.25C18 7.83579 17.6642 7.5 17.25 7.5H15V7C15 6.58579 14.6642 6.25 14.25 6.25C13.8358 6.25 13.5 6.58579 13.5 7V7.24951C13.5 7.24967 13.5 7.24984 13.5 7.25L13.5 7.5L13.5 9L13.5 9.5C13.5 9.50016 13.5 9.50031 13.5 9.50047C13.5003 9.91447 13.8359 10.25 14.25 10.25C14.6642 10.25 15 9.91421 15 9.5ZM12.5 9L12.5 7.5H6.75C6.33579 7.5 6 7.83579 6 8.25C6 8.66421 6.33579 9 6.75 9H12.5Z" fill="#3B82F6"/>
    <path fill-rule="evenodd" clip-rule="evenodd" d="M15 17V16.5H17.25C17.6642 16.5 18 16.1642 18 15.75C18 15.3358 17.6642 15 17.25 15H15V14.5C15 14.0858 14.6642 13.75 14.25 13.75C13.8358 13.75 13.5 14.0858 13.5 14.5V14.7495C13.5 14.7497 13.5 14.7498 13.5 14.75L13.5 15L13.5 16.5L13.5 17C13.5 17.0002 13.5 17.0003 13.5 17.0005C13.5003 17.4145 13.8359 17.75 14.25 17.75C14.6642 17.75 15 17.4142 15 17ZM12.5 16.5L12.5 15H6.75C6.33579 15 6 15.3358 6 15.75C6 16.1642 6.33579 16.5 6.75 16.5H12.5Z" fill="#3B82F6"/>
</svg>
