<svg width="28" height="16" viewBox="0 0 28 16" fill="none" xmlns="http://www.w3.org/2000/svg">
    <path d="M15.2553 7.68013C15.2553 11.9216 11.8402 15.36 7.62778 15.36C3.41532 15.36 0 11.9208 0 7.68013C0 3.43942 3.41506 0 7.62778 0C11.8405 0 15.2553 3.43864 15.2553 7.68013Z"
          fill="#ABB7BD"/>
    <path d="M23.6227 7.68008C23.6227 11.6725 21.9151 14.9103 19.8088 14.9103C17.7024 14.9103 15.9949 11.6725 15.9949 7.68008C15.9949 3.68763 17.7021 0.449829 19.8085 0.449829C21.9149 0.449829 23.6224 3.6866 23.6224 7.68008"
          fill="#ABB7BD"/>
    <path d="M27.0457 7.68016C27.0457 11.2564 26.4453 14.1573 25.7044 14.1573C24.9635 14.1573 24.3633 11.2572 24.3633 7.68016C24.3633 4.10314 24.9637 1.203 25.7044 1.203C26.445 1.203 27.0457 4.10288 27.0457 7.68016Z"
          fill="#ABB7BD"/>
</svg>
