<svg width="32" height="32" viewBox="0 0 32 32" fill="none" xmlns="http://www.w3.org/2000/svg">
    <path d="M16.2528 6C10.5915 6 6 10.5907 6 16.2528C6 20.7828 8.93743 24.6259 13.0121 25.9819C13.5238 26.0767 13.6896 25.7589 13.6896 25.4889V23.5801C10.8376 24.2004 10.2438 22.3703 10.2438 22.3703C9.7773 21.1853 9.10489 20.87 9.10489 20.87C8.17445 20.2335 9.17581 20.2471 9.17581 20.2471C10.2054 20.3189 10.747 21.304 10.747 21.304C11.6613 22.871 13.1454 22.4182 13.7306 22.1559C13.822 21.4937 14.0878 21.0409 14.3817 20.7854C12.1047 20.5248 9.71066 19.6456 9.71066 15.7179C9.71066 14.5978 10.1114 13.6836 10.7667 12.9659C10.6608 12.707 10.3096 11.6638 10.8667 10.2524C10.8667 10.2524 11.7279 9.97723 13.687 11.3033C14.5047 11.076 15.3813 10.9624 16.2528 10.9581C17.1243 10.9624 18.0018 11.076 18.8211 11.3033C20.7786 9.97723 21.6381 10.2524 21.6381 10.2524C22.196 11.6647 21.8449 12.7079 21.7389 12.9659C22.3968 13.6836 22.7941 14.5987 22.7941 15.7179C22.7941 19.6559 20.3958 20.5231 18.1128 20.7769C18.4802 21.0947 18.816 21.7184 18.816 22.6753V25.4889C18.816 25.7614 18.98 26.0818 19.5004 25.981C23.5716 24.6234 26.5056 20.7811 26.5056 16.2528C26.5056 10.5907 21.9149 6 16.2528 6Z" fill="#ABB7BD"/>
</svg>
