<svg width="32" height="33" viewBox="0 0 32 33" fill="none" xmlns="http://www.w3.org/2000/svg">
    <path d="M9.43213 7H22.3315V25.3432H20.438V16.9408H20.4195C20.2102 14.6186 18.2585 12.7988 15.8818 12.7988C13.5051 12.7988 11.5535 14.6186 11.3442 16.9408H11.3256V25.3432H9.43213V7Z" fill="#ABB7BD"/>
    <path d="M6 9.60352L6.76923 12.2071H7.42011V22.7396C7.09331 22.7396 6.8284 23.0045 6.8284 23.3313V24.0414H6.71007C6.38327 24.0414 6.11833 24.3063 6.11833 24.6331V25.3432H12.7456V24.6331C12.7456 24.3063 12.4806 24.0414 12.1538 24.0414H12.0355V23.3313C12.0355 23.0045 11.7706 22.7396 11.4438 22.7396H10.7337V9.60352H6Z" fill="#ABB7BD"/>
    <path d="M20.5562 22.7396C20.2294 22.7396 19.9644 23.0045 19.9644 23.3313V24.0414H19.8461C19.5193 24.0414 19.2544 24.3063 19.2544 24.6331V25.3432H25.8816V24.6331C25.8816 24.3063 25.6167 24.0414 25.2899 24.0414H25.1715V23.3313C25.1715 23.0045 24.9066 22.7396 24.5798 22.7396V12.2071H25.2307L26 9.60352H21.2662V22.7396H20.5562Z" fill="#ABB7BD"/>
</svg>
