<svg width="21" height="21" viewBox="0 0 21 21" fill="none" xmlns="http://www.w3.org/2000/svg">
    <path d="M19.6402 10.5001C19.6422 10.7564 19.5643 11.007 19.4173 11.2171C19.2702 11.4271 19.0614 11.5861 18.8199 11.672L13.8637 13.4743L12.0621 18.4298C11.9733 18.669 11.8134 18.8753 11.6039 19.021C11.3944 19.1667 11.1454 19.2448 10.8902 19.2448C10.635 19.2448 10.386 19.1667 10.1765 19.021C9.96701 18.8753 9.80713 18.669 9.71834 18.4298L7.91599 13.4688L2.96053 11.672C2.7213 11.5832 2.51499 11.4233 2.36929 11.2138C2.2236 11.0043 2.14551 10.7552 2.14551 10.5001C2.14551 10.2449 2.2236 9.99585 2.36929 9.78636C2.51499 9.57688 2.7213 9.417 2.96053 9.3282L7.92146 7.52586L9.71834 2.57039C9.80713 2.33117 9.96701 2.12485 10.1765 1.97916C10.386 1.83346 10.635 1.75537 10.8902 1.75537C11.1454 1.75537 11.3944 1.83346 11.6039 1.97916C11.8134 2.12485 11.9733 2.33117 12.0621 2.57039L13.8644 7.53133L18.8199 9.3282C19.0614 9.41408 19.2702 9.57308 19.4173 9.7831C19.5643 9.99312 19.6422 10.2437 19.6402 10.5001Z" fill="#020617"/>
</svg>
