<svg width="24" height="24" viewBox="0 0 24 24" fill="none" xmlns="http://www.w3.org/2000/svg">
    <path d="M10.8418 6.64365L5.17919 16.097C5.06243 16.2992 5.00066 16.5284 5.00001 16.7619C4.99935 16.9954 5.05984 17.225 5.17546 17.4278C5.29108 17.6306 5.45779 17.7997 5.65901 17.9181C5.86024 18.0365 6.08895 18.1001 6.32241 18.1027H17.6477C17.8812 18.1001 18.1099 18.0365 18.3111 17.9181C18.5124 17.7997 18.6791 17.6306 18.7947 17.4278C18.9103 17.225 18.9708 16.9954 18.9701 16.7619C18.9695 16.5284 18.9077 16.2992 18.791 16.097L13.1283 6.64365C13.0091 6.44716 12.8413 6.28471 12.6411 6.17197C12.4408 6.05923 12.2149 6 11.9851 6C11.7553 6 11.5293 6.05923 11.3291 6.17197C11.1288 6.28471 10.961 6.44716 10.8418 6.64365V6.64365Z" stroke="#F3AE4B" stroke-width="1.5" stroke-linecap="round" stroke-linejoin="round"/>
    <path d="M11.9851 10.0801V12.7543" stroke="#F3AE4B" stroke-width="1.5" stroke-linecap="round" stroke-linejoin="round"/>
    <path d="M11.9851 14.7598V15.094" stroke="#F3AE4B" stroke-width="1.5" stroke-linecap="round" stroke-linejoin="round"/>
</svg>
