<svg width="24" height="24" viewBox="0 0 24 24" fill="none" xmlns="http://www.w3.org/2000/svg">
    <path fill-rule="evenodd" clip-rule="evenodd" d="M11.2521 5.40625C11.2521 4.99204 11.5879 4.65625 12.0021 4.65625C15.783 4.65625 18.848 7.72126 18.848 11.5021C18.848 15.283 15.783 18.348 12.0021 18.348C8.22126 18.348 5.15625 15.283 5.15625 11.5021C5.15625 10.4106 5.41229 9.37662 5.86826 8.45908C6.0526 8.08815 6.50274 7.93688 6.87367 8.12122C7.24461 8.30556 7.39587 8.7557 7.21153 9.12663C6.85633 9.84138 6.65625 10.6473 6.65625 11.5021C6.65625 14.4546 9.04969 16.848 12.0021 16.848C14.9546 16.848 17.348 14.4546 17.348 11.5021C17.348 8.54969 14.9546 6.15625 12.0021 6.15625C11.5879 6.15625 11.2521 5.82046 11.2521 5.40625Z" fill="#3E71F6"/>
</svg>
