<svg width="20" height="20" viewBox="0 0 20 20" fill="none" xmlns="http://www.w3.org/2000/svg">
    <g clip-path="url(#clip0_1212_1866)">
        <path d="M5.625 11.4582C5.625 10.5377 6.37119 9.7915 7.29167 9.7915H12.7083C13.6288 9.7915 14.375 10.5377 14.375 11.4582V13.9582C14.375 14.8786 13.6288 15.6248 12.7083 15.6248H7.29167C6.37119 15.6248 5.625 14.8786 5.625 13.9582V11.4582Z" stroke="#121317" stroke-width="1.25"/>
        <path d="M8.125 9.60254L8.125 6.04152C8.125 5.12104 8.8712 4.37485 9.79168 4.37486L10.2084 4.37486C11.1288 4.37487 11.875 5.12106 11.875 6.04153L11.875 6.87488" stroke="#121317" stroke-width="1.25" stroke-linecap="round"/>
        <path d="M9.16696 12.6808C9.16334 12.7902 9.1813 12.8992 9.21981 13.0016C9.25833 13.104 9.31664 13.1979 9.39142 13.2778C9.4662 13.3577 9.55599 13.4221 9.65565 13.4673C9.75532 13.5125 9.86291 13.5376 9.97228 13.5412C10.0817 13.5448 10.1907 13.5269 10.2931 13.4884C10.3955 13.4498 10.4894 13.3915 10.5693 13.3168C10.6492 13.242 10.7136 13.1522 10.7588 13.0525C10.804 12.9529 10.8291 12.8453 10.8327 12.7359C10.8363 12.6265 10.8184 12.5175 10.7799 12.4151C10.7413 12.3126 10.683 12.2188 10.6083 12.1389C10.5335 12.059 10.4437 11.9946 10.344 11.9494C10.2444 11.9042 10.1368 11.8791 10.0274 11.8755C9.91802 11.8718 9.809 11.8898 9.70656 11.9283C9.60413 11.9668 9.51029 12.0251 9.43039 12.0999C9.35049 12.1747 9.2861 12.2645 9.2409 12.3641C9.1957 12.4638 9.17058 12.5714 9.16696 12.6808Z" fill="#121317"/>
    </g>
    <defs>
        <clipPath id="clip0_1212_1866">
            <rect width="20" height="20" fill="#121317"/>
        </clipPath>
    </defs>
</svg>
