<svg width="24" height="24" viewBox="0 0 24 24" fill="none" xmlns="http://www.w3.org/2000/svg">
    <rect width="24" height="24" rx="6" fill="#7289DA"/>
    <path fill-rule="evenodd" clip-rule="evenodd"
          d="M14.5411 16.0343C14.9007 16.4807 15.3322 16.9984 15.3322 16.9984C16.0457 17.0164 16.7528 16.8609 17.3921 16.5456C18.0313 16.2303 18.5833 15.7647 19 15.1892C18.9611 12.7761 18.3709 10.4034 17.274 8.2498C16.3087 7.49692 15.1318 7.06021 13.9058 7L13.738 7.19043C14.829 7.47708 15.8462 7.99026 16.7226 8.69618C15.6065 8.08525 14.3809 7.69707 13.1147 7.5535C12.3108 7.47177 11.5 7.48575 10.6995 7.59514C10.631 7.59718 10.5628 7.60517 10.4957 7.61893C9.55499 7.72332 8.63676 7.97437 7.77482 8.36286C7.33134 8.55928 7.06765 8.70808 7.06765 8.70808C7.98862 7.96551 9.06282 7.43317 10.2141 7.1488L10.0942 7C8.86822 7.06021 7.69137 7.49692 6.72604 8.2498C5.62907 10.4034 5.03891 12.7761 5 15.1892C5.41335 15.7652 5.963 16.2315 6.60048 16.547C7.23797 16.8625 7.94381 17.0175 8.65583 16.9984C8.65583 16.9984 8.79616 16.8271 8.98294 16.5977C9.1282 16.4193 9.30159 16.2058 9.45893 16.0105C8.61623 15.7994 7.87427 15.3026 7.36129 14.6059C7.78949 14.8891 8.24769 15.1246 8.72775 15.3082C9.29816 15.5318 9.88791 15.7031 10.4897 15.8201C11.5148 16.0158 12.5676 16.0198 13.5942 15.832C14.1914 15.7282 14.7746 15.5565 15.3322 15.3201C15.8169 15.1385 16.2793 14.9029 16.7106 14.6178C16.1785 15.3294 15.41 15.8312 14.5411 16.0343ZM8.88614 11.8628C9.11316 11.6181 9.42459 11.4671 9.75856 11.4398C9.92659 11.4457 10.0917 11.4847 10.2444 11.5545C10.3971 11.6243 10.5344 11.7236 10.6481 11.8465C10.7618 11.9695 10.8499 12.1136 10.9071 12.2706C10.9642 12.4276 10.9894 12.5942 10.9812 12.761C10.9884 12.9275 10.9625 13.0938 10.905 13.2504C10.8474 13.4069 10.7593 13.5507 10.6458 13.6734C10.5322 13.7961 10.3954 13.8953 10.2432 13.9655C10.0909 14.0357 9.92627 14.0753 9.75856 14.0822C9.42459 14.0549 9.11316 13.9039 8.88614 13.6591C8.65907 13.4144 8.53306 13.0938 8.53306 12.761C8.53306 12.4282 8.65907 12.1076 8.88614 11.8628ZM13.3634 11.6072C13.5973 11.4757 13.8657 11.4173 14.1336 11.4398C14.3013 11.4466 14.4659 11.4863 14.6182 11.5565C14.7704 11.6266 14.9072 11.7259 15.0208 11.8486C15.1343 11.9714 15.2224 12.1151 15.28 12.2716C15.3375 12.4282 15.3634 12.5945 15.3562 12.761C15.3562 13.028 15.2749 13.2887 15.1232 13.509C14.9715 13.7294 14.7563 13.8991 14.5058 13.996C14.2553 14.0929 13.9812 14.1125 13.7194 14.0521C13.4575 13.9917 13.2201 13.8543 13.0382 13.6577C12.8563 13.4612 12.7384 13.2147 12.7 12.9505C12.6615 12.6863 12.7042 12.4167 12.8226 12.177C12.941 11.9373 13.1294 11.7387 13.3634 11.6072Z"
          fill="white"/>
</svg>
