<svg width="24" height="24" viewBox="0 0 24 24" fill="none" xmlns="http://www.w3.org/2000/svg">
    <rect width="24" height="24" rx="6" fill="white"/>
    <path fill-rule="evenodd" clip-rule="evenodd"
          d="M19.72 12.1819C19.72 11.6146 19.6691 11.0692 19.5746 10.5455H12.04V13.6401H16.3455C16.16 14.6401 15.5964 15.4874 14.7491 16.0546V18.0619H17.3346C18.8473 16.6692 19.72 14.6183 19.72 12.1819Z"
          fill="#4285F4"/>
    <path fill-rule="evenodd" clip-rule="evenodd"
          d="M12.0397 20.0002C14.1997 20.0002 16.0106 19.2838 17.3342 18.062L14.7488 16.0547C14.0324 16.5347 13.1161 16.8183 12.0397 16.8183C9.95607 16.8183 8.19244 15.4111 7.56335 13.5202H4.89062V15.5929C6.20699 18.2074 8.91244 20.0002 12.0397 20.0002Z"
          fill="#34A853"/>
    <path fill-rule="evenodd" clip-rule="evenodd"
          d="M7.56367 13.5203C7.40367 13.0403 7.31276 12.5275 7.31276 12.0003C7.31276 11.473 7.40367 10.9603 7.56367 10.4803V8.40753H4.89095C4.34913 9.48753 4.04004 10.7093 4.04004 12.0003C4.04004 13.2912 4.34913 14.513 4.89095 15.593L7.56367 13.5203Z"
          fill="#FBBC05"/>
    <path fill-rule="evenodd" clip-rule="evenodd"
          d="M12.0397 7.18182C13.2143 7.18182 14.2688 7.58545 15.0979 8.37818L17.3924 6.08363C16.007 4.79273 14.1961 4 12.0397 4C8.91244 4 6.20699 5.79273 4.89062 8.40727L7.56335 10.48C8.19244 8.58909 9.95607 7.18182 12.0397 7.18182Z"
          fill="#EA4335"/>
</svg>
