<svg width="24" height="24" viewBox="0 0 24 24" fill="none" xmlns="http://www.w3.org/2000/svg">
    <rect width="24" height="24" rx="6" fill="#231E1B"/>
    <path fill-rule="evenodd" clip-rule="evenodd"
          d="M11.9755 4C7.57186 4 4 7.57187 4 11.9755C4 15.4985 6.29969 18.4832 9.43119 19.5596C9.82263 19.6086 9.96942 19.3639 9.96942 19.1682C9.96942 18.9725 9.96942 18.4832 9.96942 17.7982C7.76758 18.2875 7.27829 16.7217 7.27829 16.7217C6.93578 15.792 6.39755 15.5474 6.39755 15.5474C5.66361 15.0581 6.44648 15.0581 6.44648 15.0581C7.22936 15.107 7.66972 15.8899 7.66972 15.8899C8.40367 17.1131 9.52905 16.7706 9.96942 16.5749C10.0183 16.0367 10.263 15.6942 10.4587 15.4985C8.69725 15.3028 6.83792 14.6177 6.83792 11.5352C6.83792 10.6544 7.1315 9.96942 7.66972 9.38226C7.6208 9.23547 7.32722 8.40367 7.76758 7.32722C7.76758 7.32722 8.4526 7.1315 9.96942 8.15902C10.6055 7.9633 11.2905 7.91437 11.9755 7.91437C12.6606 7.91437 13.3456 8.01223 13.9817 8.15902C15.4985 7.1315 16.1835 7.32722 16.1835 7.32722C16.6239 8.40367 16.3303 9.23547 16.2813 9.43119C16.7706 9.96942 17.1131 10.7034 17.1131 11.5841C17.1131 14.6667 15.2538 15.3028 13.4924 15.4985C13.7859 15.7431 14.0306 16.2324 14.0306 16.9664C14.0306 18.0428 14.0306 18.8746 14.0306 19.1682C14.0306 19.3639 14.1774 19.6086 14.5688 19.5596C17.7492 18.4832 20 15.4985 20 11.9755C19.9511 7.57187 16.3792 4 11.9755 4Z"
          fill="white"/>
</svg>
