<svg width="106" height="30" viewBox="0 0 106 30" fill="none" xmlns="http://www.w3.org/2000/svg">
    <path d="M49.5334 26.0175H33.0227V4.44873H41.3861C43.176 4.44873 44.6368 4.76896 45.7684 5.40941C46.8794 6.0292 47.7435 6.87625 48.3607 7.95056C48.9779 9.02487 49.2865 10.2128 49.2865 11.5144C49.2865 13.1258 48.7928 14.572 47.8052 15.8529C46.8176 17.1132 45.5729 17.9499 44.071 18.3631L49.5334 26.0175ZM34.9669 5.59535L43.3612 17.3714C44.7396 17.0822 45.8815 16.3901 46.7868 15.2951C47.692 14.2001 48.1447 12.9399 48.1447 11.5144C48.1447 10.3781 47.8669 9.3451 47.3114 8.41541C46.7559 7.48572 45.9741 6.77296 44.966 6.27712C44.0607 5.82261 42.8777 5.59535 41.4169 5.59535H34.9669ZM34.1645 6.3391V17.4644H42.0959L34.1645 6.3391ZM34.1645 24.8709H47.3731L42.8674 18.58L41.9107 18.611H34.1645V24.8709Z" fill="#94A3B8"/>
    <path d="M69.909 26.0175H49.6641L59.7866 3.98389L69.909 26.0175ZM51.454 24.8709H68.1191L59.7866 6.71098L51.454 24.8709Z" fill="#94A3B8"/>
    <path d="M79.2363 13.4357L88.1861 26.0175H70.9038V4.44873H88.1861L79.2363 13.4357ZM78.434 14.2415L72.0457 20.6563V24.8709H85.9949L78.434 14.2415Z" fill="#94A3B8"/>
    <path d="M90.3536 4.44873H106V9.90291H95.9703V12.63H104.303V17.8053H95.9703V20.5634H106V26.0175H90.3536V4.44873Z" fill="#94A3B8"/>
    <ellipse cx="14.5899" cy="15" rx="14.5899" ry="14.5898" fill="#3B82F6"/>
    <path d="M12.3893 21.8346L8.47548 17.3499L15.6748 16.7777C17.0377 16.6694 17.0327 14.6711 15.6693 14.5696L8.396 14.0278L8.47548 6.60425H15.3588C16.7053 6.60425 17.9455 6.94088 19.0794 7.61414C20.2311 8.28741 21.1435 9.19986 21.8168 10.3515C22.4901 11.4854 22.8267 12.7256 22.8267 14.0722V17.6334C22.8267 18.9799 22.4901 20.229 21.8168 21.3806C21.1435 22.5146 20.2311 23.4181 19.0794 24.0914C17.9455 24.7647 16.7053 25.1013 15.3588 25.1013L12.3893 21.8346Z" fill="white"/>
</svg>
