<svg width="23" height="17" viewBox="0 0 23 17" fill="none" xmlns="http://www.w3.org/2000/svg">
<path fill-rule="evenodd" clip-rule="evenodd" d="M15.6747 15.3583C16.2654 16.1171 16.9743 16.9973 16.9743 16.9973C18.1465 17.0278 19.3082 16.7636 20.3585 16.2275C21.4086 15.6915 22.3154 14.8999 23 13.9216C22.9361 9.81943 21.9665 5.7857 20.1644 2.12466C18.5785 0.844768 16.6451 0.102354 14.631 0L14.3553 0.323735C16.1476 0.811036 17.8187 1.68344 19.2586 2.88351C17.425 1.84492 15.4115 1.18502 13.3313 0.940947C12.0107 0.802005 10.6786 0.825779 9.36341 1.01173C9.25096 1.0152 9.13888 1.02879 9.02869 1.05218C7.4832 1.22964 5.97468 1.65642 4.55862 2.31686C3.83005 2.65078 3.39685 2.90374 3.39685 2.90374C4.90988 1.64137 6.67463 0.736393 8.56596 0.252952L8.369 0C6.35493 0.102354 4.42153 0.844768 2.83564 2.12466C1.03348 5.7857 0.0639256 9.81943 0 13.9216C0.679069 14.9008 1.58207 15.6936 2.62936 16.2299C3.67666 16.7662 4.83626 17.0298 6.006 16.9973C6.006 16.9973 6.23654 16.706 6.5434 16.3161C6.78205 16.0128 7.0669 15.6498 7.32538 15.3178C5.94095 14.9591 4.72201 14.1144 3.87926 12.9301C4.58274 13.4114 5.3355 13.8118 6.12416 14.124C7.06126 14.504 8.03014 14.7953 9.01884 14.9941C10.7028 15.3268 12.4325 15.3337 14.119 15.0143C15.1002 14.838 16.0583 14.546 16.9743 14.1442C17.7706 13.8354 18.5303 13.4349 19.2389 12.9503C18.3646 14.1601 17.1021 15.013 15.6747 15.3583ZM6.38437 8.26683C6.75734 7.85077 7.26897 7.59404 7.81763 7.54765C8.09369 7.55768 8.36502 7.62399 8.61584 7.74263C8.86673 7.86135 9.09216 8.03008 9.27898 8.23904C9.46587 8.44807 9.61048 8.69307 9.70445 8.95999C9.79835 9.22684 9.83974 9.5102 9.82622 9.79372C9.83808 10.0768 9.79557 10.3594 9.70099 10.6256C9.60649 10.8918 9.46174 11.1361 9.27522 11.3447C9.08863 11.5533 8.86388 11.7221 8.61381 11.8414C8.36366 11.9607 8.09316 12.0281 7.81763 12.0398C7.26897 11.9934 6.75734 11.7367 6.38437 11.3205C6.01134 10.9044 5.80431 10.3594 5.80431 9.79372C5.80431 9.228 6.01134 8.68296 6.38437 8.26683ZM13.7398 7.83225C14.1241 7.60863 14.5651 7.50944 15.0052 7.54765C15.2806 7.5593 15.5512 7.62677 15.8013 7.74602C16.0514 7.86528 16.2762 8.03402 16.4627 8.24267C16.6493 8.45131 16.794 8.69562 16.8885 8.96177C16.983 9.22792 17.0256 9.51067 17.0138 9.79372C17.0137 10.2475 16.8803 10.6907 16.631 11.0654C16.3817 11.44 16.0282 11.7285 15.6167 11.8932C15.2052 12.0579 14.7549 12.0912 14.3247 11.9886C13.8945 11.886 13.5045 11.6523 13.2056 11.3181C12.9068 10.984 12.7132 10.5649 12.65 10.1158C12.5867 9.66667 12.657 9.20839 12.8515 8.80098C13.0459 8.39349 13.3555 8.05587 13.7398 7.83225Z" fill="white"/>
</svg>
