<svg width="151" height="40" viewBox="0 0 151 40" fill="none" xmlns="http://www.w3.org/2000/svg">
	<g clip-path="url(#clip0_1324_803)">
		<path d="M20.2164 22.8821L18.3762 27.9398C18.298 28.0902 18.298 28.2465 18.3762 28.3969L21.5936 37.129L25.2681 34.9821L20.8238 22.8821C20.7517 22.5754 20.3668 22.5754 20.2164 22.8821Z" fill="#475569"/>
		<path d="M23.8909 14.3062C23.8127 13.9995 23.4338 13.9995 23.2775 14.3062L21.4372 19.3639C21.3591 19.5142 21.3591 19.6706 21.4372 19.8209L26.6453 34.146L30.3197 31.9991L23.8909 14.3062Z" fill="#475569"/>
		<path d="M17.3057 3.19873C17.3839 3.19873 17.4561 3.19873 17.5342 3.27691L31.6248 11.3957C31.7751 11.4738 31.8533 11.6242 31.8533 11.8527V28.0902C31.8533 28.2406 31.7751 28.4751 31.6248 28.5473L17.5342 36.666C17.4561 36.7442 17.3839 36.7442 17.3057 36.7442C17.2275 36.7442 17.1554 36.7442 17.0772 36.666L2.98664 28.5473C2.83629 28.4691 2.75811 28.3187 2.75811 28.0902V11.8527C2.75811 11.7024 2.83629 11.4678 2.98664 11.3957L17.0772 3.27691C17.1493 3.19873 17.2275 3.19873 17.3057 3.19873ZM17.3057 0.823242C16.7705 0.823242 16.3074 0.973589 15.8503 1.20813L1.7598 9.32688C0.83968 9.86212 0.304443 10.7822 0.304443 11.8527V28.0902C0.304443 29.0885 0.83968 30.0808 1.7598 30.6161L15.8503 38.7348C16.3074 38.9633 16.7705 39.1197 17.3057 39.1197C17.8409 39.1197 18.304 38.9693 18.7611 38.7348L32.8516 30.6161C33.7717 30.0808 34.307 29.1607 34.307 28.0902V11.8527C34.307 10.8544 33.7717 9.86212 32.8516 9.32688L18.8332 1.20813C18.3762 0.979603 17.9131 0.823242 17.3779 0.823242H17.3057Z" fill="#475569"/>
		<path d="M16.1571 10.7041H12.5548C12.3262 10.7041 12.0195 10.8544 11.9413 11.089L4.28565 32.0715L7.96014 34.2184L16.3856 11.1612C16.4638 10.9326 16.3074 10.7041 16.0789 10.7041H16.1571Z" fill="#475569"/>
		<path d="M22.3574 10.704H18.7551C18.5265 10.704 18.2198 10.8544 18.1416 11.0889L9.41549 34.9821L13.09 37.129L22.5859 11.0889C22.6641 10.8604 22.5077 10.6318 22.2792 10.6318L22.3574 10.704Z" fill="#475569"/>
		<path d="M49.474 15.0698C49.8589 15.0698 50.1656 15.148 50.3941 15.2984C50.6226 15.4487 50.8512 15.7554 51.0857 16.1403L55.7585 24.5658C55.8367 24.6439 55.8367 24.7161 55.7585 24.7943C55.7585 24.8725 55.6803 24.8725 55.53 24.8725H53.7679C53.6176 24.8725 53.5394 24.7943 53.4612 24.7221L52.4569 22.8819H45.8717L44.8734 24.7221C44.7952 24.8725 44.723 24.8725 44.5667 24.8725H42.7264C42.5761 24.8725 42.4979 24.8725 42.4979 24.7943C42.4979 24.7161 42.4979 24.6439 42.4979 24.5658L47.0925 16.1403C47.321 15.6832 47.5495 15.4487 47.7841 15.2984C48.0186 15.148 48.2411 15.0698 48.5479 15.0698H49.3898H49.474ZM46.7136 21.2762H51.5368L49.3176 17.1386C49.2395 17.0604 49.2395 17.0604 49.1673 17.0604H49.0891C49.0109 17.0604 48.9388 17.0604 48.9388 17.1386L46.7136 21.2762Z" fill="#475569"/>
		<path d="M65.94 15.0698C67.0105 15.0698 67.7803 15.2984 68.2373 15.8336C68.6944 16.2906 68.9289 17.0604 68.9289 17.9805V18.7443C68.9289 19.5863 68.7786 20.1997 68.4719 20.6567C68.1652 21.1138 67.6299 21.4205 66.8662 21.5769L69.2417 24.5658C69.3198 24.6439 69.3198 24.7161 69.3198 24.7943C69.3198 24.8725 69.2417 24.9446 69.0913 24.9446H67.2511C67.1007 24.9446 67.0225 24.9446 67.0225 24.8665C66.9444 24.8665 66.9444 24.7883 66.8722 24.7161L64.6531 21.8054H60.1366V24.6379C60.1366 24.8665 60.0585 24.9446 59.8299 24.9446H58.2964C58.0679 24.9446 57.9897 24.8665 57.9897 24.6379V15.5269C57.9897 15.2202 58.14 15.0698 58.4467 15.0698H66.0302H65.94ZM60.1186 20.1215H65.477C65.934 20.1215 66.3189 20.0433 66.4753 19.8148C66.7038 19.5863 66.782 19.2795 66.782 18.8947V18.2812C66.782 17.8242 66.7038 17.5175 66.4753 17.3611C66.2467 17.1326 65.94 17.0544 65.477 17.0544H60.2689C60.1186 17.0544 60.1186 17.1326 60.1186 17.2048V20.1215Z" fill="#475569"/>
		<path d="M80.7222 15.0698C81.7205 15.0698 82.406 15.2984 82.7909 15.6832C83.1758 16.0681 83.4044 16.6815 83.4044 17.4453V18.1369C83.4044 18.9007 83.0976 19.5141 82.4842 19.899C83.0976 20.2839 83.4825 20.8973 83.4825 21.7392V22.5812C83.4825 22.9661 83.4044 23.2728 83.3322 23.5795C83.26 23.8862 83.1037 24.1147 82.9473 24.3432C82.7188 24.5718 82.4902 24.7281 82.1835 24.8003C81.8768 24.8785 81.4919 24.9506 81.0349 24.9506H72.6876C72.3809 24.9506 72.2305 24.8003 72.2305 24.4936V15.5329C72.2305 15.2262 72.3809 15.0758 72.6876 15.0758H80.8064H80.7222V15.0698ZM74.3655 19.1292H80.1087C80.5658 19.1292 80.8725 19.051 81.0289 18.9007C81.1852 18.7503 81.2574 18.594 81.2574 18.2873V17.8302C81.2574 17.5235 81.1792 17.295 81.0289 17.2168C80.8785 17.0664 80.5718 16.9883 80.2651 16.9883H74.5218C74.3715 16.9883 74.3715 17.0664 74.3715 17.1386V19.1292H74.3655ZM74.3655 20.6627V22.7315C74.3655 22.8819 74.4437 22.8819 74.5158 22.8819H80.2591C80.644 22.8819 80.8725 22.8037 81.0229 22.6533C81.1732 22.503 81.2514 22.2684 81.2514 22.0399V21.5047C81.2514 21.198 81.1732 20.9694 81.0229 20.8131C80.8725 20.6567 80.5658 20.5846 80.0245 20.5846H74.2873L74.3655 20.6627Z" fill="#475569"/>
		<path d="M88.6845 15.0698C88.9131 15.0698 88.9913 15.148 88.9913 15.3765V24.5658C88.9913 24.7943 88.9131 24.8725 88.6845 24.8725H87.151C86.9225 24.8725 86.8443 24.7943 86.8443 24.5658V15.3765C86.8443 15.148 86.9225 15.0698 87.151 15.0698H88.6845Z" fill="#475569"/>
		<path d="M103.467 15.0698C103.695 15.0698 103.773 15.148 103.773 15.3765V16.7537C103.773 16.9822 103.695 17.0604 103.467 17.0604H99.0224V24.5658C99.0224 24.7943 98.9442 24.8725 98.7157 24.8725H97.1822C96.9536 24.8725 96.8755 24.7943 96.8755 24.5658V17.0604H92.4312C92.2027 17.0604 92.1245 16.9822 92.1245 16.7537V15.3765C92.1245 15.148 92.2027 15.0698 92.4312 15.0698H103.382H103.467Z" fill="#475569"/>
		<path d="M114.574 15.0698C115.645 15.0698 116.415 15.2984 116.872 15.8336C117.329 16.2906 117.563 17.0604 117.563 17.9805V18.7443C117.563 19.5863 117.413 20.1997 117.106 20.6567C116.799 21.1138 116.264 21.4205 115.5 21.5769L117.876 24.5658C117.954 24.6439 117.954 24.7161 117.954 24.7943C117.954 24.8725 117.876 24.9446 117.726 24.9446H115.885C115.735 24.9446 115.657 24.9446 115.657 24.8665C115.579 24.8665 115.579 24.7883 115.507 24.7161L113.287 21.8054H108.771V24.6379C108.771 24.8665 108.693 24.9446 108.464 24.9446H106.931C106.702 24.9446 106.624 24.8665 106.624 24.6379V15.5269C106.624 15.2202 106.774 15.0698 107.081 15.0698H114.665H114.574ZM108.753 20.1215H114.111C114.568 20.1215 114.953 20.0433 115.11 19.8148C115.338 19.5863 115.416 19.2795 115.416 18.8947V18.2812C115.416 17.8242 115.338 17.5175 115.11 17.3611C114.881 17.1326 114.574 17.0544 114.111 17.0544H108.903C108.753 17.0544 108.753 17.1326 108.753 17.2048V20.1215Z" fill="#475569"/>
		<path d="M122.465 15.0698C122.693 15.0698 122.771 15.148 122.771 15.3765V20.9694C122.771 21.3543 122.771 21.661 122.849 21.8896C122.928 22.1181 123 22.3466 123.156 22.503C123.313 22.6594 123.463 22.7315 123.691 22.8097C123.92 22.8879 124.227 22.8879 124.612 22.8879H128.521C128.905 22.8879 129.212 22.8879 129.441 22.8097C129.669 22.7315 129.898 22.6594 129.976 22.503C130.126 22.3526 130.204 22.1181 130.283 21.8896C130.361 21.661 130.361 21.3543 130.361 20.9694V15.3765C130.361 15.148 130.439 15.0698 130.668 15.0698H132.201C132.43 15.0698 132.508 15.148 132.508 15.3765V21.198C132.508 21.8896 132.43 22.4248 132.279 22.8819C132.129 23.3389 131.894 23.7238 131.588 24.0305C131.281 24.3372 130.896 24.5658 130.361 24.6439C129.826 24.7943 129.29 24.8725 128.521 24.8725H124.461C123.77 24.8725 123.156 24.7943 122.621 24.6439C122.164 24.4936 121.701 24.259 121.394 24.0305C121.087 23.7238 120.859 23.3389 120.703 22.8819C120.552 22.4248 120.474 21.8114 120.474 21.198V15.3765C120.474 15.148 120.552 15.0698 120.781 15.0698H122.314H122.465Z" fill="#475569"/>
		<path d="M138.546 15.0698C138.774 15.0698 138.931 15.0698 139.081 15.148C139.231 15.148 139.388 15.2262 139.466 15.2984C139.544 15.3765 139.694 15.4487 139.773 15.6051C139.851 15.7554 139.923 15.9118 140.079 16.1403L142.99 22.8819C143.068 22.96 143.068 23.0322 143.218 23.0322H143.369C143.447 23.0322 143.519 22.954 143.597 22.8819L146.508 16.1403C146.586 15.9118 146.658 15.7554 146.815 15.6051C146.893 15.4547 146.965 15.3765 147.122 15.2984C147.2 15.2202 147.35 15.148 147.506 15.148C147.663 15.148 147.813 15.0698 148.042 15.0698H149.575C150.032 15.0698 150.417 15.148 150.573 15.3765C150.724 15.6051 150.802 15.99 150.802 16.5252V24.5658C150.802 24.7943 150.724 24.8725 150.495 24.8725H149.04C148.811 24.8725 148.733 24.7943 148.733 24.5658V17.2168C148.733 17.1386 148.655 17.0664 148.655 17.0664H148.505C148.427 17.0664 148.354 17.1446 148.354 17.1446L145.522 23.4231C145.444 23.6516 145.293 23.8802 145.137 24.0365C144.981 24.1929 144.908 24.3432 144.752 24.4936C144.602 24.5718 144.445 24.7221 144.295 24.7221C144.145 24.8003 143.91 24.8003 143.682 24.8003H142.99C142.761 24.8003 142.533 24.8003 142.377 24.7221C142.22 24.6439 142.07 24.5718 141.92 24.4936C141.769 24.4154 141.691 24.2651 141.535 24.0365C141.384 23.8862 141.306 23.6516 141.15 23.4231L138.317 17.1446C138.317 17.0664 138.239 17.0664 138.167 17.0664H138.016C137.938 17.0664 137.938 17.1446 137.938 17.2168V24.5718C137.938 24.8003 137.86 24.8785 137.632 24.8785H136.17C135.942 24.8785 135.864 24.8003 135.864 24.5718V16.5252C135.864 15.99 135.942 15.6051 136.092 15.3765C136.242 15.148 136.627 15.0698 137.09 15.0698H138.624H138.546Z" fill="#475569"/>
	</g>
	<defs>
		<clipPath id="clip0_1324_803">
			<rect width="150.347" height="38.3085" fill="white" transform="translate(0.376617 0.817383)"/>
		</clipPath>
	</defs>
</svg>
