<svg width="99" height="27" viewBox="0 0 99 27" fill="none" xmlns="http://www.w3.org/2000/svg">
	<g clip-path="url(#clip0_2758_4216)">
		<path d="M29.96 24.048V2.95221H36.8601C39.1483 2.95221 40.8714 3.42645 42.0254 4.37493C43.1794 5.31945 43.7564 6.72241 43.7564 8.5838C43.7564 9.56785 43.4797 10.4452 42.9146 11.2C42.3574 11.9628 41.5946 12.5516 40.6264 12.9666C41.7685 13.2827 42.6696 13.8913 43.3335 14.7805C43.9974 15.6776 44.3215 16.7407 44.3215 17.9698C44.3215 19.8628 43.709 21.3487 42.4799 22.4276C41.2548 23.5105 39.5238 24.048 37.283 24.048H29.96ZM32.7461 14.2272V21.7637H37.3344C38.6306 21.7637 39.6542 21.4317 40.4011 20.7638C41.1481 20.096 41.5235 19.1751 41.5235 18.0093C41.5235 15.4879 40.1443 14.2272 37.3779 14.2272H32.7461ZM32.7461 11.943H36.9431C38.1603 11.943 39.1325 11.6347 39.8676 11.0261C40.5948 10.4175 40.9623 9.59551 40.9623 8.55218C40.9623 7.3903 40.6224 6.54852 39.9467 6.02291C39.2709 5.49334 38.2394 5.23251 36.8601 5.23251H32.7461V11.943ZM60.0781 18.531H51.2335L49.2496 24.0519H46.3805L54.4386 2.95221H56.873L64.943 24.0519H62.0897L60.0781 18.531ZM52.0793 16.2467H59.2561L55.6598 6.38649L52.0793 16.2467ZM74.001 14.6462C71.6179 13.9585 69.883 13.1128 68.7923 12.1129C67.7055 11.1131 67.1601 9.8761 67.1601 8.40991C67.1601 6.75007 67.828 5.37478 69.1519 4.28403C70.4837 3.19723 72.2068 2.65186 74.329 2.65186C75.7794 2.65186 77.0756 2.93245 78.2059 3.49363C79.3441 4.05086 80.2175 4.82545 80.8419 5.81345C81.4663 6.7975 81.7785 7.87639 81.7785 9.04223H78.9845C78.9845 7.76574 78.5774 6.76193 77.7672 6.03081C76.9571 5.30364 75.807 4.93611 74.329 4.93611C72.9577 4.93611 71.8906 5.23646 71.1239 5.84112C70.3533 6.44972 69.97 7.28359 69.97 8.35854C69.97 9.22007 70.3296 9.95119 71.0647 10.544C71.7918 11.1368 73.0327 11.6822 74.7874 12.1762C76.5382 12.6702 77.9135 13.2155 78.9015 13.8083C79.8895 14.4011 80.6245 15.0927 81.1027 15.891C81.5809 16.6814 81.818 17.6181 81.818 18.6891C81.818 20.4003 81.1501 21.7716 79.8183 22.7991C78.4825 23.8266 76.7042 24.3404 74.4713 24.3404C73.0209 24.3404 71.6654 24.0638 70.4126 23.5105C69.1598 22.9533 68.1916 22.1905 67.5079 21.2262C66.8242 20.2619 66.4882 19.1633 66.4882 17.9382H69.2823C69.2823 19.2107 69.7526 20.2145 70.6971 20.9496C71.6377 21.6847 72.8944 22.0562 74.4713 22.0562C75.9414 22.0562 77.0638 21.7558 77.8463 21.1551C78.6327 20.5583 79.024 19.7403 79.024 18.7128C79.024 17.6773 78.6564 16.879 77.9372 16.3139C77.2219 15.7567 75.9058 15.1955 74.001 14.6462ZM97.3217 14.3142H88.1807V21.7637H98.7998V24.048H85.3985V2.95221H98.6575V5.23646H88.1807V12.0299H97.3217V14.3142Z" fill="#334155"/>
		<path d="M12.5792 26.1266C19.5505 26.1266 25.2058 20.4752 25.2058 13.4999C25.2058 6.5286 19.5545 0.873291 12.5792 0.873291C5.96751 0.873291 0.537471 5.96347 0 12.4368H16.6853V14.5591H0C0.537471 21.0364 5.96751 26.1266 12.5792 26.1266Z" fill="#334155"/>
	</g>
	<defs>
		<clipPath id="clip0_2758_4216">
			<rect width="98.8" height="25.2533" fill="white" transform="translate(0 0.873291)"/>
		</clipPath>
	</defs>
</svg>
