<svg width="124" height="39" viewBox="0 0 124 39" fill="none" xmlns="http://www.w3.org/2000/svg">
	<path fill-rule="evenodd" clip-rule="evenodd" d="M15.5337 1.52554C14.6367 2.04378 11.4902 3.86797 8.54146 5.5793C5.59275 7.29063 2.64457 8.99913 1.99001 9.37596L0.799805 10.0611L0.81197 19.5388L0.824087 29.0165L1.68959 29.517C2.16561 29.7923 4.66474 31.2295 7.24321 32.7108C12.0754 35.4868 16.9688 38.3035 17.1062 38.388C17.1926 38.4412 16.9881 38.5575 25.9236 33.3733C28.7797 31.7162 31.6622 30.0481 32.329 29.6663L33.5414 28.9721L33.5311 19.4787L33.5207 9.98531L32.4869 9.3875C31.9183 9.0587 29.0189 7.39367 26.0438 5.68744C21.8554 3.28544 18.2333 1.20333 17.1926 0.599505C17.1772 0.59061 16.4307 1.00735 15.5337 1.52554ZM21.9219 11.3255L26.6169 14.0182L26.617 19.4757L26.6171 24.9331L21.9084 27.6568L17.1997 30.3806L12.4867 27.6809L7.77376 24.9812L7.77462 19.5237L7.77544 14.0663L12.4726 11.3371C15.056 9.83606 17.1826 8.61355 17.1983 8.62042C17.2141 8.62725 19.3397 9.84457 21.9219 11.3255ZM79.2399 12.1573C78.2456 12.511 77.9473 13.6948 78.6505 14.4958C78.7315 14.588 78.9207 14.7238 79.0709 14.7976C79.4366 14.9772 79.952 14.9876 80.2878 14.8222C81.1746 14.3853 81.3945 13.2841 80.7396 12.5592C80.3771 12.1579 79.7275 11.9838 79.2399 12.1573ZM100.149 12.1445C99.1201 12.4272 98.7343 13.6619 99.4286 14.4506C99.5357 14.5723 99.7342 14.7299 99.8697 14.8009C100.077 14.9096 100.177 14.9299 100.501 14.9299C100.825 14.9299 100.924 14.9096 101.132 14.8009C101.987 14.3529 102.181 13.2714 101.538 12.5384C101.226 12.1837 100.626 12.0135 100.149 12.1445ZM57.7787 19.115V25.9687L58.8726 25.9558L59.9665 25.9429L59.9921 22.9857C60.0089 21.0457 60.0356 19.9785 60.0698 19.883C60.4014 18.9574 61.1394 18.4714 62.134 18.5236C62.4325 18.5392 62.5883 18.5749 62.7906 18.6739C63.1193 18.8347 63.4664 19.199 63.6362 19.5613L63.7651 19.8363L63.7788 22.9025L63.7925 25.9688L64.8366 25.9558L65.8808 25.9429V22.6732C65.8808 19.4281 65.88 19.4003 65.7711 18.9708C65.4002 17.5071 64.4406 16.6536 62.9826 16.4904C61.8779 16.3668 60.8389 16.6978 60.1829 17.3822L60.0146 17.5577L59.9906 14.9225L59.9665 12.2872L58.8726 12.2743L57.7787 12.2613V19.115ZM94.4182 19.115V25.9687L95.5121 25.9558L96.606 25.9429V19.115V12.2872L95.5121 12.2743L94.4182 12.2613V19.115ZM115.26 12.3233C115.248 12.3563 115.243 15.4343 115.25 19.1631L115.262 25.9429H116.344H117.426L117.45 24.6408L117.474 23.3387L118.017 22.7666C118.345 22.4217 118.574 22.2155 118.594 22.2475C118.613 22.2767 119.211 23.1255 119.923 24.1337L121.217 25.9669H122.558H123.9L123.79 25.8106C123.729 25.7247 122.873 24.5349 121.887 23.1666C120.901 21.7984 120.095 20.6599 120.095 20.6368C120.095 20.6136 120.89 19.7845 121.862 18.7944C122.834 17.8043 123.681 16.9359 123.745 16.8645L123.862 16.7349H122.413H120.964L119.219 18.5694L117.474 20.404L117.462 16.3336L117.45 12.2632H116.366C115.544 12.2632 115.278 12.2776 115.26 12.3233ZM48.8593 12.3665C46.2163 12.7047 43.9398 14.7088 43.2688 17.2879C42.9819 18.391 42.9594 20.0228 43.2158 21.1336C43.7091 23.2705 45.3314 25.1035 47.3808 25.8397C48.6848 26.308 50.2669 26.3917 51.5609 26.0608C53.1795 25.6468 54.6133 24.5013 55.3865 23.0043C55.5857 22.6185 55.8844 21.8418 55.8463 21.8085C55.8098 21.7765 53.784 21.1469 53.7719 21.1638C53.7644 21.1742 53.7001 21.3345 53.6289 21.5201C53.1629 22.7357 52.1463 23.6275 50.8307 23.9745C50.3388 24.1043 49.2977 24.0948 48.7259 23.9553C46.9903 23.5322 45.8396 22.295 45.4958 20.4828C45.1066 18.4311 45.7523 16.4026 47.1278 15.3559C47.9843 14.7042 48.9009 14.4402 50.1497 14.4859C51.0519 14.5188 51.5992 14.7152 52.3393 15.2715C52.8648 15.6665 53.3802 16.4251 53.5705 17.0835C53.6144 17.2356 53.6765 17.36 53.7085 17.36C53.7606 17.36 55.4626 16.7982 55.6792 16.7095C55.7913 16.6637 55.7619 16.4814 55.5599 15.9696C55.2461 15.1743 54.8479 14.5822 54.2126 13.9664C53.6316 13.4031 53.0265 13.0232 52.2386 12.7269C51.3193 12.3811 49.9154 12.2313 48.8593 12.3665ZM71.6267 16.4998C70.3403 16.5922 69.1958 17.251 68.6061 18.2385C68.428 18.5367 68.2287 19.0769 68.2046 19.3266L68.1888 19.4901L69.1858 19.7155C70.2875 19.9644 70.1923 19.9748 70.2561 19.5985C70.3391 19.1088 70.8157 18.5612 71.3264 18.3684C71.5662 18.2779 71.6756 18.2667 72.1556 18.2834C72.6327 18.3001 72.7482 18.3209 72.9971 18.4351C73.3367 18.591 73.5218 18.7545 73.6578 19.0189C73.7802 19.2567 73.8227 19.7856 73.7328 19.9519C73.5922 20.2118 73.4893 20.2427 71.958 20.4847C70.2763 20.7504 70.018 20.8106 69.5244 21.0513C67.8409 21.8727 67.5215 24.031 68.8816 25.3954C69.5106 26.0265 70.1035 26.2534 71.1262 26.2547C72.2594 26.2561 73.1704 25.8581 73.7664 25.1015L73.9588 24.8572L73.9702 25.0635C73.9765 25.1769 73.9946 25.4266 74.0104 25.6183L74.0391 25.9669H75.0612H76.0832L76.0387 25.7385C76.0141 25.6129 75.9777 24.082 75.9578 22.3366C75.9177 18.8221 75.9284 18.9397 75.5866 18.2416C74.9801 17.0029 73.5261 16.3633 71.6267 16.4998ZM87.5904 16.5714C86.95 16.7423 86.3011 17.167 85.9338 17.6556L85.7151 17.9465V17.3407V16.7349H84.6573H83.5995V21.3509V25.9669H84.6813C85.2764 25.9669 85.7677 25.9615 85.7731 25.9549C85.7786 25.9482 85.7948 24.5797 85.8092 22.9136L85.8353 19.8844L85.9642 19.6094C86.4435 18.5869 87.6991 18.1805 88.7132 18.7196C89.0365 18.8914 89.265 19.1616 89.4279 19.5645C89.5374 19.8353 89.5378 19.8476 89.5618 22.8896L89.5858 25.9429H90.6677H91.7496L91.762 22.8174C91.7724 20.199 91.7626 19.6233 91.7015 19.2685C91.4538 17.8325 90.5861 16.863 89.2879 16.5721C88.852 16.4744 87.9551 16.4741 87.5904 16.5714ZM108.41 16.5714C107.77 16.7423 107.121 17.167 106.754 17.6556L106.535 17.9465V17.3407V16.7349H105.477H104.42V21.3518V25.9687L105.513 25.9558L106.607 25.9429V23.0579C106.607 21.4711 106.626 20.0971 106.649 20.0046C106.719 19.7245 106.947 19.3162 107.151 19.1064C107.555 18.6904 108.082 18.4936 108.716 18.5223C109.401 18.5533 109.91 18.8774 110.201 19.4677L110.358 19.786L110.382 22.8645L110.406 25.9429H111.488H112.57L112.583 22.8896C112.598 19.5849 112.582 19.2804 112.356 18.6217C112.172 18.0854 111.958 17.7375 111.577 17.3575C111.205 16.9851 110.655 16.6909 110.108 16.5706C109.671 16.4745 108.772 16.4749 108.41 16.5714ZM78.5988 21.3518V25.9687L79.6927 25.9558L80.7866 25.9429L80.7989 21.3389L80.8111 16.7349H79.705H78.5988V21.3518ZM99.4189 21.3509V25.9669H100.501H101.583V21.3509V16.7349H100.501H99.4189V21.3509ZM73.8005 22.8738C73.6411 23.644 73.0051 24.2985 72.2463 24.4734C71.9279 24.5468 71.29 24.5349 71.0436 24.4509C70.0731 24.1203 69.9457 22.8062 70.8337 22.2858C71.0155 22.1792 71.249 22.1304 72.4068 21.9567L73.7664 21.7527L73.8092 22.1889C73.8375 22.4774 73.8346 22.7093 73.8005 22.8738Z" fill="#334155"/>
</svg>
