<svg width="49" height="48" viewBox="0 0 49 48" fill="none" xmlns="http://www.w3.org/2000/svg">
    <rect x="0.666504" width="48" height="48" rx="24" fill="#1E293B"/>
    <path d="M24.6662 15.3334C22.9521 15.3334 21.2765 15.8417 19.8512 16.794C18.426 17.7463 17.3152 19.0998 16.6592 20.6835C16.0033 22.2671 15.8316 24.0097 16.166 25.6908C16.5004 27.372 17.3259 28.9162 18.5379 30.1283C19.75 31.3404 21.2942 32.1658 22.9754 32.5002C24.6566 32.8346 26.3991 32.663 27.9828 32.007C29.5664 31.351 30.9199 30.2402 31.8723 28.815C32.8246 27.3898 33.3328 25.7141 33.3328 24C33.3304 21.7022 32.4166 19.4993 30.7918 17.8745C29.167 16.2497 26.964 15.3358 24.6662 15.3334ZM30.0095 26.4284C30.1611 26.5194 30.2704 26.667 30.3132 26.8386C30.356 27.0102 30.3289 27.1918 30.2378 27.3434C30.1468 27.495 29.9992 27.6042 29.8276 27.647C29.656 27.6899 29.4745 27.6628 29.3228 27.5717L25.3328 25.1775V29.5C25.3328 29.6769 25.2626 29.8464 25.1376 29.9714C25.0126 30.0965 24.843 30.1667 24.6662 30.1667C24.4894 30.1667 24.3198 30.0965 24.1948 29.9714C24.0698 29.8464 23.9995 29.6769 23.9995 29.5V25.1775L20.0095 27.5717C19.8579 27.6628 19.6763 27.6899 19.5047 27.647C19.3331 27.6042 19.1856 27.495 19.0945 27.3434C19.0035 27.1918 18.9764 27.0102 19.0192 26.8386C19.062 26.667 19.1712 26.5194 19.3228 26.4284L23.3703 24L19.3228 21.5717C19.1712 21.4806 19.062 21.3331 19.0192 21.1615C18.9764 20.9899 19.0035 20.8083 19.0945 20.6567C19.1856 20.5051 19.3331 20.3959 19.5047 20.353C19.6763 20.3102 19.8579 20.3373 20.0095 20.4284L23.9995 22.8225V18.5C23.9995 18.3232 24.0698 18.1537 24.1948 18.0286C24.3198 17.9036 24.4894 17.8334 24.6662 17.8334C24.843 17.8334 25.0126 17.9036 25.1376 18.0286C25.2626 18.1537 25.3328 18.3232 25.3328 18.5V22.8225L29.3228 20.4284C29.3979 20.3833 29.4811 20.3534 29.5678 20.3405C29.6544 20.3276 29.7427 20.3318 29.8276 20.353C29.9126 20.3742 29.9926 20.412 30.0629 20.4641C30.1333 20.5162 30.1928 20.5816 30.2378 20.6567C30.2829 20.7318 30.3128 20.815 30.3257 20.9016C30.3386 20.9882 30.3344 21.0765 30.3132 21.1615C30.292 21.2465 30.2543 21.3264 30.2021 21.3968C30.15 21.4672 30.0846 21.5266 30.0095 21.5717L25.962 24L30.0095 26.4284Z" fill="#94A3B8"/>
</svg>
