<svg width="51" height="51" viewBox="0 0 51 51" fill="none" xmlns="http://www.w3.org/2000/svg">
    <rect width="50.6667" height="50.6667" rx="25.3333" fill="#1E293B"/>
    <path fill-rule="evenodd" clip-rule="evenodd" d="M25.3335 14.5834C23.2748 14.5834 21.0286 15.3124 19.2904 16.0373L19.2236 16.0652C18.3193 16.4421 17.7246 16.69 17.1034 17.2662C16.6124 17.7216 16.1072 18.4796 15.8759 19.108C15.5831 19.9036 15.5832 20.6705 15.5835 21.8459L15.5835 21.957L15.5835 24.0306L15.5835 24.1467C15.5834 26.3431 15.5833 27.6082 16.014 28.9301C16.3499 29.9609 17.1152 31.2823 17.8422 32.0867C18.7742 33.1178 19.6382 33.6134 21.13 34.4692L21.1863 34.5015C21.9266 34.9262 22.6759 35.3141 23.3673 35.5979C24.0406 35.8743 24.7323 36.0833 25.3335 36.0833C25.9347 36.0833 26.6264 35.8743 27.2998 35.5979C27.9911 35.3141 28.7405 34.9262 29.4808 34.5015L29.537 34.4692L29.5371 34.4692C31.0289 33.6134 31.8928 33.1178 32.8248 32.0867C33.5518 31.2823 34.3172 29.9609 34.6531 28.9301C35.0837 27.6082 35.0837 26.3431 35.0835 24.1467L35.0835 24.0306L35.0835 21.957L35.0835 21.8459C35.0838 20.6705 35.084 19.9036 34.7911 19.108C34.5598 18.4796 34.0546 17.7216 33.5637 17.2662C32.9425 16.69 32.3477 16.4421 31.4435 16.0652L31.3767 16.0373C29.6385 15.3124 27.3923 14.5834 25.3335 14.5834ZM29.3638 22.303C29.6567 22.5959 29.6567 23.0708 29.3638 23.3637L24.8638 27.8637C24.571 28.1566 24.0961 28.1566 23.8032 27.8637L21.8032 25.8637C21.5103 25.5708 21.5103 25.0959 21.8032 24.803C22.0961 24.5102 22.571 24.5102 22.8638 24.803L24.3335 26.2727L28.3032 22.303C28.5961 22.0102 29.071 22.0102 29.3638 22.303Z" fill="#94A3B8"/>
</svg>
