<svg width="51" height="51" viewBox="0 0 51 51" fill="none" xmlns="http://www.w3.org/2000/svg">
    <rect x="0.333496" width="50.6667" height="50.6667" rx="25.3333" fill="#1E293B"/>
    <path d="M33.283 19.8134L33.297 19.7964L29.297 16.5564L28.037 18.1104L30.104 19.7844C29.5912 20.096 29.1841 20.5546 28.9355 21.1007C28.6869 21.6468 28.6083 22.255 28.71 22.8464C28.86 23.7454 29.479 24.5224 30.28 24.9574C31.175 25.4444 31.96 25.3994 32.658 25.1514L32.643 31.3334C32.6442 31.499 32.6041 31.6622 32.5263 31.8084C32.4486 31.9546 32.3356 32.0791 32.1976 32.1706C32.0596 32.2622 31.9009 32.3178 31.736 32.3326C31.5711 32.3474 31.4051 32.3209 31.253 32.2554C31.1339 32.2044 31.0259 32.1307 30.935 32.0384C30.8425 31.9457 30.7693 31.8358 30.7193 31.7148C30.6694 31.5939 30.6438 31.4642 30.644 31.3334L30.667 29.3334C30.668 28.9398 30.591 28.5498 30.4405 28.1861C30.29 27.8224 30.0689 27.4922 29.79 27.2144C29.5114 26.9352 29.1805 26.7137 28.8162 26.5625C28.4519 26.4113 28.0614 26.3335 27.667 26.3334H26.667V18.3334C26.667 17.8029 26.4563 17.2942 26.0812 16.9192C25.7061 16.5441 25.1974 16.3334 24.667 16.3334H17.667C17.1366 16.3334 16.6279 16.5441 16.2528 16.9192C15.8777 17.2942 15.667 17.8029 15.667 18.3334V32.3334C15.667 32.8638 15.8777 33.3725 16.2528 33.7476C16.6279 34.1227 17.1366 34.3334 17.667 34.3334H24.667C25.1974 34.3334 25.7061 34.1227 26.0812 33.7476C26.4563 33.3725 26.667 32.8638 26.667 32.3334V28.3334H27.667C27.803 28.3334 27.934 28.3604 28.058 28.4114C28.296 28.5156 28.4857 28.706 28.589 28.9444C28.6409 29.0675 28.6674 29.1998 28.667 29.3334L28.643 31.3334C28.643 31.7394 28.722 32.1324 28.879 32.5014C29.03 32.8604 29.247 33.1814 29.52 33.4524C29.7976 33.7329 30.1283 33.9553 30.4928 34.1066C30.8573 34.2578 31.2483 34.3349 31.643 34.3334C32.049 34.3334 32.441 34.2554 32.811 34.0974C33.169 33.9474 33.491 33.7304 33.762 33.4564C34.0419 33.1784 34.264 32.8476 34.4152 32.4831C34.5664 32.1187 34.6438 31.7279 34.643 31.3334L34.667 22.3334C34.666 21.831 34.5387 21.3369 34.2969 20.8966C34.0551 20.4562 33.7064 20.0838 33.283 19.8134ZM24.667 21.3334H17.667V18.3334H24.667V21.3334ZM31.667 23.3334C31.4018 23.3334 31.1474 23.228 30.9599 23.0405C30.7723 22.8529 30.667 22.5986 30.667 22.3334C30.667 22.0682 30.7723 21.8138 30.9599 21.6263C31.1474 21.4387 31.4018 21.3334 31.667 21.3334C31.9322 21.3334 32.1866 21.4387 32.3741 21.6263C32.5616 21.8138 32.667 22.0682 32.667 22.3334C32.667 22.5986 32.5616 22.8529 32.3741 23.0405C32.1866 23.228 31.9322 23.3334 31.667 23.3334Z" fill="#94A3B8"/>
</svg>
