<svg width="51" height="51" viewBox="0 0 51 51" fill="none" xmlns="http://www.w3.org/2000/svg">
    <rect y="0.00012207" width="50.6667" height="50.6667" rx="25.3333" fill="#1E293B"/>
    <path fill-rule="evenodd" clip-rule="evenodd" d="M26.3234 14.4136C25.447 14.2182 24.7024 14.7676 24.0871 15.3684C23.4397 16.0003 22.6666 16.9668 21.6972 18.1785L21.6609 18.2239L18.1233 22.6458L18.0943 22.6822C17.5078 23.4152 17.0283 24.0145 16.7125 24.5121C16.3993 25.0056 16.1396 25.5571 16.2287 26.1615C16.2951 26.6127 16.4972 27.033 16.808 27.3668C17.2242 27.8138 17.8172 27.9556 18.3982 28.0193C18.984 28.0835 19.7515 28.0835 20.6903 28.0835H20.7368C21.2653 28.0835 21.6066 28.0843 21.8641 28.1099C22.1096 28.1343 22.1967 28.1751 22.2411 28.2038C22.3301 28.2614 22.4058 28.3371 22.4634 28.426C22.4921 28.4704 22.5329 28.5575 22.5573 28.803C22.5828 29.0605 22.5837 29.4019 22.5837 29.9304V30.19V30.2482C22.5837 31.8 22.5837 33.0376 22.6944 33.9355C22.7996 34.789 23.0378 35.6832 23.8443 36.0781C24.0033 36.156 24.1711 36.2148 24.3439 36.2534C25.2203 36.4488 25.965 35.8993 26.5803 35.2986C27.2277 34.6666 28.0008 33.7002 28.9701 32.4885L29.0065 32.443L32.544 28.0211L32.5732 27.9847C33.1596 27.2517 33.639 26.6524 33.9548 26.1549C34.268 25.6614 34.5278 25.1098 34.4387 24.5055C34.3722 24.0543 34.1702 23.634 33.8594 23.3002C33.4431 22.8531 32.8502 22.7114 32.2692 22.6477C31.6834 22.5835 30.9159 22.5835 29.9771 22.5835H29.9306C29.4021 22.5835 29.0607 22.5826 28.8032 22.5571C28.5577 22.5327 28.4706 22.4919 28.4262 22.4632C28.3373 22.4056 28.2616 22.3299 28.204 22.2409C28.1753 22.1965 28.1345 22.1094 28.1101 21.8639C28.0845 21.6064 28.0837 21.2651 28.0837 20.7366V20.4769V20.4187V20.4187C28.0837 18.867 28.0837 17.6294 27.973 16.7315C27.8678 15.878 27.6296 14.9837 26.8231 14.5889C26.664 14.511 26.4963 14.4522 26.3234 14.4136Z" fill="#94A3B8"/>
</svg>
