<svg width="51" height="51" viewBox="0 0 51 51" fill="none" xmlns="http://www.w3.org/2000/svg">
    <rect y="0.00012207" width="50.6667" height="50.6667" rx="25.3333" fill="#1E293B"/>
    <path d="M25.3335 23.3335C29.3095 23.3335 33.3335 21.9595 33.3335 19.3335C33.3335 16.7075 29.3095 15.3335 25.3335 15.3335C21.3575 15.3335 17.3335 16.7075 17.3335 19.3335C17.3335 21.9595 21.3575 23.3335 25.3335 23.3335Z" fill="#94A3B8"/>
    <path d="M17.3335 23.3335C17.3335 25.9595 21.3575 27.3335 25.3335 27.3335C29.3095 27.3335 33.3335 25.9595 33.3335 23.3335V21.3335C33.3335 23.9595 29.3095 25.3335 25.3335 25.3335C21.3575 25.3335 17.3335 23.9595 17.3335 21.3335V23.3335Z" fill="#94A3B8"/>
    <path d="M17.3335 27.3335C17.3335 29.9595 21.3575 31.3335 25.3335 31.3335C29.3095 31.3335 33.3335 29.9595 33.3335 27.3335V25.3335C33.3335 27.9595 29.3095 29.3335 25.3335 29.3335C21.3575 29.3335 17.3335 27.9595 17.3335 25.3335V27.3335Z" fill="#94A3B8"/>
    <path d="M17.3335 31.3335C17.3335 33.9595 21.3575 35.3335 25.3335 35.3335C29.3095 35.3335 33.3335 33.9595 33.3335 31.3335V29.3335C33.3335 31.9595 29.3095 33.3335 25.3335 33.3335C21.3575 33.3335 17.3335 31.9595 17.3335 29.3335V31.3335Z" fill="#94A3B8"/>
</svg>
