<svg width="51" height="51" viewBox="0 0 51 51" fill="none" xmlns="http://www.w3.org/2000/svg">
    <rect y="0.00012207" width="50.6667" height="50.6667" rx="25.3333" fill="#1E293B"/>
    <path fill-rule="evenodd" clip-rule="evenodd" d="M17.5835 19.3335C17.5835 16.7101 19.7101 14.5835 22.3335 14.5835C24.9568 14.5835 27.0835 16.7101 27.0835 19.3335C27.0835 21.9568 24.9568 24.0835 22.3335 24.0835C19.7101 24.0835 17.5835 21.9568 17.5835 19.3335ZM36.8638 20.8032C37.1567 21.0961 37.1567 21.5709 36.8638 21.8638L32.8638 25.8638C32.5709 26.1567 32.0961 26.1567 31.8032 25.8638L29.8032 23.8638C29.5103 23.5709 29.5103 23.0961 29.8032 22.8032C30.0961 22.5103 30.5709 22.5103 30.8638 22.8032L32.3335 24.2728L35.8032 20.8032C36.0961 20.5103 36.5709 20.5103 36.8638 20.8032ZM20.1335 26.5835C17.0683 26.5835 14.5835 29.0683 14.5835 32.1335C14.5835 34.315 16.352 36.0835 18.5335 36.0835H26.1335C28.315 36.0835 30.0835 34.315 30.0835 32.1335C30.0835 29.0683 27.5987 26.5835 24.5335 26.5835H20.1335Z" fill="#94A3B8"/>
</svg>
