<svg width="24" height="25" viewBox="0 0 24 25" fill="none" xmlns="http://www.w3.org/2000/svg">
    <g clip-path="url(#clip0_57_416)">
        <path d="M12 24.5C18.6274 24.5 24 19.1274 24 12.5C24 5.87258 18.6274 0.5 12 0.5C5.37258 0.5 0 5.87258 0 12.5C0 19.1274 5.37258 24.5 12 24.5Z" fill="#7A57DD"/>
        <path d="M11.9987 4.5V10.4133L16.9967 12.6467L11.9987 4.5Z" fill="white" fill-opacity="0.602"/>
        <path d="M11.9987 4.5L7 12.6467L11.9987 10.4133V4.5Z" fill="white"/>
        <path d="M11.9987 16.4786V20.4966L17 13.5773L11.9987 16.4786Z" fill="white" fill-opacity="0.602"/>
        <path d="M11.9987 20.4966V16.478L7 13.5773L11.9987 20.4966Z" fill="white"/>
        <path d="M11.9987 15.5487L16.9967 12.6466L11.9987 10.4146V15.5487Z" fill="white" fill-opacity="0.2"/>
        <path d="M7 12.6466L11.9987 15.5487V10.4146L7 12.6466Z" fill="white" fill-opacity="0.602"/>
    </g>
    <defs>
        <clipPath id="clip0_57_416">
            <rect width="24" height="24" fill="white" transform="translate(0 0.5)"/>
        </clipPath>
    </defs>
</svg>
