<svg width="32" height="32" viewBox="0 0 32 32" fill="none" xmlns="http://www.w3.org/2000/svg">
    <path d="M16 32C24.8667 32 32 24.8667 32 16C32 7.13328 24.8667 0 16 0C7.13328 0 0 7.13328 0 16C0 24.8667 7.13328 32 16 32Z" fill="#2775CA"/>
    <path d="M20.4 18.5338C20.4 16.2005 19 15.4005 16.2 15.0672C14.2001 14.8005 13.8001 14.2672 13.8001 13.3338C13.8001 12.4003 14.4668 11.8005 15.8 11.8005C17 11.8005 17.6668 12.2005 18 13.2005C18.0668 13.4005 18.2668 13.5338 18.4668 13.5338H19.5333C19.8 13.5338 20 13.3338 20 13.0672V13.0005C19.7333 11.5338 18.5333 10.4005 17 10.2672V8.66723C17 8.40051 16.8 8.20051 16.4668 8.13379H15.4668C15.2001 8.13379 15.0001 8.33379 14.9333 8.66723V10.2005C12.9333 10.4672 11.6668 11.8005 11.6668 13.4672C11.6668 15.6672 13.0001 16.5338 15.8 16.8672C17.6668 17.2005 18.2668 17.6005 18.2668 18.6672C18.2668 19.7339 17.3333 20.4672 16.0668 20.4672C14.3333 20.4672 13.7333 19.7338 13.5333 18.7338C13.4668 18.4672 13.2668 18.3338 13.0668 18.3338H11.9334C11.6668 18.3338 11.4668 18.5338 11.4668 18.8005V18.8672C11.7334 20.5338 12.8001 21.7338 15.0001 22.0672V23.6672C15.0001 23.9338 15.2001 24.1338 15.5333 24.2005H16.5333C16.8 24.2005 17 24.0005 17.0668 23.6672V22.0672C19.0667 21.7338 20.4 20.3338 20.4 18.5338Z" fill="white"/>
    <path d="M12.5993 25.5336C7.39935 23.667 4.73263 17.867 6.66607 12.7336C7.66607 9.93355 9.86607 7.80027 12.5993 6.80027C12.8661 6.66699 12.9993 6.46699 12.9993 6.13355V5.20027C12.9993 4.93355 12.8661 4.73355 12.5993 4.66699C12.5326 4.66699 12.3993 4.66699 12.3326 4.73355C5.99935 6.73355 2.53263 13.467 4.53263 19.8003C5.73263 23.5336 8.59935 26.4003 12.3326 27.6003C12.5993 27.7336 12.8661 27.6003 12.9326 27.3336C12.9993 27.267 12.9993 27.2003 12.9993 27.067V26.1336C12.9993 25.9336 12.7993 25.667 12.5993 25.5336ZM19.6661 4.73355C19.3993 4.60027 19.1326 4.73355 19.0661 5.00027C18.9993 5.06699 18.9993 5.13355 18.9993 5.26699V6.20027C18.9993 6.46699 19.1993 6.73355 19.3993 6.86699C24.5993 8.73355 27.2661 14.5336 25.3326 19.667C24.3326 22.467 22.1326 24.6003 19.3993 25.6003C19.1326 25.7336 18.9993 25.9336 18.9993 26.267V27.2003C18.9993 27.467 19.1326 27.667 19.3993 27.7336C19.4661 27.7336 19.5993 27.7336 19.6661 27.667C25.9993 25.667 29.4661 18.9336 27.4661 12.6003C26.2661 8.80027 23.3326 5.93355 19.6661 4.73355Z" fill="white"/>
</svg>
