<svg width="67" height="67" viewBox="0 0 67 67" fill="none" xmlns="http://www.w3.org/2000/svg">
    <path d="M65.6448 41.2675C61.2068 59.069 43.1767 69.9026 25.3731 65.4635C7.57692 61.0255 -3.25673 42.9943 1.18321 25.1943C5.61926 7.3908 23.6493 -3.44367 41.4474 0.99433C59.2498 5.43233 70.0828 23.4655 65.6443 41.2678L65.6446 41.2675H65.6448Z" fill="#f5882f"/>
    <path fill-rule="evenodd" clip-rule="evenodd" d="M48.0661 28.4948C48.7275 24.0727 45.3608 21.6957 40.7571 20.11L42.2506 14.1199L38.6042 13.2113L37.1504 19.0437C36.1918 18.8046 35.2074 18.5793 34.2289 18.356L35.6933 12.4851L32.0492 11.5765L30.555 17.5647C29.7617 17.3841 28.9826 17.2056 28.2267 17.0175L28.2309 16.9986L23.2025 15.743L22.2325 19.6375C22.2325 19.6375 24.9378 20.2576 24.8808 20.2958C26.3574 20.6643 26.6244 21.6418 26.58 22.4165L24.8788 29.2407C24.9805 29.2665 25.1124 29.3038 25.2579 29.3623L25.1518 29.3358L25.1517 29.3358C25.0619 29.3133 24.9684 29.2899 24.8725 29.267L22.488 38.8266C22.3075 39.2752 21.8495 39.9484 20.8172 39.6928C20.8537 39.7457 18.1669 39.0314 18.1669 39.0314L16.3566 43.2053L21.1017 44.3882C21.6211 44.5185 22.1344 44.6523 22.6425 44.7847L22.6429 44.7848C22.9982 44.8774 23.3509 44.9694 23.7014 45.059L22.1926 51.1178L25.8347 52.0264L27.329 46.0319C28.3239 46.302 29.2895 46.5512 30.2348 46.786L28.7456 52.7522L32.3921 53.6608L33.9008 47.6134C40.1186 48.7901 44.7939 48.3157 46.7618 42.6917C48.3476 38.1637 46.6829 35.552 43.4117 33.8489C45.7943 33.2994 47.5889 31.7324 48.0674 28.4953L48.0662 28.4945L48.0661 28.4948ZM39.735 40.1771C38.7011 44.3314 32.1985 42.6139 29.2234 41.8281C28.9558 41.7574 28.7167 41.6943 28.5127 41.6436L30.515 33.6167C30.7636 33.6788 31.0673 33.747 31.4114 33.8242L31.4116 33.8242C34.4891 34.5149 40.7943 35.9299 39.7352 40.1771H39.735ZM32.0289 30.0989C34.5093 30.7608 39.9203 32.2049 40.8627 28.4292H40.863C41.8253 24.5676 36.5667 23.4034 33.9984 22.8347C33.7095 22.7708 33.4546 22.7143 33.2464 22.6625L31.4311 29.9423C31.6025 29.9851 31.8036 30.0387 32.0289 30.0989Z" fill="#ffffff"/>
</svg>
