<svg width="330" height="330" xmlns="http://www.w3.org/2000/svg" clip-rule="evenodd" fill-rule="evenodd" stroke-linejoin="round" stroke-miterlimit="1.41421">
    <g>
        <circle cx="165" cy="165" r="163" fill="#f0f2f6"/>
        <g fill-rule="nonzero" transform="matrix(0.781253 0 0 0.781253 180 37.1453)" id="svg_1">
            <path d="m-12.68106,-44.88054l-2.795,9.5l0,275.668l2.795,2.79l127.962,-75.638l-127.962,-212.32z" fill="#343434" id="svg_2"/>
            <path d="m-12.68006,-44.88054l-127.962,212.32l127.962,75.639l0,-133.801l0,-154.158z" fill="#8c8c8c" id="svg_3"/>
            <path d="m-12.68106,267.30646l-1.575,1.92l0,98.199l1.575,4.601l128.038,-180.32l-128.038,75.6z" fill="#3c3c3b" id="svg_4"/>
            <path d="m-12.68006,372.02446l0,-104.72l-127.962,-75.6l127.962,180.32z" fill="#8c8c8c" id="svg_5"/>
            <path d="m-12.68106,243.07746l127.96,-75.637l-127.96,-58.162l0,133.799z" fill="#141414" id="svg_6"/>
            <path d="m-140.64106,167.44046l127.96,75.637l0,-133.799l-127.96,58.162z" fill="#393939" id="svg_7"/>
        </g>
    </g>
</svg>