<svg width="320" height="206" viewBox="0 0 320 206" fill="none" xmlns="http://www.w3.org/2000/svg">
    <g clip-path="url(#clip0_2758_3431)">
        <g filter="url(#filter0_b_2758_3431)">
            <path d="M0 24C0 12.6863 0 7.02944 3.51472 3.51472C7.02944 0 12.6863 0 24 0H296C307.314 0 312.971 0 316.485 3.51472C320 7.02944 320 12.6863 320 24V319H0V24Z" fill="#1E293B"/>
            <path d="M0.37037 24C0.37037 18.3327 0.371157 14.1194 0.806408 10.8821C1.24023 7.65539 2.09954 5.45368 3.77661 3.77661C5.45368 2.09954 7.65539 1.24023 10.8821 0.806408C14.1194 0.371157 18.3327 0.37037 24 0.37037H296C301.667 0.37037 305.881 0.371157 309.118 0.806408C312.345 1.24023 314.546 2.09954 316.223 3.77661C317.9 5.45368 318.76 7.65539 319.194 10.8821C319.629 14.1194 319.63 18.3327 319.63 24V318.63H0.37037V24Z" stroke="#1E293B" stroke-width="0.740741"/>
        </g>
        <path d="M12.5454 186.704V180.659H13.6743L15.5321 185.095L15.7098 185.637L15.8965 185.095L17.7454 180.659H18.8387V186.704H18.0209V181.646L17.5943 182.837L15.9765 186.704H15.3987L13.7809 182.828L13.3632 181.673V186.704H12.5454ZM20.8766 183.522H20.0943C20.2455 182.482 20.9299 181.868 22.0855 181.868C23.3477 181.868 23.961 182.606 23.961 183.708V185.566C23.961 186.108 24.0055 186.446 24.1299 186.704H23.3032C23.2143 186.517 23.1877 186.242 23.1788 185.957C22.7788 186.553 22.1388 186.81 21.5699 186.81C20.5921 186.81 19.9343 186.357 19.9343 185.459C19.9343 184.81 20.2899 184.339 20.9832 184.108C21.6232 183.895 22.2721 183.842 23.1788 183.833V183.726C23.1788 182.962 22.8232 182.544 22.0143 182.544C21.3388 182.544 20.9743 182.917 20.8766 183.522ZM20.7343 185.442C20.7343 185.877 21.0988 186.135 21.6499 186.135C22.521 186.135 23.1788 185.45 23.1788 184.642V184.419C21.1699 184.437 20.7343 184.864 20.7343 185.442ZM25.2434 186.704V181.984H26.0256V182.713C26.3456 182.135 26.8523 181.868 27.4211 181.868C27.6078 181.868 27.7767 181.913 27.8656 181.984V182.686C27.7323 182.642 27.5634 182.624 27.3767 182.624C26.4345 182.624 26.0256 183.21 26.0256 184.064V186.704H25.2434ZM28.5593 186.704V180.304H29.3416V184.01L31.3771 181.984H32.3371L30.186 184.09L32.4616 186.704H31.466L29.3416 184.295V186.704H28.5593ZM36.9015 185.166C36.6437 186.268 35.8526 186.81 34.777 186.81C33.4082 186.81 32.5815 185.886 32.5815 184.348C32.5815 182.748 33.4082 181.868 34.7326 181.868C36.0659 181.868 36.8659 182.784 36.8659 184.286V184.482H33.3815C33.4259 185.539 33.9237 186.135 34.777 186.135C35.4437 186.135 35.9148 185.815 36.0837 185.166H36.9015ZM34.7326 182.544C33.977 182.544 33.5237 183.015 33.4082 183.895H36.0482C35.9415 183.024 35.4704 182.544 34.7326 182.544ZM38.015 185.344V182.606H37.3572V181.984H38.015V180.899H38.7972V181.984H39.8372V182.606H38.7972V185.344C38.7972 185.913 38.9661 186.179 39.6594 186.179H39.8194V186.739C39.7305 186.784 39.535 186.81 39.3127 186.81C38.4327 186.81 38.015 186.339 38.015 185.344ZM44.2814 186.81C42.9303 186.81 42.1214 185.886 42.1214 184.348C42.1214 182.748 42.957 181.868 44.2814 181.868C45.6325 181.868 46.4414 182.81 46.4414 184.348C46.4414 185.939 45.6059 186.81 44.2814 186.81ZM44.2814 186.135C45.1614 186.135 45.6414 185.504 45.6414 184.348C45.6414 183.202 45.1525 182.544 44.2814 182.544C43.4014 182.544 42.9214 183.184 42.9214 184.348C42.9214 185.486 43.4103 186.135 44.2814 186.135ZM47.4482 186.704V181.984H48.2305V182.713C48.5505 182.135 49.0571 181.868 49.626 181.868C49.8127 181.868 49.9816 181.913 50.0705 181.984V182.686C49.9371 182.642 49.7682 182.624 49.5816 182.624C48.6393 182.624 48.2305 183.21 48.2305 184.064V186.704H47.4482ZM52.4463 186.81C51.193 186.81 50.4374 185.886 50.4374 184.348C50.4374 182.748 51.2107 181.868 52.4463 181.868C53.0063 181.868 53.4596 182.099 53.7707 182.535V180.304H54.553V186.704H53.7707V186.108C53.4596 186.553 53.0063 186.81 52.4463 186.81ZM52.4996 186.135C53.3263 186.135 53.7707 185.504 53.7707 184.348C53.7707 183.202 53.3085 182.544 52.4996 182.544C51.6818 182.544 51.2374 183.184 51.2374 184.348C51.2374 185.486 51.6996 186.135 52.4996 186.135ZM59.8789 185.166C59.6211 186.268 58.83 186.81 57.7545 186.81C56.3856 186.81 55.5589 185.886 55.5589 184.348C55.5589 182.748 56.3856 181.868 57.71 181.868C59.0434 181.868 59.8434 182.784 59.8434 184.286V184.482H56.3589C56.4034 185.539 56.9011 186.135 57.7545 186.135C58.4211 186.135 58.8923 185.815 59.0611 185.166H59.8789ZM57.71 182.544C56.9545 182.544 56.5011 183.015 56.3856 183.895H59.0256C58.9189 183.024 58.4478 182.544 57.71 182.544ZM60.8857 186.704V181.984H61.668V182.713C61.988 182.135 62.4946 181.868 63.0635 181.868C63.2502 181.868 63.4191 181.913 63.508 181.984V182.686C63.3746 182.642 63.2057 182.624 63.0191 182.624C62.0768 182.624 61.668 183.21 61.668 184.064V186.704H60.8857ZM67.2434 188.313C66.3723 186.953 65.919 185.628 65.919 184.304C65.919 182.979 66.3723 181.664 67.2434 180.304H68.0168C67.1812 181.699 66.7545 182.997 66.7545 184.304C66.7545 185.619 67.1812 186.917 68.0168 188.313H67.2434ZM73.6551 184.402C73.6551 185.895 72.7307 186.81 71.2462 186.81C69.7529 186.81 68.8284 185.895 68.8284 184.402V180.659H69.6551V184.402C69.6551 185.495 70.2507 186.153 71.2462 186.153C72.2418 186.153 72.8373 185.486 72.8373 184.402V180.659H73.6551V184.402ZM75.5895 182.135C75.5895 183.842 79.2961 182.517 79.2961 184.997C79.2961 186.162 78.3539 186.81 77.065 186.81C75.7673 186.81 74.8784 186.215 74.6117 184.997H75.465C75.6606 185.717 76.2028 186.108 77.0739 186.108C77.9806 186.108 78.4606 185.708 78.4606 185.104C78.4606 183.255 74.7539 184.633 74.7539 182.188C74.7539 181.317 75.4828 180.553 76.8161 180.553C77.9806 180.553 78.9139 181.113 79.1361 182.402H78.2739C78.0873 181.602 77.5717 181.255 76.7984 181.255C76.0339 181.255 75.5895 181.602 75.5895 182.135ZM80.3232 186.704V180.659H82.2965C84.172 180.659 85.3454 181.797 85.3454 183.69C85.3454 185.584 84.172 186.704 82.2965 186.704H80.3232ZM82.2965 186.037C83.6832 186.037 84.5098 185.166 84.5098 183.69C84.5098 182.197 83.6832 181.326 82.2965 181.326H81.1409V186.037H82.2965ZM87.6883 186.704V181.353H85.6172V180.659H90.5772V181.353H88.5061V186.704H87.6883ZM91.8138 188.313H91.0404C91.876 186.917 92.3027 185.619 92.3027 184.304C92.3027 182.997 91.876 181.699 91.0404 180.304H91.8138C92.6849 181.664 93.1382 182.979 93.1382 184.304C93.1382 185.628 92.6849 186.953 91.8138 188.313Z" fill="white"/>
        <path d="M101.259 182.963L104.222 185.926L107.185 182.963" stroke="#E2E8F0" stroke-width="1.11111" stroke-linecap="round" stroke-linejoin="round"/>
        <rect x="11.8521" y="197.037" width="296.296" height="32.5926" rx="5.92593" fill="#334155"/>
        <rect x="8.88867" y="28.1482" width="302.222" height="29.6296" rx="5.92593" fill="#334155"/>
        <rect x="11.8516" y="31.1111" width="145.185" height="23.7037" rx="5.92593" fill="#22C55E"/>
        <path d="M64.8516 45.3704L67.6293 42.5926L69.4812 44.4445L73.3701 40.5556" stroke="white" stroke-width="1.11111" stroke-linecap="round" stroke-linejoin="round"/>
        <path d="M69.6665 40.5556H73.3702V44.2593" stroke="white" stroke-width="1.11111" stroke-linecap="round" stroke-linejoin="round"/>
        <path d="M85.1048 46.963V39.9112H86.0589V46.1852H89.6055V46.963H85.1048ZM92.9027 47.0875C91.3264 47.0875 90.3827 46.0089 90.3827 44.2149C90.3827 42.3482 91.3576 41.3215 92.9027 41.3215C94.479 41.3215 95.4227 42.4208 95.4227 44.2149C95.4227 46.0712 94.4479 47.0875 92.9027 47.0875ZM92.9027 46.2993C93.9294 46.2993 94.4894 45.563 94.4894 44.2149C94.4894 42.8771 93.919 42.1097 92.9027 42.1097C91.8761 42.1097 91.3161 42.8563 91.3161 44.2149C91.3161 45.5423 91.8864 46.2993 92.9027 46.2993ZM96.5973 46.963V41.4563H97.5099V42.203C97.8833 41.6223 98.4848 41.3215 99.2107 41.3215C100.383 41.3215 101.077 42.006 101.077 43.2815V46.963H100.165V43.4682C100.165 42.6386 99.7914 42.0993 98.9618 42.0993C98.0492 42.0993 97.5099 42.9186 97.5099 43.7067V46.963H96.5973ZM104.492 47.0045C103.092 47.0045 102.252 45.9363 102.252 44.1734C102.252 42.3275 103.113 41.3215 104.492 41.3215C105.228 41.3215 105.778 41.5808 106.141 42.0578V41.4563H107.053V47.1289C107.053 48.6638 106.068 49.3793 104.803 49.3793C103.507 49.3793 102.594 48.7571 102.397 47.5023H103.31C103.424 48.2282 103.994 48.6223 104.793 48.6223C105.602 48.6223 106.141 48.1867 106.141 47.16V46.2163C105.757 46.7349 105.197 47.0045 104.492 47.0045ZM104.658 46.2163C105.622 46.2163 106.141 45.4904 106.141 44.163C106.141 42.8667 105.602 42.1097 104.658 42.1097C103.704 42.1097 103.185 42.8356 103.185 44.1734C103.185 45.4697 103.714 46.2163 104.658 46.2163Z" fill="white"/>
        <g clip-path="url(#clip1_2758_3431)">
            <path d="M214.963 40.5556L217.741 43.3334L219.593 41.4815L223.481 45.3704" stroke="#64748B" stroke-width="1.11111" stroke-linecap="round" stroke-linejoin="round"/>
            <path d="M219.778 45.3704H223.482V41.6667" stroke="#64748B" stroke-width="1.11111" stroke-linecap="round" stroke-linejoin="round"/>
            <path d="M235.942 41.6326C235.942 43.6238 240.266 42.0786 240.266 44.9719C240.266 46.3304 239.167 47.0875 237.664 47.0875C236.149 47.0875 235.112 46.3926 234.801 44.9719H235.797C236.025 45.8119 236.658 46.2682 237.674 46.2682C238.732 46.2682 239.292 45.8015 239.292 45.0963C239.292 42.9393 234.967 44.5467 234.967 41.6949C234.967 40.6786 235.818 39.7867 237.373 39.7867C238.732 39.7867 239.821 40.44 240.08 41.9438H239.074C238.856 41.0104 238.255 40.606 237.352 40.606C236.461 40.606 235.942 41.0104 235.942 41.6326ZM241.382 46.963V39.4963H242.294V42.203C242.668 41.6223 243.269 41.3215 243.995 41.3215C245.167 41.3215 245.862 42.006 245.862 43.2815V46.963H244.949V43.4682C244.949 42.6386 244.576 42.0993 243.746 42.0993C242.834 42.0993 242.294 42.9186 242.294 43.7067V46.963H241.382ZM249.556 47.0875C247.98 47.0875 247.036 46.0089 247.036 44.2149C247.036 42.3482 248.011 41.3215 249.556 41.3215C251.133 41.3215 252.076 42.4208 252.076 44.2149C252.076 46.0712 251.101 47.0875 249.556 47.0875ZM249.556 46.2993C250.583 46.2993 251.143 45.563 251.143 44.2149C251.143 42.8771 250.573 42.1097 249.556 42.1097C248.53 42.1097 247.97 42.8563 247.97 44.2149C247.97 45.5423 248.54 46.2993 249.556 46.2993ZM253.251 46.963V41.4563H254.164V42.3067C254.537 41.6326 255.128 41.3215 255.792 41.3215C256.009 41.3215 256.206 41.3734 256.31 41.4563V42.2756C256.155 42.2238 255.958 42.203 255.74 42.203C254.641 42.203 254.164 42.8875 254.164 43.883V46.963H253.251ZM257.244 45.3763V42.1823H256.477V41.4563H257.244V40.1912H258.157V41.4563H259.37V42.1823H258.157V45.3763C258.157 46.04 258.354 46.3512 259.163 46.3512H259.349V47.0045C259.245 47.0563 259.017 47.0875 258.758 47.0875C257.731 47.0875 257.244 46.5378 257.244 45.3763Z" fill="#64748B"/>
        </g>
        <path d="M12.8687 83.5927V76.5408H14.1857L16.3531 81.7156L16.5605 82.3482L16.7783 81.7156L18.9354 76.5408H20.2109V83.5927H19.2568V77.6919L18.7591 79.0815L16.8717 83.5927H16.1976L14.3102 79.0712L13.8228 77.723V83.5927H12.8687ZM22.5884 79.8801H21.6758C21.8521 78.6667 22.6506 77.9512 23.9988 77.9512C25.4714 77.9512 26.1869 78.8119 26.1869 80.0978V82.2652C26.1869 82.8978 26.2388 83.2919 26.384 83.5927H25.4195C25.3158 83.3749 25.2847 83.0534 25.2743 82.7215C24.8077 83.4164 24.061 83.7171 23.3973 83.7171C22.2566 83.7171 21.4891 83.1882 21.4891 82.1408C21.4891 81.3838 21.904 80.8341 22.7129 80.5645C23.4595 80.3156 24.2166 80.2534 25.2743 80.243V80.1186C25.2743 79.2267 24.8595 78.7393 23.9158 78.7393C23.1277 78.7393 22.7025 79.1749 22.5884 79.8801ZM22.4225 82.1201C22.4225 82.6282 22.8477 82.9289 23.4906 82.9289C24.5069 82.9289 25.2743 82.1304 25.2743 81.1867V80.9275C22.9306 80.9482 22.4225 81.446 22.4225 82.1201ZM27.683 83.5927V78.086H28.5956V78.9364C28.9689 78.2623 29.56 77.9512 30.2238 77.9512C30.4415 77.9512 30.6386 78.003 30.7423 78.086V78.9052C30.5867 78.8534 30.3897 78.8327 30.1719 78.8327C29.0726 78.8327 28.5956 79.5171 28.5956 80.5127V83.5927H27.683ZM31.5516 83.5927V76.126H32.4642V80.4504L34.8391 78.086H35.9591L33.4494 80.5438L36.1042 83.5927H34.9428L32.4642 80.7823V83.5927H31.5516ZM41.2842 81.7986C40.9834 83.0845 40.0605 83.7171 38.8056 83.7171C37.2086 83.7171 36.2442 82.6386 36.2442 80.8445C36.2442 78.9778 37.2086 77.9512 38.7538 77.9512C40.3093 77.9512 41.2427 79.0193 41.2427 80.7719V81.0001H37.1775C37.2293 82.2341 37.8101 82.9289 38.8056 82.9289C39.5834 82.9289 40.133 82.5556 40.3301 81.7986H41.2842ZM38.7538 78.7393C37.8723 78.7393 37.3434 79.2889 37.2086 80.3156H40.2886C40.1642 79.2993 39.6145 78.7393 38.7538 78.7393ZM42.5832 82.006V78.8119H41.8158V78.086H42.5832V76.8208H43.4958V78.086H44.7091V78.8119H43.4958V82.006C43.4958 82.6697 43.6928 82.9808 44.5017 82.9808H44.6884V83.6341C44.5847 83.686 44.3565 83.7171 44.0973 83.7171C43.0706 83.7171 42.5832 83.1675 42.5832 82.006Z" fill="#64748B"/>
        <path d="M63.9561 83.5927V76.5408H64.9102V82.8149H68.4569V83.5927H63.9561ZM69.5141 77.3497V76.126H70.4267V77.3497H69.5141ZM69.5141 83.5927V78.086H70.4267V83.5927H69.5141ZM71.8737 83.5927V78.086H72.7863V78.7912C73.1389 78.2312 73.6886 77.9512 74.3626 77.9512C75.1197 77.9512 75.6693 78.283 75.9286 78.926C76.2915 78.283 76.893 77.9512 77.6293 77.9512C78.7493 77.9512 79.4234 78.6356 79.4234 79.9112V83.5927H78.5108V80.0978C78.5108 79.2682 78.1789 78.7289 77.4323 78.7289C76.6026 78.7289 76.1049 79.5482 76.1049 80.3364V83.5927H75.1923V80.0978C75.1923 79.2682 74.8604 78.7289 74.1137 78.7289C73.2841 78.7289 72.7863 79.5482 72.7863 80.3364V83.5927H71.8737ZM80.8769 77.3497V76.126H81.7895V77.3497H80.8769ZM80.8769 83.5927V78.086H81.7895V83.5927H80.8769ZM83.361 82.006V78.8119H82.5936V78.086H83.361V76.8208H84.2736V78.086H85.487V78.8119H84.2736V82.006C84.2736 82.6697 84.4707 82.9808 85.2796 82.9808H85.4662V83.6341C85.3625 83.686 85.1344 83.7171 84.8751 83.7171C83.8484 83.7171 83.361 83.1675 83.361 82.006Z" fill="#64748B"/>
        <path d="M105.288 78.3141C105.288 80.0045 109.509 78.6356 109.509 81.5186C109.509 82.9393 108.347 83.7482 106.75 83.7482C105.143 83.7482 104.002 83.0015 103.733 81.4667H105.195C105.371 82.2134 105.91 82.6282 106.761 82.6282C107.632 82.6282 108.078 82.2652 108.078 81.6949C108.078 79.9008 103.867 81.2489 103.867 78.4386C103.867 77.3186 104.79 76.3852 106.46 76.3852C107.881 76.3852 109.084 77.0697 109.312 78.6564H107.829C107.663 77.8682 107.176 77.5052 106.419 77.5052C105.713 77.5052 105.288 77.8267 105.288 78.3141ZM110.62 81.8608V79.0608H109.904V78.0341H110.62V76.7586H111.947V78.0341H113.119V79.0608H111.947V81.7467C111.947 82.3275 112.113 82.6386 112.85 82.6386H113.099V83.6134C112.953 83.686 112.653 83.7482 112.29 83.7482C111.159 83.7482 110.62 83.1052 110.62 81.8608ZM116.303 83.7482C114.654 83.7482 113.638 82.6386 113.638 80.8238C113.638 78.9364 114.685 77.8786 116.303 77.8786C117.942 77.8786 118.958 78.9986 118.958 80.8238C118.958 82.6904 117.911 83.7482 116.303 83.7482ZM116.303 82.6489C117.143 82.6489 117.589 82.006 117.589 80.8238C117.589 79.6415 117.133 78.9778 116.303 78.9778C115.453 78.9778 115.007 79.6312 115.007 80.8238C115.007 81.9956 115.463 82.6489 116.303 82.6489ZM121.25 85.8741H119.923V78.0341H121.25V78.6667C121.603 78.1586 122.101 77.8786 122.713 77.8786C124.164 77.8786 125.056 78.9882 125.056 80.803C125.056 82.6904 124.144 83.7482 122.713 83.7482C122.101 83.7482 121.593 83.4889 121.25 82.9912V85.8741ZM122.474 78.9778C121.676 78.9778 121.25 79.6208 121.25 80.803C121.25 81.9852 121.696 82.6489 122.474 82.6489C123.262 82.6489 123.687 81.9956 123.687 80.803C123.687 79.6312 123.252 78.9778 122.474 78.9778Z" fill="white"/>
        <path d="M0 93.3334L320 93.3333" stroke="#334155" stroke-width="0.740741"/>
        <path d="M103.704 93.3334L125.926 93.3334" stroke="white" stroke-width="0.740741"/>
        <path d="M18.2639 9.80892H17.4106C17.1883 9.07115 16.5572 8.66226 15.7839 8.66226C14.6017 8.66226 13.8994 9.5867 13.8994 11.0978C13.8994 12.6089 14.5928 13.5156 15.7839 13.5156C16.5306 13.5156 17.135 13.1334 17.3928 12.4045H18.255C17.9172 13.5511 16.9306 14.2178 15.775 14.2178C14.0861 14.2178 13.0639 13.0356 13.0639 11.0978C13.0639 9.16892 14.1039 7.96003 15.8106 7.96003C16.975 7.96003 17.9706 8.60003 18.2639 9.80892ZM19.2653 14.1111V9.39115H20.0476V10.12C20.3676 9.54226 20.8742 9.27559 21.4431 9.27559C21.6298 9.27559 21.7987 9.32003 21.8876 9.39115V10.0934C21.7542 10.0489 21.5853 10.0311 21.3987 10.0311C20.4565 10.0311 20.0476 10.6178 20.0476 11.4711V14.1111H19.2653ZM24.4145 14.2178C23.0634 14.2178 22.2545 13.2934 22.2545 11.7556C22.2545 10.1556 23.0901 9.27559 24.4145 9.27559C25.7656 9.27559 26.5745 10.2178 26.5745 11.7556C26.5745 13.3467 25.739 14.2178 24.4145 14.2178ZM24.4145 13.5423C25.2945 13.5423 25.7745 12.9111 25.7745 11.7556C25.7745 10.6089 25.2856 9.95115 24.4145 9.95115C23.5345 9.95115 23.0545 10.5911 23.0545 11.7556C23.0545 12.8934 23.5434 13.5423 24.4145 13.5423ZM28.1591 10.6C28.1591 11.9156 31.2258 10.8311 31.2258 12.7778C31.2258 13.6578 30.4435 14.2178 29.3324 14.2178C28.2124 14.2178 27.4302 13.6845 27.2524 12.5734H28.0346C28.1413 13.2311 28.6302 13.5956 29.3591 13.5956C30.0702 13.5956 30.4435 13.2756 30.4435 12.8311C30.4435 11.5423 27.4124 12.6089 27.4124 10.6534C27.4124 9.93337 27.9724 9.27559 29.128 9.27559C30.1502 9.27559 30.9058 9.75559 31.0569 10.9289H30.2746C30.1591 10.1911 29.7502 9.91559 29.0835 9.91559C28.4969 9.91559 28.1591 10.2089 28.1591 10.6ZM32.7337 10.6C32.7337 11.9156 35.8004 10.8311 35.8004 12.7778C35.8004 13.6578 35.0182 14.2178 33.9071 14.2178C32.7871 14.2178 32.0049 13.6845 31.8271 12.5734H32.6093C32.716 13.2311 33.2049 13.5956 33.9337 13.5956C34.6449 13.5956 35.0182 13.2756 35.0182 12.8311C35.0182 11.5423 31.9871 12.6089 31.9871 10.6534C31.9871 9.93337 32.5471 9.27559 33.7026 9.27559C34.7249 9.27559 35.4804 9.75559 35.6315 10.9289H34.8493C34.7337 10.1911 34.3249 9.91559 33.6582 9.91559C33.0715 9.91559 32.7337 10.2089 32.7337 10.6Z" fill="white"/>
        <path d="M12.5928 18.5927H36.5928" stroke="#64748B" stroke-width="0.740741" stroke-dasharray="1.48 1.48"/>
        <path d="M46.9629 11.1111L49.9259 14.0741L52.8888 11.1111" stroke="#64748B" stroke-width="1.11111" stroke-linecap="round" stroke-linejoin="round"/>
        <path d="M75.2798 14.8519V8.80748H76.0976V14.1853H79.1376V14.8519H75.2798ZM84.1238 13.3142C83.866 14.4164 83.0749 14.9586 81.9993 14.9586C80.6304 14.9586 79.8038 14.0342 79.8038 12.4964C79.8038 10.8964 80.6304 10.0164 81.9549 10.0164C83.2882 10.0164 84.0882 10.9319 84.0882 12.4342V12.6297H80.6038C80.6482 13.6875 81.146 14.283 81.9993 14.283C82.666 14.283 83.1371 13.963 83.306 13.3142H84.1238ZM81.9549 10.6919C81.1993 10.6919 80.746 11.163 80.6304 12.043H83.2704C83.1638 11.1719 82.6927 10.6919 81.9549 10.6919ZM86.226 14.8519L84.466 10.1319H85.3104L86.6171 13.7942L86.7327 14.203L86.8482 13.7942L88.1549 10.1319H88.946L87.186 14.8519H86.226ZM93.6897 13.3142C93.432 14.4164 92.6409 14.9586 91.5653 14.9586C90.1964 14.9586 89.3697 14.0342 89.3697 12.4964C89.3697 10.8964 90.1964 10.0164 91.5209 10.0164C92.8542 10.0164 93.6542 10.9319 93.6542 12.4342V12.6297H90.1697C90.2142 13.6875 90.712 14.283 91.5653 14.283C92.232 14.283 92.7031 13.963 92.872 13.3142H93.6897ZM91.5209 10.6919C90.7653 10.6919 90.312 11.163 90.1964 12.043H92.8364C92.7297 11.1719 92.2586 10.6919 91.5209 10.6919ZM94.6966 14.8519V10.1319H95.4788V10.8608C95.7988 10.283 96.3054 10.0164 96.8743 10.0164C97.061 10.0164 97.2299 10.0608 97.3188 10.1319V10.8342C97.1854 10.7897 97.0166 10.7719 96.8299 10.7719C95.8877 10.7719 95.4788 11.3586 95.4788 12.2119V14.8519H94.6966ZM98.6457 11.6697H97.8635C98.0146 10.6297 98.6991 10.0164 99.8546 10.0164C101.117 10.0164 101.73 10.7542 101.73 11.8564V13.7142C101.73 14.2564 101.775 14.5942 101.899 14.8519H101.072C100.983 14.6653 100.957 14.3897 100.948 14.1053C100.548 14.7008 99.9079 14.9586 99.3391 14.9586C98.3613 14.9586 97.7035 14.5053 97.7035 13.6075C97.7035 12.9586 98.0591 12.4875 98.7524 12.2564C99.3924 12.043 100.041 11.9897 100.948 11.9808V11.8742C100.948 11.1097 100.592 10.6919 99.7835 10.6919C99.1079 10.6919 98.7435 11.0653 98.6457 11.6697ZM98.5035 13.5897C98.5035 14.0253 98.8679 14.283 99.4191 14.283C100.29 14.283 100.948 13.5986 100.948 12.7897V12.5675C98.9391 12.5853 98.5035 13.0119 98.5035 13.5897ZM104.693 14.8875C103.493 14.8875 102.773 13.9719 102.773 12.4608C102.773 10.8786 103.51 10.0164 104.693 10.0164C105.324 10.0164 105.795 10.2386 106.106 10.6475V10.1319H106.888V14.9942C106.888 16.3097 106.044 16.923 104.959 16.923C103.848 16.923 103.066 16.3897 102.897 15.3142H103.679C103.777 15.9364 104.266 16.2742 104.95 16.2742C105.644 16.2742 106.106 15.9008 106.106 15.0208V14.2119C105.777 14.6564 105.297 14.8875 104.693 14.8875ZM104.835 14.2119C105.661 14.2119 106.106 13.5897 106.106 12.4519C106.106 11.3408 105.644 10.6919 104.835 10.6919C104.017 10.6919 103.573 11.3142 103.573 12.4608C103.573 13.5719 104.026 14.2119 104.835 14.2119ZM112.223 13.3142C111.965 14.4164 111.174 14.9586 110.098 14.9586C108.729 14.9586 107.903 14.0342 107.903 12.4964C107.903 10.8964 108.729 10.0164 110.054 10.0164C111.387 10.0164 112.187 10.9319 112.187 12.4342V12.6297H108.703C108.747 13.6875 109.245 14.283 110.098 14.283C110.765 14.283 111.236 13.963 111.405 13.3142H112.223ZM110.054 10.6919C109.298 10.6919 108.845 11.163 108.729 12.043H111.369C111.263 11.1719 110.792 10.6919 110.054 10.6919ZM113.141 11.5186V10.5497H114.101V11.5186H113.141ZM113.141 14.8519V13.8919H114.101V14.8519H113.141Z" fill="white"/>
        <path d="M128.941 12.9408C128.941 14.1053 128.176 14.9853 126.754 14.9853C125.456 14.9853 124.63 14.3008 124.47 13.1897H125.607C125.705 13.7142 126.078 14.043 126.745 14.043C127.438 14.043 127.803 13.6342 127.803 12.9497C127.803 12.363 127.518 11.8297 126.727 11.8297C126.212 11.8297 125.892 12.0608 125.714 12.3364L124.692 12.2386L124.87 9.13637H128.647V10.0164H125.794L125.723 11.2075C126.016 11.0208 126.363 10.9053 126.825 10.9053C128.318 10.9053 128.941 11.8297 128.941 12.9408ZM129.698 14.8519V13.5986H130.951V14.8519H129.698ZM133.974 14.9853C132.534 14.9853 131.69 13.8742 131.69 11.9986C131.69 10.0875 132.543 9.00304 133.974 9.00304C135.414 9.00304 136.259 10.1142 136.259 11.9986C136.259 13.9008 135.406 14.9853 133.974 14.9853ZM133.974 14.0253C134.694 14.0253 135.086 13.3053 135.086 11.9986C135.086 10.6919 134.686 9.96304 133.974 9.96304C133.246 9.96304 132.854 10.683 132.854 11.9986C132.854 13.2875 133.254 14.0253 133.974 14.0253ZM139.096 14.9853C137.656 14.9853 136.811 13.8742 136.811 11.9986C136.811 10.0875 137.665 9.00304 139.096 9.00304C140.536 9.00304 141.38 10.1142 141.38 11.9986C141.38 13.9008 140.527 14.9853 139.096 14.9853ZM139.096 14.0253C139.816 14.0253 140.207 13.3053 140.207 11.9986C140.207 10.6919 139.807 9.96304 139.096 9.96304C138.367 9.96304 137.976 10.683 137.976 11.9986C137.976 13.2875 138.376 14.0253 139.096 14.0253ZM145.133 14.8519L144.244 13.5186L144.022 13.0919L143.791 13.5186L142.929 14.8519H141.702L143.4 12.3897L141.826 10.0875H143.169L143.924 11.2519L144.155 11.6875L144.386 11.2519L145.133 10.0875H146.351L144.777 12.3897L146.475 14.8519H145.133Z" fill="#64748B"/>
        <path d="M152.815 14.4446H158.001" stroke="#64748B" stroke-width="0.740741" stroke-linecap="round" stroke-linejoin="round"/>
        <path d="M152.815 12.9631V11.4816L156.098 8.43363C156.195 8.34326 156.347 8.34606 156.44 8.43998L157.339 9.33805C157.432 9.43196 157.435 9.58333 157.345 9.68066L154.297 12.9631H152.815Z" stroke="#64748B" stroke-width="0.740741" stroke-linecap="round" stroke-linejoin="round"/>
        <path d="M14.1987 117.148V111.797H12.1276V111.104H17.0876V111.797H15.0165V117.148H14.1987ZM17.5437 117.148V112.428H18.3259V113.157C18.6459 112.579 19.1526 112.313 19.7215 112.313C19.9082 112.313 20.0771 112.357 20.1659 112.428V113.13C20.0326 113.086 19.8637 113.068 19.6771 113.068C18.7348 113.068 18.3259 113.655 18.3259 114.508V117.148H17.5437ZM20.8597 111.797V110.748H21.6419V111.797H20.8597ZM20.8597 117.148V112.428H21.6419V117.148H20.8597ZM24.5623 117.184C23.3623 117.184 22.6423 116.268 22.6423 114.757C22.6423 113.175 23.38 112.313 24.5623 112.313C25.1934 112.313 25.6645 112.535 25.9756 112.944V112.428H26.7578V117.29C26.7578 118.606 25.9134 119.219 24.8289 119.219C23.7178 119.219 22.9356 118.686 22.7667 117.61H23.5489C23.6467 118.233 24.1356 118.57 24.82 118.57C25.5134 118.57 25.9756 118.197 25.9756 117.317V116.508C25.6467 116.953 25.1667 117.184 24.5623 117.184ZM24.7045 116.508C25.5311 116.508 25.9756 115.886 25.9756 114.748C25.9756 113.637 25.5134 112.988 24.7045 112.988C23.8867 112.988 23.4423 113.61 23.4423 114.757C23.4423 115.868 23.8956 116.508 24.7045 116.508ZM29.6925 117.184C28.4925 117.184 27.7725 116.268 27.7725 114.757C27.7725 113.175 28.5102 112.313 29.6925 112.313C30.3236 112.313 30.7947 112.535 31.1058 112.944V112.428H31.888V117.29C31.888 118.606 31.0436 119.219 29.9591 119.219C28.848 119.219 28.0658 118.686 27.8969 117.61H28.6791C28.7769 118.233 29.2658 118.57 29.9502 118.57C30.6436 118.57 31.1058 118.197 31.1058 117.317V116.508C30.7769 116.953 30.2969 117.184 29.6925 117.184ZM29.8347 116.508C30.6614 116.508 31.1058 115.886 31.1058 114.748C31.1058 113.637 30.6436 112.988 29.8347 112.988C29.0169 112.988 28.5725 113.61 28.5725 114.757C28.5725 115.868 29.0258 116.508 29.8347 116.508ZM37.2227 115.61C36.9649 116.713 36.1738 117.255 35.0982 117.255C33.7293 117.255 32.9027 116.33 32.9027 114.793C32.9027 113.193 33.7293 112.313 35.0538 112.313C36.3871 112.313 37.1871 113.228 37.1871 114.73V114.926H33.7027C33.7471 115.984 34.2449 116.579 35.0982 116.579C35.7649 116.579 36.236 116.259 36.4049 115.61H37.2227ZM35.0538 112.988C34.2982 112.988 33.8449 113.459 33.7293 114.339H36.3693C36.2627 113.468 35.7916 112.988 35.0538 112.988ZM38.2295 117.148V112.428H39.0117V113.157C39.3317 112.579 39.8384 112.313 40.4073 112.313C40.5939 112.313 40.7628 112.357 40.8517 112.428V113.13C40.7184 113.086 40.5495 113.068 40.3628 113.068C39.4206 113.068 39.0117 113.655 39.0117 114.508V117.148H38.2295ZM43.3961 117.148V111.104H45.4672C46.8361 111.104 47.6983 111.833 47.6983 113.015C47.6983 114.233 46.8272 114.944 45.4761 114.944H44.2139V117.148H43.3961ZM45.4583 111.77H44.2139V114.277H45.4316C46.3294 114.277 46.8539 113.797 46.8539 113.024C46.8539 112.259 46.3205 111.77 45.4583 111.77ZM48.6722 117.148V112.428H49.4544V113.157C49.7744 112.579 50.2811 112.313 50.85 112.313C51.0366 112.313 51.2055 112.357 51.2944 112.428V113.13C51.1611 113.086 50.9922 113.068 50.8055 113.068C49.8633 113.068 49.4544 113.655 49.4544 114.508V117.148H48.6722ZM51.9882 111.797V110.748H52.7704V111.797H51.9882ZM51.9882 117.148V112.428H52.7704V117.148H51.9882ZM57.913 114.055H57.1307C57.0063 113.335 56.5263 112.988 55.9041 112.988C55.033 112.988 54.5707 113.628 54.5707 114.793C54.5707 115.939 55.0596 116.588 55.9307 116.588C56.5618 116.588 57.0152 116.25 57.1663 115.575H57.9485C57.7352 116.748 56.9441 117.255 55.913 117.255C54.5707 117.255 53.7707 116.322 53.7707 114.793C53.7707 113.193 54.5885 112.313 55.9041 112.313C56.9441 112.313 57.7618 112.899 57.913 114.055ZM62.9952 115.61C62.7375 116.713 61.9464 117.255 60.8708 117.255C59.5019 117.255 58.6752 116.33 58.6752 114.793C58.6752 113.193 59.5019 112.313 60.8264 112.313C62.1597 112.313 62.9597 113.228 62.9597 114.73V114.926H59.4752C59.5197 115.984 60.0175 116.579 60.8708 116.579C61.5375 116.579 62.0086 116.259 62.1775 115.61H62.9952ZM60.8264 112.988C60.0708 112.988 59.6175 113.459 59.5019 114.339H62.1419C62.0352 113.468 61.5641 112.988 60.8264 112.988ZM67.0438 118.757C66.1727 117.397 65.7193 116.073 65.7193 114.748C65.7193 113.424 66.1727 112.108 67.0438 110.748H67.8171C66.9816 112.144 66.5549 113.442 66.5549 114.748C66.5549 116.064 66.9816 117.362 67.8171 118.757H67.0438ZM73.4555 114.846C73.4555 116.339 72.531 117.255 71.0466 117.255C69.5532 117.255 68.6288 116.339 68.6288 114.846V111.104H69.4555V114.846C69.4555 115.939 70.051 116.597 71.0466 116.597C72.0421 116.597 72.6377 115.93 72.6377 114.846V111.104H73.4555V114.846ZM75.3898 112.579C75.3898 114.286 79.0965 112.962 79.0965 115.442C79.0965 116.606 78.1543 117.255 76.8654 117.255C75.5676 117.255 74.6787 116.659 74.412 115.442H75.2654C75.4609 116.162 76.0032 116.553 76.8743 116.553C77.7809 116.553 78.2609 116.153 78.2609 115.548C78.2609 113.699 74.5543 115.077 74.5543 112.633C74.5543 111.762 75.2832 110.997 76.6165 110.997C77.7809 110.997 78.7143 111.557 78.9365 112.846H78.0743C77.8876 112.046 77.372 111.699 76.5987 111.699C75.8343 111.699 75.3898 112.046 75.3898 112.579ZM80.1235 117.148V111.104H82.0968C83.9724 111.104 85.1457 112.242 85.1457 114.135C85.1457 116.028 83.9724 117.148 82.0968 117.148H80.1235ZM82.0968 116.482C83.4835 116.482 84.3102 115.61 84.3102 114.135C84.3102 112.642 83.4835 111.77 82.0968 111.77H80.9413V116.482H82.0968ZM87.4886 117.148V111.797H85.4175V111.104H90.3775V111.797H88.3064V117.148H87.4886ZM91.6141 118.757H90.8408C91.6764 117.362 92.103 116.064 92.103 114.748C92.103 113.442 91.6764 112.144 90.8408 110.748H91.6141C92.4852 112.108 92.9386 113.424 92.9386 114.748C92.9386 116.073 92.4852 117.397 91.6141 118.757Z" fill="white"/>
        <rect x="11.8521" y="124.593" width="186.667" height="32.5926" rx="5.92593" fill="#334155"/>
        <path d="M21.3837 144.889V144.64C21.3837 141.643 25.0755 141.892 25.0755 140.098C25.0755 139.341 24.6296 138.885 23.8 138.885C22.8874 138.885 22.4415 139.351 22.317 140.119H21.3733C21.5496 138.864 22.3896 138.096 23.8104 138.096C25.2622 138.096 26.0089 138.957 26.0089 140.087C26.0089 142.245 22.7111 142.224 22.3274 144.163H26.0815V144.889H21.3837ZM32.2329 143.033C32.2329 144.163 31.3825 145.013 29.7336 145.013C28.2507 145.013 27.3277 144.246 27.141 142.97H28.0744C28.1988 143.738 28.7173 144.225 29.7232 144.225C30.7603 144.225 31.2995 143.769 31.2995 142.991C31.2995 142.421 30.9988 141.809 29.4329 141.809H29.1632V141.083H29.381C30.864 141.083 31.1025 140.471 31.1025 140.005C31.1025 139.299 30.6358 138.885 29.744 138.885C28.8107 138.885 28.3336 139.351 28.2092 140.119H27.2862C27.4625 138.864 28.3232 138.096 29.7544 138.096C31.2581 138.096 32.0358 138.905 32.0358 139.994C32.0358 140.616 31.7662 141.104 31.0714 141.394C31.9321 141.716 32.2329 142.317 32.2329 143.033ZM37.3265 144.889H36.3932V143.323H33.1472V142.493L36.4865 138.221H37.3265V142.597H38.3013V143.323H37.3265V144.889ZM34.008 142.597H36.3932V139.455L34.008 142.597ZM44.2246 142.67C44.2246 144.039 43.3742 145.013 41.7461 145.013C40.2527 145.013 39.3609 144.267 39.1846 143.012H40.0972C40.2113 143.759 40.7505 144.225 41.7357 144.225C42.7831 144.225 43.312 143.645 43.312 142.68C43.312 141.902 42.9387 141.093 41.7357 141.093C40.9476 141.093 40.512 141.425 40.2631 141.799L39.4438 141.716L39.6513 138.221H43.9135V138.947H40.3772L40.2631 140.834C40.6468 140.523 41.1238 140.305 41.8083 140.305C43.5713 140.305 44.2246 141.425 44.2246 142.67ZM45.2634 144.889V143.769H46.3834V144.889H45.2634ZM47.6438 144.889V144.64C47.6438 141.643 51.3357 141.892 51.3357 140.098C51.3357 139.341 50.8897 138.885 50.0601 138.885C49.1475 138.885 48.7016 139.351 48.5771 140.119H47.6334C47.8097 138.864 48.6497 138.096 50.0705 138.096C51.5223 138.096 52.269 138.957 52.269 140.087C52.269 142.245 48.9712 142.224 48.5875 144.163H52.3416V144.889H47.6438ZM58.493 143.033C58.493 144.163 57.6426 145.013 55.9937 145.013C54.5108 145.013 53.5878 144.246 53.4011 142.97H54.3345C54.4589 143.738 54.9774 144.225 55.9834 144.225C57.0204 144.225 57.5597 143.769 57.5597 142.991C57.5597 142.421 57.2589 141.809 55.693 141.809H55.4234V141.083H55.6411C57.1241 141.083 57.3626 140.471 57.3626 140.005C57.3626 139.299 56.896 138.885 56.0041 138.885C55.0708 138.885 54.5937 139.351 54.4693 140.119H53.5463C53.7226 138.864 54.5834 138.096 56.0145 138.096C57.5182 138.096 58.296 138.905 58.296 139.994C58.296 140.616 58.0263 141.104 57.3315 141.394C58.1923 141.716 58.493 142.317 58.493 143.033Z" fill="white"/>
        <path d="M208.723 112.579C208.723 114.286 212.43 112.962 212.43 115.442C212.43 116.606 211.488 117.255 210.199 117.255C208.901 117.255 208.012 116.659 207.745 115.442H208.599C208.794 116.162 209.337 116.553 210.208 116.553C211.114 116.553 211.594 116.153 211.594 115.548C211.594 113.699 207.888 115.077 207.888 112.633C207.888 111.762 208.617 110.997 209.95 110.997C211.114 110.997 212.048 111.557 212.27 112.846H211.408C211.221 112.046 210.705 111.699 209.932 111.699C209.168 111.699 208.723 112.046 208.723 112.579ZM213.386 117.148V110.748H214.168V117.148H213.386ZM215.408 111.797V110.748H216.191V111.797H215.408ZM215.408 117.148V112.428H216.191V117.148H215.408ZM218.222 119.104H217.44V112.428H218.222V113.015C218.533 112.57 218.987 112.313 219.547 112.313C220.8 112.313 221.555 113.237 221.555 114.775C221.555 116.375 220.782 117.255 219.547 117.255C218.987 117.255 218.533 117.024 218.222 116.588V119.104ZM219.493 112.988C218.667 112.988 218.222 113.619 218.222 114.775C218.222 115.922 218.684 116.579 219.493 116.579C220.311 116.579 220.755 115.939 220.755 114.775C220.755 113.637 220.293 112.988 219.493 112.988ZM223.352 119.104H222.57V112.428H223.352V113.015C223.663 112.57 224.117 112.313 224.677 112.313C225.93 112.313 226.686 113.237 226.686 114.775C226.686 116.375 225.912 117.255 224.677 117.255C224.117 117.255 223.663 117.024 223.352 116.588V119.104ZM224.623 112.988C223.797 112.988 223.352 113.619 223.352 114.775C223.352 115.922 223.815 116.579 224.623 116.579C225.441 116.579 225.886 115.939 225.886 114.775C225.886 113.637 225.423 112.988 224.623 112.988ZM228.411 113.966H227.629C227.78 112.926 228.465 112.313 229.62 112.313C230.883 112.313 231.496 113.05 231.496 114.153V116.01C231.496 116.553 231.54 116.89 231.665 117.148H230.838C230.749 116.962 230.723 116.686 230.714 116.402C230.314 116.997 229.674 117.255 229.105 117.255C228.127 117.255 227.469 116.802 227.469 115.904C227.469 115.255 227.825 114.784 228.518 114.553C229.158 114.339 229.807 114.286 230.714 114.277V114.17C230.714 113.406 230.358 112.988 229.549 112.988C228.874 112.988 228.509 113.362 228.411 113.966ZM228.269 115.886C228.269 116.322 228.634 116.579 229.185 116.579C230.056 116.579 230.714 115.895 230.714 115.086V114.864C228.705 114.882 228.269 115.308 228.269 115.886ZM234.458 117.184C233.258 117.184 232.538 116.268 232.538 114.757C232.538 113.175 233.276 112.313 234.458 112.313C235.089 112.313 235.56 112.535 235.872 112.944V112.428H236.654V117.29C236.654 118.606 235.809 119.219 234.725 119.219C233.614 119.219 232.832 118.686 232.663 117.61H233.445C233.543 118.233 234.032 118.57 234.716 118.57C235.409 118.57 235.872 118.197 235.872 117.317V116.508C235.543 116.953 235.063 117.184 234.458 117.184ZM234.6 116.508C235.427 116.508 235.872 115.886 235.872 114.748C235.872 113.637 235.409 112.988 234.6 112.988C233.783 112.988 233.338 113.61 233.338 114.757C233.338 115.868 233.792 116.508 234.6 116.508ZM241.988 115.61C241.731 116.713 240.94 117.255 239.864 117.255C238.495 117.255 237.668 116.33 237.668 114.793C237.668 113.193 238.495 112.313 239.82 112.313C241.153 112.313 241.953 113.228 241.953 114.73V114.926H238.468C238.513 115.984 239.011 116.579 239.864 116.579C240.531 116.579 241.002 116.259 241.171 115.61H241.988ZM239.82 112.988C239.064 112.988 238.611 113.459 238.495 114.339H241.135C241.028 113.468 240.557 112.988 239.82 112.988ZM244.257 118.757C243.386 117.397 242.933 116.073 242.933 114.748C242.933 113.424 243.386 112.108 244.257 110.748H245.031C244.195 112.144 243.769 113.442 243.769 114.748C243.769 116.064 244.195 117.362 245.031 118.757H244.257ZM246.749 114.544C245.887 114.544 245.38 113.957 245.38 112.944C245.38 111.913 245.896 111.326 246.749 111.326C247.611 111.326 248.118 111.93 248.118 112.944C248.118 113.966 247.611 114.544 246.749 114.544ZM246.242 117.148L250.367 111.433H251.149L247.025 117.148H246.242ZM246.749 113.975C247.185 113.975 247.425 113.61 247.425 112.944C247.425 112.277 247.185 111.904 246.749 111.904C246.314 111.904 246.082 112.268 246.082 112.944C246.082 113.602 246.322 113.975 246.749 113.975ZM250.634 117.219C249.771 117.219 249.265 116.624 249.265 115.619C249.265 114.588 249.78 114.002 250.634 114.002C251.496 114.002 252.002 114.597 252.002 115.619C252.002 116.642 251.496 117.219 250.634 117.219ZM250.634 116.65C251.069 116.65 251.309 116.286 251.309 115.619C251.309 114.953 251.069 114.579 250.634 114.579C250.198 114.579 249.967 114.944 249.967 115.619C249.967 116.277 250.207 116.65 250.634 116.65ZM253.133 118.757H252.36C253.196 117.362 253.622 116.064 253.622 114.748C253.622 113.442 253.196 112.144 252.36 110.748H253.133C254.004 112.108 254.458 113.424 254.458 114.748C254.458 116.073 254.004 117.397 253.133 118.757Z" fill="white"/>
        <rect x="207.408" y="124.593" width="100.741" height="32.5926" rx="5.92593" fill="#334155"/>
        <path d="M217.727 144.889V144.163H219.003V139.496H217.727V138.77H218.485C219.024 138.77 219.159 138.646 219.159 138.345V138.221H219.957V144.163H221.233V144.889H217.727Z" fill="white"/>
    </g>
    <defs>
        <filter id="filter0_b_2758_3431" x="-2.96296" y="-2.96296" width="325.926" height="324.926" filterUnits="userSpaceOnUse" color-interpolation-filters="sRGB">
            <feFlood flood-opacity="0" result="BackgroundImageFix"/>
            <feGaussianBlur in="BackgroundImageFix" stdDeviation="1.48148"/>
            <feComposite in2="SourceAlpha" operator="in" result="effect1_backgroundBlur_2758_3431"/>
            <feBlend mode="normal" in="SourceGraphic" in2="effect1_backgroundBlur_2758_3431" result="shape"/>
        </filter>
        <clipPath id="clip0_2758_3431">
            <rect width="320" height="206" fill="white"/>
        </clipPath>
        <clipPath id="clip1_2758_3431">
            <rect x="162.963" y="31.1111" width="145.185" height="23.7037" rx="8.88889" fill="white"/>
        </clipPath>
    </defs>
</svg>
