<svg width="320" height="206" viewBox="0 0 320 206" fill="none" xmlns="http://www.w3.org/2000/svg">
    <g clip-path="url(#clip0_3234_966)">
        <g filter="url(#filter0_b_3234_966)">
            <path d="M0 24C0 12.6863 0 7.02944 3.51472 3.51472C7.02944 0 12.6863 0 24 0H296C307.314 0 312.971 0 316.485 3.51472C320 7.02944 320 12.6863 320 24V319H0V24Z" fill="#1E293B"/>
            <path d="M0.37037 24C0.37037 18.3327 0.371157 14.1194 0.806408 10.8821C1.24023 7.65539 2.09954 5.45368 3.77661 3.77661C5.45368 2.09954 7.65539 1.24023 10.8821 0.806408C14.1194 0.371157 18.3327 0.37037 24 0.37037H296C301.667 0.37037 305.881 0.371157 309.118 0.806408C312.345 1.24023 314.546 2.09954 316.223 3.77661C317.9 5.45368 318.76 7.65539 319.194 10.8821C319.629 14.1194 319.63 18.3327 319.63 24V318.63H0.37037V24Z" stroke="#1E293B" stroke-width="0.740741"/>
        </g>
        <path d="M12.5449 186.704V180.659H13.6738L15.5316 185.095L15.7093 185.637L15.896 185.095L17.7449 180.659H18.8382V186.704H18.0205V181.646L17.5938 182.837L15.976 186.704H15.3982L13.7805 182.828L13.3627 181.673V186.704H12.5449ZM20.8761 183.522H20.0939C20.245 182.482 20.9294 181.868 22.085 181.868C23.3472 181.868 23.9605 182.606 23.9605 183.708V185.566C23.9605 186.108 24.005 186.446 24.1294 186.704H23.3027C23.2139 186.517 23.1872 186.242 23.1783 185.957C22.7783 186.553 22.1383 186.81 21.5694 186.81C20.5916 186.81 19.9339 186.357 19.9339 185.459C19.9339 184.81 20.2894 184.339 20.9827 184.108C21.6227 183.895 22.2716 183.842 23.1783 183.833V183.726C23.1783 182.962 22.8227 182.544 22.0139 182.544C21.3383 182.544 20.9739 182.917 20.8761 183.522ZM20.7339 185.442C20.7339 185.877 21.0983 186.135 21.6494 186.135C22.5205 186.135 23.1783 185.45 23.1783 184.642V184.419C21.1694 184.437 20.7339 184.864 20.7339 185.442ZM25.2429 186.704V181.984H26.0251V182.713C26.3451 182.135 26.8518 181.868 27.4207 181.868C27.6073 181.868 27.7762 181.913 27.8651 181.984V182.686C27.7318 182.642 27.5629 182.624 27.3762 182.624C26.434 182.624 26.0251 183.21 26.0251 184.064V186.704H25.2429ZM28.5589 186.704V180.304H29.3411V184.01L31.3766 181.984H32.3366L30.1855 184.09L32.4611 186.704H31.4655L29.3411 184.295V186.704H28.5589ZM36.901 185.166C36.6432 186.268 35.8521 186.81 34.7766 186.81C33.4077 186.81 32.581 185.886 32.581 184.348C32.581 182.748 33.4077 181.868 34.7321 181.868C36.0655 181.868 36.8655 182.784 36.8655 184.286V184.482H33.381C33.4255 185.539 33.9232 186.135 34.7766 186.135C35.4432 186.135 35.9143 185.815 36.0832 185.166H36.901ZM34.7321 182.544C33.9766 182.544 33.5232 183.015 33.4077 183.895H36.0477C35.941 183.024 35.4699 182.544 34.7321 182.544ZM38.0145 185.344V182.606H37.3567V181.984H38.0145V180.899H38.7967V181.984H39.8367V182.606H38.7967V185.344C38.7967 185.913 38.9656 186.179 39.6589 186.179H39.8189V186.739C39.73 186.784 39.5345 186.81 39.3123 186.81C38.4323 186.81 38.0145 186.339 38.0145 185.344ZM44.2809 186.81C42.9298 186.81 42.1209 185.886 42.1209 184.348C42.1209 182.748 42.9565 181.868 44.2809 181.868C45.632 181.868 46.4409 182.81 46.4409 184.348C46.4409 185.939 45.6054 186.81 44.2809 186.81ZM44.2809 186.135C45.1609 186.135 45.6409 185.504 45.6409 184.348C45.6409 183.202 45.152 182.544 44.2809 182.544C43.4009 182.544 42.9209 183.184 42.9209 184.348C42.9209 185.486 43.4098 186.135 44.2809 186.135ZM47.4477 186.704V181.984H48.23V182.713C48.55 182.135 49.0566 181.868 49.6255 181.868C49.8122 181.868 49.9811 181.913 50.07 181.984V182.686C49.9366 182.642 49.7677 182.624 49.5811 182.624C48.6389 182.624 48.23 183.21 48.23 184.064V186.704H47.4477ZM52.4458 186.81C51.1925 186.81 50.4369 185.886 50.4369 184.348C50.4369 182.748 51.2102 181.868 52.4458 181.868C53.0058 181.868 53.4591 182.099 53.7702 182.535V180.304H54.5525V186.704H53.7702V186.108C53.4591 186.553 53.0058 186.81 52.4458 186.81ZM52.4991 186.135C53.3258 186.135 53.7702 185.504 53.7702 184.348C53.7702 183.202 53.308 182.544 52.4991 182.544C51.6814 182.544 51.2369 183.184 51.2369 184.348C51.2369 185.486 51.6991 186.135 52.4991 186.135ZM59.8784 185.166C59.6207 186.268 58.8295 186.81 57.754 186.81C56.3851 186.81 55.5584 185.886 55.5584 184.348C55.5584 182.748 56.3851 181.868 57.7095 181.868C59.0429 181.868 59.8429 182.784 59.8429 184.286V184.482H56.3584C56.4029 185.539 56.9007 186.135 57.754 186.135C58.4207 186.135 58.8918 185.815 59.0607 185.166H59.8784ZM57.7095 182.544C56.954 182.544 56.5007 183.015 56.3851 183.895H59.0251C58.9184 183.024 58.4473 182.544 57.7095 182.544ZM60.8852 186.704V181.984H61.6675V182.713C61.9875 182.135 62.4941 181.868 63.063 181.868C63.2497 181.868 63.4186 181.913 63.5075 181.984V182.686C63.3741 182.642 63.2052 182.624 63.0186 182.624C62.0764 182.624 61.6675 183.21 61.6675 184.064V186.704H60.8852ZM67.2429 188.313C66.3718 186.953 65.9185 185.628 65.9185 184.304C65.9185 182.979 66.3718 181.664 67.2429 180.304H68.0163C67.1807 181.699 66.7541 182.997 66.7541 184.304C66.7541 185.619 67.1807 186.917 68.0163 188.313H67.2429ZM73.6546 184.402C73.6546 185.895 72.7302 186.81 71.2457 186.81C69.7524 186.81 68.8279 185.895 68.8279 184.402V180.659H69.6546V184.402C69.6546 185.495 70.2502 186.153 71.2457 186.153C72.2413 186.153 72.8368 185.486 72.8368 184.402V180.659H73.6546V184.402ZM75.589 182.135C75.589 183.842 79.2957 182.517 79.2957 184.997C79.2957 186.162 78.3534 186.81 77.0645 186.81C75.7668 186.81 74.8779 186.215 74.6112 184.997H75.4645C75.6601 185.717 76.2023 186.108 77.0734 186.108C77.9801 186.108 78.4601 185.708 78.4601 185.104C78.4601 183.255 74.7534 184.633 74.7534 182.188C74.7534 181.317 75.4823 180.553 76.8157 180.553C77.9801 180.553 78.9134 181.113 79.1357 182.402H78.2734C78.0868 181.602 77.5712 181.255 76.7979 181.255C76.0334 181.255 75.589 181.602 75.589 182.135ZM80.3227 186.704V180.659H82.296C84.1716 180.659 85.3449 181.797 85.3449 183.69C85.3449 185.584 84.1716 186.704 82.296 186.704H80.3227ZM82.296 186.037C83.6827 186.037 84.5093 185.166 84.5093 183.69C84.5093 182.197 83.6827 181.326 82.296 181.326H81.1404V186.037H82.296ZM91.4984 182.402H90.645C90.4228 181.664 89.7917 181.255 89.0184 181.255C87.8361 181.255 87.1339 182.179 87.1339 183.69C87.1339 185.202 87.8273 186.108 89.0184 186.108C89.765 186.108 90.3695 185.726 90.6273 184.997H91.4895C91.1517 186.144 90.165 186.81 89.0095 186.81C87.3206 186.81 86.2984 185.628 86.2984 183.69C86.2984 181.762 87.3384 180.553 89.045 180.553C90.2095 180.553 91.205 181.193 91.4984 182.402ZM92.8376 188.313H92.0643C92.8998 186.917 93.3265 185.619 93.3265 184.304C93.3265 182.997 92.8998 181.699 92.0643 180.304H92.8376C93.7087 181.664 94.162 182.979 94.162 184.304C94.162 185.628 93.7087 186.953 92.8376 188.313Z" fill="white"/>
        <path d="M102.259 182.963L105.222 185.926L108.185 182.963" stroke="#E2E8F0" stroke-width="1.11111" stroke-linecap="round" stroke-linejoin="round"/>
        <rect x="11.8516" y="197.037" width="296.296" height="32.5926" rx="5.92593" fill="#334155"/>
        <rect x="8.88867" y="28.1482" width="302.222" height="29.6296" rx="5.92593" fill="#334155"/>
        <rect x="11.8516" y="31.1111" width="145.185" height="23.7037" rx="5.92593" fill="#22C55E"/>
        <path d="M64.8506 45.3704L67.6284 42.5926L69.4802 44.4445L73.3691 40.5556" stroke="white" stroke-width="1.11111" stroke-linecap="round" stroke-linejoin="round"/>
        <path d="M69.666 40.5556H73.3697V44.2593" stroke="white" stroke-width="1.11111" stroke-linecap="round" stroke-linejoin="round"/>
        <path d="M85.1048 46.963V39.9112H86.0589V46.1852H89.6055V46.963H85.1048ZM92.9027 47.0875C91.3264 47.0875 90.3827 46.0089 90.3827 44.2149C90.3827 42.3482 91.3576 41.3215 92.9027 41.3215C94.479 41.3215 95.4227 42.4208 95.4227 44.2149C95.4227 46.0712 94.4479 47.0875 92.9027 47.0875ZM92.9027 46.2993C93.9294 46.2993 94.4894 45.563 94.4894 44.2149C94.4894 42.8771 93.919 42.1097 92.9027 42.1097C91.8761 42.1097 91.3161 42.8563 91.3161 44.2149C91.3161 45.5423 91.8864 46.2993 92.9027 46.2993ZM96.5973 46.963V41.4563H97.5099V42.203C97.8833 41.6223 98.4848 41.3215 99.2107 41.3215C100.383 41.3215 101.077 42.006 101.077 43.2815V46.963H100.165V43.4682C100.165 42.6386 99.7914 42.0993 98.9618 42.0993C98.0492 42.0993 97.5099 42.9186 97.5099 43.7067V46.963H96.5973ZM104.492 47.0045C103.092 47.0045 102.252 45.9363 102.252 44.1734C102.252 42.3275 103.113 41.3215 104.492 41.3215C105.228 41.3215 105.778 41.5808 106.141 42.0578V41.4563H107.053V47.1289C107.053 48.6638 106.068 49.3793 104.803 49.3793C103.507 49.3793 102.594 48.7571 102.397 47.5023H103.31C103.424 48.2282 103.994 48.6223 104.793 48.6223C105.602 48.6223 106.141 48.1867 106.141 47.16V46.2163C105.757 46.7349 105.197 47.0045 104.492 47.0045ZM104.658 46.2163C105.622 46.2163 106.141 45.4904 106.141 44.163C106.141 42.8667 105.602 42.1097 104.658 42.1097C103.704 42.1097 103.185 42.8356 103.185 44.1734C103.185 45.4697 103.714 46.2163 104.658 46.2163Z" fill="white"/>
        <g clip-path="url(#clip1_3234_966)">
            <path d="M214.962 40.5556L217.74 43.3334L219.592 41.4815L223.48 45.3704" stroke="#64748B" stroke-width="1.11111" stroke-linecap="round" stroke-linejoin="round"/>
            <path d="M219.777 45.3704H223.481V41.6667" stroke="#64748B" stroke-width="1.11111" stroke-linecap="round" stroke-linejoin="round"/>
            <path d="M235.942 41.6326C235.942 43.6238 240.266 42.0786 240.266 44.9719C240.266 46.3304 239.167 47.0875 237.664 47.0875C236.149 47.0875 235.112 46.3926 234.801 44.9719H235.797C236.025 45.8119 236.658 46.2682 237.674 46.2682C238.732 46.2682 239.292 45.8015 239.292 45.0963C239.292 42.9393 234.967 44.5467 234.967 41.6949C234.967 40.6786 235.818 39.7867 237.373 39.7867C238.732 39.7867 239.821 40.44 240.08 41.9438H239.074C238.856 41.0104 238.255 40.606 237.352 40.606C236.461 40.606 235.942 41.0104 235.942 41.6326ZM241.382 46.963V39.4963H242.294V42.203C242.668 41.6223 243.269 41.3215 243.995 41.3215C245.167 41.3215 245.862 42.006 245.862 43.2815V46.963H244.949V43.4682C244.949 42.6386 244.576 42.0993 243.746 42.0993C242.834 42.0993 242.294 42.9186 242.294 43.7067V46.963H241.382ZM249.556 47.0875C247.98 47.0875 247.036 46.0089 247.036 44.2149C247.036 42.3482 248.011 41.3215 249.556 41.3215C251.133 41.3215 252.076 42.4208 252.076 44.2149C252.076 46.0712 251.101 47.0875 249.556 47.0875ZM249.556 46.2993C250.583 46.2993 251.143 45.563 251.143 44.2149C251.143 42.8771 250.573 42.1097 249.556 42.1097C248.53 42.1097 247.97 42.8563 247.97 44.2149C247.97 45.5423 248.54 46.2993 249.556 46.2993ZM253.251 46.963V41.4563H254.164V42.3067C254.537 41.6326 255.128 41.3215 255.792 41.3215C256.009 41.3215 256.206 41.3734 256.31 41.4563V42.2756C256.155 42.2238 255.958 42.203 255.74 42.203C254.641 42.203 254.164 42.8875 254.164 43.883V46.963H253.251ZM257.244 45.3763V42.1823H256.477V41.4563H257.244V40.1912H258.157V41.4563H259.37V42.1823H258.157V45.3763C258.157 46.04 258.354 46.3512 259.163 46.3512H259.349V47.0045C259.245 47.0563 259.017 47.0875 258.758 47.0875C257.731 47.0875 257.244 46.5378 257.244 45.3763Z" fill="#64748B"/>
        </g>
        <path d="M12.8682 83.5927V76.5408H14.1852L16.3527 81.7156L16.5601 82.3482L16.7778 81.7156L18.9349 76.5408H20.2104V83.5927H19.2564V77.6919L18.7586 79.0815L16.8712 83.5927H16.1971L14.3097 79.0712L13.8223 77.723V83.5927H12.8682ZM22.5879 79.8801H21.6753C21.8516 78.6667 22.6501 77.9512 23.9983 77.9512C25.4709 77.9512 26.1864 78.8119 26.1864 80.0978V82.2652C26.1864 82.8978 26.2383 83.2919 26.3835 83.5927H25.419C25.3153 83.3749 25.2842 83.0534 25.2738 82.7215C24.8072 83.4164 24.0605 83.7171 23.3968 83.7171C22.2561 83.7171 21.4887 83.1882 21.4887 82.1408C21.4887 81.3838 21.9035 80.8341 22.7124 80.5645C23.459 80.3156 24.2161 80.2534 25.2738 80.243V80.1186C25.2738 79.2267 24.859 78.7393 23.9153 78.7393C23.1272 78.7393 22.702 79.1749 22.5879 79.8801ZM22.422 82.1201C22.422 82.6282 22.8472 82.9289 23.4901 82.9289C24.5064 82.9289 25.2738 82.1304 25.2738 81.1867V80.9275C22.9301 80.9482 22.422 81.446 22.422 82.1201ZM27.6825 83.5927V78.086H28.5951V78.9364C28.9685 78.2623 29.5596 77.9512 30.2233 77.9512C30.441 77.9512 30.6381 78.003 30.7418 78.086V78.9052C30.5862 78.8534 30.3892 78.8327 30.1714 78.8327C29.0722 78.8327 28.5951 79.5171 28.5951 80.5127V83.5927H27.6825ZM31.5512 83.5927V76.126H32.4638V80.4504L34.8386 78.086H35.9586L33.4489 80.5438L36.1037 83.5927H34.9423L32.4638 80.7823V83.5927H31.5512ZM41.2837 81.7986C40.9829 83.0845 40.06 83.7171 38.8052 83.7171C37.2081 83.7171 36.2437 82.6386 36.2437 80.8445C36.2437 78.9778 37.2081 77.9512 38.7533 77.9512C40.3089 77.9512 41.2422 79.0193 41.2422 80.7719V81.0001H37.177C37.2289 82.2341 37.8096 82.9289 38.8052 82.9289C39.5829 82.9289 40.1326 82.5556 40.3296 81.7986H41.2837ZM38.7533 78.7393C37.8718 78.7393 37.3429 79.2889 37.2081 80.3156H40.2881C40.1637 79.2993 39.614 78.7393 38.7533 78.7393ZM42.5827 82.006V78.8119H41.8153V78.086H42.5827V76.8208H43.4953V78.086H44.7086V78.8119H43.4953V82.006C43.4953 82.6697 43.6923 82.9808 44.5012 82.9808H44.6879V83.6341C44.5842 83.686 44.3561 83.7171 44.0968 83.7171C43.0701 83.7171 42.5827 83.1675 42.5827 82.006Z" fill="#64748B"/>
        <path d="M63.9552 83.5927V76.5408H64.9092V82.8149H68.4559V83.5927H63.9552ZM69.5131 77.3497V76.126H70.4257V77.3497H69.5131ZM69.5131 83.5927V78.086H70.4257V83.5927H69.5131ZM71.8728 83.5927V78.086H72.7854V78.7912C73.138 78.2312 73.6876 77.9512 74.3617 77.9512C75.1187 77.9512 75.6683 78.283 75.9276 78.926C76.2906 78.283 76.892 77.9512 77.6283 77.9512C78.7483 77.9512 79.4224 78.6356 79.4224 79.9112V83.5927H78.5098V80.0978C78.5098 79.2682 78.178 78.7289 77.4313 78.7289C76.6017 78.7289 76.1039 79.5482 76.1039 80.3364V83.5927H75.1913V80.0978C75.1913 79.2682 74.8594 78.7289 74.1128 78.7289C73.2831 78.7289 72.7854 79.5482 72.7854 80.3364V83.5927H71.8728ZM80.876 77.3497V76.126H81.7885V77.3497H80.876ZM80.876 83.5927V78.086H81.7885V83.5927H80.876ZM83.3601 82.006V78.8119H82.5927V78.086H83.3601V76.8208H84.2727V78.086H85.486V78.8119H84.2727V82.006C84.2727 82.6697 84.4697 82.9808 85.2786 82.9808H85.4652V83.6341C85.3615 83.686 85.1334 83.7171 84.8741 83.7171C83.8475 83.7171 83.3601 83.1675 83.3601 82.006Z" fill="#64748B"/>
        <path d="M105.288 78.3141C105.288 80.0045 109.508 78.6356 109.508 81.5186C109.508 82.9393 108.347 83.7482 106.75 83.7482C105.143 83.7482 104.002 83.0015 103.732 81.4667H105.194C105.371 82.2134 105.91 82.6282 106.76 82.6282C107.631 82.6282 108.077 82.2652 108.077 81.6949C108.077 79.9008 103.867 81.2489 103.867 78.4386C103.867 77.3186 104.79 76.3852 106.46 76.3852C107.88 76.3852 109.083 77.0697 109.311 78.6564H107.828C107.663 77.8682 107.175 77.5052 106.418 77.5052C105.713 77.5052 105.288 77.8267 105.288 78.3141ZM110.62 81.8608V79.0608H109.904V78.0341H110.62V76.7586H111.947V78.0341H113.119V79.0608H111.947V81.7467C111.947 82.3275 112.113 82.6386 112.849 82.6386H113.098V83.6134C112.953 83.686 112.652 83.7482 112.289 83.7482C111.159 83.7482 110.62 83.1052 110.62 81.8608ZM116.303 83.7482C114.654 83.7482 113.637 82.6386 113.637 80.8238C113.637 78.9364 114.685 77.8786 116.303 77.8786C117.941 77.8786 118.957 78.9986 118.957 80.8238C118.957 82.6904 117.91 83.7482 116.303 83.7482ZM116.303 82.6489C117.143 82.6489 117.589 82.006 117.589 80.8238C117.589 79.6415 117.132 78.9778 116.303 78.9778C115.452 78.9778 115.006 79.6312 115.006 80.8238C115.006 81.9956 115.463 82.6489 116.303 82.6489ZM121.25 85.8741H119.922V78.0341H121.25V78.6667C121.602 78.1586 122.1 77.8786 122.712 77.8786C124.164 77.8786 125.056 78.9882 125.056 80.803C125.056 82.6904 124.143 83.7482 122.712 83.7482C122.1 83.7482 121.592 83.4889 121.25 82.9912V85.8741ZM122.474 78.9778C121.675 78.9778 121.25 79.6208 121.25 80.803C121.25 81.9852 121.696 82.6489 122.474 82.6489C123.262 82.6489 123.687 81.9956 123.687 80.803C123.687 79.6312 123.251 78.9778 122.474 78.9778Z" fill="white"/>
        <path d="M0 93.3334L320 93.3333" stroke="#334155" stroke-width="0.740741"/>
        <path d="M103.704 93.3334L125.926 93.3334" stroke="white" stroke-width="0.740741"/>
        <path d="M18.2639 9.80892H17.4106C17.1883 9.07115 16.5572 8.66226 15.7839 8.66226C14.6017 8.66226 13.8994 9.5867 13.8994 11.0978C13.8994 12.6089 14.5928 13.5156 15.7839 13.5156C16.5306 13.5156 17.135 13.1334 17.3928 12.4045H18.255C17.9172 13.5511 16.9306 14.2178 15.775 14.2178C14.0861 14.2178 13.0639 13.0356 13.0639 11.0978C13.0639 9.16892 14.1039 7.96003 15.8106 7.96003C16.975 7.96003 17.9706 8.60003 18.2639 9.80892ZM19.2653 14.1111V9.39115H20.0476V10.12C20.3676 9.54226 20.8742 9.27559 21.4431 9.27559C21.6298 9.27559 21.7987 9.32003 21.8876 9.39115V10.0934C21.7542 10.0489 21.5853 10.0311 21.3987 10.0311C20.4565 10.0311 20.0476 10.6178 20.0476 11.4711V14.1111H19.2653ZM24.4145 14.2178C23.0634 14.2178 22.2545 13.2934 22.2545 11.7556C22.2545 10.1556 23.0901 9.27559 24.4145 9.27559C25.7656 9.27559 26.5745 10.2178 26.5745 11.7556C26.5745 13.3467 25.739 14.2178 24.4145 14.2178ZM24.4145 13.5423C25.2945 13.5423 25.7745 12.9111 25.7745 11.7556C25.7745 10.6089 25.2856 9.95115 24.4145 9.95115C23.5345 9.95115 23.0545 10.5911 23.0545 11.7556C23.0545 12.8934 23.5434 13.5423 24.4145 13.5423ZM28.1591 10.6C28.1591 11.9156 31.2258 10.8311 31.2258 12.7778C31.2258 13.6578 30.4435 14.2178 29.3324 14.2178C28.2124 14.2178 27.4302 13.6845 27.2524 12.5734H28.0346C28.1413 13.2311 28.6302 13.5956 29.3591 13.5956C30.0702 13.5956 30.4435 13.2756 30.4435 12.8311C30.4435 11.5423 27.4124 12.6089 27.4124 10.6534C27.4124 9.93337 27.9724 9.27559 29.128 9.27559C30.1502 9.27559 30.9058 9.75559 31.0569 10.9289H30.2746C30.1591 10.1911 29.7502 9.91559 29.0835 9.91559C28.4969 9.91559 28.1591 10.2089 28.1591 10.6ZM32.7337 10.6C32.7337 11.9156 35.8004 10.8311 35.8004 12.7778C35.8004 13.6578 35.0182 14.2178 33.9071 14.2178C32.7871 14.2178 32.0049 13.6845 31.8271 12.5734H32.6093C32.716 13.2311 33.2049 13.5956 33.9337 13.5956C34.6449 13.5956 35.0182 13.2756 35.0182 12.8311C35.0182 11.5423 31.9871 12.6089 31.9871 10.6534C31.9871 9.93337 32.5471 9.27559 33.7026 9.27559C34.7249 9.27559 35.4804 9.75559 35.6315 10.9289H34.8493C34.7337 10.1911 34.3249 9.91559 33.6582 9.91559C33.0715 9.91559 32.7337 10.2089 32.7337 10.6Z" fill="white"/>
        <path d="M12.5928 18.5927H36.5928" stroke="#64748B" stroke-width="0.740741" stroke-dasharray="1.48 1.48"/>
        <path d="M46.9629 11.1111L49.9259 14.0741L52.8888 11.1111" stroke="#64748B" stroke-width="1.11111" stroke-linecap="round" stroke-linejoin="round"/>
        <path d="M75.2798 14.8519V8.80748H76.0976V14.1853H79.1376V14.8519H75.2798ZM84.1238 13.3142C83.866 14.4164 83.0749 14.9586 81.9993 14.9586C80.6304 14.9586 79.8038 14.0342 79.8038 12.4964C79.8038 10.8964 80.6304 10.0164 81.9549 10.0164C83.2882 10.0164 84.0882 10.9319 84.0882 12.4342V12.6297H80.6038C80.6482 13.6875 81.146 14.283 81.9993 14.283C82.666 14.283 83.1371 13.963 83.306 13.3142H84.1238ZM81.9549 10.6919C81.1993 10.6919 80.746 11.163 80.6304 12.043H83.2704C83.1638 11.1719 82.6927 10.6919 81.9549 10.6919ZM86.226 14.8519L84.466 10.1319H85.3104L86.6171 13.7942L86.7327 14.203L86.8482 13.7942L88.1549 10.1319H88.946L87.186 14.8519H86.226ZM93.6897 13.3142C93.432 14.4164 92.6409 14.9586 91.5653 14.9586C90.1964 14.9586 89.3697 14.0342 89.3697 12.4964C89.3697 10.8964 90.1964 10.0164 91.5209 10.0164C92.8542 10.0164 93.6542 10.9319 93.6542 12.4342V12.6297H90.1697C90.2142 13.6875 90.712 14.283 91.5653 14.283C92.232 14.283 92.7031 13.963 92.872 13.3142H93.6897ZM91.5209 10.6919C90.7653 10.6919 90.312 11.163 90.1964 12.043H92.8364C92.7297 11.1719 92.2586 10.6919 91.5209 10.6919ZM94.6966 14.8519V10.1319H95.4788V10.8608C95.7988 10.283 96.3054 10.0164 96.8743 10.0164C97.061 10.0164 97.2299 10.0608 97.3188 10.1319V10.8342C97.1854 10.7897 97.0166 10.7719 96.8299 10.7719C95.8877 10.7719 95.4788 11.3586 95.4788 12.2119V14.8519H94.6966ZM98.6457 11.6697H97.8635C98.0146 10.6297 98.6991 10.0164 99.8546 10.0164C101.117 10.0164 101.73 10.7542 101.73 11.8564V13.7142C101.73 14.2564 101.775 14.5942 101.899 14.8519H101.072C100.983 14.6653 100.957 14.3897 100.948 14.1053C100.548 14.7008 99.9079 14.9586 99.3391 14.9586C98.3613 14.9586 97.7035 14.5053 97.7035 13.6075C97.7035 12.9586 98.0591 12.4875 98.7524 12.2564C99.3924 12.043 100.041 11.9897 100.948 11.9808V11.8742C100.948 11.1097 100.592 10.6919 99.7835 10.6919C99.1079 10.6919 98.7435 11.0653 98.6457 11.6697ZM98.5035 13.5897C98.5035 14.0253 98.8679 14.283 99.4191 14.283C100.29 14.283 100.948 13.5986 100.948 12.7897V12.5675C98.9391 12.5853 98.5035 13.0119 98.5035 13.5897ZM104.693 14.8875C103.493 14.8875 102.773 13.9719 102.773 12.4608C102.773 10.8786 103.51 10.0164 104.693 10.0164C105.324 10.0164 105.795 10.2386 106.106 10.6475V10.1319H106.888V14.9942C106.888 16.3097 106.044 16.923 104.959 16.923C103.848 16.923 103.066 16.3897 102.897 15.3142H103.679C103.777 15.9364 104.266 16.2742 104.95 16.2742C105.644 16.2742 106.106 15.9008 106.106 15.0208V14.2119C105.777 14.6564 105.297 14.8875 104.693 14.8875ZM104.835 14.2119C105.661 14.2119 106.106 13.5897 106.106 12.4519C106.106 11.3408 105.644 10.6919 104.835 10.6919C104.017 10.6919 103.573 11.3142 103.573 12.4608C103.573 13.5719 104.026 14.2119 104.835 14.2119ZM112.223 13.3142C111.965 14.4164 111.174 14.9586 110.098 14.9586C108.729 14.9586 107.903 14.0342 107.903 12.4964C107.903 10.8964 108.729 10.0164 110.054 10.0164C111.387 10.0164 112.187 10.9319 112.187 12.4342V12.6297H108.703C108.747 13.6875 109.245 14.283 110.098 14.283C110.765 14.283 111.236 13.963 111.405 13.3142H112.223ZM110.054 10.6919C109.298 10.6919 108.845 11.163 108.729 12.043H111.369C111.263 11.1719 110.792 10.6919 110.054 10.6919ZM113.141 11.5186V10.5497H114.101V11.5186H113.141ZM113.141 14.8519V13.8919H114.101V14.8519H113.141Z" fill="white"/>
        <path d="M128.941 12.9408C128.941 14.1053 128.176 14.9853 126.754 14.9853C125.456 14.9853 124.63 14.3008 124.47 13.1897H125.607C125.705 13.7142 126.078 14.043 126.745 14.043C127.438 14.043 127.803 13.6342 127.803 12.9497C127.803 12.363 127.518 11.8297 126.727 11.8297C126.212 11.8297 125.892 12.0608 125.714 12.3364L124.692 12.2386L124.87 9.13637H128.647V10.0164H125.794L125.723 11.2075C126.016 11.0208 126.363 10.9053 126.825 10.9053C128.318 10.9053 128.941 11.8297 128.941 12.9408ZM129.698 14.8519V13.5986H130.951V14.8519H129.698ZM133.974 14.9853C132.534 14.9853 131.69 13.8742 131.69 11.9986C131.69 10.0875 132.543 9.00304 133.974 9.00304C135.414 9.00304 136.259 10.1142 136.259 11.9986C136.259 13.9008 135.406 14.9853 133.974 14.9853ZM133.974 14.0253C134.694 14.0253 135.086 13.3053 135.086 11.9986C135.086 10.6919 134.686 9.96304 133.974 9.96304C133.246 9.96304 132.854 10.683 132.854 11.9986C132.854 13.2875 133.254 14.0253 133.974 14.0253ZM139.096 14.9853C137.656 14.9853 136.811 13.8742 136.811 11.9986C136.811 10.0875 137.665 9.00304 139.096 9.00304C140.536 9.00304 141.38 10.1142 141.38 11.9986C141.38 13.9008 140.527 14.9853 139.096 14.9853ZM139.096 14.0253C139.816 14.0253 140.207 13.3053 140.207 11.9986C140.207 10.6919 139.807 9.96304 139.096 9.96304C138.367 9.96304 137.976 10.683 137.976 11.9986C137.976 13.2875 138.376 14.0253 139.096 14.0253ZM145.133 14.8519L144.244 13.5186L144.022 13.0919L143.791 13.5186L142.929 14.8519H141.702L143.4 12.3897L141.826 10.0875H143.169L143.924 11.2519L144.155 11.6875L144.386 11.2519L145.133 10.0875H146.351L144.777 12.3897L146.475 14.8519H145.133Z" fill="#64748B"/>
        <path d="M152.814 14.4446H158" stroke="#64748B" stroke-width="0.740741" stroke-linecap="round" stroke-linejoin="round"/>
        <path d="M152.814 12.9631V11.4816L156.097 8.43363C156.194 8.34326 156.346 8.34606 156.439 8.43998L157.338 9.33805C157.431 9.43196 157.434 9.58333 157.344 9.68066L154.296 12.9631H152.814Z" stroke="#64748B" stroke-width="0.740741" stroke-linecap="round" stroke-linejoin="round"/>
        <path d="M14.1982 117.148V111.797H12.1271V111.104H17.0871V111.797H15.016V117.148H14.1982ZM17.5432 117.148V112.428H18.3255V113.157C18.6455 112.579 19.1521 112.313 19.721 112.313C19.9077 112.313 20.0766 112.357 20.1655 112.428V113.13C20.0321 113.086 19.8632 113.068 19.6766 113.068C18.7343 113.068 18.3255 113.655 18.3255 114.508V117.148H17.5432ZM20.8592 111.797V110.748H21.6414V111.797H20.8592ZM20.8592 117.148V112.428H21.6414V117.148H20.8592ZM24.5618 117.184C23.3618 117.184 22.6418 116.268 22.6418 114.757C22.6418 113.175 23.3795 112.313 24.5618 112.313C25.1929 112.313 25.664 112.535 25.9751 112.944V112.428H26.7573V117.29C26.7573 118.606 25.9129 119.219 24.8284 119.219C23.7173 119.219 22.9351 118.686 22.7662 117.61H23.5484C23.6462 118.233 24.1351 118.57 24.8195 118.57C25.5129 118.57 25.9751 118.197 25.9751 117.317V116.508C25.6462 116.953 25.1662 117.184 24.5618 117.184ZM24.704 116.508C25.5307 116.508 25.9751 115.886 25.9751 114.748C25.9751 113.637 25.5129 112.988 24.704 112.988C23.8862 112.988 23.4418 113.61 23.4418 114.757C23.4418 115.868 23.8951 116.508 24.704 116.508ZM29.692 117.184C28.492 117.184 27.772 116.268 27.772 114.757C27.772 113.175 28.5098 112.313 29.692 112.313C30.3231 112.313 30.7942 112.535 31.1053 112.944V112.428H31.8875V117.29C31.8875 118.606 31.0431 119.219 29.9586 119.219C28.8475 119.219 28.0653 118.686 27.8964 117.61H28.6786C28.7764 118.233 29.2653 118.57 29.9498 118.57C30.6431 118.57 31.1053 118.197 31.1053 117.317V116.508C30.7764 116.953 30.2964 117.184 29.692 117.184ZM29.8342 116.508C30.6609 116.508 31.1053 115.886 31.1053 114.748C31.1053 113.637 30.6431 112.988 29.8342 112.988C29.0164 112.988 28.572 113.61 28.572 114.757C28.572 115.868 29.0253 116.508 29.8342 116.508ZM37.2222 115.61C36.9644 116.713 36.1733 117.255 35.0977 117.255C33.7289 117.255 32.9022 116.33 32.9022 114.793C32.9022 113.193 33.7289 112.313 35.0533 112.313C36.3866 112.313 37.1866 113.228 37.1866 114.73V114.926H33.7022C33.7466 115.984 34.2444 116.579 35.0977 116.579C35.7644 116.579 36.2355 116.259 36.4044 115.61H37.2222ZM35.0533 112.988C34.2977 112.988 33.8444 113.459 33.7289 114.339H36.3689C36.2622 113.468 35.7911 112.988 35.0533 112.988ZM38.229 117.148V112.428H39.0112V113.157C39.3312 112.579 39.8379 112.313 40.4068 112.313C40.5934 112.313 40.7623 112.357 40.8512 112.428V113.13C40.7179 113.086 40.549 113.068 40.3623 113.068C39.4201 113.068 39.0112 113.655 39.0112 114.508V117.148H38.229ZM43.3956 117.148V111.104H45.4667C46.8356 111.104 47.6978 111.833 47.6978 113.015C47.6978 114.233 46.8267 114.944 45.4756 114.944H44.2134V117.148H43.3956ZM45.4578 111.77H44.2134V114.277H45.4311C46.3289 114.277 46.8534 113.797 46.8534 113.024C46.8534 112.259 46.32 111.77 45.4578 111.77ZM48.6717 117.148V112.428H49.4539V113.157C49.7739 112.579 50.2806 112.313 50.8495 112.313C51.0361 112.313 51.205 112.357 51.2939 112.428V113.13C51.1606 113.086 50.9917 113.068 50.805 113.068C49.8628 113.068 49.4539 113.655 49.4539 114.508V117.148H48.6717ZM51.9877 111.797V110.748H52.7699V111.797H51.9877ZM51.9877 117.148V112.428H52.7699V117.148H51.9877ZM57.9125 114.055H57.1302C57.0058 113.335 56.5258 112.988 55.9036 112.988C55.0325 112.988 54.5702 113.628 54.5702 114.793C54.5702 115.939 55.0591 116.588 55.9302 116.588C56.5614 116.588 57.0147 116.25 57.1658 115.575H57.948C57.7347 116.748 56.9436 117.255 55.9125 117.255C54.5702 117.255 53.7702 116.322 53.7702 114.793C53.7702 113.193 54.588 112.313 55.9036 112.313C56.9436 112.313 57.7614 112.899 57.9125 114.055ZM62.9948 115.61C62.737 116.713 61.9459 117.255 60.8703 117.255C59.5014 117.255 58.6748 116.33 58.6748 114.793C58.6748 113.193 59.5014 112.313 60.8259 112.313C62.1592 112.313 62.9592 113.228 62.9592 114.73V114.926H59.4748C59.5192 115.984 60.017 116.579 60.8703 116.579C61.537 116.579 62.0081 116.259 62.177 115.61H62.9948ZM60.8259 112.988C60.0703 112.988 59.617 113.459 59.5014 114.339H62.1414C62.0348 113.468 61.5636 112.988 60.8259 112.988ZM67.0433 118.757C66.1722 117.397 65.7189 116.073 65.7189 114.748C65.7189 113.424 66.1722 112.108 67.0433 110.748H67.8166C66.9811 112.144 66.5544 113.442 66.5544 114.748C66.5544 116.064 66.9811 117.362 67.8166 118.757H67.0433ZM73.455 114.846C73.455 116.339 72.5305 117.255 71.0461 117.255C69.5527 117.255 68.6283 116.339 68.6283 114.846V111.104H69.455V114.846C69.455 115.939 70.0505 116.597 71.0461 116.597C72.0416 116.597 72.6372 115.93 72.6372 114.846V111.104H73.455V114.846ZM75.3893 112.579C75.3893 114.286 79.096 112.962 79.096 115.442C79.096 116.606 78.1538 117.255 76.8649 117.255C75.5671 117.255 74.6782 116.659 74.4116 115.442H75.2649C75.4604 116.162 76.0027 116.553 76.8738 116.553C77.7804 116.553 78.2604 116.153 78.2604 115.548C78.2604 113.699 74.5538 115.077 74.5538 112.633C74.5538 111.762 75.2827 110.997 76.616 110.997C77.7804 110.997 78.7138 111.557 78.936 112.846H78.0738C77.8871 112.046 77.3716 111.699 76.5982 111.699C75.8338 111.699 75.3893 112.046 75.3893 112.579ZM80.123 117.148V111.104H82.0964C83.9719 111.104 85.1452 112.242 85.1452 114.135C85.1452 116.028 83.9719 117.148 82.0964 117.148H80.123ZM82.0964 116.482C83.483 116.482 84.3097 115.61 84.3097 114.135C84.3097 112.642 83.483 111.77 82.0964 111.77H80.9408V116.482H82.0964ZM91.2987 112.846H90.4454C90.2232 112.108 89.592 111.699 88.8187 111.699C87.6365 111.699 86.9343 112.624 86.9343 114.135C86.9343 115.646 87.6276 116.553 88.8187 116.553C89.5654 116.553 90.1698 116.17 90.4276 115.442H91.2898C90.952 116.588 89.9654 117.255 88.8098 117.255C87.1209 117.255 86.0987 116.073 86.0987 114.135C86.0987 112.206 87.1387 110.997 88.8454 110.997C90.0098 110.997 91.0054 111.637 91.2987 112.846ZM92.6379 118.757H91.8646C92.7002 117.362 93.1268 116.064 93.1268 114.748C93.1268 113.442 92.7002 112.144 91.8646 110.748H92.6379C93.5091 112.108 93.9624 113.424 93.9624 114.748C93.9624 116.073 93.5091 117.397 92.6379 118.757Z" fill="white"/>
        <rect x="11.8516" y="124.593" width="186.667" height="32.5926" rx="5.92593" fill="#334155"/>
        <path d="M21.3832 144.889V144.64C21.3832 141.643 25.075 141.892 25.075 140.098C25.075 139.341 24.6291 138.885 23.7995 138.885C22.8869 138.885 22.441 139.351 22.3165 140.119H21.3728C21.5491 138.864 22.3891 138.096 23.8099 138.096C25.2617 138.096 26.0084 138.957 26.0084 140.087C26.0084 142.245 22.7106 142.224 22.3269 144.163H26.081V144.889H21.3832ZM32.2324 143.033C32.2324 144.163 31.382 145.013 29.7331 145.013C28.2502 145.013 27.3272 144.246 27.1405 142.97H28.0739C28.1983 143.738 28.7168 144.225 29.7228 144.225C30.7598 144.225 31.2991 143.769 31.2991 142.991C31.2991 142.421 30.9983 141.809 29.4324 141.809H29.1628V141.083H29.3805C30.8635 141.083 31.102 140.471 31.102 140.005C31.102 139.299 30.6353 138.885 29.7435 138.885C28.8102 138.885 28.3331 139.351 28.2087 140.119H27.2857C27.462 138.864 28.3228 138.096 29.7539 138.096C31.2576 138.096 32.0353 138.905 32.0353 139.994C32.0353 140.616 31.7657 141.104 31.0709 141.394C31.9316 141.716 32.2324 142.317 32.2324 143.033ZM37.326 144.889H36.3927V143.323H33.1468V142.493L36.486 138.221H37.326V142.597H38.3008V143.323H37.326V144.889ZM34.0075 142.597H36.3927V139.455L34.0075 142.597ZM44.2241 142.67C44.2241 144.039 43.3737 145.013 41.7456 145.013C40.2522 145.013 39.3604 144.267 39.1841 143.012H40.0967C40.2108 143.759 40.75 144.225 41.7352 144.225C42.7826 144.225 43.3115 143.645 43.3115 142.68C43.3115 141.902 42.9382 141.093 41.7352 141.093C40.9471 141.093 40.5115 141.425 40.2626 141.799L39.4434 141.716L39.6508 138.221H43.913V138.947H40.3767L40.2626 140.834C40.6463 140.523 41.1234 140.305 41.8078 140.305C43.5708 140.305 44.2241 141.425 44.2241 142.67ZM45.2629 144.889V143.769H46.3829V144.889H45.2629ZM47.6433 144.889V144.64C47.6433 141.643 51.3352 141.892 51.3352 140.098C51.3352 139.341 50.8892 138.885 50.0596 138.885C49.147 138.885 48.7011 139.351 48.5767 140.119H47.633C47.8092 138.864 48.6492 138.096 50.07 138.096C51.5218 138.096 52.2685 138.957 52.2685 140.087C52.2685 142.245 48.9707 142.224 48.587 144.163H52.3411V144.889H47.6433ZM58.4925 143.033C58.4925 144.163 57.6421 145.013 55.9933 145.013C54.5103 145.013 53.5873 144.246 53.4007 142.97H54.334C54.4584 143.738 54.977 144.225 55.9829 144.225C57.0199 144.225 57.5592 143.769 57.5592 142.991C57.5592 142.421 57.2584 141.809 55.6925 141.809H55.4229V141.083H55.6407C57.1236 141.083 57.3621 140.471 57.3621 140.005C57.3621 139.299 56.8955 138.885 56.0036 138.885C55.0703 138.885 54.5933 139.351 54.4688 140.119H53.5458C53.7221 138.864 54.5829 138.096 56.014 138.096C57.5177 138.096 58.2955 138.905 58.2955 139.994C58.2955 140.616 58.0258 141.104 57.331 141.394C58.1918 141.716 58.4925 142.317 58.4925 143.033Z" fill="white"/>
        <path d="M208.723 112.579C208.723 114.286 212.429 112.962 212.429 115.442C212.429 116.606 211.487 117.255 210.198 117.255C208.901 117.255 208.012 116.659 207.745 115.442H208.598C208.794 116.162 209.336 116.553 210.207 116.553C211.114 116.553 211.594 116.153 211.594 115.548C211.594 113.699 207.887 115.077 207.887 112.633C207.887 111.762 208.616 110.997 209.949 110.997C211.114 110.997 212.047 111.557 212.269 112.846H211.407C211.221 112.046 210.705 111.699 209.932 111.699C209.167 111.699 208.723 112.046 208.723 112.579ZM213.385 117.148V110.748H214.168V117.148H213.385ZM215.408 111.797V110.748H216.19V111.797H215.408ZM215.408 117.148V112.428H216.19V117.148H215.408ZM218.222 119.104H217.439V112.428H218.222V113.015C218.533 112.57 218.986 112.313 219.546 112.313C220.799 112.313 221.555 113.237 221.555 114.775C221.555 116.375 220.782 117.255 219.546 117.255C218.986 117.255 218.533 117.024 218.222 116.588V119.104ZM219.493 112.988C218.666 112.988 218.222 113.619 218.222 114.775C218.222 115.922 218.684 116.579 219.493 116.579C220.31 116.579 220.755 115.939 220.755 114.775C220.755 113.637 220.293 112.988 219.493 112.988ZM223.352 119.104H222.57V112.428H223.352V113.015C223.663 112.57 224.116 112.313 224.676 112.313C225.93 112.313 226.685 113.237 226.685 114.775C226.685 116.375 225.912 117.255 224.676 117.255C224.116 117.255 223.663 117.024 223.352 116.588V119.104ZM224.623 112.988C223.796 112.988 223.352 113.619 223.352 114.775C223.352 115.922 223.814 116.579 224.623 116.579C225.441 116.579 225.885 115.939 225.885 114.775C225.885 113.637 225.423 112.988 224.623 112.988ZM228.411 113.966H227.629C227.78 112.926 228.464 112.313 229.62 112.313C230.882 112.313 231.495 113.05 231.495 114.153V116.01C231.495 116.553 231.54 116.89 231.664 117.148H230.838C230.749 116.962 230.722 116.686 230.713 116.402C230.313 116.997 229.673 117.255 229.104 117.255C228.126 117.255 227.469 116.802 227.469 115.904C227.469 115.255 227.824 114.784 228.518 114.553C229.158 114.339 229.806 114.286 230.713 114.277V114.17C230.713 113.406 230.358 112.988 229.549 112.988C228.873 112.988 228.509 113.362 228.411 113.966ZM228.269 115.886C228.269 116.322 228.633 116.579 229.184 116.579C230.055 116.579 230.713 115.895 230.713 115.086V114.864C228.704 114.882 228.269 115.308 228.269 115.886ZM234.458 117.184C233.258 117.184 232.538 116.268 232.538 114.757C232.538 113.175 233.275 112.313 234.458 112.313C235.089 112.313 235.56 112.535 235.871 112.944V112.428H236.653V117.29C236.653 118.606 235.809 119.219 234.724 119.219C233.613 119.219 232.831 118.686 232.662 117.61H233.444C233.542 118.233 234.031 118.57 234.715 118.57C235.409 118.57 235.871 118.197 235.871 117.317V116.508C235.542 116.953 235.062 117.184 234.458 117.184ZM234.6 116.508C235.427 116.508 235.871 115.886 235.871 114.748C235.871 113.637 235.409 112.988 234.6 112.988C233.782 112.988 233.338 113.61 233.338 114.757C233.338 115.868 233.791 116.508 234.6 116.508ZM241.988 115.61C241.73 116.713 240.939 117.255 239.863 117.255C238.495 117.255 237.668 116.33 237.668 114.793C237.668 113.193 238.495 112.313 239.819 112.313C241.152 112.313 241.952 113.228 241.952 114.73V114.926H238.468C238.512 115.984 239.01 116.579 239.863 116.579C240.53 116.579 241.001 116.259 241.17 115.61H241.988ZM239.819 112.988C239.063 112.988 238.61 113.459 238.495 114.339H241.135C241.028 113.468 240.557 112.988 239.819 112.988ZM244.257 118.757C243.386 117.397 242.933 116.073 242.933 114.748C242.933 113.424 243.386 112.108 244.257 110.748H245.03C244.195 112.144 243.768 113.442 243.768 114.748C243.768 116.064 244.195 117.362 245.03 118.757H244.257ZM246.749 114.544C245.886 114.544 245.38 113.957 245.38 112.944C245.38 111.913 245.895 111.326 246.749 111.326C247.611 111.326 248.118 111.93 248.118 112.944C248.118 113.966 247.611 114.544 246.749 114.544ZM246.242 117.148L250.366 111.433H251.149L247.024 117.148H246.242ZM246.749 113.975C247.184 113.975 247.424 113.61 247.424 112.944C247.424 112.277 247.184 111.904 246.749 111.904C246.313 111.904 246.082 112.268 246.082 112.944C246.082 113.602 246.322 113.975 246.749 113.975ZM250.633 117.219C249.771 117.219 249.264 116.624 249.264 115.619C249.264 114.588 249.78 114.002 250.633 114.002C251.495 114.002 252.002 114.597 252.002 115.619C252.002 116.642 251.495 117.219 250.633 117.219ZM250.633 116.65C251.069 116.65 251.309 116.286 251.309 115.619C251.309 114.953 251.069 114.579 250.633 114.579C250.198 114.579 249.966 114.944 249.966 115.619C249.966 116.277 250.206 116.65 250.633 116.65ZM253.133 118.757H252.36C253.195 117.362 253.622 116.064 253.622 114.748C253.622 113.442 253.195 112.144 252.36 110.748H253.133C254.004 112.108 254.457 113.424 254.457 114.748C254.457 116.073 254.004 117.397 253.133 118.757Z" fill="white"/>
        <rect x="207.407" y="124.593" width="100.741" height="32.5926" rx="5.92593" fill="#334155"/>
        <path d="M217.727 144.889V144.163H219.003V139.496H217.727V138.77H218.484C219.023 138.77 219.158 138.646 219.158 138.345V138.221H219.957V144.163H221.232V144.889H217.727Z" fill="white"/>
    </g>
    <defs>
        <filter id="filter0_b_3234_966" x="-2.96296" y="-2.96296" width="325.926" height="324.926" filterUnits="userSpaceOnUse" color-interpolation-filters="sRGB">
            <feFlood flood-opacity="0" result="BackgroundImageFix"/>
            <feGaussianBlur in="BackgroundImageFix" stdDeviation="1.48148"/>
            <feComposite in2="SourceAlpha" operator="in" result="effect1_backgroundBlur_3234_966"/>
            <feBlend mode="normal" in="SourceGraphic" in2="effect1_backgroundBlur_3234_966" result="shape"/>
        </filter>
        <clipPath id="clip0_3234_966">
            <rect width="320" height="206" fill="white"/>
        </clipPath>
        <clipPath id="clip1_3234_966">
            <rect x="162.963" y="31.1111" width="145.185" height="23.7037" rx="8.88889" fill="white"/>
        </clipPath>
    </defs>
</svg>
